<svg width="74" height="20" viewBox="0 0 74 20" fill="none" xmlns="http://www.w3.org/2000/svg">
<path fill-rule="evenodd" clip-rule="evenodd" d="M7.45964 0.0034129C8.11467 -0.000505778 10.0614 -0.175839 10.886 2.60718C11.4415 4.48186 12.3263 7.55266 13.5404 11.8196H14.0349C15.337 7.3211 16.2315 4.25029 16.7183 2.60718C17.5515 -0.204829 19.6345 0.00346801 20.4677 0.00346801L26.8959 0.00347603V20H20.3441V8.2157H19.9047L16.2524 20H11.323L7.67064 8.20697H7.23129V20H0.679443V0.00347603L7.45964 0.0034129ZM36.3043 0.00347603V11.7965H36.8269L41.2697 2.09918C42.1321 0.169386 43.9701 0.00347603 43.9701 0.00347603H50.3104V20H43.6217V8.20697H43.099L38.7434 17.9043C37.881 19.8254 35.9558 20 35.9558 20H29.6156V0.00347603H36.3043ZM73.4294 9.50596C72.4964 12.1499 69.5664 14.0433 66.3225 14.0433H59.3081V20H52.9476V9.50596H73.4294Z" fill="#4C1D95"/>
<path fill-rule="evenodd" clip-rule="evenodd" d="M66.6293 0.00390625H52.614C52.9476 4.45581 56.7814 8.26693 60.7503 8.26693H73.8714C74.6285 4.56688 72.0219 0.00390625 66.6293 0.00390625Z" fill="#4C1D95"/>
</svg>
