<svg width="32" height="32" viewBox="0 0 32 32" fill="none" xmlns="http://www.w3.org/2000/svg">
<path fill-rule="evenodd" clip-rule="evenodd" d="M25.5379 15.5363C25.3721 15.3927 25.1641 15.3209 24.9138 15.3209C24.5827 15.3209 24.3051 15.4319 24.0816 15.6539C23.8579 15.876 23.746 16.1483 23.746 16.4702C23.746 16.7142 23.8266 16.9058 23.9877 17.0449C24.1488 17.1843 24.359 17.2538 24.6185 17.2538C24.9407 17.2538 25.2159 17.145 25.444 16.9273C25.6722 16.7098 25.7863 16.4441 25.7863 16.1307C25.7863 15.8782 25.7033 15.6801 25.5379 15.5364L25.5379 15.5363ZM10.292 15.5364C10.1263 15.3928 9.91826 15.3209 9.66779 15.3209C9.33672 15.3209 9.05922 15.4319 8.83571 15.654C8.61192 15.876 8.50012 16.1483 8.50012 16.4702C8.50012 16.7143 8.57832 16.9058 8.73503 17.0449C8.89147 17.1843 9.09955 17.2539 9.3592 17.2539C9.69003 17.2539 9.96982 17.1474 10.1981 16.9338C10.4262 16.7207 10.5403 16.4529 10.5403 16.1307C10.5403 15.8782 10.4575 15.6801 10.292 15.5364L10.292 15.5364ZM29.7437 6H2.25653C1.01235 6 0.00012207 6.98495 0.00012207 8.19561V23.8044C0.00012207 25.0151 1.01235 26 2.25653 26H29.7437C30.9878 26 32.0001 25.0151 32.0001 23.8044V8.19561C32.0001 6.98495 30.9878 6 29.7437 6ZM4.95508 16.2873C4.92825 16.2873 4.86552 16.2831 4.76718 16.2744C4.66863 16.2657 4.58363 16.2613 4.51212 16.2613C4.44041 16.2613 4.36443 16.2678 4.28394 16.2808C4.2034 16.2938 4.13625 16.3223 4.08262 16.3658C4.02896 16.4094 3.9975 16.466 3.98868 16.5356L3.74712 17.9721C3.72907 18.1377 3.63073 18.2203 3.45181 18.2203H2.43171C2.37797 18.2203 2.33325 18.1986 2.29756 18.155C2.26166 18.1115 2.2482 18.0636 2.25727 18.0113L3.12968 12.6826C3.14753 12.5173 3.24148 12.4345 3.41153 12.4345H5.55906C6.11372 12.4345 6.56336 12.5501 6.90798 12.7806C7.25235 13.0114 7.42474 13.3836 7.42474 13.8973C7.42474 14.6462 7.20533 15.2317 6.76701 15.6539C6.32845 16.0764 5.72455 16.2873 4.95504 16.2873L4.95508 16.2873ZM12.1213 14.5621L11.5712 17.9709C11.5444 18.1364 11.4458 18.219 11.2759 18.219H10.3498C10.2335 18.219 10.1754 18.1496 10.1754 18.0101C10.1754 17.9319 10.1932 17.8404 10.2291 17.7359C10.068 17.9101 9.85323 18.0494 9.5848 18.1539C9.31637 18.2582 9.05672 18.3106 8.8063 18.3106C8.28724 18.3106 7.8735 18.1583 7.56478 17.8534C7.25606 17.5488 7.10168 17.1396 7.10168 16.6258C7.10168 15.9903 7.32753 15.4372 7.77943 14.9671C8.23133 14.4968 8.77943 14.2617 9.42374 14.2617C10.0321 14.2617 10.4572 14.4361 10.6988 14.7843C10.7257 14.4968 10.8016 14.3531 10.927 14.3531H11.9471C12.0008 14.3531 12.0454 14.375 12.0813 14.4185C12.1169 14.462 12.1303 14.5099 12.1215 14.5621H12.1213ZM13.8808 19.5666H12.8473C12.7309 19.5666 12.6728 19.5101 12.6728 19.3968C12.6728 19.3272 13.0396 18.8048 13.7734 17.8295C13.7643 17.795 13.6593 17.49 13.458 16.9155C13.2567 16.3408 13.0688 15.8053 12.8943 15.3089C12.7199 14.8126 12.6326 14.5559 12.6326 14.5383C12.6326 14.4949 12.6504 14.4534 12.6864 14.4143C12.7219 14.3751 12.7621 14.3555 12.807 14.3555H13.8137C13.9657 14.3555 14.0641 14.4253 14.109 14.5645L14.6996 16.5236L16.1224 14.486C16.1848 14.3992 16.2653 14.3555 16.3639 14.3555H17.3975C17.4421 14.3555 17.4824 14.3751 17.5183 14.4143C17.5538 14.4534 17.5719 14.4949 17.5719 14.5383C17.5719 14.5821 17.563 14.6124 17.5452 14.6297L14.1225 19.4361C14.0597 19.5231 13.9792 19.5666 13.8809 19.5666L13.8808 19.5666ZM20.2005 16.2873C20.1739 16.2873 20.111 16.2831 20.0126 16.2744C19.9142 16.2657 19.8293 16.2614 19.7577 16.2614C19.6859 16.2614 19.61 16.2679 19.5295 16.2808C19.4489 16.2938 19.3818 16.3223 19.3282 16.3658C19.2744 16.4094 19.2431 16.466 19.2342 16.5356L18.9926 18.0506C18.9567 18.1638 18.8851 18.2203 18.7778 18.2203H17.6773C17.6235 18.2203 17.5786 18.1986 17.5431 18.155C17.5072 18.1115 17.4938 18.0636 17.5029 18.0113L18.3752 12.6827C18.393 12.5173 18.4915 12.4346 18.6705 12.4346H20.8047C21.3594 12.4346 21.809 12.5501 22.1535 12.7806C22.498 13.0115 22.6703 13.3837 22.6703 13.8973C22.6703 14.6462 22.451 15.2317 22.0126 15.654C21.574 16.0764 20.9702 16.2874 20.2005 16.2874V16.2873ZM27.3716 14.5621L26.8212 17.9709C26.7944 18.1364 26.6958 18.219 26.5261 18.219H25.5999C25.4834 18.219 25.4254 18.1496 25.4254 18.0101C25.4254 17.9755 25.4342 17.9232 25.4522 17.8534C25.47 17.7838 25.4791 17.7446 25.4791 17.7359C25.3267 17.9101 25.1166 18.0494 24.8481 18.1539C24.5797 18.2582 24.3157 18.3106 24.0563 18.3106C23.5372 18.3106 23.1234 18.1583 22.8147 17.8534C22.506 17.5488 22.3517 17.1396 22.3517 16.6258C22.3517 15.9903 22.5776 15.4372 23.0295 14.9671C23.4812 14.4968 24.0294 14.2617 24.6737 14.2617C25.2911 14.2617 25.7159 14.4361 25.9489 14.7843C25.9756 14.4968 26.0515 14.3531 26.1769 14.3531H27.197C27.2508 14.3531 27.2953 14.375 27.3312 14.4185C27.367 14.462 27.3804 14.5099 27.3716 14.5621H27.3716ZM29.744 12.6303L28.8716 17.9722C28.8535 18.1377 28.7595 18.2203 28.5897 18.2203H27.7037C27.6501 18.2203 27.6052 18.2007 27.5696 18.1615C27.5337 18.1224 27.5157 18.0812 27.5157 18.0374L27.5292 18.0113L28.4017 12.5782C28.4195 12.4824 28.4776 12.4344 28.5763 12.4344H29.5694C29.6856 12.4344 29.744 12.4954 29.744 12.6173V12.6303V12.6303ZM20.9139 13.7862C20.8066 13.6948 20.6946 13.6405 20.5784 13.6229C20.4619 13.6056 20.3053 13.5969 20.1085 13.5969H19.867C19.7684 13.5969 19.7103 13.6448 19.6926 13.7405L19.4643 15.1379L19.8939 15.1249C20.2875 15.1249 20.5828 15.0596 20.7797 14.929C20.9765 14.7983 21.075 14.5502 21.075 14.1845C21.075 14.0104 21.0214 13.8775 20.9139 13.7861V13.7862ZM5.63971 13.7471C5.47864 13.6471 5.21899 13.597 4.86125 13.597H4.60607C4.50761 13.597 4.44952 13.6449 4.43171 13.7405L4.20344 15.138L4.6464 15.125C4.99532 15.125 5.26375 15.0772 5.45173 14.9813C5.63963 14.8855 5.75573 14.6853 5.80066 14.3805C5.8544 14.0585 5.80066 13.8473 5.63971 13.7471Z" fill="#4C1D95"/>
</svg>
