<svg width="40" height="20" viewBox="0 0 40 20" fill="none" xmlns="http://www.w3.org/2000/svg">
<g fill="#9FB270">
<path d="M34.6109 5.70932V10.599H32.8649V7.16898H31.1837V10.599H29.4377V5.70898H34.6109V5.70932Z"/>
<path fill-rule="evenodd" clip-rule="evenodd" d="M25.8518 10.7736C27.4148 10.7736 28.5755 9.81525 28.5755 8.36242C28.5755 6.95625 27.7192 6.04325 26.288 6.04325C25.6275 6.04325 25.0825 6.27575 24.672 6.67692C24.77 5.84775 25.4712 5.24242 26.2432 5.24242C26.4213 5.24242 27.7627 5.23959 27.7627 5.23959L28.5212 3.78809C28.5212 3.78809 26.8372 3.82642 26.0543 3.82642C24.2657 3.85759 23.0575 5.48342 23.0575 7.45809C23.0575 9.75859 24.2358 10.7736 25.8518 10.7736ZM25.8613 7.32892C26.4417 7.32892 26.844 7.71025 26.844 8.36225C26.844 8.94909 26.4865 9.43259 25.8613 9.43392C25.2633 9.43392 24.861 8.98592 24.861 8.37225C24.861 7.72009 25.2633 7.32892 25.8613 7.32892V7.32892Z"/>
<path d="M21.6363 8.96117C21.6363 8.96117 21.224 9.19883 20.6081 9.24383C19.9001 9.26483 19.2693 8.81767 19.2693 8.02317C19.2693 7.24817 19.826 6.804 20.5903 6.804C21.059 6.804 21.679 7.12883 21.679 7.12883C21.679 7.12883 22.1326 6.29633 22.3676 5.88C21.9373 5.55383 21.3641 5.375 20.6975 5.375C19.015 5.375 17.7118 6.472 17.7118 8.01333C17.7118 9.57433 18.9366 10.6458 20.6975 10.6135C21.1896 10.5952 21.8686 10.4223 22.2825 10.1565L21.6363 8.96117Z"/>
<path d="M0.166748 4.35352L2.58875 8.68268V11.3233L0.169581 15.644L0.166748 4.35352Z"/>
<path d="M9.46631 7.10725L11.7358 5.71625L16.3805 5.71191L9.46631 9.94758V7.10725Z"/>
<path d="M9.45341 4.32783L9.46624 10.0595L7.03857 8.56783V0L9.45357 4.32783H9.45341Z"/>
<path d="M16.3804 5.71183L11.7356 5.71617L9.45341 4.32783L7.03857 0L16.3802 5.71183H16.3804Z"/>
<path d="M9.46624 15.668V12.8872L7.03857 11.4238L7.03991 20.0002L9.46624 15.668Z"/>
<path d="M11.7301 14.2897L2.58858 8.68268L0.166748 4.35352L16.3706 14.284L11.7299 14.2897H11.7301Z"/>
<path d="M7.04004 20.0003L9.46604 15.6682L11.7299 14.2898L16.3704 14.2842L7.04004 20.0003Z"/>
<path d="M0.169556 15.6439L7.05839 11.4239L4.74239 10.0029L2.58872 11.3233L0.169556 15.6439Z"/>
<path d="M19.2698 13.8897C19.2165 13.9577 19.1463 14.009 19.0621 14.0437C18.9758 14.0789 18.8834 14.0968 18.7901 14.0964C18.6974 14.0976 18.6052 14.0822 18.518 14.0507C18.4396 14.0223 18.368 13.9779 18.3076 13.9204C18.248 13.8628 18.2012 13.7933 18.1703 13.7164C18.1368 13.6322 18.1201 13.5422 18.1211 13.4515C18.1211 13.3615 18.1366 13.2782 18.1688 13.1992C18.1996 13.12 18.2445 13.0522 18.3006 12.9952C18.3568 12.937 18.4241 12.8927 18.4998 12.858C18.577 12.8247 18.6611 12.8067 18.7536 12.8067C18.8533 12.8067 18.9458 12.8192 19.03 12.844C19.1141 12.869 19.1856 12.9107 19.2445 12.969L19.1421 13.1424C19.0926 13.0975 19.0344 13.0635 18.971 13.0424C18.9107 13.023 18.8478 13.0132 18.7845 13.0134C18.7285 13.0134 18.6751 13.0244 18.6233 13.0452C18.5722 13.0658 18.5256 13.0959 18.4858 13.134C18.4452 13.1732 18.4132 13.2205 18.3918 13.2727C18.368 13.3267 18.3568 13.3864 18.3568 13.4529C18.3568 13.5209 18.3693 13.5819 18.3931 13.6345C18.4171 13.6887 18.4493 13.7345 18.49 13.7732C18.5306 13.8122 18.5783 13.8412 18.633 13.8607C18.6878 13.8815 18.7453 13.8912 18.807 13.8912C18.8826 13.8912 18.9515 13.8759 19.0103 13.8467C19.0686 13.8186 19.121 13.7795 19.1646 13.7317L19.2698 13.8897ZM19.5586 14.0672V12.833H19.7803V13.7525L20.5011 12.833H20.7228V14.0674H20.5011V13.1479L19.7803 14.0674H19.5586V14.0672ZM22.1911 13.8897C22.1366 13.9583 22.0651 14.0114 21.9836 14.0437C21.8972 14.0789 21.8048 14.0967 21.7115 14.0964C21.6188 14.0976 21.5267 14.0822 21.4395 14.0507C21.3611 14.0223 21.2894 13.9779 21.229 13.9204C21.1694 13.8628 21.1226 13.7933 21.0916 13.7164C21.0581 13.6322 21.0414 13.5422 21.0425 13.4515C21.0425 13.3615 21.058 13.2782 21.0901 13.1992C21.1211 13.12 21.166 13.0522 21.222 12.9952C21.2781 12.937 21.3455 12.8927 21.4211 12.858C21.5011 12.8229 21.5876 12.8053 21.675 12.8067C21.7746 12.8067 21.8671 12.8192 21.9513 12.844C22.0355 12.869 22.107 12.9107 22.166 12.969L22.0635 13.1424C22.0141 13.0975 21.9558 13.0634 21.8925 13.0424C21.8322 13.023 21.7693 13.0132 21.706 13.0134C21.5946 13.0137 21.4876 13.0569 21.4071 13.134C21.3669 13.1735 21.3349 13.2207 21.3131 13.2727C21.2893 13.3267 21.2781 13.3864 21.2781 13.4529C21.2781 13.5209 21.2908 13.5819 21.3146 13.6345C21.3385 13.6887 21.3706 13.7345 21.4113 13.7732C21.452 13.8122 21.4998 13.8412 21.5545 13.8607C21.6091 13.88 21.6666 13.8912 21.7283 13.8912C21.8041 13.8912 21.8715 13.8759 21.9316 13.8467C21.9899 13.8186 22.0423 13.7795 22.086 13.7317L22.1911 13.8897ZM22.3048 12.833H23.4421V13.0522H22.985V14.0672H22.7633V13.0522H22.3061V12.833H22.3048Z"/>
<path fill-rule="evenodd" clip-rule="evenodd" d="M24.4774 14.0542C24.5616 14.0279 24.6331 13.9875 24.6947 13.9322L24.6274 13.7602C24.5867 13.7964 24.5321 13.8269 24.4662 13.8519C24.4002 13.8769 24.3259 13.8892 24.2446 13.8892C24.1226 13.8892 24.0216 13.8574 23.9416 13.7922C23.8617 13.7269 23.8182 13.6355 23.8084 13.5189H24.7677C24.7776 13.4759 24.7817 13.4274 24.7817 13.3705C24.7817 13.2859 24.7662 13.2097 24.7354 13.1404C24.7067 13.073 24.6648 13.0122 24.6121 12.9614C24.5587 12.911 24.4957 12.8719 24.4269 12.8464C24.3549 12.8184 24.2783 12.8043 24.2011 12.8047C24.0972 12.8047 24.0061 12.8227 23.9262 12.856C23.8508 12.8878 23.7825 12.9345 23.7256 12.9934C23.6703 13.0519 23.6279 13.1213 23.6009 13.1972C23.5713 13.278 23.5565 13.3635 23.5574 13.4495C23.5574 13.5467 23.5742 13.6354 23.6051 13.7145C23.6351 13.7912 23.681 13.8607 23.7397 13.9184C23.7972 13.975 23.8672 14.0182 23.9501 14.0487C24.0388 14.0801 24.1323 14.0956 24.2264 14.0944C24.3116 14.0938 24.3963 14.0804 24.4774 14.0544V14.0542ZM23.9164 13.1042C23.9851 13.0419 24.0762 13.0114 24.1912 13.0114C24.2992 13.0114 24.3862 13.0405 24.4494 13.0989C24.5126 13.157 24.5461 13.2375 24.5517 13.34H23.7944C23.8051 13.2493 23.8485 13.1655 23.9164 13.1044V13.1042Z"/>
<path d="M25.0831 12.833H25.2851L25.7648 13.4447L26.2191 12.833H26.4155V14.0673H26.194V13.1673L25.762 13.74H25.7535L25.3048 13.1672V14.0672H25.0831V12.833Z"/>
<path fill-rule="evenodd" clip-rule="evenodd" d="M27.0185 12.8365C26.9512 12.8541 26.8869 12.8816 26.8278 12.9182L26.8867 13.0932C26.9372 13.0682 26.9877 13.0473 27.0382 13.0293C27.0887 13.0112 27.1532 13.0028 27.2303 13.0028C27.292 13.0028 27.3412 13.0127 27.379 13.032C27.4168 13.05 27.4448 13.0778 27.4645 13.1112C27.4842 13.1445 27.4968 13.186 27.5038 13.2345C27.5108 13.283 27.5137 13.3357 27.5137 13.3927C27.4683 13.3611 27.4166 13.3397 27.3622 13.3302C27.3095 13.3197 27.256 13.3141 27.2023 13.3135C27.1363 13.3135 27.0746 13.3233 27.0156 13.3398C26.9568 13.3565 26.9063 13.3815 26.8657 13.4148C26.8241 13.4481 26.7906 13.4902 26.7675 13.5382C26.7428 13.5906 26.7303 13.648 26.731 13.706C26.731 13.8267 26.7661 13.921 26.8361 13.9877C26.9063 14.0542 26.9988 14.0873 27.1138 14.0873C27.2176 14.0873 27.3005 14.0693 27.3635 14.0333C27.4267 13.9972 27.4772 13.9557 27.5137 13.9085V14.068H27.7211V13.3108C27.7211 13.1498 27.6862 13.0252 27.6147 12.9377C27.5445 12.8503 27.4197 12.806 27.243 12.806C27.1643 12.806 27.09 12.817 27.0185 12.8365V12.8365ZM27.389 13.8365C27.3385 13.8725 27.2725 13.889 27.1912 13.889C27.1197 13.889 27.0635 13.871 27.0243 13.8363C26.985 13.8003 26.9653 13.7532 26.9653 13.6948C26.9653 13.6603 26.9723 13.6312 26.9878 13.6048C27.0033 13.5785 27.0243 13.5577 27.0482 13.541C27.0742 13.5236 27.1032 13.5109 27.1337 13.5035C27.166 13.4952 27.1982 13.491 27.2318 13.491C27.3413 13.491 27.4352 13.5173 27.5123 13.5728V13.7295C27.476 13.7702 27.4345 13.8062 27.389 13.8363V13.8365ZM29.6778 12.3982C29.7227 12.3775 29.7647 12.3428 29.804 12.2915L29.6833 12.1182C29.6525 12.1598 29.6175 12.1888 29.5781 12.2042C29.5365 12.2205 29.4932 12.2325 29.4492 12.2402L29.4072 12.2477C29.3707 12.254 29.3315 12.261 29.2893 12.268C29.2217 12.2805 29.1558 12.301 29.093 12.329C28.9933 12.372 28.9135 12.4302 28.8532 12.5037C28.7928 12.5772 28.7452 12.6603 28.7128 12.752C28.6801 12.8449 28.658 12.9411 28.647 13.039C28.6357 13.139 28.6302 13.2345 28.6302 13.326C28.6302 13.444 28.6455 13.5507 28.6763 13.6463C28.7073 13.7422 28.7506 13.8225 28.8081 13.8877C28.8656 13.9543 28.9345 14.0043 29.0158 14.0403C29.0972 14.0763 29.1883 14.0943 29.2907 14.0943C29.3847 14.0943 29.4716 14.0763 29.5501 14.043C29.6258 14.011 29.6945 13.9644 29.7522 13.9058C29.8082 13.8488 29.8532 13.7808 29.884 13.7047C29.9162 13.6283 29.9316 13.5465 29.9316 13.4605C29.9316 13.3677 29.9177 13.2832 29.891 13.2082C29.8664 13.1367 29.8273 13.0711 29.776 13.0155C29.7246 12.9609 29.6618 12.9182 29.5922 12.8905C29.5154 12.8603 29.4335 12.8452 29.351 12.8462C29.2977 12.8462 29.2458 12.8532 29.1953 12.867C29.1462 12.8808 29.099 12.9009 29.055 12.9267C29.0122 12.9511 28.9731 12.9814 28.9387 13.0167C28.905 13.0515 28.877 13.0903 28.8573 13.1347H28.8517C28.856 13.0778 28.863 13.0197 28.8755 12.96C28.8882 12.9003 28.9063 12.8433 28.9303 12.7893C28.9542 12.7353 28.985 12.6867 29.0228 12.6423C29.0634 12.5976 29.1131 12.5621 29.1687 12.5383C29.2297 12.5092 29.2943 12.4883 29.3608 12.476L29.4048 12.468C29.4487 12.46 29.4905 12.4523 29.5305 12.444C29.5838 12.433 29.6328 12.419 29.6778 12.3983V12.3982ZM28.898 13.584C28.8763 13.514 28.8659 13.441 28.8672 13.3677C28.8765 13.3256 28.8937 13.2856 28.9176 13.2498C28.9415 13.2123 28.9723 13.1792 29.0088 13.1498C29.0912 13.0853 29.193 13.0506 29.2976 13.0515C29.4281 13.0515 29.5263 13.0917 29.595 13.1708C29.6638 13.2512 29.6975 13.351 29.6975 13.4717C29.6975 13.5313 29.6861 13.5855 29.6666 13.6353C29.6477 13.6845 29.6191 13.7293 29.5824 13.7672C29.5458 13.8051 29.502 13.8352 29.4535 13.8558C29.403 13.878 29.3481 13.8892 29.2865 13.8892C29.2248 13.8892 29.1687 13.8767 29.1168 13.8517C29.0653 13.8272 29.0198 13.7917 28.9835 13.7477C28.9455 13.6986 28.9165 13.6432 28.898 13.584V13.584ZM31.6315 12.8323H31.4098V14.0667H31.6315V12.8323ZM30.2513 12.8323H30.473V13.2027H30.6778C30.7745 13.2027 30.853 13.2152 30.9161 13.2387C30.9793 13.2623 31.0298 13.2942 31.0677 13.333C31.1055 13.3718 31.1322 13.4177 31.1477 13.4688C31.163 13.5202 31.1715 13.5728 31.1715 13.6283C31.1715 13.6838 31.163 13.7367 31.1448 13.7893C31.128 13.842 31.0985 13.8877 31.0591 13.9293C31.02 13.971 30.9666 14.0043 30.8993 14.0293C30.832 14.0542 30.7507 14.068 30.6525 14.068H30.25V12.8323H30.2513ZM30.473 13.4092V13.8613H30.6343C30.7451 13.8613 30.8236 13.842 30.8685 13.803C30.9135 13.7642 30.9358 13.7088 30.9358 13.6353C30.9358 13.5603 30.912 13.5037 30.8672 13.4647C30.8208 13.4258 30.7436 13.4063 30.6371 13.4063H30.473V13.4092Z"/>
<path d="M33.0972 13.8897C33.0439 13.9577 32.9737 14.0091 32.8895 14.0437C32.8032 14.0789 32.7108 14.0967 32.6175 14.0964C32.5248 14.0976 32.4326 14.0822 32.3454 14.0507C32.267 14.0223 32.1954 13.9779 32.135 13.9204C32.0754 13.8628 32.0286 13.7933 31.9975 13.7164C31.9642 13.6321 31.9475 13.5422 31.9485 13.4516C31.9485 13.3616 31.9639 13.2782 31.9962 13.1992C32.027 13.1201 32.0719 13.0522 32.128 12.9952C32.1842 12.9371 32.2514 12.8927 32.3272 12.8581C32.4071 12.8228 32.4937 12.8053 32.581 12.8067C32.6805 12.8067 32.7732 12.8192 32.8574 12.8441C32.9415 12.8691 33.013 12.9107 33.0719 12.9691L32.9695 13.1424C32.92 13.0975 32.8617 13.0635 32.7984 13.0424C32.7381 13.023 32.6752 13.0132 32.6119 13.0134C32.5559 13.0134 32.5025 13.0244 32.4505 13.0452C32.3995 13.0658 32.3529 13.0959 32.3132 13.1341C32.2729 13.1735 32.2409 13.2207 32.2192 13.2727C32.1954 13.3267 32.1842 13.3864 32.1842 13.4529C32.1842 13.5209 32.1967 13.5819 32.2205 13.6346C32.2444 13.6887 32.2767 13.7346 32.3174 13.7732C32.358 13.8122 32.4057 13.8412 32.4604 13.8607C32.5152 13.8801 32.5727 13.8912 32.6344 13.8912C32.71 13.8912 32.7774 13.8759 32.8377 13.8467C32.896 13.8186 32.9484 13.7795 32.992 13.7317L33.0972 13.8897ZM33.2107 12.8331H34.3482V13.0522H33.8909V14.0672H33.6694V13.0522H33.2122V12.8331H33.2107Z"/>
<path fill-rule="evenodd" clip-rule="evenodd" d="M34.811 12.8326H34.5894V14.6159H34.811V14.0099C34.8559 14.0391 34.9092 14.0599 34.9709 14.0738C35.0325 14.0876 35.097 14.0944 35.163 14.0944C35.2612 14.0944 35.3495 14.0764 35.4295 14.0433C35.5063 14.0105 35.5758 13.9629 35.6342 13.9033C35.6917 13.8434 35.7352 13.7741 35.766 13.6923C35.7969 13.6106 35.8124 13.5231 35.8124 13.4303C35.8124 13.3386 35.7984 13.2541 35.7717 13.1778C35.7466 13.1053 35.7075 13.0384 35.6567 12.9809C35.6068 12.9249 35.5449 12.8808 35.4757 12.8519C35.4 12.8194 35.3182 12.8033 35.2359 12.8048C35.149 12.8048 35.0677 12.8214 34.9905 12.8548C34.9134 12.8881 34.853 12.9281 34.811 12.9781V12.8326ZM34.9654 13.0614C35.0285 13.0281 35.0972 13.0114 35.1715 13.0114C35.236 13.0114 35.2935 13.0211 35.3455 13.0419C35.396 13.0628 35.438 13.0919 35.4732 13.1308C35.5082 13.1696 35.5349 13.2141 35.5517 13.2666C35.5699 13.3193 35.5784 13.3763 35.5784 13.4386C35.5784 13.5053 35.567 13.5648 35.5475 13.6203C35.5291 13.6729 35.5 13.7211 35.4619 13.7618C35.4236 13.802 35.3772 13.8336 35.3259 13.8546C35.2686 13.8786 35.2069 13.8904 35.1449 13.8893C35.0847 13.8893 35.0285 13.8824 34.9752 13.8686C34.9168 13.8527 34.8614 13.8274 34.8112 13.7936V13.1819C34.8504 13.1349 34.9024 13.0948 34.9654 13.0614V13.0614ZM37.5122 12.8324H37.2905V14.0668H37.5122V12.8324ZM36.1307 12.8324H36.3524V13.2028H36.557C36.6539 13.2028 36.7324 13.2153 36.7955 13.2388C36.8587 13.2624 36.9092 13.2943 36.947 13.3331C36.9849 13.3719 37.0115 13.4178 37.0269 13.4689C37.0424 13.5203 37.0507 13.5729 37.0507 13.6284C37.0507 13.6839 37.0424 13.7368 37.0242 13.7894C37.0074 13.8421 36.9779 13.8878 36.9385 13.9294C36.8994 13.9711 36.846 14.0044 36.7787 14.0294C36.7114 14.0543 36.63 14.0681 36.5319 14.0681H36.1294V12.8324H36.1307ZM36.3539 13.4093V13.8614H36.5152C36.6259 13.8614 36.7045 13.8421 36.7494 13.8031C36.7942 13.7643 36.8167 13.7089 36.8167 13.6354C36.8167 13.5604 36.7929 13.5038 36.748 13.4648C36.7017 13.4259 36.6245 13.4064 36.518 13.4064H36.3539V13.4093Z"/>
<path d="M38.5753 13.428L39.0493 14.0673H38.7773L38.4111 13.568L38.0395 14.0673H37.7815L38.2526 13.439L37.8095 12.833H38.0816L38.4196 13.299L38.7631 12.833H39.0213L38.5753 13.428ZM19.1058 15.5928H18.4256V16.6218H18.204V15.3877H19.3273V16.6218H19.1058V15.5928ZM20.5853 15.6067H20.1478L20.1336 15.8147C20.1183 15.9908 20.0973 16.1323 20.0678 16.2403C20.0383 16.3487 20.0018 16.4318 19.9598 16.49C19.9178 16.5483 19.8686 16.5885 19.8125 16.608C19.7545 16.629 19.6933 16.6394 19.6316 16.6385L19.6148 16.4248C19.6386 16.4262 19.6666 16.4207 19.6975 16.4068C19.7285 16.393 19.7593 16.3625 19.7886 16.3168C19.8181 16.2695 19.8448 16.203 19.8686 16.117C19.8925 16.0297 19.908 15.916 19.9163 15.773L19.9388 15.3888H20.807V16.6232H20.5853V15.6065V15.6067Z"/>
<path fill-rule="evenodd" clip-rule="evenodd" d="M21.4045 15.3899C21.3328 15.4092 21.2683 15.4369 21.2136 15.4715L21.2726 15.6464C21.3231 15.6214 21.3736 15.6005 21.424 15.5825C21.4745 15.5645 21.5391 15.5562 21.6161 15.5562C21.678 15.5562 21.727 15.5659 21.7648 15.5852C21.8028 15.6034 21.8308 15.631 21.8505 15.6644C21.87 15.6977 21.8826 15.7394 21.8896 15.7877C21.8966 15.8364 21.8995 15.889 21.8995 15.9459C21.8541 15.9143 21.8024 15.893 21.748 15.8835C21.6953 15.8731 21.6418 15.8675 21.5881 15.8669C21.5223 15.8669 21.4605 15.8765 21.4016 15.8932C21.3426 15.9099 21.2921 15.9349 21.2515 15.9682C21.21 16.0015 21.1764 16.0436 21.1533 16.0915C21.1287 16.144 21.1162 16.2014 21.117 16.2594C21.117 16.3799 21.152 16.4744 21.2221 16.5409C21.2921 16.6074 21.3848 16.6407 21.4998 16.6407C21.6036 16.6407 21.6863 16.6227 21.7495 16.5865C21.8125 16.5505 21.863 16.5089 21.8995 16.4617V16.6212H22.1071V15.864C22.1071 15.7032 22.072 15.5784 22.0005 15.491C21.9303 15.4035 21.8055 15.3594 21.6288 15.3594C21.553 15.3594 21.4776 15.3696 21.4045 15.3897V15.3899ZM21.7761 16.3895C21.7258 16.4257 21.6598 16.4424 21.5785 16.4424C21.5055 16.4424 21.4508 16.4244 21.4116 16.3895C21.3723 16.3535 21.3526 16.3064 21.3526 16.2482C21.3526 16.2135 21.3596 16.1844 21.3751 16.158C21.3905 16.1317 21.4116 16.1109 21.4355 16.0942C21.4593 16.0775 21.4886 16.065 21.521 16.0567C21.553 16.0484 21.586 16.0443 21.6191 16.0444C21.7285 16.0444 21.8225 16.0707 21.8996 16.126V16.2827C21.8632 16.3235 21.8217 16.3594 21.7761 16.3895V16.3895Z"/>
<path d="M22.3243 15.3877H23.4618V15.6067H23.0045V16.6219H22.783V15.6069H22.3258V15.3877H22.3243Z"/>
<path fill-rule="evenodd" clip-rule="evenodd" d="M24.497 16.6095C24.5811 16.5832 24.6526 16.5428 24.7143 16.4875L24.647 16.3155C24.6063 16.3517 24.5516 16.3822 24.4856 16.4072C24.4198 16.4322 24.3455 16.4445 24.2641 16.4445C24.1421 16.4445 24.0411 16.4127 23.9611 16.3475C23.8811 16.2823 23.8378 16.1908 23.828 16.0742H24.7873C24.797 16.0313 24.8013 15.9827 24.8013 15.9258C24.8013 15.8413 24.7858 15.765 24.755 15.6957C24.7263 15.6284 24.6843 15.5675 24.6315 15.5168C24.5782 15.4664 24.5153 15.4273 24.4465 15.4017C24.3745 15.3737 24.2979 15.3596 24.2206 15.36C24.1168 15.36 24.0256 15.378 23.9458 15.4113C23.8703 15.443 23.802 15.4897 23.7451 15.5487C23.6899 15.6073 23.6474 15.6767 23.6203 15.7525C23.5908 15.8333 23.576 15.9188 23.5768 16.0048C23.5768 16.102 23.5936 16.1907 23.6245 16.2698C23.6555 16.3488 23.7016 16.4168 23.7591 16.4737C23.8166 16.5305 23.8868 16.5735 23.9696 16.604C24.0583 16.6355 24.1518 16.651 24.2458 16.6498C24.3286 16.6498 24.4128 16.6358 24.497 16.6095V16.6095ZM23.9346 15.6582C24.0033 15.5958 24.0945 15.5653 24.2095 15.5653C24.319 15.5653 24.4045 15.5958 24.4676 15.6527C24.5306 15.711 24.5643 15.7913 24.57 15.894H23.8126C23.8233 15.8032 23.8667 15.7194 23.9346 15.6582V15.6582ZM24.9093 15.3878H25.1898L25.6175 15.9828L25.1603 16.622H24.8883L25.3678 15.9827L24.9093 15.3877V15.3878ZM25.6721 15.3878H25.8938V16.622H25.6721V15.3878ZM26.6861 16.622L26.1981 15.9827L26.654 15.3877H26.379L25.9485 15.9827L26.4113 16.622H26.6861ZM27.6988 16.6095C27.783 16.5832 27.8545 16.5428 27.9161 16.4875L27.8488 16.3155C27.8081 16.3517 27.7535 16.3822 27.6876 16.4072C27.6216 16.4322 27.5473 16.4445 27.466 16.4445C27.344 16.4445 27.243 16.4127 27.163 16.3475C27.0831 16.2823 27.0396 16.1908 27.0298 16.0742H27.9891C27.999 16.0313 28.0031 15.9827 28.0031 15.9258C28.0031 15.8413 27.9878 15.765 27.9568 15.6957C27.9281 15.6284 27.8862 15.5676 27.8335 15.5168C27.7801 15.4664 27.7171 15.4273 27.6483 15.4017C27.5763 15.3737 27.4997 15.3596 27.4225 15.36C27.3188 15.36 27.2276 15.378 27.1476 15.4113C27.0722 15.4431 27.004 15.4898 26.9471 15.5487C26.8918 15.6072 26.8493 15.6766 26.8223 15.7525C26.7927 15.8333 26.7779 15.9188 26.7788 16.0048C26.7788 16.102 26.7956 16.1907 26.8265 16.2698C26.8573 16.3488 26.9036 16.4168 26.9611 16.4737C27.0186 16.5305 27.0886 16.5735 27.1715 16.604C27.2602 16.6355 27.3537 16.651 27.4478 16.6498C27.533 16.6492 27.6177 16.6356 27.6988 16.6095V16.6095ZM27.1365 15.6582C27.2053 15.5958 27.2965 15.5653 27.4115 15.5653C27.5195 15.5653 27.6063 15.5958 27.6695 15.6527C27.7326 15.711 27.7663 15.7913 27.7718 15.894H27.0145C27.0252 15.8032 27.0685 15.7194 27.1365 15.6582V15.6582ZM28.9023 14.9732C28.7718 14.9732 28.7003 14.901 28.6891 14.7568H28.4801C28.4801 14.8122 28.49 14.8622 28.5081 14.9093C28.5265 14.9565 28.5531 14.9967 28.5881 15.03C28.6231 15.0633 28.6681 15.0897 28.72 15.1103C28.7718 15.1312 28.8321 15.1408 28.9008 15.1408C28.964 15.1408 29.0201 15.1312 29.0706 15.1103C29.1211 15.091 29.1631 15.0633 29.1996 15.03C29.2346 14.9967 29.2628 14.9565 29.2823 14.9093C29.302 14.8622 29.3118 14.8122 29.3118 14.7568H29.1043C29.0945 14.901 29.0256 14.9732 28.9023 14.9732V14.9732ZM28.3033 15.3877V16.622H28.525L29.2458 15.7025V16.622H29.4675V15.3877H29.2458L28.525 16.3072V15.3877H28.3033Z"/>
</g>
</svg>