<svg width="64" height="64" viewBox="0 0 64 64" fill="none" xmlns="http://www.w3.org/2000/svg">
<g fill="#5b6638">
<path d="M54.3653 26.8444C54.3436 26.8313 54.3209 26.8198 54.2975 26.8102L53.8483 26.583C52.6079 25.9439 51.1028 26.1281 50.0532 27.0477C48.126 28.6283 45.4304 28.8758 43.2477 27.6725C42.9812 27.5706 42.6828 27.7041 42.5809 27.9704C42.5023 28.1759 42.5627 28.4088 42.7313 28.5503C43.7704 29.1643 44.9582 29.4806 46.1651 29.4642C46.3922 29.4642 46.6246 29.4642 46.8518 29.4332C47.7651 29.3556 48.6553 29.1051 49.4748 28.6948C49.4748 28.6948 49.511 28.6948 49.5265 28.6948C50.288 28.5672 51.0593 28.8592 51.5454 29.459C51.6429 29.589 51.796 29.6656 51.9585 29.6656C52.0701 29.6656 52.179 29.6293 52.2683 29.5623C52.4964 29.3913 52.5426 29.0675 52.3716 28.8394C51.9817 28.3289 51.439 27.9562 50.8225 27.7757C51.5479 27.1872 52.552 27.082 53.3836 27.5072L53.8328 27.7293C54.0772 27.8763 54.3945 27.7974 54.5415 27.5531C54.6885 27.3087 54.6097 26.9914 54.3653 26.8444Z"/>
<path d="M53.8523 19.4367C48.2086 17.8877 43.5253 18.8584 42.2241 21.8222C42.1086 22.083 42.2262 22.388 42.4868 22.5036C42.4871 22.5037 42.4872 22.5037 42.4874 22.5038C42.5524 22.5329 42.6229 22.5469 42.694 22.5451C42.8969 22.5447 43.0807 22.4255 43.1639 22.2405C44.2482 19.8033 48.5287 19.0598 53.5786 20.4333C53.8538 20.5088 54.1382 20.347 54.2137 20.0718C54.2894 19.7966 54.1275 19.5122 53.8523 19.4367Z"/>
<path d="M32.7867 27.8453C32.7852 27.8427 32.7837 27.8402 32.7823 27.8377C32.6316 27.5979 32.3161 27.5242 32.0749 27.6724C29.8835 28.8824 27.1746 28.6262 25.2487 27.027C24.1994 26.122 22.7049 25.9461 21.4742 26.5829L21.025 26.8101C20.7618 26.9197 20.6372 27.222 20.7468 27.4852C20.8564 27.7485 21.1587 27.873 21.4219 27.7634C21.4453 27.7537 21.468 27.7423 21.4897 27.7292L21.9389 27.5072C22.7766 27.0728 23.7926 27.1806 24.5207 27.7809C23.9057 27.9586 23.3643 28.3299 22.9768 28.8394C22.8056 29.0675 22.852 29.3911 23.0801 29.5623C23.1694 29.6293 23.2782 29.6655 23.3899 29.6655C23.5524 29.6655 23.7055 29.589 23.803 29.459C24.2861 28.8644 25.0499 28.5731 25.8064 28.6948C25.8064 28.6948 25.8374 28.6948 25.8529 28.6948C26.6741 29.1055 27.5661 29.3562 28.4811 29.4332C28.7083 29.4332 28.9406 29.4641 29.1678 29.4641C30.373 29.4812 31.5596 29.1649 32.5964 28.5502C32.8436 28.4081 32.9288 28.0925 32.7867 27.8453Z"/>
<path d="M33.0944 21.8227C33.0942 21.8225 33.0942 21.8223 33.0941 21.8221C31.7826 18.8582 27.1096 17.903 21.4659 19.4366C21.1907 19.5121 21.029 19.7965 21.1045 20.0717C21.18 20.3469 21.4644 20.5086 21.7396 20.4331C26.7895 19.0596 31.07 19.8032 32.1492 22.2403C32.2331 22.4271 32.4195 22.5465 32.6242 22.545C32.6952 22.5455 32.7655 22.5314 32.8308 22.5037C33.0917 22.3885 33.2096 22.0836 33.0944 21.8227Z"/>
<path d="M43.4571 44.5106C42.6732 43.1522 41.4354 42.1137 39.9615 41.5777C39.3404 41.3556 38.6524 41.4237 38.0871 41.7636C37.8336 41.9052 37.5248 41.9052 37.2713 41.7636C36.7076 41.4199 36.0185 41.3497 35.3969 41.5726C33.923 42.1086 32.6852 43.1471 31.9013 44.5054C31.809 44.6653 31.809 44.862 31.9013 45.0218C33.1005 47.0779 35.299 48.345 37.6792 48.3522C40.0584 48.3462 42.2566 47.081 43.4571 45.027C43.5494 44.8671 43.5494 44.6703 43.4571 44.5106ZM34.5621 46.397C33.9133 45.9717 33.3592 45.4176 32.934 44.7688C33.5982 43.744 34.5792 42.9643 35.7274 42.5485C36.0566 42.4322 36.4206 42.4701 36.7188 42.6518C37.3003 42.9875 38.0168 42.9875 38.5983 42.6518C38.8965 42.4701 39.2605 42.4322 39.5897 42.5485C40.7371 42.9657 41.7177 43.745 42.3831 44.7688C40.6731 47.378 37.1715 48.1071 34.5621 46.397Z"/>
<path d="M40.1206 37.6793C39.9272 37.5136 39.6422 37.5136 39.4488 37.6793C38.4634 38.666 36.8648 38.667 35.878 37.6816C35.8773 37.6808 35.8765 37.68 35.8757 37.6793C35.6591 37.4938 35.3331 37.5189 35.1477 37.7355C34.982 37.9289 34.982 38.2139 35.1477 38.4073C36.5335 39.796 38.7829 39.7985 40.1716 38.4126C40.1734 38.4108 40.1751 38.4091 40.1769 38.4073C40.3624 38.1907 40.3372 37.8648 40.1206 37.6793Z"/>
<path d="M54.1171 14.5469C52.4442 13.2199 46.8883 8.96516 45.2772 7.74142C45.4941 7.49357 45.7058 7.22507 45.9072 6.96689C47.0845 5.41785 48.2411 2.31976 48.2876 2.19583C48.364 1.92114 48.2031 1.63637 47.9284 1.56008C47.6851 1.49244 47.4286 1.61068 47.322 1.83955C47.322 1.87053 46.1705 4.93764 45.0862 6.34211C42.0656 10.2819 37.4546 12.8636 31.3771 13.9583L19.9813 16.3128C12.1603 17.9216 7.12424 25.5659 8.73292 33.387C9.18666 35.5927 10.1493 37.662 11.5442 39.4297C11.5561 39.4423 11.5665 39.4561 11.5752 39.471C12.5511 40.6225 13.5683 41.774 14.5493 42.8789C19.6509 48.6414 24.4684 54.0837 21.6853 58.5501C21.2825 59.1956 19.341 61.0183 16.9813 60.884C16.6962 60.8684 16.4522 61.0868 16.4366 61.372C16.4208 61.6571 16.6394 61.9011 16.9245 61.9167C17.033 61.9167 17.1414 61.9167 17.2498 61.9167C19.3576 61.8349 21.3125 60.7947 22.5579 59.0923C25.7541 53.9701 20.6836 48.249 15.329 42.1922C14.348 41.0872 13.3359 39.9461 12.36 38.7843C7.77213 32.9598 8.77462 24.5189 14.5992 19.9309C15.6426 19.109 16.802 18.4465 18.0398 17.9651V33.9719C18.0488 38.2128 19.8089 42.2618 22.9039 45.1612L32.4098 54.0321C33.5756 55.1165 35.1085 55.7198 36.7007 55.7205H38.6215C40.2263 55.7223 41.7716 55.1131 42.9433 54.0166L48.9072 48.4917V50.8204C48.8994 54.9141 50.1722 58.9078 52.5474 62.242C52.6449 62.3789 52.8028 62.4598 52.9708 62.4589C53.0766 62.4615 53.1801 62.4288 53.2652 62.3659C53.4969 62.2016 53.5522 61.8808 53.3891 61.6482C51.137 58.4818 49.931 54.6906 49.9399 50.8049V47.8359C49.9374 47.7445 49.9106 47.6554 49.8624 47.5777L52.4442 45.1664C52.6524 44.9711 52.6627 44.644 52.4674 44.4357C52.2721 44.2275 51.945 44.2172 51.7368 44.4125L42.236 53.2834C41.2559 54.2003 39.9636 54.7099 38.6215 54.7085H36.7007C35.3586 54.7099 34.0663 54.2003 33.0863 53.2834L23.5803 44.4125C20.6922 41.7093 19.0497 37.9328 19.0416 33.9771V17.6192C19.4185 17.5056 19.8006 17.4023 20.1879 17.3248L31.5785 14.9755C37.0828 13.9428 41.4459 11.7896 44.5802 8.51078C46.0827 9.65707 51.8091 14.0151 53.4769 15.3576C54.5119 16.1813 55.46 17.1086 56.3065 18.1252C56.2889 18.1697 56.2784 18.2168 56.2755 18.2646V33.9771C56.2755 34.2622 56.5067 34.4934 56.7918 34.4934C57.077 34.4934 57.3082 34.2622 57.3082 33.9771V19.447C61.4658 25.4718 62.0405 33.2738 58.8107 39.8428C58.6882 40.0981 58.7941 40.4045 59.0483 40.5296C59.1176 40.5683 59.1961 40.5879 59.2755 40.5864C59.471 40.5848 59.6489 40.4729 59.735 40.2972C64.1085 31.4522 61.7436 20.6088 54.1171 14.5469Z"/>
<path d="M12.5354 4.5504C12.3113 4.37588 11.9883 4.41512 11.8125 4.63818C8.70848 8.75606 7.49622 13.9971 8.4769 19.0598C8.52001 19.3102 8.73907 19.4921 8.99324 19.4884H9.08619C9.36695 19.4387 9.55426 19.1707 9.50456 18.8898C9.50456 18.8897 9.50456 18.8895 9.50443 18.8894C8.56519 14.1138 9.69896 9.16398 12.6232 5.27329C12.7978 5.04919 12.7586 4.72622 12.5354 4.5504Z"/>
<path d="M12.3052 15.2499C12.3045 15.2496 12.304 15.2493 12.3034 15.2491C12.0398 15.1404 11.7378 15.266 11.6291 15.5296C11.6265 15.5359 11.6241 15.5422 11.6218 15.5486C11.1094 16.7745 10.7236 18.0496 10.4703 19.354C10.4166 19.6334 10.599 19.9036 10.8782 19.9582C10.9108 19.9632 10.9438 19.9632 10.9763 19.9582C11.2272 19.9627 11.4451 19.7862 11.4927 19.5399C11.7333 18.3015 12.0984 17.0906 12.5822 15.9255C12.6922 15.6624 12.5682 15.36 12.3052 15.2499Z"/>
<path d="M38.0246 6.73668C37.8461 6.51426 37.521 6.47876 37.2987 6.65742C37.2829 6.6702 37.2678 6.68388 37.2534 6.69847C35.2808 8.4414 32.8584 9.59532 30.2621 10.0289C29.9817 10.0809 29.7966 10.3503 29.8486 10.6309C29.8487 10.6316 29.8489 10.6324 29.849 10.633C29.8966 10.8793 30.1145 11.0558 30.3653 11.0513L30.4531 11.0461C33.2374 10.5787 35.8339 9.33688 37.9453 7.46267C38.1676 7.28401 38.2031 6.95897 38.0246 6.73668Z"/>
<path d="M40.5861 3.16655C40.338 3.02391 40.0213 3.10949 39.8787 3.3576C39.5859 3.87279 39.2618 4.36939 38.9079 4.84468C38.7369 5.07278 38.7831 5.39653 39.0112 5.56757C39.1012 5.63276 39.2099 5.66723 39.321 5.66568C39.4854 5.67136 39.6426 5.59855 39.7444 5.46947C40.1229 4.9606 40.4678 4.4276 40.7771 3.87395C40.9198 3.62584 40.8342 3.30906 40.5861 3.16655Z"/>
<path d="M10.9238 48.9771L5.97201 46.8239C3.29732 45.6466 1.58821 43.731 1.02022 41.2938C0.956068 41.0157 0.678659 40.8424 0.400606 40.9065C0.122552 40.9707 -0.0508122 41.2481 0.0133442 41.5261C0.462568 43.4573 1.78442 46.1062 5.5486 47.774L10.5055 49.9323C15.8343 52.2507 18.3231 54.9512 17.9048 57.9564C17.8653 58.2388 18.0622 58.4998 18.3446 58.5393C18.346 58.5396 18.3475 58.5397 18.3489 58.5398H18.4212C18.6821 58.542 18.9036 58.3493 18.9375 58.0906C19.4229 54.5691 16.7276 51.502 10.9238 48.9771Z"/>
<path d="M52.0368 34.6226C51.8771 34.3858 51.5558 34.3235 51.3191 34.4831C51.1642 34.5916 51.0092 34.7 50.8595 34.8136C50.6331 34.9863 50.5892 35.3097 50.7614 35.5365C50.86 35.6645 51.0129 35.739 51.1745 35.7379C51.2861 35.7379 51.395 35.7016 51.4843 35.6346C51.6185 35.5313 51.758 35.4332 51.8974 35.3403C52.1341 35.1806 52.1966 34.8593 52.0368 34.6226Z"/>
<path d="M57.9148 45.7292L59.3348 44.1801L63.1299 47.7326C63.3396 47.9265 63.6667 47.9139 63.8606 47.7042C64.0545 47.4946 64.0418 47.1675 63.8322 46.9736L59.8821 43.3282L57.0732 40.1836L54.3469 31.922C54.273 31.7024 54.062 31.5588 53.8305 31.5709C48.8186 31.9884 44.9567 36.1664 44.9338 41.1956C44.9267 41.4387 45.0901 41.6538 45.3262 41.712L53.7221 43.7774L57.068 46.3591L63.1299 51.9925C63.2252 52.0817 63.3506 52.1314 63.4811 52.1319C63.7662 52.1309 63.9966 51.8989 63.9956 51.6138C63.9951 51.4715 63.936 51.3358 63.8322 51.2386L57.9148 45.7292ZM53.7789 42.7292L48.1403 41.3351C48.3643 39.7013 49.0545 38.1666 50.1283 36.9151C50.3151 36.6984 50.2908 36.3713 50.0741 36.1845C49.8573 35.9977 49.5302 36.022 49.3434 36.2387C48.1669 37.6139 47.4012 39.2923 47.1335 41.082L45.9768 40.7981C46.1847 36.6164 49.3496 33.18 53.5 32.6294L56.0353 40.3024L55.4622 40.9168L54.5276 38.0872C54.4377 37.8163 54.1453 37.6695 53.8744 37.7593C53.6034 37.8492 53.4567 38.1416 53.5465 38.4125L54.6618 41.7791L53.7789 42.7292ZM54.7186 43.2404L56.6188 41.175L58.6325 43.4263L57.1093 45.0837L54.7186 43.2404Z"/>
</g>
</svg>
