<svg width="90" height="60" viewBox="0 0 90 60" fill="none" xmlns="http://www.w3.org/2000/svg">
<path d="M31.161 45.2145L31.0605 45.4065C30.8534 45.8212 30.5762 46.1536 30.2291 46.4036C29.8879 46.6475 29.5164 46.8061 29.1143 46.8793C29.0047 47.1903 28.8616 47.4799 28.6849 47.7483C28.5144 48.0105 28.3164 48.2393 28.091 48.4343C27.8717 48.6295 27.622 48.7819 27.3419 48.8917C27.0677 49.0015 26.7692 49.0564 26.4465 49.0564C25.9774 49.0564 25.5541 48.9588 25.1764 48.7637C24.8049 48.5624 24.4881 48.2941 24.2262 47.9586C23.9642 47.6171 23.7633 47.2208 23.6231 46.7695C23.483 46.3122 23.413 45.8242 23.413 45.3059C23.413 44.8546 23.4648 44.446 23.5683 44.0802C23.6719 43.7081 23.8029 43.3788 23.9612 43.0922C24.1196 42.7995 24.2962 42.5464 24.4912 42.3329C24.686 42.1134 24.8779 41.9334 25.0667 41.7932C25.2556 41.6529 25.4261 41.5493 25.5784 41.4822C25.7368 41.409 25.8555 41.3724 25.9348 41.3724L26.0535 41.6926C25.8038 41.8756 25.5814 42.1317 25.3866 42.461C25.216 42.7415 25.0606 43.1136 24.9205 43.577C24.7865 44.0405 24.7195 44.6167 24.7195 45.3059C24.7195 45.7267 24.7592 46.1352 24.8384 46.5317C24.9175 46.928 25.0332 47.2788 25.1855 47.5837C25.3378 47.8885 25.5236 48.1324 25.7429 48.3155C25.9683 48.4984 26.221 48.5899 26.5012 48.5899C26.8849 48.5899 27.2018 48.4374 27.4515 48.1324C27.7072 47.8214 27.8961 47.3976 28.0179 46.861C27.7012 46.794 27.3996 46.6689 27.1134 46.486C26.8271 46.3029 26.5743 46.0774 26.355 45.809C26.1358 45.5346 25.9591 45.2205 25.825 44.8669C25.6972 44.5131 25.6332 44.1289 25.6332 43.7142C25.6332 43.3727 25.6759 43.074 25.7612 42.8178C25.8525 42.5555 25.9713 42.339 26.1175 42.1683C26.2636 41.9914 26.4312 41.8603 26.62 41.775C26.8149 41.6834 27.0189 41.6378 27.2321 41.6378C27.4819 41.6378 27.7377 41.7109 27.9997 41.8572C28.2615 41.9975 28.4991 42.2109 28.7123 42.4976C28.9255 42.7781 29.0991 43.1318 29.2332 43.5588C29.367 43.9856 29.4341 44.4826 29.4341 45.0498C29.4341 45.2632 29.4219 45.4736 29.3975 45.6809C29.3732 45.8883 29.3367 46.0895 29.2879 46.2847C29.5803 46.1993 29.8452 46.0621 30.0828 45.8731C30.3264 45.684 30.5274 45.434 30.6859 45.1229L30.7864 44.9308L31.161 45.2145ZM26.2362 43.641C26.2362 44.0008 26.285 44.3332 26.3825 44.6381C26.486 44.937 26.6231 45.2022 26.7936 45.434C26.9642 45.6597 27.1621 45.8486 27.3875 46.0012C27.6128 46.1536 27.8534 46.2603 28.1093 46.3213C28.1398 46.1505 28.158 45.9737 28.164 45.7907C28.1763 45.6017 28.1824 45.4095 28.1824 45.2145C28.1824 44.7814 28.1489 44.3912 28.0819 44.0436C28.0149 43.6898 27.9266 43.391 27.8169 43.1471C27.7072 42.897 27.5793 42.705 27.4331 42.5708C27.287 42.4366 27.1378 42.3695 26.9854 42.3695C26.7783 42.3695 26.6017 42.4823 26.4556 42.708C26.3094 42.9275 26.2362 43.2385 26.2362 43.641Z" fill="url(#paint0_linear_3226_25448)"/>
<path d="M36.1313 45.873C36.1313 46.2877 36.0674 46.6871 35.9395 47.0714C35.8177 47.4495 35.635 47.7878 35.3913 48.0867C35.1538 48.3795 34.8553 48.6142 34.4959 48.7911C34.1426 48.968 33.7376 49.0563 33.2807 49.0563C32.9518 49.0563 32.6563 49.0045 32.3944 48.9009C32.1386 48.7911 31.9194 48.6477 31.7365 48.4709C31.5539 48.288 31.4138 48.0837 31.3163 47.858C31.2188 47.6263 31.1701 47.3885 31.1701 47.1445C31.1701 46.9006 31.2158 46.6749 31.3072 46.4676C31.4047 46.2542 31.5325 46.0743 31.6909 45.9278C31.8554 45.7754 32.0411 45.6566 32.2482 45.5711C32.4553 45.4858 32.6747 45.443 32.906 45.443C33.0523 45.443 33.2046 45.4614 33.363 45.498V45.7633C33.168 45.7633 32.9761 45.8029 32.7873 45.8821C32.6046 45.9614 32.4401 46.0713 32.294 46.2115C32.1538 46.3457 32.0411 46.5102 31.9559 46.7054C31.8706 46.8944 31.828 47.0987 31.828 47.3183C31.828 47.7207 31.965 48.044 32.2391 48.288C32.5193 48.5258 32.9 48.6447 33.3812 48.6447C33.6248 48.6447 33.8472 48.599 34.0482 48.5075C34.2491 48.41 34.4197 48.2788 34.5598 48.1142C34.7061 47.9434 34.8157 47.7421 34.8888 47.5104C34.9679 47.2787 35.0075 47.0256 35.0075 46.7511C35.0075 46.489 34.9558 46.2451 34.8522 46.0194C34.7487 45.7938 34.6116 45.5802 34.4411 45.379C34.2705 45.1778 34.0756 44.9887 33.8563 44.8119C33.6432 44.6351 33.4238 44.4673 33.1985 44.3087C32.9791 44.1442 32.7629 43.9856 32.5498 43.8332C32.3366 43.6806 32.1507 43.5282 31.9924 43.3757L31.0787 45.4064L30.7041 45.1229L31.636 43.083C31.4107 42.8696 31.2432 42.6683 31.1336 42.4792C31.03 42.2842 30.9782 42.0524 30.9782 41.784C30.9782 41.6377 31.0026 41.5005 31.0513 41.3724C31.1062 41.2382 31.1762 41.1254 31.2615 41.0339C31.3528 40.9363 31.4564 40.8601 31.5722 40.8053C31.6879 40.7504 31.8096 40.7229 31.9376 40.7229C32.1691 40.7229 32.3427 40.79 32.4584 40.9242C32.5742 41.0523 32.6319 41.2139 32.6319 41.409C32.6319 41.5005 32.6228 41.5981 32.6046 41.7018C32.5863 41.7994 32.5619 41.8999 32.5314 42.0035C32.5072 42.1011 32.4797 42.1926 32.4493 42.278C32.4248 42.3634 32.4036 42.4366 32.3853 42.4976C32.5681 42.6378 32.7873 42.7751 33.0431 42.9092C33.299 43.0372 33.5639 43.1714 33.838 43.3116C34.1183 43.452 34.3954 43.6044 34.6695 43.7691C34.9436 43.9338 35.1873 44.1167 35.4004 44.318C35.6197 44.5192 35.7963 44.7478 35.9303 45.004C36.0643 45.2601 36.1313 45.5497 36.1313 45.873ZM31.9559 41.1345C31.8706 41.1345 31.8005 41.1651 31.7458 41.2261C31.697 41.2809 31.6726 41.3572 31.6726 41.4548C31.6726 41.5645 31.7 41.6864 31.7549 41.8206C31.8096 41.9548 31.9071 42.0859 32.0472 42.214C32.1081 42.0859 32.1538 41.9609 32.1842 41.839C32.2208 41.717 32.2391 41.5951 32.2391 41.473C32.2391 41.3754 32.2117 41.2962 32.1569 41.2352C32.1081 41.1681 32.0411 41.1345 31.9559 41.1345Z" fill="url(#paint1_linear_3226_25448)"/>
<path d="M39.8591 42.2141C39.6825 42.2141 39.512 42.278 39.3476 42.4061C39.1892 42.5281 39.037 42.6989 38.8907 42.9184C38.7445 43.1318 38.6014 43.385 38.4613 43.6776C38.3273 43.9642 38.1933 44.2722 38.0592 44.6015V44.7113C38.041 45.248 38.0227 45.8181 38.0045 46.4219C37.9922 47.0256 37.9862 47.6842 37.9862 48.3977C37.9862 48.5198 37.9436 48.6234 37.8582 48.7088C37.7791 48.788 37.6846 48.8551 37.575 48.91C37.4654 48.9588 37.3527 48.9955 37.2369 49.0198C37.1212 49.0442 37.0268 49.0564 36.9537 49.0564C36.8623 49.0564 36.7771 49.0289 36.6979 48.9741C36.6187 48.9191 36.5791 48.7972 36.5791 48.6081C36.5791 48.5167 36.5882 48.4038 36.6065 48.2696C36.6247 48.1294 36.6491 47.98 36.6796 47.8214C36.704 47.6629 36.7345 47.5013 36.771 47.3366C36.8015 47.1658 36.8318 47.0074 36.8623 46.861C36.8623 46.3426 36.8623 45.8761 36.8623 45.4614C36.8562 45.0467 36.8532 44.6777 36.8532 44.3546C36.8532 44.0313 36.8532 43.7477 36.8532 43.5038C36.8471 43.2599 36.8441 43.0495 36.8441 42.8727C36.8441 42.5799 36.8502 42.3665 36.8623 42.2323C36.8685 42.092 36.8806 41.9945 36.8989 41.9396C36.9293 41.8542 36.9842 41.7871 37.0633 41.7384C37.1487 41.6895 37.2369 41.6529 37.3283 41.6286C37.4198 41.5981 37.511 41.5798 37.6024 41.5737C37.6939 41.5676 37.7639 41.5646 37.8126 41.5646C37.9283 41.5646 38.0045 41.5981 38.041 41.6652C38.0776 41.7323 38.0958 41.836 38.0958 41.9762C38.0958 42.2933 38.0958 42.5799 38.0958 42.8361C38.0958 43.0922 38.0897 43.3484 38.0776 43.6045C38.1933 43.33 38.3273 43.0708 38.4795 42.8269C38.6379 42.5769 38.8115 42.3604 39.0004 42.1775C39.1892 41.9884 39.3872 41.839 39.5943 41.7291C39.8074 41.6194 40.0267 41.5646 40.2521 41.5646C40.5262 41.5646 40.7515 41.6224 40.9283 41.7384C41.1109 41.8481 41.2541 42.0036 41.3576 42.2048C41.4672 42.4061 41.5465 42.6439 41.5952 42.9184C41.6501 43.1867 41.6866 43.4794 41.7048 43.7966C41.8754 43.4855 42.0581 43.1958 42.253 42.9275C42.454 42.6531 42.6642 42.4152 42.8834 42.2141C43.1088 42.0128 43.3434 41.8542 43.587 41.7384C43.8367 41.6224 44.0956 41.5646 44.3636 41.5646C44.8265 41.5646 45.1646 41.7109 45.3778 42.0036C45.591 42.2903 45.6975 42.6805 45.6975 43.1745C45.6975 43.4855 45.6733 43.8332 45.6245 44.2174C45.5758 44.6015 45.5239 44.9918 45.4692 45.3882C45.4143 45.7785 45.3625 46.1627 45.3138 46.5408C45.2651 46.9189 45.2407 47.2634 45.2407 47.5745C45.2407 47.9526 45.3352 48.1417 45.5239 48.1417C45.6214 48.1417 45.728 48.0837 45.8437 47.9679C45.9595 47.8458 46.0905 47.6629 46.2366 47.419C46.3889 47.1689 46.5625 46.8548 46.7574 46.4767C46.9585 46.0986 47.1899 45.6474 47.4518 45.1229L47.5432 44.9308L47.9178 45.2145L47.8264 45.4065C47.4671 46.1261 47.1595 46.7207 46.9036 47.1903C46.6539 47.6599 46.4284 48.035 46.2275 48.3155C46.0265 48.5899 45.8346 48.7819 45.6519 48.8917C45.4753 49.0015 45.2773 49.0564 45.058 49.0564C44.9301 49.0564 44.8052 49.0381 44.6834 49.0015C44.5615 48.965 44.455 48.9009 44.3636 48.8094C44.2723 48.7179 44.1992 48.596 44.1443 48.4434C44.0894 48.285 44.0621 48.0837 44.0621 47.8398C44.0621 47.4738 44.0864 47.0622 44.1352 46.6048C44.1839 46.1475 44.2388 45.6901 44.2997 45.2327C44.3605 44.7753 44.4154 44.3453 44.4641 43.9429C44.5129 43.5343 44.5371 43.2019 44.5371 42.9458C44.5371 42.7201 44.4885 42.5403 44.391 42.4061C44.2935 42.2658 44.1474 42.1957 43.9524 42.1957C43.7576 42.1957 43.5535 42.2719 43.3403 42.4245C43.1332 42.5769 42.9292 42.7751 42.7281 43.019C42.5332 43.2569 42.3475 43.5252 42.1708 43.8239C42.0003 44.1228 41.851 44.4186 41.7231 44.7113C41.7231 45.3517 41.7171 45.9127 41.7048 46.3944C41.6927 46.8701 41.6743 47.2726 41.6501 47.6019C41.6317 47.9313 41.6043 48.1934 41.5677 48.3886C41.5312 48.5776 41.4916 48.7057 41.449 48.7728C41.4186 48.8155 41.3667 48.8551 41.2936 48.8917C41.2206 48.9284 41.1384 48.9588 41.047 48.9832C40.9618 49.0076 40.8764 49.0258 40.7912 49.0381C40.7119 49.0503 40.6511 49.0564 40.6084 49.0564C40.5109 49.0564 40.4257 49.0289 40.3526 48.9741C40.2856 48.9131 40.2521 48.7972 40.2521 48.6265C40.2521 48.5471 40.2582 48.4404 40.2703 48.3062C40.2886 48.1722 40.31 48.0227 40.3343 47.858C40.3587 47.6934 40.3861 47.5166 40.4166 47.3275C40.4471 47.1385 40.4774 46.9464 40.5079 46.7512C40.5141 46.5682 40.5201 46.3639 40.5262 46.1384C40.5323 45.9127 40.5383 45.6901 40.5444 45.4705C40.5506 45.245 40.5536 45.0314 40.5536 44.8303C40.5597 44.6229 40.5627 44.446 40.5627 44.2996C40.5627 43.9886 40.5536 43.7051 40.5353 43.4489C40.5171 43.1928 40.4806 42.9733 40.4257 42.7903C40.377 42.6074 40.307 42.4671 40.2156 42.3695C40.1241 42.2658 40.0054 42.2141 39.8591 42.2141Z" fill="url(#paint2_linear_3226_25448)"/>
<path d="M55.2088 45.2145L55.1083 45.4065C54.9012 45.8212 54.6241 46.1536 54.2769 46.4036C53.9358 46.6475 53.5642 46.8061 53.1622 46.8793C53.0525 47.1903 52.9094 47.4799 52.7328 47.7483C52.5622 48.0105 52.3642 48.2393 52.1388 48.4343C51.9196 48.6295 51.6699 48.7819 51.3897 48.8917C51.1156 49.0015 50.8171 49.0564 50.4943 49.0564C50.0252 49.0564 49.6019 48.9588 49.2243 48.7637C48.8527 48.5624 48.536 48.2941 48.274 47.9586C48.0122 47.6171 47.8112 47.2208 47.6711 46.7695C47.531 46.3122 47.4608 45.8242 47.4608 45.3059C47.4608 44.8546 47.5127 44.446 47.6162 44.0802C47.7197 43.7081 47.8507 43.3788 48.009 43.0922C48.1674 42.7995 48.3441 42.5464 48.539 42.3329C48.734 42.1134 48.9258 41.9334 49.1147 41.7932C49.3034 41.6529 49.474 41.5493 49.6262 41.4822C49.7846 41.409 49.9035 41.3724 49.9826 41.3724L50.1014 41.6926C49.8517 41.8756 49.6294 42.1317 49.4344 42.461C49.2639 42.7415 49.1085 43.1136 48.9684 43.577C48.8344 44.0405 48.7674 44.6167 48.7674 45.3059C48.7674 45.7267 48.8071 46.1352 48.8862 46.5317C48.9654 46.928 49.0812 47.2788 49.2334 47.5837C49.3856 47.8885 49.5715 48.1324 49.7907 48.3155C50.0161 48.4984 50.2689 48.5899 50.5491 48.5899C50.9328 48.5899 51.2496 48.4374 51.4993 48.1324C51.7551 47.8214 51.944 47.3976 52.0657 46.861C51.749 46.794 51.4475 46.6689 51.1612 46.486C50.875 46.3029 50.6221 46.0774 50.4029 45.809C50.1837 45.5346 50.007 45.2205 49.873 44.8669C49.7451 44.5131 49.6811 44.1289 49.6811 43.7142C49.6811 43.3727 49.7237 43.074 49.809 42.8178C49.9003 42.5555 50.0192 42.339 50.1653 42.1683C50.3115 41.9914 50.479 41.8603 50.6679 41.775C50.8627 41.6834 51.0668 41.6378 51.2801 41.6378C51.5298 41.6378 51.7856 41.7109 52.0475 41.8572C52.3094 41.9975 52.5469 42.2109 52.7602 42.4976C52.9734 42.7781 53.147 43.1318 53.281 43.5588C53.415 43.9856 53.482 44.4826 53.482 45.0498C53.482 45.2632 53.4698 45.4736 53.4454 45.6809C53.4211 45.8883 53.3846 46.0895 53.3358 46.2847C53.6282 46.1993 53.8931 46.0621 54.1306 45.8731C54.3743 45.684 54.5753 45.434 54.7337 45.1229L54.8342 44.9308L55.2088 45.2145ZM50.2842 43.641C50.2842 44.0008 50.3329 44.3332 50.4303 44.6381C50.5339 44.937 50.6709 45.2022 50.8415 45.434C51.012 45.6597 51.2099 45.8486 51.4353 46.0012C51.6608 46.1536 51.9014 46.2603 52.1571 46.3213C52.1876 46.1505 52.2058 45.9737 52.212 45.7907C52.2242 45.6017 52.2302 45.4095 52.2302 45.2145C52.2302 44.7814 52.1967 44.3912 52.1297 44.0436C52.0627 43.6898 51.9745 43.391 51.8648 43.1471C51.7551 42.897 51.6273 42.705 51.481 42.5708C51.3348 42.4366 51.1856 42.3695 51.0333 42.3695C50.8262 42.3695 50.6496 42.4823 50.5034 42.708C50.3573 42.9275 50.2842 43.2385 50.2842 43.641Z" fill="url(#paint3_linear_3226_25448)"/>
<path d="M57.3925 52.5233C57.3925 52.255 57.4413 51.9836 57.5386 51.7091C57.6422 51.4347 57.7824 51.1542 57.959 50.8676C58.1356 50.581 58.3397 50.2822 58.5711 49.9712C58.8086 49.6662 59.0645 49.3491 59.3386 49.0198V47.2909C59.1925 47.5775 59.028 47.8307 58.8452 48.0501C58.6625 48.2696 58.4675 48.4557 58.2604 48.6081C58.0595 48.7546 57.8494 48.8674 57.63 48.9466C57.4169 49.0198 57.2067 49.0564 56.9996 49.0564C56.7133 49.0564 56.4361 48.9862 56.1682 48.846C55.9062 48.7057 55.6717 48.4953 55.4646 48.2148C55.2575 47.9282 55.093 47.5684 54.9713 47.1353C54.8494 46.7024 54.7886 46.1932 54.7886 45.6077C54.7886 45.1138 54.8464 44.626 54.9622 44.1442C55.0779 43.6624 55.2514 43.2324 55.4829 42.8543C55.7143 42.4701 56.0007 42.1591 56.3418 41.9213C56.6829 41.6834 57.0818 41.5646 57.5386 41.5646C57.8981 41.5646 58.2331 41.6377 58.5437 41.7841C58.8605 41.9304 59.1255 42.1439 59.3386 42.4245V42.3146C59.3386 42.1988 59.3721 42.0951 59.4391 42.0036C59.5122 41.9061 59.6005 41.8267 59.704 41.7658C59.8138 41.6988 59.9264 41.6499 60.0421 41.6194C60.164 41.5828 60.2706 41.5646 60.362 41.5646C60.4655 41.5646 60.5386 41.5798 60.5812 41.6103C60.6238 41.6347 60.6452 41.6804 60.6452 41.7475C60.6452 41.8451 60.6329 42.0646 60.6086 42.4061C60.5842 42.7476 60.5721 43.2477 60.5721 43.9063V47.8763C60.7243 47.6874 60.8858 47.4769 61.0563 47.2452C61.2269 47.0134 61.3975 46.7726 61.568 46.5226C61.7386 46.2664 61.9029 46.0042 62.0613 45.7358C62.2258 45.4675 62.3781 45.1991 62.5181 44.9308L62.6096 44.7479L62.9842 45.0314L62.8928 45.2145C62.7466 45.5071 62.5761 45.812 62.3811 46.1291C62.1923 46.4401 61.9913 46.7481 61.7781 47.0531C61.571 47.3519 61.3609 47.6415 61.1476 47.922C60.9405 48.1965 60.7487 48.4434 60.5721 48.6631V50.648C60.5721 51.2091 60.5203 51.6848 60.4167 52.0751C60.3192 52.4714 60.1822 52.7917 60.0056 53.0356C59.835 53.2856 59.6279 53.4655 59.3843 53.5752C59.1467 53.6851 58.8879 53.7399 58.6077 53.7399C58.2604 53.7399 57.9711 53.6301 57.7396 53.4107C57.5083 53.1972 57.3925 52.9014 57.3925 52.5233ZM57.5569 48.1233C57.7458 48.1233 57.9316 48.0685 58.1143 47.9586C58.3031 47.8489 58.4767 47.7086 58.635 47.5379C58.7934 47.3671 58.9335 47.1812 59.0554 46.9799C59.1832 46.7726 59.2777 46.5713 59.3386 46.3761V43.7966C59.3386 43.5222 59.296 43.2751 59.2107 43.0556C59.1255 42.8299 59.0127 42.6409 58.8726 42.4885C58.7325 42.3299 58.5711 42.2079 58.3884 42.1226C58.2117 42.0371 58.029 41.9945 57.8401 41.9945C57.5478 41.9945 57.2919 42.0829 57.0727 42.2598C56.8535 42.4305 56.6706 42.6593 56.5245 42.9458C56.3783 43.2263 56.2687 43.5495 56.1955 43.9155C56.1285 44.2814 56.0951 44.6533 56.0951 45.0314C56.0951 45.501 56.1224 45.9248 56.1773 46.3029C56.2382 46.681 56.3295 47.0074 56.4514 47.2818C56.5732 47.5501 56.7255 47.7575 56.9082 47.9038C57.0909 48.0501 57.3072 48.1233 57.5569 48.1233ZM58.5072 53.1819C58.6046 53.1819 58.702 53.1605 58.7995 53.1179C58.9031 53.0813 58.9945 52.9929 59.0736 52.8527C59.1528 52.7123 59.2167 52.505 59.2655 52.2305C59.3142 51.9561 59.3386 51.5842 59.3386 51.1146V49.7515C58.9184 50.2577 58.5742 50.7365 58.3062 51.1877C58.0442 51.6451 57.9132 52.072 57.9132 52.4684C57.9132 52.6575 57.9651 52.8222 58.0686 52.9624C58.1722 53.1088 58.3183 53.1819 58.5072 53.1819Z" fill="url(#paint4_linear_3226_25448)"/>
<path d="M63.0755 45.0314L62.9842 45.2144L62.8928 45.4064L62.5182 45.1229L62.6096 44.9307C62.7618 44.6197 62.8867 44.3087 62.9842 43.9977C63.0878 43.6806 63.1699 43.3849 63.2309 43.1105C63.2979 42.8361 63.3528 42.5952 63.3954 42.3878C63.438 42.1805 63.4806 42.031 63.5232 41.9396C63.5599 41.8663 63.6116 41.8085 63.6786 41.7658C63.7517 41.7169 63.8247 41.6773 63.8978 41.6468C63.9771 41.6163 64.0502 41.595 64.1172 41.5828C64.1903 41.5706 64.242 41.5645 64.2724 41.5645C64.4065 41.5645 64.4948 41.592 64.5374 41.6468C64.5861 41.7017 64.6105 41.7993 64.6105 41.9396C64.6105 42.0067 64.5953 42.1743 64.5649 42.4426C64.5405 42.7049 64.51 43.0372 64.4735 43.4397C64.443 43.8362 64.4125 44.2844 64.3821 44.7844C64.3578 45.2785 64.3455 45.7906 64.3455 46.3212C64.3455 46.7054 64.3638 47.0104 64.4004 47.2359C64.4369 47.4555 64.4826 47.6202 64.5374 47.73C64.5984 47.8397 64.6624 47.9098 64.7294 47.9404C64.8024 47.9709 64.8755 47.986 64.9486 47.986C65.0461 47.986 65.1557 47.9434 65.2774 47.8579C65.3993 47.7726 65.5425 47.6233 65.7069 47.4097C65.8714 47.1902 66.0602 46.8976 66.2734 46.5316C66.4867 46.1596 66.7364 45.6901 67.0226 45.1229L67.1231 44.9307L67.4977 45.2144L67.3972 45.4064C67.1657 45.8577 66.9344 46.3029 66.7029 46.742C66.4774 47.1811 66.2461 47.5714 66.0085 47.9129C65.777 48.2544 65.5425 48.5319 65.3049 48.7453C65.0673 48.9526 64.8298 49.0563 64.5923 49.0563C64.3425 49.0563 64.1263 49.0076 63.9436 48.91C63.767 48.8063 63.6176 48.6386 63.4959 48.4068C63.3801 48.1752 63.2918 47.8702 63.2309 47.4921C63.176 47.1079 63.1487 46.6353 63.1487 46.0743C63.1487 45.9157 63.1487 45.751 63.1487 45.5802C63.1487 45.4034 63.1548 45.2205 63.1669 45.0314H63.0755ZM64.9486 39.6892C64.9486 39.9026 64.8755 40.0826 64.7294 40.229C64.5892 40.3692 64.4125 40.4393 64.1994 40.4393C63.9923 40.4393 63.8156 40.3692 63.6695 40.229C63.5232 40.0826 63.4501 39.9026 63.4501 39.6892C63.4501 39.4819 63.5232 39.305 63.6695 39.1587C63.8156 39.0124 63.9923 38.9391 64.1994 38.9391C64.4125 38.9391 64.5892 39.0124 64.7294 39.1587C64.8755 39.305 64.9486 39.4819 64.9486 39.6892Z" fill="url(#paint5_linear_3226_25448)"/>
<path d="M68.9778 49.0563C68.6063 49.0563 68.2835 48.9771 68.0094 48.8185C67.7413 48.66 67.5191 48.4466 67.3423 48.1782C67.1657 47.9038 67.0348 47.5897 66.9495 47.2359C66.8643 46.8823 66.8215 46.5072 66.8215 46.1109C66.8215 45.7633 66.855 45.4095 66.922 45.0497C66.9891 44.6899 67.0835 44.3423 67.2054 44.0069C67.3332 43.6654 67.4916 43.3483 67.6804 43.0555C67.8693 42.7567 68.0855 42.4976 68.3291 42.278C68.5728 42.0585 68.8438 41.8847 69.1423 41.7566C69.4469 41.6286 69.7727 41.5645 70.1199 41.5645C70.5159 41.5645 70.8508 41.6529 71.1249 41.8297C71.4052 42.0067 71.6305 42.2231 71.8011 42.4792C71.8071 41.3267 71.865 40.3082 71.9747 39.424C72.0843 38.5397 72.2366 37.7987 72.4315 37.2011C72.6325 36.6035 72.8701 36.1523 73.1442 35.8473C73.4183 35.5363 73.7198 35.3807 74.0487 35.3807C74.1645 35.3807 74.268 35.3961 74.3593 35.4264C74.4568 35.4509 74.5361 35.4997 74.5969 35.5729C74.6639 35.6461 74.7127 35.7467 74.7432 35.8747C74.7797 35.9967 74.7979 36.1553 74.7979 36.3504C74.7979 36.7529 74.7583 37.2163 74.6792 37.7409C74.5999 38.2592 74.4873 38.8263 74.3411 39.4423C74.195 40.0521 74.0152 40.7047 73.802 41.3999C73.5949 42.089 73.3635 42.8055 73.1076 43.5495C73.1137 44.202 73.1229 44.7662 73.1351 45.2418C73.1472 45.7174 73.1625 46.12 73.1807 46.4493C73.2051 46.7786 73.2325 47.0469 73.263 47.2543C73.2996 47.4616 73.3391 47.6233 73.3817 47.7391C73.4304 47.8488 73.4853 47.925 73.5462 47.9678C73.6132 48.0044 73.6863 48.0226 73.7655 48.0226C73.9055 48.0226 74.0456 47.9616 74.1857 47.8397C74.332 47.7116 74.4873 47.5257 74.6517 47.2818C74.8162 47.0316 74.9929 46.7268 75.1816 46.3669C75.3766 46.0072 75.5897 45.5925 75.8212 45.1229L75.9218 44.9307L76.2964 45.2144L76.1959 45.4064C75.8426 46.12 75.532 46.7115 75.2639 47.1811C74.9959 47.6445 74.7492 48.0166 74.5238 48.2971C74.3046 48.5776 74.0944 48.7758 73.8934 48.8916C73.6924 49.0015 73.4822 49.0563 73.263 49.0563C73.0497 49.0563 72.864 49.0045 72.7056 48.9009C72.5533 48.7911 72.4224 48.6234 72.3127 48.3977C72.2031 48.1659 72.1148 47.8733 72.0477 47.5196C71.9807 47.1597 71.929 46.7299 71.8925 46.2297C71.6793 46.6567 71.46 47.0439 71.2347 47.3915C71.0092 47.7391 70.7747 48.038 70.5311 48.288C70.2935 48.5319 70.0438 48.721 69.7818 48.855C69.52 48.9892 69.2519 49.0563 68.9778 49.0563ZM70.3027 42.031C69.9677 42.031 69.6752 42.1347 69.4255 42.342C69.1758 42.5433 68.9687 42.8086 68.8042 43.1378C68.6398 43.4611 68.518 43.8269 68.4387 44.2355C68.3596 44.6442 68.32 45.0528 68.32 45.4614C68.32 45.7968 68.3444 46.12 68.3931 46.431C68.448 46.7359 68.5271 47.0073 68.6307 47.2452C68.7403 47.483 68.8713 47.672 69.0235 47.8123C69.1758 47.9525 69.3525 48.0226 69.5535 48.0226C69.7483 48.0226 69.9372 47.9739 70.1199 47.8763C70.3088 47.7787 70.4945 47.6233 70.6772 47.4097C70.86 47.1902 71.0458 46.9097 71.2347 46.5682C71.4234 46.2206 71.6244 45.7999 71.8376 45.3058C71.8255 45.0131 71.8164 44.7021 71.8102 44.3728C71.8041 44.0374 71.8011 43.6806 71.8011 43.3025C71.6671 42.9062 71.463 42.5952 71.1889 42.3695C70.921 42.1439 70.6255 42.031 70.3027 42.031ZM74.1401 36.6888C74.1401 36.4083 74.1066 36.2131 74.0396 36.1034C73.9786 35.9937 73.9055 35.9387 73.8203 35.9387C73.6742 35.9387 73.5553 36.0821 73.4639 36.3687C73.3726 36.6492 73.2995 37.0304 73.2447 37.5121C73.196 37.9939 73.1595 38.5519 73.1351 39.1862C73.1167 39.8204 73.1076 40.4881 73.1076 41.1895V42.1957C73.2965 41.5797 73.4578 41.0248 73.5919 40.5309C73.7259 40.0368 73.8325 39.5764 73.9116 39.1496C73.9909 38.7226 74.0487 38.311 74.0853 37.9147C74.1219 37.5182 74.1401 37.1096 74.1401 36.6888Z" fill="url(#paint6_linear_3226_25448)"/>
<path d="M15.31 40.9527C15.31 42.173 15.4269 43.2376 15.6607 44.1462C15.8944 45.0547 16.2022 45.8108 16.5842 46.4142C16.9719 47.0176 17.4109 47.4719 17.9011 47.7771C18.3971 48.0753 18.9046 48.2246 19.4233 48.2246C19.7939 48.2246 20.1588 48.1432 20.5179 47.9805C20.8827 47.8177 21.2362 47.5737 21.5782 47.2482C21.9204 46.9227 22.2482 46.516 22.5618 46.0277C22.881 45.5395 23.1774 44.9666 23.4511 44.3089L23.5452 44.0953L23.8958 44.4106L23.8017 44.6242C23.4881 45.3768 23.1403 46.0379 22.7584 46.6075C22.3821 47.177 21.9802 47.6549 21.5526 48.0415C21.1251 48.4211 20.6803 48.7094 20.2186 48.906C19.7626 49.1025 19.295 49.2009 18.8162 49.2009C18.4057 49.2009 17.9981 49.1298 17.5934 48.9873C17.1942 48.8518 16.8123 48.6449 16.4474 48.367C16.0882 48.0822 15.7519 47.7262 15.4383 47.299C15.1304 46.8719 14.8625 46.3736 14.6345 45.8039C14.4064 45.2276 14.2268 44.5801 14.0957 43.8614C13.9703 43.136 13.9076 42.3392 13.9076 41.4714C13.9076 40.3254 13.9874 39.2881 14.1471 38.3591C14.3123 37.4236 14.5319 36.5929 14.8055 35.8673C15.0848 35.1351 15.407 34.5011 15.7718 33.9656C16.1424 33.4299 16.5301 32.9891 16.9348 32.6434C17.3396 32.2908 17.7529 32.0298 18.1748 31.8603C18.5967 31.6908 19.0014 31.606 19.3891 31.606C19.8964 31.606 20.364 31.711 20.7916 31.9213C21.2192 32.1247 21.5868 32.4162 21.8947 32.796C22.2026 33.1689 22.442 33.6265 22.613 34.169C22.7897 34.7046 22.8781 35.3013 22.8781 35.959C22.8781 36.5895 22.7954 37.1828 22.6302 37.7387C22.4705 38.2948 22.2539 38.7829 21.9802 39.2033C21.7123 39.617 21.4016 39.9458 21.0481 40.1899C20.7003 40.4339 20.3354 40.556 19.9535 40.556C19.6969 40.556 19.4575 40.5018 19.2352 40.3933C19.0128 40.2848 18.819 40.1323 18.6537 39.9356C18.4884 39.739 18.3573 39.4982 18.2603 39.2136C18.1634 38.9287 18.1149 38.6134 18.1149 38.2676C18.1149 37.9355 18.1577 37.6167 18.2432 37.3117C18.3287 36.9998 18.437 36.7149 18.5681 36.4573C18.6993 36.1929 18.8419 35.9623 18.9957 35.7657C19.1554 35.5623 19.3093 35.4029 19.4575 35.2877L19.6885 35.5623C19.5687 35.7251 19.4547 35.9013 19.3463 36.0911C19.2437 36.2742 19.1525 36.4742 19.0727 36.6913C18.9928 36.9014 18.9301 37.1285 18.8846 37.3727C18.839 37.6167 18.8162 37.8811 18.8162 38.166C18.8162 38.4575 18.8447 38.7185 18.9017 38.9491C18.9644 39.1796 19.0471 39.3762 19.1496 39.539C19.258 39.7017 19.3806 39.8271 19.5174 39.9152C19.6542 39.9966 19.7996 40.0374 19.9535 40.0374C20.1645 40.0374 20.3754 39.9458 20.5863 39.7627C20.7973 39.5728 20.9854 39.2982 21.1508 38.9389C21.316 38.5728 21.45 38.1252 21.5526 37.5963C21.6552 37.0675 21.7066 36.4574 21.7066 35.7657C21.7066 35.1419 21.6466 34.6029 21.527 34.1486C21.413 33.6875 21.2533 33.3079 21.0481 33.0095C20.8429 32.7111 20.6005 32.4908 20.3213 32.3484C20.0418 32.1992 19.7426 32.1247 19.4233 32.1247C19.1953 32.1247 18.9359 32.1857 18.6451 32.3077C18.3543 32.423 18.0551 32.6162 17.7472 32.8875C17.445 33.1586 17.1486 33.518 16.8579 33.9656C16.5671 34.4062 16.3049 34.9555 16.0711 35.6132C15.8431 36.2641 15.6578 37.0303 15.5153 37.9117C15.3785 38.7932 15.31 39.8067 15.31 40.9527Z" fill="url(#paint7_linear_3226_25448)"/>
<path d="M19.255 29.9752C16.0061 30.9771 14.6371 36.229 14.4456 38.3328L15.5893 36.0042C15.8065 32.4688 18.4819 30.2136 19.255 29.9752Z" fill="url(#paint8_linear_3226_25448)"/>
<path d="M36.9594 6.86231L37.3651 6.20251C42.7403 9.4 44.5152 16.201 44.7181 17.3176C43.1765 11.2677 38.9032 7.82664 36.9594 6.86231Z" fill="#C4C4C4"/>
<path d="M36.9594 6.86231L37.3651 6.20251C42.7403 9.4 44.5152 16.201 44.7181 17.3176C43.1765 11.2677 38.9032 7.82664 36.9594 6.86231Z" fill="url(#paint9_linear_3226_25448)"/>
<path d="M53.1708 6.86231L52.765 6.20251C47.3898 9.4 45.6149 16.201 45.412 17.3176C46.9536 11.2677 51.2269 7.82664 53.1708 6.86231Z" fill="#C4C4C4"/>
<path d="M53.1708 6.86231L52.765 6.20251C47.3898 9.4 45.6149 16.201 45.412 17.3176C46.9536 11.2677 51.2269 7.82664 53.1708 6.86231Z" fill="url(#paint10_linear_3226_25448)"/>
<path d="M38.6659 25.5796C42.9909 25.5796 42.8143 28.573 42.5827 30.219C41.3526 31.6976 38.1446 34.7158 34.9287 35.2752C34.7537 35.3055 34.5739 35.2671 34.4336 35.1581C33.4751 34.4139 31.9146 32.4147 31.9146 29.1388C31.9146 27.1125 33.2997 25.2835 33.9923 24.6224C35.4265 25.2385 37.0064 25.5796 38.6659 25.5796Z" fill="url(#paint11_linear_3226_25448)"/>
<g style="mix-blend-mode:lighten">
<path style="mix-blend-mode:lighten" d="M31.9146 29.1388C31.9146 27.1125 33.2997 25.2835 33.9923 24.6224C34.9162 25.0192 35.9006 25.302 36.9278 25.453C36.8017 25.9095 36.562 27.2855 36.6124 29.1388C36.663 30.992 37.9372 32.9769 38.5679 33.7378C37.4337 34.4658 36.1819 35.0572 34.9287 35.2752C34.7537 35.3055 34.5739 35.2671 34.4336 35.1581C33.4751 34.4139 31.9146 32.4147 31.9146 29.1388Z" fill="url(#paint12_linear_3226_25448)"/>
</g>
<g style="mix-blend-mode:luminosity">
<g style="mix-blend-mode:luminosity">
<path d="M38.6659 25.5796C42.9909 25.5796 42.8143 28.573 42.5826 30.219C42.4566 29.1136 41.4291 26.993 38.3268 27.3534C35.2244 27.7139 33.3565 26.7096 32.8103 26.1624C33.217 25.4677 33.6766 24.9238 33.9923 24.6224C35.4264 25.2385 37.0063 25.5796 38.6659 25.5796Z" fill="#313131" fill-opacity="0.2"/>
</g>
</g>
<path d="M44.6756 25.5796C44.6892 25.3977 44.6915 25.1728 44.6895 24.9724C44.6859 24.6324 44.678 24.2911 44.6681 23.9511C44.3979 14.5912 36.7345 7.08667 27.3202 7.08667C27.035 7.08667 26.8037 7.3182 26.8037 7.60381V13.7034C26.8037 18.601 29.7648 22.8062 33.9924 24.6223C35.4265 25.2385 37.0064 25.5796 38.6659 25.5796C42.991 25.5796 42.8144 28.573 42.5827 30.219C44.2509 28.9553 44.5265 27.562 44.6756 25.5796Z" fill="url(#paint13_linear_3226_25448)"/>
<g style="mix-blend-mode:lighten">
<path style="mix-blend-mode:lighten" d="M26.8129 7.5063C26.8584 7.2673 27.0682 7.08667 27.3201 7.08667C35.847 7.08667 42.9376 13.2431 44.3994 21.3585C41.4335 20.4625 34.8288 18.1842 32.1361 16.2381C29.4823 14.3202 27.5167 9.80435 26.833 7.69524C26.8129 7.63344 26.8006 7.57013 26.8129 7.5063Z" fill="url(#paint14_linear_3226_25448)"/>
</g>
<path d="M51.4361 25.5796C47.1111 25.5796 47.2876 28.573 47.5194 30.219C48.7494 31.6976 51.9574 34.7158 55.1734 35.2752C55.3483 35.3055 55.5281 35.2671 55.6685 35.1581C56.627 34.4139 58.1875 32.4147 58.1875 29.1388C58.1875 27.1125 56.8023 25.2835 56.1097 24.6224C54.6756 25.2385 53.0957 25.5796 51.4361 25.5796Z" fill="url(#paint15_linear_3226_25448)"/>
<g style="mix-blend-mode:lighten">
<path style="mix-blend-mode:lighten" d="M58.1874 29.1388C58.1874 27.1125 56.8022 25.2835 56.1096 24.6224C55.1858 25.0192 54.2013 25.302 53.1741 25.453C53.3003 25.9095 53.54 27.2855 53.4895 29.1388C53.439 30.992 52.1648 32.9769 51.5341 33.7378C52.6682 34.4658 53.9201 35.0572 55.1733 35.2752C55.3483 35.3055 55.5281 35.2671 55.6684 35.1581C56.6269 34.4139 58.1874 32.4147 58.1874 29.1388Z" fill="url(#paint16_linear_3226_25448)"/>
</g>
<g style="mix-blend-mode:luminosity">
<g style="mix-blend-mode:luminosity">
<path d="M51.4363 25.5796C47.1113 25.5796 47.2878 28.573 47.5195 30.219C47.6454 29.1136 48.673 26.993 51.7754 27.3534C54.8776 27.7139 56.7455 26.7096 57.2917 26.1624C56.885 25.4677 56.4254 24.9238 56.1098 24.6224C54.6756 25.2385 53.0957 25.5796 51.4363 25.5796Z" fill="#313131" fill-opacity="0.2"/>
</g>
</g>
<path d="M45.4265 25.5796C45.4129 25.3977 45.4106 25.1728 45.4126 24.9724C45.416 24.6324 45.4241 24.2911 45.434 23.9511C45.7042 14.5912 53.3676 7.08667 62.7819 7.08667C63.0672 7.08667 63.2984 7.3182 63.2984 7.60381V13.7034C63.2984 18.601 60.3373 22.8062 56.1097 24.6223C54.6756 25.2385 53.0957 25.5796 51.4361 25.5796C47.1111 25.5796 47.2877 28.573 47.5194 30.219C45.8512 28.9553 45.5756 27.562 45.4265 25.5796Z" fill="url(#paint17_linear_3226_25448)"/>
<g style="mix-blend-mode:lighten">
<path style="mix-blend-mode:lighten" d="M63.2891 7.5063C63.2436 7.2673 63.0337 7.08667 62.7819 7.08667C54.255 7.08667 47.1644 13.2431 45.7026 21.3585C48.6685 20.4625 55.2732 18.1842 57.966 16.2381C60.6198 14.3202 62.5853 9.80435 63.269 7.69524C63.289 7.63344 63.3014 7.57013 63.2891 7.5063Z" fill="url(#paint18_linear_3226_25448)"/>
</g>
<defs>
<linearGradient id="paint0_linear_3226_25448" x1="28.4443" y1="29.1942" x2="-15.7887" y2="30.6028" gradientUnits="userSpaceOnUse">
<stop stop-color="#F30092"/>
<stop offset="1" stop-color="#20ACE8"/>
</linearGradient>
<linearGradient id="paint1_linear_3226_25448" x1="28.4444" y1="29.1942" x2="-15.7886" y2="30.6027" gradientUnits="userSpaceOnUse">
<stop stop-color="#F30092"/>
<stop offset="1" stop-color="#20ACE8"/>
</linearGradient>
<linearGradient id="paint2_linear_3226_25448" x1="28.4444" y1="29.1942" x2="-15.7886" y2="30.6028" gradientUnits="userSpaceOnUse">
<stop stop-color="#F30092"/>
<stop offset="1" stop-color="#20ACE8"/>
</linearGradient>
<linearGradient id="paint3_linear_3226_25448" x1="28.4444" y1="29.1942" x2="-15.7886" y2="30.6028" gradientUnits="userSpaceOnUse">
<stop stop-color="#F30092"/>
<stop offset="1" stop-color="#20ACE8"/>
</linearGradient>
<linearGradient id="paint4_linear_3226_25448" x1="28.4443" y1="29.1942" x2="-15.7887" y2="30.6028" gradientUnits="userSpaceOnUse">
<stop stop-color="#F30092"/>
<stop offset="1" stop-color="#20ACE8"/>
</linearGradient>
<linearGradient id="paint5_linear_3226_25448" x1="28.4444" y1="29.1941" x2="-15.7887" y2="30.6027" gradientUnits="userSpaceOnUse">
<stop stop-color="#F30092"/>
<stop offset="1" stop-color="#20ACE8"/>
</linearGradient>
<linearGradient id="paint6_linear_3226_25448" x1="28.4444" y1="29.1942" x2="-15.7886" y2="30.6027" gradientUnits="userSpaceOnUse">
<stop stop-color="#F30092"/>
<stop offset="1" stop-color="#20ACE8"/>
</linearGradient>
<linearGradient id="paint7_linear_3226_25448" x1="28.4444" y1="29.1942" x2="-15.7886" y2="30.6027" gradientUnits="userSpaceOnUse">
<stop stop-color="#F30092"/>
<stop offset="1" stop-color="#20ACE8"/>
</linearGradient>
<linearGradient id="paint8_linear_3226_25448" x1="28.4444" y1="29.1942" x2="-15.7886" y2="30.6028" gradientUnits="userSpaceOnUse">
<stop stop-color="#F30092"/>
<stop offset="1" stop-color="#20ACE8"/>
</linearGradient>
<linearGradient id="paint9_linear_3226_25448" x1="36.9594" y1="6.20251" x2="44.743" y2="19.9941" gradientUnits="userSpaceOnUse">
<stop stop-color="#F30092"/>
<stop offset="1" stop-color="#20ACE8"/>
</linearGradient>
<linearGradient id="paint10_linear_3226_25448" x1="53.1708" y1="6.20251" x2="45.3871" y2="19.9941" gradientUnits="userSpaceOnUse">
<stop stop-color="#F30092"/>
<stop offset="1" stop-color="#20ACE8"/>
</linearGradient>
<linearGradient id="paint11_linear_3226_25448" x1="33.9408" y1="24.7639" x2="37.2834" y2="34.5831" gradientUnits="userSpaceOnUse">
<stop stop-color="#F30092"/>
<stop offset="1" stop-color="#1E9BD1"/>
</linearGradient>
<linearGradient id="paint12_linear_3226_25448" x1="33.9408" y1="24.7639" x2="35.7375" y2="32.7275" gradientUnits="userSpaceOnUse">
<stop stop-color="#F30092"/>
<stop offset="1" stop-color="#1E9BD1"/>
</linearGradient>
<linearGradient id="paint13_linear_3226_25448" x1="26.8037" y1="7.08667" x2="42.1189" y2="37.122" gradientUnits="userSpaceOnUse">
<stop stop-color="#F30092"/>
<stop offset="1" stop-color="#20ACE8"/>
</linearGradient>
<linearGradient id="paint14_linear_3226_25448" x1="26.8037" y1="7.08667" x2="33.5732" y2="28.2724" gradientUnits="userSpaceOnUse">
<stop stop-color="#F30092"/>
<stop offset="1" stop-color="#20ACE8"/>
</linearGradient>
<linearGradient id="paint15_linear_3226_25448" x1="56.1613" y1="24.7639" x2="52.8187" y2="34.5831" gradientUnits="userSpaceOnUse">
<stop stop-color="#F30092"/>
<stop offset="1" stop-color="#1E9BD1"/>
</linearGradient>
<linearGradient id="paint16_linear_3226_25448" x1="56.1612" y1="24.7639" x2="54.3645" y2="32.7275" gradientUnits="userSpaceOnUse">
<stop stop-color="#F30092"/>
<stop offset="1" stop-color="#1E9BD1"/>
</linearGradient>
<linearGradient id="paint17_linear_3226_25448" x1="63.2984" y1="7.08667" x2="47.9832" y2="37.122" gradientUnits="userSpaceOnUse">
<stop stop-color="#F30092"/>
<stop offset="1" stop-color="#20ACE8"/>
</linearGradient>
<linearGradient id="paint18_linear_3226_25448" x1="63.2984" y1="7.08667" x2="56.5288" y2="28.2724" gradientUnits="userSpaceOnUse">
<stop stop-color="#F30092"/>
<stop offset="1" stop-color="#20ACE8"/>
</linearGradient>
</defs>
</svg>
