<svg width="193" height="128" viewBox="0 0 193 128" fill="none" xmlns="http://www.w3.org/2000/svg">
<path d="M66.4769 96.4575L66.2625 96.8671C65.8207 97.7518 65.2294 98.4609 64.4888 98.9942C63.7611 99.5146 62.9683 99.853 62.1106 100.009C61.8768 100.673 61.5714 101.29 61.1946 101.863C60.8308 102.422 60.4084 102.91 59.9275 103.327C59.4598 103.743 58.9271 104.068 58.3294 104.302C57.7446 104.537 57.1078 104.654 56.4192 104.654C55.4185 104.654 54.5155 104.445 53.7098 104.029C52.9171 103.6 52.2415 103.027 51.6826 102.312C51.1237 101.583 50.6952 100.738 50.396 99.7749C50.0972 98.7993 49.9478 97.7582 49.9478 96.6524C49.9478 95.6897 50.0583 94.818 50.2792 94.0376C50.5001 93.244 50.7796 92.5413 51.1173 91.9299C51.4552 91.3056 51.832 90.7655 52.2479 90.3102C52.6636 89.842 53.073 89.458 53.4757 89.1588C53.8787 88.8595 54.2425 88.6384 54.5673 88.4953C54.9053 88.3392 55.1585 88.2611 55.3276 88.2611L55.5809 88.9441C55.0482 89.3346 54.5738 89.8808 54.1581 90.5835C53.7943 91.1819 53.4628 91.9756 53.1639 92.9642C52.878 93.9531 52.7351 95.1823 52.7351 96.6524C52.7351 97.5503 52.8198 98.4217 52.9886 99.2675C53.1574 100.113 53.4042 100.861 53.7293 101.512C54.054 102.162 54.4505 102.682 54.9182 103.073C55.3991 103.463 55.9383 103.658 56.536 103.658C57.3546 103.658 58.0305 103.333 58.5632 102.682C59.1089 102.019 59.5118 101.115 59.7716 99.9702C59.0959 99.827 58.4526 99.5602 57.842 99.17C57.2313 98.7796 56.6919 98.2983 56.2242 97.7258C55.7565 97.1404 55.3794 96.4704 55.0935 95.7159C54.8208 94.9612 54.6843 94.1416 54.6843 93.2569C54.6843 92.5283 54.7752 91.891 54.9573 91.3445C55.152 90.785 55.4056 90.3232 55.7174 89.9589C56.0292 89.5816 56.3866 89.3019 56.7895 89.1199C57.2052 88.9246 57.6405 88.8271 58.0953 88.8271C58.6282 88.8271 59.1739 88.9832 59.7327 89.2954C60.2913 89.5946 60.7981 90.0499 61.2529 90.6615C61.7079 91.26 62.0783 92.0145 62.3642 92.9253C62.6498 93.8359 62.7927 94.8961 62.7927 96.1061C62.7927 96.5614 62.7669 97.0102 62.7148 97.4526C62.663 97.8949 62.5851 98.3243 62.4809 98.7407C63.1048 98.5584 63.6699 98.2657 64.1767 97.8625C64.6964 97.459 65.1253 96.9257 65.4633 96.2622L65.6777 95.8523L66.4769 96.4575ZM55.9707 93.1008C55.9707 93.8683 56.0748 94.5774 56.2827 95.228C56.5036 95.8655 56.796 96.4313 57.1599 96.9257C57.5237 97.4072 57.9458 97.8104 58.4267 98.1358C58.9074 98.4609 59.4207 98.6885 59.9666 98.8187C60.0316 98.4544 60.0704 98.0772 60.0834 97.6867C60.1095 97.2835 60.1225 96.8736 60.1225 96.4575C60.1225 95.5336 60.051 94.7011 59.9081 93.9596C59.7651 93.2048 59.5768 92.5675 59.3427 92.0471C59.1089 91.5135 58.8359 91.1039 58.5241 90.8176C58.2123 90.5314 57.894 90.3883 57.569 90.3883C57.1272 90.3883 56.7504 90.6289 56.4386 91.1104C56.1268 91.5786 55.9707 92.2421 55.9707 93.1008Z" fill="url(#paint0_linear_3014_19221)"/>
<path d="M77.0802 97.8625C77.0802 98.7471 76.9437 99.5991 76.671 100.419C76.411 101.226 76.0213 101.947 75.5015 102.585C74.9947 103.21 74.3579 103.71 73.5913 104.088C72.8374 104.465 71.9735 104.654 70.9988 104.654C70.2972 104.654 69.6669 104.543 69.108 104.322C68.5623 104.088 68.0946 103.782 67.7046 103.405C67.3149 103.014 67.016 102.579 66.8081 102.097C66.6001 101.603 66.4963 101.095 66.4963 100.575C66.4963 100.055 66.5936 99.5732 66.7886 99.1309C66.9966 98.6756 67.2693 98.2918 67.6073 97.9794C67.9582 97.6543 68.3544 97.4007 68.7962 97.2184C69.238 97.0364 69.706 96.9452 70.1996 96.9452C70.5116 96.9452 70.8364 96.9843 71.1743 97.0623V97.6284C70.7584 97.6284 70.349 97.7129 69.9463 97.8819C69.5565 98.051 69.2056 98.2854 68.8938 98.5846C68.5947 98.8708 68.3544 99.2219 68.1726 99.6383C67.9905 100.041 67.8996 100.477 67.8996 100.946C67.8996 101.804 68.192 102.494 68.7768 103.014C69.3745 103.522 70.1866 103.775 71.2132 103.775C71.7329 103.775 72.2074 103.678 72.6362 103.483C73.0648 103.275 73.4287 102.995 73.7275 102.644C74.0396 102.279 74.2735 101.85 74.4294 101.355C74.5982 100.861 74.6826 100.321 74.6826 99.7358C74.6826 99.1765 74.5723 98.6561 74.3514 98.1747C74.1305 97.6934 73.8381 97.2379 73.4743 96.8085C73.1104 96.3794 72.6945 95.976 72.2268 95.5987C71.772 95.2215 71.3041 94.8637 70.8234 94.5253C70.3555 94.1743 69.8942 93.8359 69.4395 93.5108C68.9847 93.1854 68.5882 92.8602 68.2505 92.5348L66.3013 96.8671L65.5021 96.2622L67.4902 91.9105C67.0096 91.4552 66.6522 91.0258 66.4183 90.6224C66.1974 90.2062 66.0868 89.7118 66.0868 89.1393C66.0868 88.8271 66.1389 88.5344 66.2427 88.2611C66.3598 87.9749 66.5092 87.7343 66.6913 87.539C66.886 87.3308 67.1069 87.1683 67.354 87.0513C67.6008 86.9341 67.8605 86.8755 68.1335 86.8755C68.6273 86.8755 68.9977 87.0187 69.2445 87.3049C69.4915 87.5782 69.6148 87.923 69.6148 88.3392C69.6148 88.5344 69.5954 88.7426 69.5565 88.9638C69.5174 89.172 69.4654 89.3864 69.4004 89.6076C69.3486 89.8158 69.2901 90.011 69.2251 90.193C69.173 90.3753 69.1277 90.5314 69.0886 90.6615C69.4786 90.9607 69.9463 91.2535 70.4919 91.5397C71.0379 91.8127 71.6029 92.099 72.1877 92.3982C72.7857 92.6977 73.3769 93.0228 73.9616 93.3741C74.5464 93.7254 75.0662 94.1157 75.5209 94.545C75.9886 94.9744 76.3654 95.4621 76.6513 96.0086C76.9372 96.5549 77.0802 97.1728 77.0802 97.8625ZM68.1726 87.7537C67.9905 87.7537 67.8411 87.8188 67.7243 87.949C67.6202 88.0659 67.5681 88.2287 67.5681 88.4369C67.5681 88.6711 67.6267 88.9311 67.7437 89.2174C67.8605 89.5036 68.0685 89.7834 68.3673 90.0566C68.4973 89.7834 68.5947 89.5166 68.6597 89.2565C68.7377 88.9962 68.7768 88.7361 68.7768 88.4758C68.7768 88.2676 68.7182 88.0986 68.6015 87.9684C68.4973 87.8253 68.3544 87.7537 68.1726 87.7537Z" fill="url(#paint1_linear_3014_19221)"/>
<path d="M85.0327 90.0566C84.6559 90.0566 84.292 90.193 83.9414 90.4663C83.6034 90.7266 83.2787 91.0909 82.9666 91.5592C82.6548 92.0144 82.3495 92.5545 82.0506 93.1789C81.7647 93.7902 81.4788 94.4473 81.1929 95.1499V95.384C81.1541 96.529 81.115 97.7453 81.0761 99.0334C81.05 100.321 81.037 101.726 81.037 103.248C81.037 103.509 80.9461 103.73 80.7641 103.912C80.5952 104.081 80.3937 104.224 80.1599 104.341C79.926 104.445 79.6857 104.524 79.4386 104.575C79.1918 104.628 78.9904 104.654 78.8345 104.654C78.6395 104.654 78.4577 104.595 78.2888 104.478C78.1197 104.361 78.0353 104.101 78.0353 103.697C78.0353 103.502 78.0547 103.261 78.0938 102.975C78.1327 102.676 78.1847 102.357 78.2497 102.019C78.3018 101.681 78.3668 101.336 78.4447 100.985C78.5097 100.62 78.5745 100.282 78.6395 99.9702C78.6395 98.8641 78.6395 97.869 78.6395 96.9843C78.6265 96.0996 78.62 95.3125 78.62 94.6231C78.62 93.9334 78.62 93.3285 78.62 92.8081C78.6071 92.2877 78.6006 91.8389 78.6006 91.4617C78.6006 90.8371 78.6136 90.3818 78.6395 90.0955C78.6527 89.7963 78.6786 89.5881 78.7174 89.4712C78.7824 89.2889 78.8995 89.1458 79.0683 89.0418C79.2504 88.9376 79.4387 88.8595 79.6337 88.8077C79.8287 88.7426 80.0234 88.7035 80.2184 88.6905C80.4134 88.6775 80.5629 88.6711 80.6667 88.6711C80.9135 88.6711 81.0761 88.7426 81.1541 88.8857C81.232 89.0289 81.2709 89.25 81.2709 89.5492C81.2709 90.2257 81.2709 90.8371 81.2709 91.3836C81.2709 91.9299 81.2579 92.4765 81.232 93.0228C81.4788 92.4373 81.7647 91.8843 82.0895 91.3639C82.4274 90.8306 82.7978 90.3688 83.2007 89.9786C83.6034 89.5752 84.0258 89.2565 84.4676 89.0221C84.9224 88.788 85.3901 88.6711 85.871 88.6711C86.4558 88.6711 86.9364 88.7945 87.3135 89.0418C87.7032 89.2759 88.0085 89.6076 88.2294 90.0369C88.4633 90.4663 88.6324 90.9737 88.7363 91.5592C88.8533 92.1316 88.9313 92.756 88.9701 93.4327C89.334 92.7689 89.7237 92.1511 90.1396 91.5786C90.5685 90.9932 91.0168 90.4857 91.4845 90.0566C91.9654 89.6273 92.4657 89.2889 92.9855 89.0418C93.5182 88.7945 94.0706 88.6711 94.6421 88.6711C95.6298 88.6711 96.3511 88.9832 96.8058 89.6076C97.2606 90.2192 97.4879 91.0517 97.4879 92.1055C97.4879 92.7689 97.4362 93.5107 97.332 94.3303C97.2282 95.1499 97.1176 95.9824 97.0008 96.8282C96.8838 97.6608 96.7732 98.4803 96.6693 99.287C96.5655 100.094 96.5134 100.829 96.5134 101.492C96.5134 102.299 96.7149 102.702 97.1176 102.702C97.3256 102.702 97.5529 102.578 97.7997 102.331C98.0468 102.071 98.3262 101.681 98.638 101.161C98.9628 100.627 99.3331 99.9569 99.749 99.1503C100.178 98.3437 100.672 97.381 101.23 96.2622L101.425 95.8523L102.225 96.4575L102.03 96.8671C101.263 98.4023 100.607 99.6707 100.061 100.673C99.5281 101.674 99.0472 102.475 98.6186 103.073C98.1898 103.658 97.7803 104.068 97.3906 104.302C97.0138 104.537 96.5914 104.654 96.1237 104.654C95.8507 104.654 95.5842 104.615 95.3245 104.537C95.0645 104.459 94.8371 104.322 94.6421 104.127C94.4474 103.931 94.2915 103.671 94.1744 103.346C94.0573 103.008 93.9991 102.578 93.9991 102.058C93.9991 101.277 94.0509 100.399 94.155 99.4236C94.2588 98.4479 94.3759 97.4723 94.5059 96.4963C94.6356 95.5207 94.7527 94.6033 94.8565 93.7449C94.9606 92.8732 95.0124 92.1641 95.0124 91.6178C95.0124 91.1363 94.9086 90.7525 94.7006 90.4663C94.4927 90.1671 94.1809 90.0175 93.765 90.0175C93.3493 90.0175 92.914 90.1801 92.4592 90.5055C92.0174 90.8306 91.5821 91.2535 91.1532 91.7738C90.7373 92.2813 90.3411 92.8537 89.9643 93.491C89.6004 94.1286 89.2819 94.7597 89.0092 95.384C89.0092 96.7502 88.9963 97.947 88.9701 98.9748C88.9442 99.9896 88.9051 100.848 88.8533 101.551C88.8142 102.253 88.7557 102.813 88.6777 103.229C88.5998 103.632 88.5154 103.905 88.4245 104.049C88.3595 104.14 88.2489 104.224 88.093 104.302C87.9371 104.38 87.7617 104.445 87.5667 104.497C87.3849 104.55 87.2029 104.588 87.0211 104.615C86.852 104.641 86.7222 104.654 86.6311 104.654C86.4231 104.654 86.2413 104.595 86.0854 104.478C85.9425 104.348 85.871 104.101 85.871 103.736C85.871 103.567 85.8839 103.339 85.9098 103.053C85.9489 102.767 85.9945 102.448 86.0463 102.097C86.0984 101.746 86.1569 101.369 86.2219 100.965C86.2869 100.562 86.3516 100.152 86.4166 99.7358C86.4299 99.3456 86.4428 98.9097 86.4558 98.4285C86.4687 97.947 86.4816 97.4723 86.4946 97.0037C86.5078 96.5225 86.5143 96.067 86.5143 95.6379C86.5272 95.1955 86.5337 94.818 86.5337 94.5059C86.5337 93.8424 86.5143 93.2375 86.4752 92.6909C86.4363 92.1446 86.3584 91.6764 86.2413 91.2859C86.1375 90.8957 85.9881 90.5965 85.793 90.3883C85.598 90.1671 85.3448 90.0566 85.0327 90.0566Z" fill="url(#paint2_linear_3014_19221)"/>
<path d="M117.779 96.4575L117.564 96.8671C117.123 97.7518 116.531 98.4609 115.791 98.9942C115.063 99.5146 114.27 99.853 113.413 100.009C113.179 100.673 112.873 101.29 112.497 101.863C112.133 102.422 111.71 102.91 111.229 103.327C110.762 103.743 110.229 104.068 109.631 104.302C109.047 104.537 108.41 104.654 107.721 104.654C106.721 104.654 105.818 104.445 105.012 104.029C104.219 103.6 103.543 103.027 102.985 102.312C102.426 101.583 101.997 100.738 101.698 99.7749C101.399 98.7993 101.25 97.7582 101.25 96.6524C101.25 95.6897 101.36 94.818 101.581 94.0376C101.802 93.244 102.082 92.5413 102.419 91.9299C102.757 91.3056 103.134 90.7655 103.55 90.3102C103.966 89.842 104.375 89.458 104.778 89.1588C105.181 88.8595 105.545 88.6384 105.869 88.4953C106.207 88.3392 106.461 88.2611 106.63 88.2611L106.883 88.9441C106.35 89.3346 105.876 89.8808 105.46 90.5835C105.096 91.1819 104.765 91.9756 104.466 92.9642C104.18 93.9531 104.037 95.1823 104.037 96.6524C104.037 97.5503 104.122 98.4217 104.291 99.2675C104.459 100.113 104.707 100.861 105.031 101.512C105.356 102.162 105.752 102.682 106.22 103.073C106.701 103.463 107.24 103.658 107.838 103.658C108.657 103.658 109.333 103.333 109.865 102.682C110.411 102.019 110.814 101.115 111.074 99.9702C110.398 99.827 109.755 99.5602 109.144 99.17C108.533 98.7796 107.994 98.2983 107.526 97.7258C107.058 97.1404 106.682 96.4704 106.396 95.7159C106.123 94.9612 105.986 94.1416 105.986 93.2569C105.986 92.5283 106.077 91.891 106.259 91.3445C106.454 90.785 106.708 90.3232 107.019 89.9589C107.331 89.5816 107.689 89.3019 108.092 89.1199C108.507 88.9246 108.943 88.8271 109.398 88.8271C109.93 88.8271 110.476 88.9832 111.035 89.2954C111.593 89.5946 112.1 90.0499 112.555 90.6615C113.01 91.26 113.38 92.0145 113.666 92.9253C113.952 93.8359 114.095 94.8961 114.095 96.1061C114.095 96.5614 114.069 97.0102 114.017 97.4526C113.965 97.8949 113.887 98.3243 113.783 98.7407C114.407 98.5584 114.972 98.2657 115.479 97.8625C115.998 97.459 116.427 96.9257 116.765 96.2622L116.98 95.8523L117.779 96.4575ZM107.273 93.1008C107.273 93.8683 107.377 94.5774 107.585 95.228C107.806 95.8655 108.098 96.4313 108.462 96.9257C108.826 97.4072 109.248 97.8104 109.729 98.1358C110.21 98.4609 110.723 98.6885 111.269 98.8187C111.334 98.4544 111.372 98.0772 111.386 97.6867C111.412 97.2835 111.424 96.8736 111.424 96.4575C111.424 95.5336 111.353 94.7011 111.21 93.9596C111.067 93.2048 110.879 92.5675 110.645 92.0471C110.411 91.5135 110.138 91.1039 109.826 90.8176C109.514 90.5314 109.196 90.3883 108.871 90.3883C108.429 90.3883 108.052 90.6289 107.741 91.1104C107.429 91.5786 107.273 92.2421 107.273 93.1008Z" fill="url(#paint3_linear_3014_19221)"/>
<path d="M122.437 112.05C122.437 111.477 122.541 110.898 122.749 110.313C122.97 109.727 123.269 109.129 123.646 108.518C124.023 107.906 124.458 107.269 124.952 106.605C125.458 105.955 126.004 105.278 126.589 104.575V100.887C126.277 101.499 125.926 102.039 125.536 102.507C125.147 102.975 124.731 103.372 124.289 103.697C123.86 104.01 123.412 104.25 122.944 104.419C122.489 104.575 122.041 104.654 121.599 104.654C120.988 104.654 120.397 104.504 119.826 104.205C119.267 103.905 118.766 103.457 118.325 102.858C117.883 102.247 117.532 101.479 117.272 100.555C117.012 99.6318 116.882 98.5454 116.882 97.2965C116.882 96.2428 117.006 95.202 117.253 94.1742C117.499 93.1465 117.87 92.2291 118.364 91.4225C118.857 90.6029 119.468 89.9394 120.196 89.432C120.924 88.9246 121.775 88.6711 122.749 88.6711C123.516 88.6711 124.231 88.8271 124.893 89.1393C125.569 89.4515 126.134 89.907 126.589 90.5055V90.2711C126.589 90.024 126.661 89.8028 126.804 89.6076C126.959 89.3996 127.148 89.2303 127.369 89.1004C127.603 88.9573 127.843 88.8531 128.09 88.788C128.35 88.7099 128.577 88.6711 128.772 88.6711C128.993 88.6711 129.149 88.7035 129.24 88.7685C129.331 88.8207 129.376 88.9181 129.376 89.0613C129.376 89.2695 129.35 89.7377 129.298 90.4663C129.246 91.1949 129.221 92.2618 129.221 93.6668V102.136C129.545 101.733 129.89 101.284 130.254 100.79C130.617 100.295 130.981 99.7814 131.345 99.2481C131.709 98.7015 132.06 98.1422 132.398 97.5698C132.748 96.9973 133.073 96.4248 133.372 95.8523L133.567 95.4621L134.366 96.067L134.171 96.4575C133.859 97.0818 133.496 97.7323 133.08 98.4088C132.677 99.0723 132.248 99.7293 131.793 100.38C131.352 101.017 130.903 101.635 130.448 102.234C130.006 102.819 129.597 103.346 129.221 103.814V108.049C129.221 109.246 129.11 110.261 128.889 111.093C128.681 111.939 128.389 112.622 128.012 113.143C127.648 113.676 127.206 114.06 126.686 114.294C126.18 114.528 125.628 114.645 125.03 114.645C124.289 114.645 123.672 114.411 123.178 113.943C122.684 113.487 122.437 112.856 122.437 112.05ZM122.788 102.663C123.191 102.663 123.587 102.546 123.977 102.312C124.38 102.078 124.75 101.778 125.088 101.414C125.426 101.05 125.725 100.653 125.985 100.224C126.258 99.7814 126.459 99.352 126.589 98.9356V93.4327C126.589 92.8473 126.498 92.3201 126.316 91.8519C126.134 91.3704 125.894 90.9672 125.595 90.6421C125.296 90.3037 124.952 90.0434 124.562 89.8614C124.185 89.6791 123.795 89.5881 123.392 89.5881C122.769 89.5881 122.223 89.7769 121.755 90.1541C121.287 90.5184 120.897 91.0064 120.586 91.6178C120.274 92.2162 120.04 92.9056 119.884 93.6863C119.741 94.467 119.67 95.2604 119.67 96.067C119.67 97.0688 119.728 97.9729 119.845 98.7795C119.975 99.5862 120.17 100.282 120.43 100.868C120.689 101.44 121.014 101.883 121.404 102.195C121.794 102.507 122.255 102.663 122.788 102.663ZM124.815 113.455C125.023 113.455 125.231 113.409 125.439 113.318C125.66 113.24 125.855 113.052 126.024 112.752C126.193 112.453 126.329 112.011 126.433 111.425C126.537 110.84 126.589 110.046 126.589 109.044V106.137C125.693 107.216 124.958 108.238 124.387 109.2C123.828 110.176 123.548 111.087 123.548 111.932C123.548 112.336 123.659 112.687 123.88 112.986C124.101 113.299 124.412 113.455 124.815 113.455Z" fill="url(#paint4_linear_3014_19221)"/>
<path d="M134.561 96.067L134.366 96.4574L134.171 96.8671L133.372 96.2622L133.567 95.8523C133.892 95.1888 134.158 94.5253 134.366 93.8618C134.587 93.1853 134.762 92.5545 134.892 91.9691C135.035 91.3836 135.153 90.8697 135.243 90.4274C135.334 89.9851 135.425 89.6662 135.516 89.4712C135.594 89.3148 135.705 89.1914 135.848 89.1004C136.003 88.9962 136.159 88.9117 136.315 88.8466C136.484 88.7815 136.64 88.7361 136.783 88.7099C136.939 88.684 137.049 88.671 137.114 88.671C137.4 88.671 137.589 88.7296 137.68 88.8466C137.784 88.9638 137.836 89.172 137.836 89.4712C137.836 89.6143 137.803 89.9718 137.738 90.5443C137.686 91.1039 137.621 91.8127 137.543 92.6715C137.478 93.5172 137.413 94.4734 137.348 95.5401C137.297 96.5941 137.27 97.6867 137.27 98.8187C137.27 99.6383 137.309 100.289 137.387 100.77C137.465 101.239 137.563 101.59 137.68 101.824C137.81 102.058 137.946 102.208 138.089 102.273C138.245 102.338 138.401 102.37 138.557 102.37C138.765 102.37 138.999 102.279 139.258 102.097C139.519 101.915 139.824 101.596 140.175 101.141C140.526 100.673 140.928 100.048 141.383 99.2675C141.838 98.4738 142.371 97.4723 142.981 96.2622L143.196 95.8523L143.995 96.4574L143.781 96.8671C143.287 97.8298 142.793 98.7795 142.299 99.7163C141.818 100.653 141.325 101.486 140.818 102.214C140.324 102.943 139.824 103.535 139.317 103.99C138.81 104.432 138.303 104.653 137.797 104.653C137.264 104.653 136.803 104.55 136.413 104.341C136.036 104.12 135.718 103.762 135.458 103.268C135.211 102.774 135.023 102.123 134.892 101.317C134.775 100.497 134.717 99.4887 134.717 98.2918C134.717 97.9535 134.717 97.6022 134.717 97.2379C134.717 96.8606 134.73 96.4704 134.756 96.067H134.561ZM138.557 84.6704C138.557 85.1257 138.401 85.5097 138.089 85.8218C137.79 86.121 137.413 86.2706 136.959 86.2706C136.517 86.2706 136.14 86.121 135.828 85.8218C135.516 85.5097 135.36 85.1257 135.36 84.6704C135.36 84.228 135.516 83.8508 135.828 83.5386C136.14 83.2265 136.517 83.0701 136.959 83.0701C137.413 83.0701 137.79 83.2265 138.089 83.5386C138.401 83.8508 138.557 84.228 138.557 84.6704Z" fill="url(#paint5_linear_3014_19221)"/>
<path d="M147.153 104.653C146.36 104.653 145.672 104.484 145.087 104.146C144.515 103.808 144.041 103.353 143.664 102.78C143.287 102.195 143.008 101.525 142.826 100.77C142.644 100.016 142.553 99.2154 142.553 98.3699C142.553 97.6283 142.624 96.8736 142.767 96.1061C142.91 95.3384 143.112 94.5968 143.372 93.8815C143.644 93.1529 143.982 92.4765 144.385 91.8519C144.788 91.2143 145.249 90.6615 145.769 90.193C146.289 89.7247 146.867 89.354 147.504 89.0807C148.154 88.8077 148.849 88.671 149.589 88.671C150.434 88.671 151.149 88.8595 151.733 89.2368C152.331 89.6143 152.812 90.0761 153.176 90.6224C153.189 88.1636 153.312 85.9909 153.546 84.1046C153.78 82.2181 154.105 80.6373 154.521 79.3624C154.949 78.0876 155.456 77.1249 156.041 76.4743C156.626 75.8108 157.269 75.4789 157.971 75.4789C158.218 75.4789 158.439 75.5116 158.633 75.5764C158.841 75.6285 159.01 75.7328 159.14 75.8889C159.283 76.045 159.387 76.2596 159.452 76.5326C159.53 76.793 159.569 77.1313 159.569 77.5475C159.569 78.4062 159.485 79.3948 159.316 80.5139C159.147 81.6197 158.906 82.8295 158.594 84.1435C158.283 85.4446 157.899 86.8366 157.444 88.3197C157.003 89.7898 156.509 91.3185 155.963 92.9056C155.976 94.2976 155.996 95.5012 156.022 96.5158C156.047 97.5306 156.08 98.3893 156.119 99.092C156.171 99.7944 156.23 100.367 156.295 100.809C156.373 101.251 156.457 101.596 156.548 101.843C156.652 102.078 156.769 102.24 156.899 102.331C157.042 102.409 157.198 102.448 157.366 102.448C157.665 102.448 157.964 102.318 158.263 102.058C158.575 101.785 158.906 101.388 159.257 100.868C159.608 100.334 159.985 99.6839 160.388 98.9162C160.803 98.1487 161.258 97.2641 161.752 96.2622L161.967 95.8523L162.766 96.4574L162.551 96.8671C161.798 98.3893 161.135 99.6512 160.563 100.653C159.991 101.642 159.465 102.435 158.984 103.034C158.517 103.632 158.068 104.055 157.639 104.302C157.211 104.537 156.762 104.653 156.295 104.653C155.84 104.653 155.443 104.543 155.105 104.322C154.781 104.088 154.501 103.73 154.267 103.248C154.033 102.754 153.845 102.13 153.702 101.375C153.559 100.607 153.449 99.6904 153.371 98.6234C152.916 99.5343 152.448 100.36 151.967 101.102C151.486 101.843 150.986 102.481 150.466 103.014C149.96 103.535 149.427 103.938 148.868 104.224C148.309 104.51 147.738 104.653 147.153 104.653ZM149.979 89.6662C149.265 89.6662 148.641 89.8873 148.108 90.3296C147.575 90.759 147.133 91.325 146.783 92.0274C146.432 92.7171 146.172 93.4975 146.003 94.3692C145.834 95.2409 145.749 96.1126 145.749 96.9843C145.749 97.6999 145.802 98.3893 145.905 99.0528C146.022 99.7033 146.191 100.282 146.412 100.79C146.646 101.297 146.925 101.7 147.25 102C147.575 102.299 147.952 102.448 148.381 102.448C148.797 102.448 149.2 102.344 149.589 102.136C149.992 101.928 150.388 101.596 150.778 101.141C151.168 100.673 151.564 100.074 151.967 99.3455C152.37 98.604 152.799 97.7064 153.254 96.6524C153.228 96.0281 153.208 95.3646 153.195 94.6619C153.182 93.9466 153.176 93.1853 153.176 92.3787C152.89 91.5332 152.455 90.8697 151.87 90.3882C151.298 89.907 150.668 89.6662 149.979 89.6662ZM158.166 78.2696C158.166 77.6711 158.094 77.2547 157.951 77.0206C157.821 76.7865 157.665 76.6693 157.483 76.6693C157.172 76.6693 156.918 76.9752 156.723 77.5866C156.528 78.185 156.372 78.9981 156.255 80.0259C156.152 81.0537 156.074 82.244 156.022 83.5972C155.982 84.9501 155.963 86.3746 155.963 87.8709V90.0175C156.366 88.7035 156.71 87.5196 156.996 86.4659C157.282 85.4119 157.509 84.4298 157.678 83.5192C157.847 82.6083 157.971 81.7302 158.049 80.8846C158.127 80.0389 158.166 79.1672 158.166 78.2696Z" fill="url(#paint6_linear_3014_19221)"/>
<path d="M32.6612 87.3657C32.6612 89.9691 32.9107 92.2402 33.4094 94.1786C33.9079 96.1167 34.5646 97.7296 35.3795 99.0169C36.2067 100.304 37.1432 101.273 38.1889 101.924C39.247 102.561 40.3297 102.879 41.4364 102.879C42.2269 102.879 43.0053 102.705 43.7713 102.358C44.5498 102.011 45.3039 101.49 46.0335 100.796C46.7634 100.102 47.4628 99.234 48.1317 98.1925C48.8127 97.1509 49.445 95.9287 50.0289 94.5256L50.2296 94.07L50.9775 94.7427L50.7768 95.1982C50.1079 96.8039 49.3659 98.2141 48.5511 99.4293C47.7484 100.644 46.8909 101.664 45.9787 102.489C45.0668 103.298 44.1179 103.913 43.1329 104.333C42.16 104.752 41.1626 104.962 40.1411 104.962C39.2654 104.962 38.3958 104.81 37.5324 104.506C36.6809 104.217 35.866 103.776 35.0876 103.183C34.3213 102.575 33.6039 101.816 32.935 100.905C32.2782 99.9934 31.7066 98.9302 31.2201 97.715C30.7335 96.4855 30.3505 95.1043 30.0708 93.571C29.8032 92.0234 29.6694 90.3237 29.6694 88.4723C29.6694 86.0276 29.8396 83.8146 30.1803 81.8328C30.5328 79.8369 31.0013 78.0649 31.585 76.517C32.1808 74.9548 32.8681 73.6024 33.6465 72.4599C34.4371 71.3171 35.264 70.3768 36.1274 69.6393C36.9911 68.887 37.8728 68.3301 38.7728 67.9685C39.6729 67.607 40.5363 67.426 41.3633 67.426C42.4457 67.426 43.4431 67.6502 44.3553 68.0987C45.2675 68.5327 46.0518 69.1546 46.7086 69.9647C47.3654 70.7602 47.8762 71.7364 48.2409 72.8938C48.618 74.0364 48.8065 75.3094 48.8065 76.7125C48.8065 78.0576 48.6301 79.3233 48.2776 80.5093C47.9369 81.6956 47.4749 82.7369 46.8909 83.6337C46.3194 84.5162 45.6567 85.2178 44.9026 85.7384C44.1605 86.259 43.3821 86.5194 42.5673 86.5194C42.02 86.5194 41.5092 86.4038 41.035 86.1724C40.5606 85.9409 40.1471 85.6155 39.7945 85.1959C39.4418 84.7765 39.162 84.2629 38.9552 83.6556C38.7486 83.048 38.645 82.3753 38.645 81.6375C38.645 80.9289 38.7364 80.249 38.9188 79.5982C39.1011 78.9328 39.3322 78.3252 39.6119 77.7757C39.8916 77.2115 40.1959 76.7195 40.5241 76.3002C40.8648 75.8662 41.1931 75.5262 41.5092 75.2805L42.002 75.8662C41.7465 76.2135 41.5032 76.5894 41.2721 76.9944C41.0531 77.3849 40.8586 77.8116 40.6884 78.2747C40.5179 78.723 40.3842 79.2074 40.2871 79.7283C40.1897 80.249 40.1411 80.8131 40.1411 81.4207C40.1411 82.0426 40.2018 82.5994 40.3235 83.0914C40.4573 83.5832 40.6337 84.0026 40.8524 84.3498C41.0836 84.6968 41.3452 84.9645 41.637 85.1524C41.9289 85.326 42.239 85.413 42.5673 85.413C43.0175 85.413 43.4674 85.2178 43.9173 84.827C44.3674 84.4219 44.7688 83.8362 45.1216 83.0696C45.4741 82.2886 45.76 81.3337 45.9787 80.2055C46.1978 79.0773 46.3073 77.7757 46.3073 76.3002C46.3073 74.9694 46.1794 73.8195 45.9243 72.8504C45.681 71.8666 45.3403 71.0567 44.9026 70.4203C44.4648 69.7838 43.9477 69.3136 43.3519 69.0098C42.7558 68.6917 42.1174 68.5327 41.4364 68.5327C40.9498 68.5327 40.3966 68.6628 39.7762 68.9231C39.1558 69.1691 38.5174 69.5812 37.8606 70.1599C37.216 70.7384 36.5835 71.505 35.9634 72.4599C35.343 73.3999 34.7836 74.5716 34.2849 75.9748C33.7986 77.3633 33.4032 78.9979 33.0992 80.8782C32.8074 82.7588 32.6612 84.921 32.6612 87.3657Z" fill="url(#paint7_linear_3014_19221)"/>
<path d="M41.0774 63.9471C34.1463 66.0845 31.2258 77.2885 30.8171 81.7766L33.2571 76.8089C33.7204 69.2666 39.428 64.4556 41.0774 63.9471Z" fill="url(#paint8_linear_3014_19221)"/>
<path d="M78.8467 14.6396L79.7122 13.2321C91.1795 20.0533 94.9658 34.5621 95.3987 36.9442C92.11 24.0379 82.9937 16.6969 78.8467 14.6396Z" fill="#C4C4C4"/>
<path d="M78.8467 14.6396L79.7122 13.2321C91.1795 20.0533 94.9658 34.5621 95.3987 36.9442C92.11 24.0379 82.9937 16.6969 78.8467 14.6396Z" fill="url(#paint9_linear_3014_19221)"/>
<path d="M113.431 14.6396L112.565 13.2321C101.098 20.0533 97.3118 34.5621 96.8789 36.9442C100.168 24.0379 109.284 16.6969 113.431 14.6396Z" fill="#C4C4C4"/>
<path d="M113.431 14.6396L112.565 13.2321C101.098 20.0533 97.3118 34.5621 96.8789 36.9442C100.168 24.0379 109.284 16.6969 113.431 14.6396Z" fill="url(#paint10_linear_3014_19221)"/>
<path d="M82.4874 54.5699C91.7141 54.5699 91.3373 60.9558 90.8431 64.4672C88.219 67.6215 81.3753 74.0604 74.5147 75.2537C74.1414 75.3186 73.7578 75.2365 73.4584 75.004C71.4137 73.4164 68.0845 69.1513 68.0845 62.1629C68.0845 57.8401 71.0396 53.9382 72.5171 52.5278C75.5766 53.8421 78.947 54.5699 82.4874 54.5699Z" fill="url(#paint11_linear_3014_19221)"/>
<g style="mix-blend-mode:lighten">
<path style="mix-blend-mode:lighten" d="M68.0845 62.1629C68.0845 57.8401 71.0396 53.9382 72.5171 52.5278C74.488 53.3744 76.588 53.9777 78.7795 54.2998C78.5103 55.2736 77.9989 58.2092 78.1066 62.1629C78.2144 66.1163 80.9327 70.3509 82.2784 71.9741C79.8587 73.5271 77.1882 74.7887 74.5147 75.2537C74.1414 75.3186 73.7578 75.2365 73.4584 75.004C71.4137 73.4164 68.0845 69.1513 68.0845 62.1629Z" fill="url(#paint12_linear_3014_19221)"/>
</g>
<g style="mix-blend-mode:luminosity">
<g style="mix-blend-mode:luminosity">
<path d="M82.4874 54.5699C91.7141 54.5699 91.3373 60.9558 90.8431 64.4672C90.5742 62.1092 88.3822 57.5852 81.764 58.354C75.1456 59.123 71.1607 56.9805 69.9955 55.8131C70.8632 54.3311 71.8436 53.1708 72.5171 52.5278C75.5766 53.8421 78.947 54.5699 82.4874 54.5699Z" fill="#313131" fill-opacity="0.2"/>
</g>
</g>
<path d="M95.3078 54.5699C95.3369 54.1818 95.3418 53.7019 95.3375 53.2745C95.3299 52.5491 95.3129 51.8211 95.2919 51.0958C94.7155 31.128 78.3668 15.1183 58.283 15.1183C57.6745 15.1183 57.1812 15.6122 57.1812 16.2215V29.234C57.1812 39.6822 63.4981 48.6532 72.517 52.5275C75.5765 53.8421 78.947 54.5699 82.4871 54.5699C91.714 54.5699 91.3372 60.9558 90.8431 64.4672C94.4018 61.7713 94.9898 58.799 95.3078 54.5699Z" fill="url(#paint13_linear_3014_19221)"/>
<g style="mix-blend-mode:lighten">
<path style="mix-blend-mode:lighten" d="M57.2009 16.0135C57.298 15.5036 57.7455 15.1183 58.283 15.1183C76.4736 15.1183 91.6002 28.2521 94.7187 45.5648C88.3916 43.6534 74.3016 38.7929 68.557 34.6413C62.8955 30.5499 58.7024 20.916 57.2438 16.4166C57.2009 16.2847 57.1747 16.1497 57.2009 16.0135Z" fill="url(#paint14_linear_3014_19221)"/>
</g>
<path d="M109.73 54.5699C100.504 54.5699 100.88 60.9558 101.375 64.4672C103.999 67.6215 110.842 74.0604 117.703 75.2537C118.076 75.3186 118.46 75.2365 118.759 75.004C120.804 73.4164 124.133 69.1513 124.133 62.1629C124.133 57.8401 121.178 53.9382 119.701 52.5278C116.641 53.8421 113.271 54.5699 109.73 54.5699Z" fill="url(#paint15_linear_3014_19221)"/>
<g style="mix-blend-mode:lighten">
<path style="mix-blend-mode:lighten" d="M124.133 62.1629C124.133 57.8401 121.178 53.9382 119.701 52.5278C117.73 53.3744 115.63 53.9777 113.438 54.2998C113.707 55.2736 114.219 58.2092 114.111 62.1629C114.003 66.1163 111.285 70.3509 109.939 71.9741C112.359 73.5271 115.03 74.7887 117.703 75.2537C118.076 75.3186 118.46 75.2365 118.759 75.004C120.804 73.4164 124.133 69.1513 124.133 62.1629Z" fill="url(#paint16_linear_3014_19221)"/>
</g>
<g style="mix-blend-mode:luminosity">
<g style="mix-blend-mode:luminosity">
<path d="M109.731 54.5699C100.504 54.5699 100.881 60.9558 101.375 64.4672C101.644 62.1092 103.836 57.5852 110.454 58.354C117.072 59.123 121.057 56.9805 122.222 55.8131C121.355 54.3311 120.374 53.1708 119.701 52.5278C116.641 53.8421 113.271 54.5699 109.731 54.5699Z" fill="#313131" fill-opacity="0.2"/>
</g>
</g>
<path d="M96.9099 54.5699C96.8808 54.1818 96.876 53.7019 96.8803 53.2745C96.8876 52.5491 96.9048 51.8211 96.9259 51.0958C97.5023 31.128 113.851 15.1183 133.935 15.1183C134.543 15.1183 135.037 15.6122 135.037 16.2215V29.234C135.037 39.6822 128.72 48.6532 119.701 52.5275C116.641 53.8421 113.271 54.5699 109.73 54.5699C100.504 54.5699 100.881 60.9558 101.375 64.4672C97.8159 61.7713 97.228 58.799 96.9099 54.5699Z" fill="url(#paint17_linear_3014_19221)"/>
<g style="mix-blend-mode:lighten">
<path style="mix-blend-mode:lighten" d="M135.017 16.0135C134.92 15.5036 134.472 15.1183 133.935 15.1183C115.744 15.1183 100.618 28.2521 97.499 45.5648C103.826 43.6534 117.916 38.7929 123.661 34.6413C129.322 30.5499 133.515 20.916 134.974 16.4166C135.017 16.2847 135.043 16.1497 135.017 16.0135Z" fill="url(#paint18_linear_3014_19221)"/>
</g>
<defs>
<linearGradient id="paint0_linear_3014_19221" x1="60.6814" y1="62.2809" x2="-33.6824" y2="65.2858" gradientUnits="userSpaceOnUse">
<stop stop-color="#F30092"/>
<stop offset="1" stop-color="#20ACE8"/>
</linearGradient>
<linearGradient id="paint1_linear_3014_19221" x1="60.6813" y1="62.2809" x2="-33.6824" y2="65.2858" gradientUnits="userSpaceOnUse">
<stop stop-color="#F30092"/>
<stop offset="1" stop-color="#20ACE8"/>
</linearGradient>
<linearGradient id="paint2_linear_3014_19221" x1="60.6813" y1="62.2809" x2="-33.6824" y2="65.2858" gradientUnits="userSpaceOnUse">
<stop stop-color="#F30092"/>
<stop offset="1" stop-color="#20ACE8"/>
</linearGradient>
<linearGradient id="paint3_linear_3014_19221" x1="60.6813" y1="62.2809" x2="-33.6824" y2="65.2858" gradientUnits="userSpaceOnUse">
<stop stop-color="#F30092"/>
<stop offset="1" stop-color="#20ACE8"/>
</linearGradient>
<linearGradient id="paint4_linear_3014_19221" x1="60.6813" y1="62.2809" x2="-33.6824" y2="65.2858" gradientUnits="userSpaceOnUse">
<stop stop-color="#F30092"/>
<stop offset="1" stop-color="#20ACE8"/>
</linearGradient>
<linearGradient id="paint5_linear_3014_19221" x1="60.6812" y1="62.2809" x2="-33.6826" y2="65.2858" gradientUnits="userSpaceOnUse">
<stop stop-color="#F30092"/>
<stop offset="1" stop-color="#20ACE8"/>
</linearGradient>
<linearGradient id="paint6_linear_3014_19221" x1="60.6815" y1="62.2809" x2="-33.6822" y2="65.2858" gradientUnits="userSpaceOnUse">
<stop stop-color="#F30092"/>
<stop offset="1" stop-color="#20ACE8"/>
</linearGradient>
<linearGradient id="paint7_linear_3014_19221" x1="60.6813" y1="62.2809" x2="-33.6824" y2="65.2858" gradientUnits="userSpaceOnUse">
<stop stop-color="#F30092"/>
<stop offset="1" stop-color="#20ACE8"/>
</linearGradient>
<linearGradient id="paint8_linear_3014_19221" x1="60.6814" y1="62.2809" x2="-33.6824" y2="65.2859" gradientUnits="userSpaceOnUse">
<stop stop-color="#F30092"/>
<stop offset="1" stop-color="#20ACE8"/>
</linearGradient>
<linearGradient id="paint9_linear_3014_19221" x1="78.8467" y1="13.2321" x2="95.4518" y2="42.6541" gradientUnits="userSpaceOnUse">
<stop stop-color="#F30092"/>
<stop offset="1" stop-color="#20ACE8"/>
</linearGradient>
<linearGradient id="paint10_linear_3014_19221" x1="113.431" y1="13.2321" x2="96.8259" y2="42.6541" gradientUnits="userSpaceOnUse">
<stop stop-color="#F30092"/>
<stop offset="1" stop-color="#20ACE8"/>
</linearGradient>
<linearGradient id="paint11_linear_3014_19221" x1="72.407" y1="52.8297" x2="79.538" y2="73.7774" gradientUnits="userSpaceOnUse">
<stop stop-color="#F30092"/>
<stop offset="1" stop-color="#1E9BD1"/>
</linearGradient>
<linearGradient id="paint12_linear_3014_19221" x1="72.407" y1="52.8297" x2="76.2401" y2="69.8188" gradientUnits="userSpaceOnUse">
<stop stop-color="#F30092"/>
<stop offset="1" stop-color="#1E9BD1"/>
</linearGradient>
<linearGradient id="paint13_linear_3014_19221" x1="57.1812" y1="15.1183" x2="89.8536" y2="79.1937" gradientUnits="userSpaceOnUse">
<stop stop-color="#F30092"/>
<stop offset="1" stop-color="#20ACE8"/>
</linearGradient>
<linearGradient id="paint14_linear_3014_19221" x1="57.1812" y1="15.1183" x2="71.6229" y2="60.3145" gradientUnits="userSpaceOnUse">
<stop stop-color="#F30092"/>
<stop offset="1" stop-color="#20ACE8"/>
</linearGradient>
<linearGradient id="paint15_linear_3014_19221" x1="119.811" y1="52.8297" x2="112.68" y2="73.7774" gradientUnits="userSpaceOnUse">
<stop stop-color="#F30092"/>
<stop offset="1" stop-color="#1E9BD1"/>
</linearGradient>
<linearGradient id="paint16_linear_3014_19221" x1="119.811" y1="52.8297" x2="115.978" y2="69.8188" gradientUnits="userSpaceOnUse">
<stop stop-color="#F30092"/>
<stop offset="1" stop-color="#1E9BD1"/>
</linearGradient>
<linearGradient id="paint17_linear_3014_19221" x1="135.037" y1="15.1183" x2="102.364" y2="79.1937" gradientUnits="userSpaceOnUse">
<stop stop-color="#F30092"/>
<stop offset="1" stop-color="#20ACE8"/>
</linearGradient>
<linearGradient id="paint18_linear_3014_19221" x1="135.037" y1="15.1183" x2="120.595" y2="60.3145" gradientUnits="userSpaceOnUse">
<stop stop-color="#F30092"/>
<stop offset="1" stop-color="#20ACE8"/>
</linearGradient>
</defs>
</svg>
