<svg width="60" height="48" viewBox="0 0 60 48" fill="none" xmlns="http://www.w3.org/2000/svg">
<path d="M16.6765 1.23965L17.3427 0.156555C26.1694 5.40541 29.0838 16.5696 29.4171 18.4026C26.8856 8.47142 19.8686 2.82265 16.6765 1.23965Z" fill="#C4C4C4"/>
<path d="M16.6765 1.23965L17.3427 0.156555C26.1694 5.40541 29.0838 16.5696 29.4171 18.4026C26.8856 8.47142 19.8686 2.82265 16.6765 1.23965Z" fill="url(#paint0_linear_3226_23290)"/>
<path d="M43.2969 1.23965L42.6307 0.156555C33.8041 5.40541 30.8896 16.5696 30.5564 18.4026C33.0878 8.47142 40.1049 2.82265 43.2969 1.23965Z" fill="#C4C4C4"/>
<path d="M43.2969 1.23965L42.6307 0.156555C33.8041 5.40541 30.8896 16.5696 30.5564 18.4026C33.0878 8.47142 40.1049 2.82265 43.2969 1.23965Z" fill="url(#paint1_linear_3226_23290)"/>
<path d="M19.4789 31.9652C26.5809 31.9652 26.2908 36.8791 25.9105 39.581C23.8906 42.0082 18.6229 46.9628 13.3421 47.881C13.0547 47.9309 12.7595 47.8677 12.529 47.6888C10.9551 46.4672 8.39258 43.1853 8.39258 37.8079C8.39258 34.4815 10.6672 31.4792 11.8045 30.3939C14.1594 31.4052 16.7538 31.9652 19.4789 31.9652Z" fill="url(#paint2_linear_3226_23290)"/>
<g style="mix-blend-mode:lighten">
<path style="mix-blend-mode:lighten" d="M8.39258 37.8079C8.39258 34.4815 10.6672 31.4792 11.8045 30.3939C13.3215 31.0453 14.938 31.5095 16.6248 31.7574C16.4176 32.5067 16.024 34.7656 16.1068 37.8079C16.1899 40.85 18.2822 44.1084 19.318 45.3574C17.4555 46.5524 15.3999 47.5232 13.3421 47.881C13.0547 47.9309 12.7595 47.8677 12.529 47.6888C10.9551 46.4672 8.39258 43.1853 8.39258 37.8079Z" fill="url(#paint3_linear_3226_23290)"/>
</g>
<g style="mix-blend-mode:luminosity">
<g style="mix-blend-mode:luminosity">
<path d="M19.4789 31.9652C26.5809 31.9652 26.2909 36.8791 25.9105 39.581C25.7035 37.7665 24.0163 34.2854 18.9221 34.877C13.8277 35.4688 10.7604 33.8201 9.86353 32.9219C10.5314 31.7815 11.2861 30.8886 11.8045 30.3939C14.1594 31.4052 16.7538 31.9652 19.4789 31.9652Z" fill="#313131" fill-opacity="0.2"/>
</g>
</g>
<path d="M29.3471 31.9652C29.3695 31.6666 29.3732 31.2973 29.3699 30.9684C29.3641 30.4102 29.351 29.85 29.3348 29.2919C28.8911 13.9271 16.3071 1.60794 0.848098 1.60794C0.379725 1.60794 0 1.98801 0 2.45685V12.4697C0 20.5094 4.86228 27.4124 11.8044 30.3936C14.1594 31.4052 16.7537 31.9652 19.4786 31.9652C26.5808 31.9652 26.2908 36.879 25.9104 39.5809C28.6497 37.5066 29.1023 35.2194 29.3471 31.9652Z" fill="url(#paint4_linear_3226_23290)"/>
<g style="mix-blend-mode:lighten">
<path style="mix-blend-mode:lighten" d="M0.0151266 2.29679C0.0898671 1.90446 0.434298 1.60794 0.84807 1.60794C14.8499 1.60794 26.4932 11.7141 28.8936 25.0359C24.0234 23.5652 13.178 19.8251 8.75623 16.6305C4.39845 13.4822 1.1709 6.06918 0.0481363 2.60694C0.0151259 2.5055 -0.0050118 2.40156 0.0151266 2.29679Z" fill="url(#paint5_linear_3226_23290)"/>
</g>
<path d="M40.4484 31.9652C33.3464 31.9652 33.6362 36.8791 34.0168 39.581C36.0366 42.0082 41.3044 46.9628 46.5852 47.881C46.8725 47.9309 47.1678 47.8677 47.3982 47.6888C48.9721 46.4672 51.5347 43.1853 51.5347 37.8079C51.5347 34.4815 49.2601 31.4792 48.1228 30.3939C45.7678 31.4052 43.1735 31.9652 40.4484 31.9652Z" fill="url(#paint6_linear_3226_23290)"/>
<g style="mix-blend-mode:lighten">
<path style="mix-blend-mode:lighten" d="M51.5348 37.8079C51.5348 34.4815 49.2602 31.4792 48.1229 30.3939C46.6058 31.0453 44.9892 31.5095 43.3025 31.7574C43.5097 32.5067 43.9034 34.7656 43.8203 37.8079C43.7375 40.85 41.6452 44.1084 40.6094 45.3574C42.4717 46.5524 44.5274 47.5232 46.5853 47.881C46.8726 47.9309 47.1679 47.8677 47.3983 47.6888C48.9722 46.4672 51.5348 43.1853 51.5348 37.8079Z" fill="url(#paint7_linear_3226_23290)"/>
</g>
<g style="mix-blend-mode:luminosity">
<g style="mix-blend-mode:luminosity">
<path d="M40.4486 31.9652C33.3466 31.9652 33.6365 36.8791 34.017 39.581C34.2238 37.7665 35.9111 34.2854 41.0055 34.877C46.0996 35.4688 49.1669 33.8201 50.0638 32.9219C49.3959 31.7815 48.6412 30.8886 48.123 30.3939C45.7679 31.4052 43.1736 31.9652 40.4486 31.9652Z" fill="#313131" fill-opacity="0.2"/>
</g>
</g>
<path d="M30.5803 31.9652C30.5579 31.6666 30.5541 31.2973 30.5574 30.9684C30.5631 30.4102 30.5763 29.85 30.5925 29.2919C31.0362 13.9271 43.6202 1.60794 59.0792 1.60794C59.5476 1.60794 59.9273 1.98801 59.9273 2.45685V12.4697C59.9273 20.5094 55.0651 27.4124 48.1229 30.3936C45.768 31.4052 43.1736 31.9652 40.4485 31.9652C33.3465 31.9652 33.6365 36.879 34.0169 39.5809C31.2777 37.5066 30.8251 35.2194 30.5803 31.9652Z" fill="url(#paint8_linear_3226_23290)"/>
<g style="mix-blend-mode:lighten">
<path style="mix-blend-mode:lighten" d="M59.9122 2.29679C59.8374 1.90446 59.4928 1.60794 59.0792 1.60794C45.0774 1.60794 33.4341 11.7141 31.0337 25.0359C35.9039 23.5652 46.7493 19.8251 51.1711 16.6305C55.5288 13.4822 58.7564 6.06918 59.8792 2.60694C59.912 2.5055 59.9323 2.40156 59.9122 2.29679Z" fill="url(#paint9_linear_3226_23290)"/>
</g>
<defs>
<linearGradient id="paint0_linear_3226_23290" x1="16.6765" y1="0.156555" x2="29.4517" y2="22.7998" gradientUnits="userSpaceOnUse">
<stop stop-color="#F30092"/>
<stop offset="1" stop-color="#20ACE8"/>
</linearGradient>
<linearGradient id="paint1_linear_3226_23290" x1="43.2969" y1="0.156555" x2="30.5218" y2="22.7998" gradientUnits="userSpaceOnUse">
<stop stop-color="#F30092"/>
<stop offset="1" stop-color="#20ACE8"/>
</linearGradient>
<linearGradient id="paint2_linear_3226_23290" x1="11.7198" y1="30.6262" x2="17.2055" y2="46.7461" gradientUnits="userSpaceOnUse">
<stop stop-color="#F30092"/>
<stop offset="1" stop-color="#1E9BD1"/>
</linearGradient>
<linearGradient id="paint3_linear_3226_23290" x1="11.7198" y1="30.6262" x2="14.6684" y2="43.6994" gradientUnits="userSpaceOnUse">
<stop stop-color="#F30092"/>
<stop offset="1" stop-color="#1E9BD1"/>
</linearGradient>
<linearGradient id="paint4_linear_3226_23290" x1="0" y1="1.60794" x2="25.1361" y2="50.9192" gradientUnits="userSpaceOnUse">
<stop stop-color="#F30092"/>
<stop offset="1" stop-color="#20ACE8"/>
</linearGradient>
<linearGradient id="paint5_linear_3226_23290" x1="-2.90397e-05" y1="1.60794" x2="11.1097" y2="36.3876" gradientUnits="userSpaceOnUse">
<stop stop-color="#F30092"/>
<stop offset="1" stop-color="#20ACE8"/>
</linearGradient>
<linearGradient id="paint6_linear_3226_23290" x1="48.2075" y1="30.6262" x2="42.7218" y2="46.7461" gradientUnits="userSpaceOnUse">
<stop stop-color="#F30092"/>
<stop offset="1" stop-color="#1E9BD1"/>
</linearGradient>
<linearGradient id="paint7_linear_3226_23290" x1="48.2076" y1="30.6262" x2="45.259" y2="43.6994" gradientUnits="userSpaceOnUse">
<stop stop-color="#F30092"/>
<stop offset="1" stop-color="#1E9BD1"/>
</linearGradient>
<linearGradient id="paint8_linear_3226_23290" x1="59.9273" y1="1.60794" x2="34.7912" y2="50.9192" gradientUnits="userSpaceOnUse">
<stop stop-color="#F30092"/>
<stop offset="1" stop-color="#20ACE8"/>
</linearGradient>
<linearGradient id="paint9_linear_3226_23290" x1="59.9273" y1="1.60794" x2="48.8176" y2="36.3876" gradientUnits="userSpaceOnUse">
<stop stop-color="#F30092"/>
<stop offset="1" stop-color="#20ACE8"/>
</linearGradient>
</defs>
</svg>
