<svg width="128" height="128" viewBox="0 0 128 128" fill="none" xmlns="http://www.w3.org/2000/svg">
<path d="M35.6196 15.3114L37.0426 13C55.8956 24.2014 62.1207 48.0267 62.8324 51.9383C57.4255 30.7445 42.4376 18.6896 35.6196 15.3114Z" fill="#C4C4C4"/>
<path d="M35.6196 15.3114L37.0426 13C55.8956 24.2014 62.1207 48.0267 62.8324 51.9383C57.4255 30.7445 42.4376 18.6896 35.6196 15.3114Z" fill="url(#paint0_linear_3018_20712)"/>
<path d="M92.4789 15.3114L91.0559 13C72.2029 24.2014 65.9778 48.0267 65.2661 51.9383C70.673 30.7445 85.661 18.6896 92.4789 15.3114Z" fill="#C4C4C4"/>
<path d="M92.4789 15.3114L91.0559 13C72.2029 24.2014 65.9778 48.0267 65.2661 51.9383C70.673 30.7445 85.661 18.6896 92.4789 15.3114Z" fill="url(#paint1_linear_3018_20712)"/>
<path d="M41.6052 80.8819C56.7745 80.8819 56.1551 91.3684 55.3427 97.1345C51.0284 102.314 39.7769 112.888 28.4975 114.847C27.8838 114.954 27.2532 114.819 26.761 114.437C23.3992 111.83 17.9258 104.827 17.9258 93.3506C17.9258 86.252 22.7842 79.8447 25.2133 77.5286C30.2433 79.6868 35.7846 80.8819 41.6052 80.8819Z" fill="url(#paint2_linear_3018_20712)"/>
<g style="mix-blend-mode:lighten">
<path style="mix-blend-mode:lighten" d="M17.9258 93.3506C17.9258 86.252 22.7842 79.8447 25.2133 77.5286C28.4536 78.9188 31.9062 79.9094 35.5092 80.4384C35.0666 82.0375 34.2259 86.8582 34.4028 93.3506C34.5802 99.8427 39.0492 106.796 41.2616 109.462C37.2834 112.012 32.8929 114.084 28.4975 114.847C27.8838 114.954 27.2532 114.819 26.761 114.437C23.3992 111.83 17.9258 104.827 17.9258 93.3506Z" fill="url(#paint3_linear_3018_20712)"/>
</g>
<g style="mix-blend-mode:luminosity">
<g style="mix-blend-mode:luminosity">
<path d="M41.6053 80.8819C56.7746 80.8819 56.1551 91.3684 55.3427 97.1345C54.9006 93.2624 51.2967 85.8334 40.416 87.0959C29.5347 88.3588 22.9833 84.8405 21.0676 82.9235C22.4942 80.4899 24.1061 78.5844 25.2134 77.5286C30.2434 79.6868 35.7846 80.8819 41.6053 80.8819Z" fill="#313131" fill-opacity="0.2"/>
</g>
</g>
<path d="M62.683 80.8819C62.7309 80.2447 62.7388 79.4567 62.7318 78.7547C62.7193 77.5636 62.6914 76.3681 62.6568 75.177C61.7092 42.3875 34.8307 16.0974 1.81147 16.0974C0.811061 16.0974 0 16.9085 0 17.9091V39.2771C0 56.4344 10.3855 71.1661 25.2133 77.5281C30.2433 79.6868 35.7846 80.8819 41.6048 80.8819C56.7745 80.8819 56.155 91.3685 55.3427 97.1346C61.1934 92.7077 62.1602 87.8267 62.683 80.8819Z" fill="url(#paint4_linear_3018_20712)"/>
<g style="mix-blend-mode:lighten">
<path style="mix-blend-mode:lighten" d="M0.0323235 17.5675C0.191963 16.7302 0.92764 16.0974 1.81142 16.0974C31.7181 16.0974 56.5873 37.6648 61.7144 66.0944C51.3121 62.9557 28.1471 54.9742 18.7026 48.1567C9.39475 41.438 2.50097 25.618 0.102829 18.2294C0.032322 18.0129 -0.0106906 17.7911 0.0323235 17.5675Z" fill="url(#paint5_linear_3018_20712)"/>
</g>
<path d="M86.3948 80.8819C71.2255 80.8819 71.8445 91.3684 72.6574 97.1345C76.9716 102.314 88.2231 112.888 99.5026 114.847C100.116 114.954 100.747 114.819 101.239 114.437C104.601 111.83 110.074 104.827 110.074 93.3506C110.074 86.252 105.216 79.8447 102.787 77.5286C97.7567 79.6868 92.2155 80.8819 86.3948 80.8819Z" fill="url(#paint6_linear_3018_20712)"/>
<g style="mix-blend-mode:lighten">
<path style="mix-blend-mode:lighten" d="M110.074 93.3506C110.074 86.252 105.216 79.8447 102.787 77.5286C99.5465 78.9188 96.0934 79.9094 92.4909 80.4384C92.9334 82.0375 93.7742 86.8582 93.5968 93.3506C93.4199 99.8427 88.9509 106.796 86.7385 109.462C90.7162 112.012 95.1072 114.084 99.5026 114.847C100.116 114.954 100.747 114.819 101.239 114.437C104.601 111.83 110.074 104.827 110.074 93.3506Z" fill="url(#paint7_linear_3018_20712)"/>
</g>
<g style="mix-blend-mode:luminosity">
<g style="mix-blend-mode:luminosity">
<path d="M86.3953 80.8819C71.226 80.8819 71.845 91.3684 72.6579 97.1345C73.0995 93.2624 76.7034 85.8334 87.5846 87.0959C98.4654 88.3588 105.017 84.8405 106.933 82.9235C105.506 80.4899 103.894 78.5844 102.787 77.5286C97.7568 79.6868 92.2155 80.8819 86.3953 80.8819Z" fill="#313131" fill-opacity="0.2"/>
</g>
</g>
<path d="M65.3171 80.8819C65.2693 80.2447 65.2613 79.4567 65.2684 78.7547C65.2803 77.5636 65.3087 76.3681 65.3433 75.177C66.2909 42.3875 93.1694 16.0974 126.189 16.0974C127.189 16.0974 128 16.9085 128 17.9091V39.2771C128 56.4344 117.615 71.1661 102.787 77.5281C97.7568 79.6868 92.2155 80.8819 86.3949 80.8819C71.2256 80.8819 71.8451 91.3685 72.6575 97.1346C66.8067 92.7077 65.84 87.8267 65.3171 80.8819Z" fill="url(#paint8_linear_3018_20712)"/>
<g style="mix-blend-mode:lighten">
<path style="mix-blend-mode:lighten" d="M127.968 17.5675C127.808 16.7302 127.072 16.0974 126.188 16.0974C96.2817 16.0974 71.4125 37.6648 66.2854 66.0944C76.6877 62.9557 99.8528 54.9742 109.297 48.1567C118.605 41.438 125.499 25.618 127.897 18.2294C127.967 18.0129 128.011 17.7911 127.968 17.5675Z" fill="url(#paint9_linear_3018_20712)"/>
</g>
<defs>
<linearGradient id="paint0_linear_3018_20712" x1="35.6196" y1="13" x2="62.8706" y2="61.3424" gradientUnits="userSpaceOnUse">
<stop stop-color="#F30092"/>
<stop offset="1" stop-color="#20ACE8"/>
</linearGradient>
<linearGradient id="paint1_linear_3018_20712" x1="92.4789" y1="13" x2="65.228" y2="61.3425" gradientUnits="userSpaceOnUse">
<stop stop-color="#F30092"/>
<stop offset="1" stop-color="#20ACE8"/>
</linearGradient>
<linearGradient id="paint2_linear_3018_20712" x1="25.0324" y1="78.0243" x2="36.7313" y2="112.432" gradientUnits="userSpaceOnUse">
<stop stop-color="#F30092"/>
<stop offset="1" stop-color="#1E9BD1"/>
</linearGradient>
<linearGradient id="paint3_linear_3018_20712" x1="25.0324" y1="78.0243" x2="31.32" y2="105.926" gradientUnits="userSpaceOnUse">
<stop stop-color="#F30092"/>
<stop offset="1" stop-color="#1E9BD1"/>
</linearGradient>
<linearGradient id="paint4_linear_3018_20712" x1="0" y1="16.0974" x2="53.615" y2="121.369" gradientUnits="userSpaceOnUse">
<stop stop-color="#F30092"/>
<stop offset="1" stop-color="#20ACE8"/>
</linearGradient>
<linearGradient id="paint5_linear_3018_20712" x1="-4.77896e-05" y1="16.0974" x2="23.6923" y2="90.3317" gradientUnits="userSpaceOnUse">
<stop stop-color="#F30092"/>
<stop offset="1" stop-color="#20ACE8"/>
</linearGradient>
<linearGradient id="paint6_linear_3018_20712" x1="102.968" y1="78.0243" x2="91.2687" y2="112.432" gradientUnits="userSpaceOnUse">
<stop stop-color="#F30092"/>
<stop offset="1" stop-color="#1E9BD1"/>
</linearGradient>
<linearGradient id="paint7_linear_3018_20712" x1="102.968" y1="78.0243" x2="96.6801" y2="105.926" gradientUnits="userSpaceOnUse">
<stop stop-color="#F30092"/>
<stop offset="1" stop-color="#1E9BD1"/>
</linearGradient>
<linearGradient id="paint8_linear_3018_20712" x1="128" y1="16.0974" x2="74.3851" y2="121.369" gradientUnits="userSpaceOnUse">
<stop stop-color="#F30092"/>
<stop offset="1" stop-color="#20ACE8"/>
</linearGradient>
<linearGradient id="paint9_linear_3018_20712" x1="128" y1="16.0974" x2="104.308" y2="90.3317" gradientUnits="userSpaceOnUse">
<stop stop-color="#F30092"/>
<stop offset="1" stop-color="#20ACE8"/>
</linearGradient>
</defs>
</svg>