<svg width="52" height="52" viewBox="0 0 52 52" fill="#9fb270" xmlns="http://www.w3.org/2000/svg">
  <path d="M22.3,16a15.12,15.12,0,0,0-2.4,5.3,28.82,28.82,0,0,0-.8,6.8,29.7,29.7,0,0,0,.8,6.9,14.82,14.82,0,0,0,2.4,5.4,12.51,12.51,0,0,0,4,3.6,10.92,10.92,0,0,0,5.5,1.3h.5c2.1-5.1,6.9-19,1.2-28.6a19.3,19.3,0,0,0-4.4-5,7.94,7.94,0,0,0-2.7,1A9.43,9.43,0,0,0,22.3,16Z"/>
  <path d="M17.7,41.5a18.08,18.08,0,0,1-4.2-6A18.47,18.47,0,0,1,12,28.1a15.7,15.7,0,0,1,.7-4.9,16,16,0,0,1,2-4.4,15.65,15.65,0,0,1,3.1-3.7,19.5,19.5,0,0,1,4-2.9,24.33,24.33,0,0,1,4.7-1.9c.2,0,.3-.1.5-.1C18.1,4.4,5.6,3.9,5.6,3.9S-3.6,22.5,3.5,34.5,31.4,47.4,31.4,47.4a.31.31,0,0,1,.1-.2A18.61,18.61,0,0,1,24,45.7,23.12,23.12,0,0,1,17.7,41.5Z"/>
  <path d="M38.5,36.6c-2.9,1.9-4,6-4.3,8.5A11.47,11.47,0,0,0,37.3,44a12.51,12.51,0,0,0,4-3.6,15,15,0,0,0,2.3-5.1A9,9,0,0,0,38.5,36.6Z"/>
  <path d="M45.8,41.5a19.92,19.92,0,0,1-4,3,21.06,21.06,0,0,1-4.7,1.9c-1,.3-2.1.4-3.1.6v.3s7.1,3,11.5.1S50,36.8,50,36.8a4.2,4.2,0,0,0-.5-.2l-.6,1.2A17.93,17.93,0,0,1,45.8,41.5Z"/>
  <path d="M32.3,45.3c-.4.9-.6,1.5-.8,1.8h.3A16.2,16.2,0,0,0,34,47c0-.3.1-1,.2-1.9A13.66,13.66,0,0,1,32.3,45.3Z"/>
  <path d="M51.6,28.1a15.7,15.7,0,0,0-.7-4.9,16,16,0,0,0-2-4.4,18.46,18.46,0,0,0-3.1-3.7,19.5,19.5,0,0,0-4-2.9,27.2,27.2,0,0,0-4.7-1.9,23.33,23.33,0,0,0-5.3-.7,24.37,24.37,0,0,0-4.8.5c.7.5,1.4,1,2,1.5a12.65,12.65,0,0,1,2.8-.3,11.33,11.33,0,0,1,5.4,1.2,11.16,11.16,0,0,1,4,3.5,15.12,15.12,0,0,1,2.4,5.3,24.41,24.41,0,0,1,.8,6.8,29.7,29.7,0,0,1-.8,6.9c0,.1-.1.2-.1.4a17.23,17.23,0,0,1,6,1.2,19.89,19.89,0,0,0,1.3-3.4A17.53,17.53,0,0,0,51.6,28.1Z"/>
</svg>