<svg width="91" height="16" viewBox="0 0 91 16" fill="none" xmlns="http://www.w3.org/2000/svg"><path d="M47.05 8c0 3.37-2.79 6.1-6.23 6.1A6.16 6.16 0 0134.6 8c0-3.37 2.79-6.1 6.22-6.1A6.16 6.16 0 0147.05 8z" fill="#D9222A"/><path d="M49.18 1.9a6.27 6.27 0 00-4.8 2.23h1.25c.17.2.33.42.47.64h-2.2c-.13.2-.25.42-.36.65h2.92c.1.2.19.42.27.64h-3.45c-.08.21-.14.43-.19.65h3.82a6 6 0 01-.18 3.23h-3.45c.07.22.16.43.26.64h2.92c-.1.23-.22.44-.36.65h-2.2c.14.22.3.44.47.64h1.26c-.2.23-.4.45-.63.65a6.27 6.27 0 004.18 1.58A6.16 6.16 0 0055.4 8c0-3.37-2.79-6.1-6.22-6.1z" fill="#EE9F2D"/><path d="M54.57 11.4c0-.11.1-.2.2-.2.11 0 .2.1.2.2s-.09.2-.2.2a.2.2 0 01-.2-.2zm.2.15c.09 0 .15-.07.15-.15a.15.15 0 00-.15-.15.15.15 0 00-.15.15c0 .08.07.15.15.15zm-.02-.06h-.05v-.18h.08l.04.01.03.04c0 .02-.02.04-.03.05l.03.08h-.05l-.02-.07h-.03v.07zm0-.1h.04l.01-.03v-.01h-.05v.04zM39.37 8.67l-.15-.01c-.38 0-.58.13-.58.38 0 .16.1.26.24.26.28 0 .48-.26.49-.63zm.5 1.12h-.57l.01-.26c-.17.2-.4.3-.7.3-.37 0-.62-.28-.62-.69 0-.6.44-.96 1.19-.96l.27.01a.6.6 0 00.03-.16c0-.17-.12-.23-.44-.23-.33 0-.6.08-.71.12l.1-.57c.33-.1.55-.13.8-.13.58 0 .89.25.89.73 0 .13-.02.3-.06.5l-.2 1.34zM37.7 9.79h-.67l.39-2.38-.87 2.38h-.46l-.05-2.37-.4 2.37H35l.53-3.1h.97l.06 1.74.59-1.73h1.08l-.52 3.09zM50.01 8.67l-.15-.01c-.38 0-.57.13-.57.38 0 .16.09.26.24.26.27 0 .47-.26.48-.63zm.5 1.12h-.56v-.26c-.16.2-.4.3-.7.3-.37 0-.62-.28-.62-.69 0-.6.44-.96 1.19-.96l.27.01a.6.6 0 00.03-.16c0-.17-.12-.23-.43-.23-.33 0-.6.08-.72.12l.1-.57c.33-.1.55-.13.8-.13.58 0 .9.25.9.73 0 .13-.03.3-.06.5-.06.37-.19 1.15-.2 1.34zM42.86 9.75c-.18.06-.32.08-.48.08-.35 0-.53-.2-.53-.55 0-.11.05-.4.09-.67l.3-1.72h.66l-.08.38h.41l-.1.6h-.4c-.08.49-.19 1.08-.19 1.16 0 .13.07.19.23.19.08 0 .14-.01.18-.03l-.09.56zM44.92 9.73c-.23.07-.45.1-.69.1-.75 0-1.14-.38-1.14-1.12 0-.86.5-1.5 1.18-1.5.55 0 .9.36.9.92 0 .18-.02.36-.08.62h-1.34c-.04.36.2.51.59.51.24 0 .45-.05.7-.16l-.12.63zm-.37-1.5c0-.04.07-.44-.32-.44-.21 0-.36.16-.43.45h.75zM40.27 8.07c0 .32.15.54.51.7.28.13.32.16.32.28 0 .15-.12.23-.39.23-.2 0-.39-.04-.6-.1l-.1.58c.16.03.3.06.7.07.72 0 1.05-.26 1.05-.84 0-.34-.14-.55-.48-.7-.28-.13-.32-.16-.32-.27 0-.14.12-.2.34-.2.13 0 .3 0 .48.03l.1-.58a4.67 4.67 0 00-.6-.05c-.75 0-1.01.38-1.01.85zM48.2 7.28c.2 0 .37.05.61.17l.11-.67c-.1-.04-.44-.26-.74-.26-.45 0-.83.22-1.1.58-.4-.13-.56.13-.75.39l-.18.04c.01-.09.03-.17.02-.26h-.62c-.08.78-.23 1.57-.35 2.35l-.03.17h.67c.12-.72.18-1.18.22-1.49l.25-.14c.04-.14.16-.18.4-.18-.03.17-.05.34-.05.52 0 .82.45 1.33 1.18 1.33.19 0 .35-.02.6-.09l.12-.7c-.23.1-.41.16-.58.16-.4 0-.63-.29-.63-.76 0-.68.35-1.16.86-1.16z" fill="#000"/><path d="M37.9 9.6h-.67l.38-2.37-.86 2.37h-.46l-.06-2.36-.4 2.36h-.64l.53-3.09h.97l.03 1.92.66-1.92h1.04l-.52 3.1z" fill="#fff"/><path d="M53.93 6.7l-.15.89c-.19-.24-.39-.41-.65-.41-.34 0-.65.25-.85.62-.29-.05-.58-.15-.58-.15l.03-.38h-.62c-.08.78-.23 1.57-.35 2.35l-.03.17h.67c.1-.58.17-1.06.22-1.45.23-.2.34-.38.58-.37-.1.25-.17.53-.17.82 0 .63.33 1.04.82 1.04a.8.8 0 00.62-.28l-.03.24h.64l.51-3.1h-.66zm-.85 2.5c-.23 0-.34-.16-.34-.49 0-.5.21-.84.52-.84.23 0 .36.17.36.49 0 .5-.22.85-.54.85z" fill="#000"/><path d="M39.57 8.48h-.15c-.39 0-.58.12-.58.38 0 .15.1.25.24.25.28 0 .47-.25.49-.63zm.49 1.13h-.56l.01-.27c-.17.21-.4.3-.7.3-.37 0-.62-.27-.62-.68 0-.61.43-.97 1.18-.97.08 0 .18 0 .28.02a.6.6 0 00.02-.16c0-.17-.11-.23-.43-.23-.33 0-.6.08-.72.11l.1-.56c.33-.1.56-.14.8-.14.59 0 .9.26.9.74 0 .13-.03.29-.06.5-.06.36-.19 1.15-.2 1.34zM49.12 6.6l-.11.67a1.31 1.31 0 00-.6-.17c-.51 0-.87.48-.87 1.16 0 .47.24.75.63.75.17 0 .35-.05.58-.16l-.12.7c-.25.07-.41.1-.6.1-.72 0-1.18-.51-1.18-1.34 0-1.1.63-1.88 1.52-1.88.3 0 .65.13.75.17zM50.2 8.48h-.14c-.39 0-.58.12-.58.38 0 .15.1.25.24.25.28 0 .47-.25.49-.63zm.5 1.13h-.56l.01-.27c-.17.21-.4.3-.7.3-.37 0-.62-.27-.62-.68 0-.61.43-.97 1.18-.97.08 0 .18 0 .28.02a.61.61 0 00.02-.16c0-.17-.11-.23-.43-.23-.33 0-.6.08-.71.11l.09-.56c.34-.1.56-.14.8-.14.59 0 .9.26.9.74 0 .13-.03.29-.06.5-.06.36-.19 1.15-.2 1.34zM43.06 9.57c-.19.05-.33.08-.49.08-.34 0-.53-.2-.53-.55 0-.12.05-.4.1-.67.03-.24.29-1.72.29-1.72h.67l-.08.38h.34l-.09.6h-.34c-.08.48-.2 1.08-.2 1.16 0 .13.08.18.24.18.07 0 .13 0 .18-.02l-.1.56zM45.12 9.55c-.23.07-.46.1-.7.1-.74 0-1.13-.39-1.13-1.12 0-.86.5-1.5 1.17-1.5.55 0 .9.36.9.91 0 .19-.02.37-.08.62h-1.33c-.05.37.2.52.58.52.24 0 .46-.05.7-.16l-.11.63zm-.38-1.5c0-.05.07-.44-.31-.44-.22 0-.37.16-.43.45h.74zM40.46 7.89c0 .31.16.53.52.7.27.12.31.16.31.28 0 .15-.12.22-.39.22-.2 0-.39-.03-.6-.1l-.1.58c.16.04.3.07.7.08.72 0 1.05-.27 1.05-.84 0-.35-.14-.55-.48-.7-.28-.13-.31-.16-.31-.28 0-.13.11-.2.33-.2.13 0 .31.01.48.04l.1-.59a4.67 4.67 0 00-.6-.05c-.75 0-1.01.39-1 .86zM54.27 9.6h-.63l.03-.23a.8.8 0 01-.63.28c-.49 0-.81-.42-.81-1.05 0-.83.5-1.54 1.1-1.54.26 0 .46.1.64.35l.15-.9h.67l-.52 3.1zm-1-.58c.32 0 .54-.35.54-.84 0-.32-.12-.5-.35-.5-.31 0-.53.35-.53.85 0 .33.12.5.35.5zM51.3 7.09c-.08.78-.23 1.57-.35 2.35l-.03.17h.68c.24-1.54.3-1.84.68-1.8.06-.32.17-.6.25-.74-.28-.05-.44.1-.64.4.01-.13.04-.25.04-.38h-.62M45.75 7.09c-.09.78-.24 1.57-.36 2.35l-.03.17h.68c.24-1.54.3-1.84.68-1.8.06-.32.17-.6.25-.74-.28-.05-.44.1-.64.4.01-.13.04-.25.04-.38h-.62M54.57 9.4c0-.1.1-.19.2-.19.11 0 .2.09.2.2 0 .1-.09.2-.2.2a.2.2 0 01-.2-.2zm.2.16c.09 0 .15-.07.15-.15a.15.15 0 00-.15-.15.15.15 0 00-.15.15c0 .08.07.15.15.15zm-.03-.07h-.04v-.17h.08l.04.01.03.04c0 .02-.02.04-.03.05l.03.07h-.05l-.02-.06h-.04v.06zm0-.1h.05l.01-.02v-.01h-.06v.04z" fill="#fff"/><path fill-rule="evenodd" clip-rule="evenodd" d="M9.53 4.14l-3.23 7.5-2.17.01-1.84-6.3-.15-.47.01.01.02.01h-.02.03c.33.18 1.8 1.02 2.71 2.38.14.69.27 1.31.46 2l2-5.14h2.18zM18.27 9.2c-.01 1.56-1.41 2.57-3.57 2.57a6.5 6.5 0 01-2.29-.4l.3-1.69.26.12c.67.29 1.1.4 1.93.4.59 0 1.22-.23 1.23-.74 0-.33-.27-.56-1.07-.93-.78-.36-1.8-.96-1.8-2.05C13.29 5.02 14.72 4 16.74 4c.8 0 1.43.16 1.84.32l-.28 1.63-.18-.09c-.38-.15-.87-.3-1.54-.29-.8 0-1.17.34-1.17.65 0 .35.43.59 1.15.93 1.18.54 1.73 1.2 1.72 2.05zM23.84 4.14h-1.59c-.49 0-.86.13-1.07.62l-3.05 6.9h2.16l.43-1.13h2.63l.24 1.13h1.9l-1.65-7.52zM21.3 8.99c.37-.94.74-1.88 1.09-2.82L23 8.99h-1.7zM10.37 4.13h2.05l-1.28 7.53H9.09l1.28-7.53z" fill="#006CB5"/><path fill-rule="evenodd" clip-rule="evenodd" d="M0 4.06h3.47c.43.02.77.16.9.61l.53 2.6a8.05 8.05 0 00-2.7-2.36l-.04-.02.02.01h-.02A8.18 8.18 0 000 4.05z" fill="#FAA841"/><path fill-rule="evenodd" clip-rule="evenodd" d="M72 4s-1 0-1.28 1.05a1203 1203 0 01-.96 3.7h-.2l-.96-3.7C68.33 4 67.31 4 67.31 4H65v8h2.31V7.25h.2L68.86 12h1.6l1.35-4.75h.2V12h2.31V4h-2.31zM80.46 4s-.68.07-1 .84l-1.64 3.91h-.19V4h-2.31v8h2.18s.71-.07 1.03-.84l1.6-3.91h.2V12h2.31V4h-2.18zM83.67 7.63V12H86V9.45h2.5c1.1 0 2.02-.76 2.36-1.82h-7.18z" fill="#4DB45E"/><path fill-rule="evenodd" clip-rule="evenodd" d="M88.5 4h-5.15a3.9 3.9 0 002.67 3.14c.3.1.63.14.96.14h3.97c.03-.18.05-.36.05-.56C91 5.22 89.88 4 88.5 4z" fill="url(#paint0_linear)"/><defs><linearGradient id="paint0_linear" x1="83.35" y1="5.64" x2="91" y2="5.64" gradientUnits="userSpaceOnUse"><stop offset=".3" stop-color="#00B4E6"/><stop offset="1" stop-color="#088CCB"/></linearGradient></defs></svg>