<svg width="160" height="33" viewBox="0 0 160 33" xmlns="http://www.w3.org/2000/svg"><path d="M47.69 10.323c.363-.846.673-1.797.93-2.851.255-1.054.383-1.924.383-2.61 0-.45-.116-.673-.349-.673-.214 0-.605.258-1.173.774a14.807 14.807 0 00-2.263 2.864 14.85 14.85 0 00-1.523 3.31 10.977 10.977 0 00-.53 3.301c0 .847.1 1.427.3 1.74.2.314.58.47 1.138.47.484 0 1.085-.122 1.802-.368 1.62-.584 3.334-1.418 5.14-2.502.801-.466 1.309-.699 1.523-.699.307 0 .461.14.461.42v.025c-.047.381-.19.813-.433 1.296-.484.931-.903 1.54-1.257 1.828-.596.483-1.413.957-2.452 1.423a21.714 21.714 0 01-3.191 1.143c-1.09.297-2.003.445-2.738.445a6.597 6.597 0 01-2.403-.438 6.248 6.248 0 01-1.97-1.2 5.57 5.57 0 01-1.312-1.779 5.065 5.065 0 01-.475-2.172c0-.584.102-1.217.307-1.899.205-.681.503-1.394.894-2.14a15.08 15.08 0 011.327-2.095c.288-.39.589-.762.901-1.118.312-.356.657-.703 1.034-1.041.377-.339.789-.665 1.236-.978.447-.314.857-.58 1.23-.8a15.5 15.5 0 012.025-1.042 12.593 12.593 0 011.941-.66 7.007 7.007 0 011.634-.216c1.22 0 2.175.288 2.864.863.689.576 1.034 1.372 1.034 2.388 0 1.067-.29 2.183-.866 3.347a10.245 10.245 0 01-2.305 3.054c-.661.619-1.318 1.105-1.97 1.461-.652.356-1.238.533-1.76.533-.456 0-.684-.199-.684-.597 0-.186.126-.444.377-.774.354-.458.745-1.135 1.173-2.033zM64.174 6.755c1.387 0 2.08.148 2.08.444 0 .339-.311.521-.935.546a5.034 5.034 0 00-2.11.585 5.896 5.896 0 00-1.739 1.422 6.89 6.89 0 00-1.187 2.033 6.708 6.708 0 00-.426 2.387c0 .923.238 1.666.713 2.23.475.563 1.094.844 1.858.844.707 0 1.326-.33 1.857-.99.531-.661.797-1.431.797-2.312 0-.72-.166-1.395-.496-2.026a4.381 4.381 0 00-1.446-1.594c-.27-.195-.405-.335-.405-.42 0-.118.19-.3.572-.545a6.995 6.995 0 011.44-.66c.53-.179.977-.268 1.34-.268.42 0 .817.1 1.195.299.377.199.71.482.998.85.289.37.51.793.664 1.27.153.48.23.99.23 1.531 0 .898-.186 1.785-.558 2.661-.373.877-.862 1.586-1.467 2.128-.782.685-1.725 1.247-2.829 1.683-1.103.436-2.153.654-3.15.654a9.43 9.43 0 01-2.884-.457c-.955-.305-1.711-.707-2.27-1.207-.745-.677-1.117-1.639-1.117-2.883 0-.982.265-1.965.796-2.947.53-.982 1.25-1.873 2.158-2.674a10.96 10.96 0 013.003-1.892 8.467 8.467 0 013.318-.692zM74.524 20.078c.55-.026 1.05-.269 1.501-.73.452-.462.678-.963.678-1.505 0-.373-.135-.67-.405-.89-.289-.262-.936-.52-1.942-.774-1.48-.39-2.444-.826-2.891-1.308-.42-.39-.629-.856-.629-1.398 0-.973.389-1.947 1.166-2.92.778-.975 1.772-1.773 2.983-2.395 1.21-.622 2.43-.934 3.66-.934.595 0 1.154.127 1.676.381.521.254.936.59 1.243 1.01.307.42.46.874.46 1.365 0 .483-.167.983-.502 1.5a4.489 4.489 0 01-1.264 1.288c-.508.343-.99.515-1.446.515-.26 0-.486-.051-.677-.153-.191-.101-.287-.211-.287-.33 0-.118.037-.292.112-.52.205-.729.307-1.364.307-1.906 0-.533-.177-1.037-.53-1.511-.457.288-.755.516-.894.685a4.09 4.09 0 00-.825 1.269c-.214.482-.32.939-.32 1.37 0 .305.076.548.23.73.154.182.406.336.755.463.35.128.878.267 1.585.42 1.183.263 2.016.517 2.5.763.112.06.284.182.517.368.353.347.53.797.53 1.347 0 .585-.2 1.176-.6 1.773-.401.597-1.02 1.213-1.858 1.848-.894.686-1.784 1.178-2.668 1.474-.885.297-1.863.445-2.934.445-1.033 0-1.846-.186-2.437-.559-.592-.372-.887-.88-.887-1.524 0-.457.195-.92.587-1.39.39-.47.877-.854 1.46-1.15.581-.296 1.152-.445 1.71-.445.42 0 .629.085.629.254 0 .085-.06.225-.182.42-.363.592-.544 1.138-.544 1.638 0 .356.144.694.433 1.016zM98.423 14.934l-3.813 3.557c-.494.449-.892.756-1.195.92a2.051 2.051 0 01-.998.248c-.569 0-1.046-.192-1.432-.578a1.922 1.922 0 01-.58-1.416c0-.347.058-.726.175-1.136.116-.411.347-1.023.691-1.836.065-.17.128-.315.189-.438.06-.123.11-.227.147-.311l-.056-.051a52.76 52.76 0 00-2.654 2.73c-.727.788-1.304 1.377-1.733 1.766-.428.39-.814.682-1.159.877-.344.195-.652.292-.922.292-.605 0-1.085-.216-1.439-.648-.354-.432-.53-1.02-.53-1.765 0-.94.447-2.46 1.34-4.56.801-1.863 1.42-3.112 1.858-3.747.642-.88 1.377-1.321 2.206-1.321.502 0 .919.108 1.25.324.33.216.495.497.495.844 0 .635-.264 1.604-.793 2.907a27.89 27.89 0 00-.626 1.637l.056.051a58.37 58.37 0 001.66-1.79c1.312-1.472 2.304-2.475 2.974-3.008.867-.728 1.659-1.092 2.376-1.092.317 0 .62.097.908.292.289.195.52.455.692.782.172.325.258.666.258 1.022 0 .364-.287 1.296-.863 2.796-.12.313-.213.559-.278.737-.065.178-.125.33-.181.457l.07.05.348-.317c.102-.093.216-.192.342-.298l.355-.3c.251-.22.883-.8 1.897-1.74.669-.678 1.195-1.142 1.577-1.392.381-.25.749-.374 1.103-.374.578 0 1.018.18 1.32.54.303.36.454.89.454 1.593 0 .432-.074 1.114-.223 2.045a70.27 70.27 0 00-.273 2.47 17.169 17.169 0 00-.076 1.252 9.54 9.54 0 00.153 1.562c.056.313.131.66.224 1.041.111.466.186.83.223 1.093-.074.304-.319.563-.733.774a2.924 2.924 0 01-1.348.318c-.764 0-1.481-.313-2.151-.94a3.806 3.806 0 01-.692-.87 3.274 3.274 0 01-.349-1.041c-.07-.403-.105-.934-.105-1.595 0-.431.056-1.325.168-2.68l-.056-.05-.251.317zM114.557 6.755c1.387 0 2.081.148 2.081.444 0 .339-.312.521-.935.546a5.035 5.035 0 00-2.11.585 5.902 5.902 0 00-1.739 1.422 6.903 6.903 0 00-1.187 2.033 6.714 6.714 0 00-.426 2.387c0 .923.237 1.666.712 2.23.475.563 1.094.844 1.858.844.708 0 1.327-.33 1.858-.99.531-.661.796-1.431.796-2.312 0-.72-.165-1.395-.496-2.026a4.374 4.374 0 00-1.445-1.594c-.271-.195-.406-.335-.406-.42 0-.118.191-.3.573-.545a6.988 6.988 0 011.439-.66c.531-.179.978-.268 1.341-.268.419 0 .817.1 1.194.299.377.199.71.482.999.85.288.37.51.793.663 1.27.154.48.231.99.231 1.531 0 .898-.187 1.785-.559 2.661-.372.877-.861 1.586-1.467 2.128-.782.685-1.725 1.247-2.828 1.683-1.104.436-2.154.654-3.15.654-.969 0-1.93-.153-2.885-.457-.954-.305-1.711-.707-2.269-1.207-.746-.677-1.118-1.639-1.118-2.883 0-.982.265-1.965.796-2.947s1.25-1.873 2.158-2.674c.908-.8 1.909-1.43 3.004-1.892a8.467 8.467 0 013.317-.692zM130.062 16.052l-.377.254c-.028.025-.072.06-.133.101l-.23.166c-1.611 1.143-2.876 1.947-3.793 2.413-.917.466-1.716.698-2.395.698-.754 0-1.362-.25-1.823-.749-.461-.5-.692-1.168-.692-2.007 0-1.041.324-2.119.971-3.232.647-1.114 1.502-2.136 2.563-3.067a13.731 13.731 0 013.493-2.242c1.266-.563 2.491-.845 3.673-.845 1.164 0 2.051.182 2.661.546.61.364.915.91.915 1.639 0 .61-.265 1.363-.796 2.26.382.026.661.134.838.324.177.19.265.49.265.896 0 .66-.149 1.581-.447 2.762a21.915 21.915 0 01-1.089 3.27 9.614 9.614 0 01-2.235 3.29c-.736.703-1.648 1.307-2.738 1.81-1.09.504-2.025.756-2.808.756-.652 0-1.234-.237-1.746-.711s-.768-1.008-.768-1.6c0-.399.112-.811.335-1.239.224-.427.512-.794.866-1.098.727-.67 1.793-1.304 3.199-1.905.261-.12.461-.178.601-.178.056 0 .107.02.154.063a.188.188 0 01.069.14c0 .06-.056.174-.167.343-.28.431-.526.984-.741 1.657-.214.673-.321 1.255-.321 1.747 0 .575.098.863.294.863.102 0 .23-.104.384-.31.153-.208.291-.444.412-.706.792-1.829 1.298-3.523 1.519-5.08.029-.23.058-.572.087-1.03zm.712-2.706v.051l-.055-.05a.794.794 0 01-.224.025c-.177.017-.4.025-.67.025-.475 0-.713-.08-.713-.241 0-.085.061-.186.182-.305.354-.364.659-.842.915-1.435.256-.593.398-1.13.426-1.613a1.602 1.602 0 01.049-.407.442.442 0 00.007-.063c0-.119-.089-.178-.265-.178-.364 0-.922.356-1.677 1.067-.475.457-.922.999-1.341 1.626a9.043 9.043 0 00-.977 1.88c-.233.626-.35 1.19-.35 1.689 0 .49.135.736.405.736.261 0 .917-.398 1.97-1.194.475-.372 1.247-.91 2.318-1.613zM138.525 19.659c-.419-.025-.8-.199-1.144-.52a2.97 2.97 0 01-.733-1.1c-.144-.393-.216-.903-.216-1.53 0-1.397.286-2.974.859-4.731.573-1.757 1.222-3.03 1.948-3.817.289-.33.689-.495 1.201-.495.54 0 .976.224 1.306.673.33.449.496 1.037.496 1.765 0 1.075-.171 2.335-.511 3.778a32.757 32.757 0 01-1.435 4.503c-.242.627-.539 1.05-.893 1.27a1.71 1.71 0 01-.851.204h-.027zm1.678-12.765c-.875-.025-1.313-.503-1.313-1.435 0-.466.128-1.005.385-1.62.256-.613.546-1.068.873-1.365.167-.16.337-.275.509-.343.173-.067.394-.101.664-.101.465 0 .808.104 1.027.311.218.208.328.553.328 1.035a4.33 4.33 0 01-.342 1.708c-.229.538-.534.974-.915 1.309-.382.334-.773.501-1.174.501h-.042zM152.942 7.91l.14-.52c.289-1.16.55-2.098.782-2.813.233-.716.473-1.321.72-1.817.246-.495.491-.853.733-1.073.391-.381 1.094-.572 2.109-.572.447 0 .78.022.999.064.219.042.393.119.524.229-.447 1.261-.757 2.208-.929 2.838-.172.631-.361 1.497-.566 2.598-.316 1.795-.475 3.416-.475 4.864 0 .957.086 1.95.259 2.979.172 1.029.454 2.174.845 3.435-.494.314-.966.58-1.418.8a9.32 9.32 0 01-1.285.521c-.405.127-.761.19-1.068.19-.541 0-.922-.24-1.146-.723-.186-.398-.307-.718-.363-.96-.056-.24-.154-.911-.293-2.012-1.248 1.185-2.443 2.119-3.583 2.8-1.141.682-2.052 1.023-2.731 1.023-.782 0-1.423-.29-1.921-.87-.498-.58-.747-1.328-.747-2.242 0-.821.193-1.734.58-2.737a12.828 12.828 0 011.599-2.915c.447-.618.906-1.141 1.376-1.569a10.52 10.52 0 011.599-1.187c1.08-.644 1.984-.965 2.71-.965.354 0 .871.211 1.55.635zm-.433 6.034v-.737c-.474.38-.828.571-1.061.571-.131 0-.196-.059-.196-.177 0-.051.028-.157.084-.318.196-.508.294-.999.294-1.473 0-.686-.163-1.397-.489-2.134-.14-.381-.313-.572-.517-.572a.304.304 0 00-.252.127c-.307.322-.6.777-.88 1.366a11.043 11.043 0 00-.691 1.918c-.182.69-.272 1.301-.272 1.835 0 1.008.335 1.511 1.005 1.511.336 0 .785-.18 1.348-.54a8.452 8.452 0 001.627-1.377z" fill="#ED4993"/><path d="M29.608 21.605c.725.15.44-.564.372-1.197-.068-.633-.44-1.514.043-1.293.483.221 1.29 1.265 1.174.574-.115-.691-1.123-1.917-1.417-2.581-.293-.663-.029-.524.607-.177.635.345.138-1.178-.497-2.561-.635-1.385-2.447-1.941-2.447-1.941 1.8-.07 3.012-2.14 2.95-3.499-.063-1.358 1.865-5.306 2.573-7.133a2.37 2.37 0 00.054-.159 1.512 1.512 0 00.043-.202c.004-.029.008-.058.01-.086l.001-.053c0-.025 0-.051-.003-.076 0-.017-.003-.033-.005-.05a.501.501 0 00-.026-.115.717.717 0 00-.023-.061l-.02-.043c-.01-.02-.023-.037-.035-.055a.484.484 0 00-.026-.037c-.014-.018-.03-.034-.046-.05-.01-.01-.02-.022-.032-.032a.576.576 0 00-.06-.045c-.012-.009-.022-.017-.035-.025a.937.937 0 00-.103-.055l-.044-.017a1.37 1.37 0 00-.09-.033l-.064-.016a.884.884 0 00-.079-.018l-.077-.013-.082-.011a3.798 3.798 0 00-.087-.007L32.05.534a1.911 1.911 0 00-.098-.001h-.091c-.035.003-.072.004-.11.006l-.094.008-.119.011-.098.013-.13.02a7.44 7.44 0 00-.244.044l-.087.02c-.204.043-.42.099-.65.168l-.055.016c-.066.02-.133.042-.2.064l-.097.031-.199.07a14.53 14.53 0 00-.315.116l-.122.046a12.14 12.14 0 00-.336.136l-.217.092-.13.056a33.91 33.91 0 00-.228.102l-.129.06c-.08.036-.161.074-.243.113l-.118.057-.266.13-.076.039c-.508.256-1.046.547-1.614.878-4.08 2.377-7.452 6.456-8.487 7.782a.845.845 0 00-.095-.346.98.98 0 00-.1-.136c.173-.143.305-.527.23-.69-.064-.138-.299-.349-.438-.367a.465.465 0 00-.168-.062c.129-.369.057-.396-.059-.009a2.793 2.793 0 00-.17-.015.884.884 0 00-.138 0c-.122-.408-.197-.384-.062.007-.168.028-.241.102-.241.102a.899.899 0 00-.36.343c-.076.162.055.547.23.69a.929.929 0 00-.101.135.84.84 0 00-.097.346c-1.031-1.329-4.392-5.415-8.466-7.8a29.387 29.387 0 00-1.596-.873c-.03-.017-.063-.033-.093-.049a26.154 26.154 0 00-.384-.188l-.234-.11-.137-.063a16.72 16.72 0 00-.57-.25l-.134-.055c-.068-.028-.135-.055-.202-.08a14.436 14.436 0 00-.324-.124l-.12-.044-.191-.066C3.44.894 3.405.883 3.369.872 3.305.85 3.24.829 3.179.81L3.107.79a8.255 8.255 0 00-.63-.165c-.03-.007-.061-.015-.091-.02-.05-.011-.096-.02-.144-.028l-.1-.018a3.636 3.636 0 00-.228-.032L1.796.515 1.7.507A6.473 6.473 0 001.5.5l-.098.001c-.029 0-.057.002-.085.004l-.09.007a3.316 3.316 0 00-.158.022c-.028.006-.052.013-.078.02a1.142 1.142 0 00-.153.048C.822.607.804.613.787.62A.77.77 0 00.69.673L.653.7a.8.8 0 00-.06.044L.561.776a.455.455 0 00-.046.049C.505.837.497.85.49.862a.606.606 0 00-.079.16l-.013.046a.937.937 0 00-.018.118 1.231 1.231 0 00-.002.129c.002.028.006.057.01.086l.007.053c.006.033.015.068.023.102l.012.047c.015.052.032.104.053.16.704 1.828 2.62 5.78 2.556 7.138-.067 1.359 1.14 3.432 2.94 3.505 0 0-1.814.552-2.452 1.935-.64 1.383-1.14 2.904-.504 2.56.636-.344.902-.483.606.18-.295.662-1.306 1.887-1.423 2.577-.118.69.692-.352 1.176-.571.483-.22.108.66.038 1.293-.07.632-.356 1.346.37 1.198.726-.149.654.12.522 1.072-.133.953-.686 3.207.263 2.665.95-.54.493-1.57 1.607-1.46a2.043 2.043 0 01.127.016l.105.015h.006c.282.043.65.112 1.06.168l.043.007.108.013c.02.003.04.006.058.007.059.008.118.014.178.02l.076.01.096.008.084.007.094.007.12.007.117.006.107.004c.029 0 .058 0 .086.002h.186c.057 0 .114-.003.171-.005l.072-.004.119-.007.072-.006c.055-.006.11-.011.163-.018l.052-.008c.049-.006.097-.014.145-.022l.066-.012.129-.028c.014-.003.029-.005.043-.01v.002l.021-.005.02-.006c.042-.011.084-.021.124-.034l.017-.005.039-.013c.03-.008.058-.018.087-.027l.005-.002a.79.79 0 00.051-.02 2.568 2.568 0 00.38-.173c.015-.008.03-.016.043-.025a2.087 2.087 0 00.163-.104c.05-.035.1-.07.148-.11v-.001a2.176 2.176 0 00.275-.27l.038-.045c.04-.049.08-.1.118-.155 0-.002 0-.002.002-.003.036-.055.072-.114.107-.173l.03-.056c.023-.046.047-.093.07-.142l.027-.06c.03-.067.058-.137.083-.21.898-2.612 1.064-6.53 2.46-8.222 1.095-1.326 1.718-1.631 1.936-1.701.03.187.058.365.079.522.109.845-.304 1.493-.141 2.396.164.904.66.866.66.866s.494.039.662-.864c.166-.904-.246-1.552-.135-2.397.02-.157.05-.334.08-.522.217.07.84.376 1.932 1.706 1.39 1.694 1.547 5.612 2.438 8.226.026.074.053.143.082.211l.028.06c.021.05.045.096.07.142l.029.055c.034.06.07.12.107.174 0 .002.002.003.003.004.037.055.075.105.116.155l.038.045c.03.035.062.07.094.104l.04.04a2.302 2.302 0 00.447.34 2.448 2.448 0 00.21.112l-.001-.001c.045.022.093.043.14.061 0 .002.002.001.002.002l.03.01.042.016.066.025.047.015.032.01.037.012.027.008.07.02.074.019.015.004.032.007a4.958 4.958 0 00.385.07 4.28 4.28 0 00.379.036c.02 0 .039.002.058.003l.18.005h.19c.023 0 .045 0 .068-.002.047 0 .095-.002.141-.004.015 0 .031 0 .046-.002.059-.002.118-.006.176-.01l.066-.006a3.23 3.23 0 00.124-.01l.061-.004.17-.019.048-.005.128-.016.063-.008.126-.017.042-.006.159-.023.052-.008.115-.019a.697.697 0 00.046-.007l.329-.054.083-.013.051-.008.116-.018.031-.005a4.11 4.11 0 01.084-.012c.011 0 .022-.002.032-.003l.1-.012c1.115-.11.655.92 1.603 1.464.948.544.401-1.713.27-2.666-.128-.952-.2-1.221.526-1.071z" fill="#08B0CF"/><path d="M25.987 19.176c.522.108.317-.405.268-.86-.049-.455-.316-1.089.03-.93.348.16.928.91.845.413-.083-.497-.808-1.379-1.019-1.856-.211-.477-.02-.376.436-.127.457.248.1-.847-.357-1.841-.457-.996-1.76-1.396-1.76-1.396 1.295-.05 2.166-1.538 2.121-2.515-.044-.977 1.341-3.816 1.85-5.129.016-.04.028-.077.04-.114l.008-.034a1.126 1.126 0 00.022-.112l.008-.062v-.037c0-.019 0-.037-.002-.055l-.003-.036a.352.352 0 00-.02-.083.477.477 0 00-.03-.074c-.007-.014-.016-.027-.025-.04a.312.312 0 00-.019-.027l-.033-.036-.023-.023a.409.409 0 00-.044-.032l-.024-.018a.663.663 0 00-.075-.04l-.03-.011a.932.932 0 00-.066-.024c-.014-.005-.03-.008-.046-.012-.018-.005-.036-.01-.056-.013l-.056-.01-.059-.007-.063-.005-.062-.003a1.317 1.317 0 00-.07-.001h-.066l-.078.005-.068.005a2.345 2.345 0 00-.086.009l-.07.009-.094.014a1.507 1.507 0 00-.07.012c-.035.006-.07.012-.106.02l-.062.013a5.892 5.892 0 00-.467.122l-.04.011-.144.046-.07.023-.142.05a10.704 10.704 0 00-.226.083c-.03.01-.059.022-.089.034a8.934 8.934 0 00-.241.097l-.156.066-.094.04-.164.074-.092.043a7.226 7.226 0 00-.175.081l-.085.041-.191.094-.055.028c-.365.184-.752.393-1.16.63-2.933 1.71-5.358 4.643-6.102 5.597a.608.608 0 00-.069-.25.7.7 0 00-.072-.098c.125-.102.22-.378.166-.495-.046-.1-.215-.251-.315-.264a.335.335 0 00-.12-.045c.092-.265.04-.285-.043-.006a2.007 2.007 0 00-.123-.011.627.627 0 00-.099 0c-.088-.294-.142-.276-.044.005-.12.02-.174.073-.174.073a.645.645 0 00-.258.247c-.055.116.04.393.165.496a.678.678 0 00-.073.097.605.605 0 00-.07.249c-.74-.956-3.157-3.893-6.086-5.609a21.16 21.16 0 00-1.148-.627L8.85 5a18.984 18.984 0 00-.276-.135l-.168-.08-.099-.045a12.365 12.365 0 00-.158-.071l-.1-.044a8.619 8.619 0 00-.15-.064l-.097-.04-.146-.058-.092-.036-.141-.053-.086-.031-.138-.048-.077-.025-.137-.045-.052-.015a5.92 5.92 0 00-.452-.118l-.066-.014c-.035-.008-.07-.014-.103-.02l-.072-.013a2.512 2.512 0 00-.164-.023l-.085-.009-.069-.005a4.736 4.736 0 00-.143-.005h-.071c-.021 0-.042.002-.062.003l-.064.005a1.036 1.036 0 00-.114.016l-.056.014c-.016.004-.032.007-.047.012a.851.851 0 00-.062.022l-.038.015a.558.558 0 00-.07.037c-.01.006-.017.012-.026.019a.582.582 0 00-.043.031l-.023.024a.338.338 0 00-.033.035l-.019.027a.422.422 0 00-.056.114l-.01.034a.639.639 0 00-.013.085l-.002.054v.038a.87.87 0 00.008.062l.005.038c.005.024.01.049.017.074.004.011.005.022.009.034.01.037.023.075.038.114.506 1.315 1.884 4.156 1.837 5.133-.048.977.82 2.467 2.113 2.52 0 0-1.303.396-1.762 1.391-.46.994-.82 2.088-.362 1.84.457-.247.648-.347.436.13-.213.476-.94 1.357-1.024 1.853-.084.496.498-.253.846-.41.347-.16.077.474.027.929-.05.454-.256.967.266.861.522-.107.47.086.375.77-.095.686-.493 2.307.19 1.918.682-.39.354-1.13 1.155-1.05l.074.009.017.002.076.01.004.001c.203.03.467.08.762.12l.031.005.078.01a6.334 6.334 0 00.17.02l.054.006.07.006.06.005.067.005.086.006.085.004.077.002.061.002h.134l.123-.003.052-.003.085-.006.052-.004.117-.013.037-.005c.036-.005.07-.01.105-.017l.047-.008.093-.02.03-.007a.092.092 0 01.016-.003l.015-.004c.03-.008.06-.015.089-.024l.012-.004.028-.009.062-.02.004-.001a.611.611 0 00.067-.026 1.822 1.822 0 00.498-.285 1.553 1.553 0 00.197-.195 1.526 1.526 0 00.112-.144l.002-.001c.026-.04.052-.082.076-.125l.022-.04a2.7 2.7 0 00.05-.102l.02-.043c.02-.049.041-.1.06-.152.645-1.878.764-4.694 1.768-5.91.788-.954 1.236-1.174 1.392-1.224.023.135.042.263.057.375.078.608-.219 1.074-.101 1.723.118.65.474.623.474.623s.356.028.476-.621c.12-.65-.176-1.116-.097-1.724.015-.113.036-.24.058-.375.156.05.604.27 1.389 1.227 1 1.218 1.112 4.035 1.753 5.914a2.408 2.408 0 00.129.297l.02.04a1.9 1.9 0 00.078.125l.002.003a1.652 1.652 0 00.179.218l.028.029a1.637 1.637 0 00.206.17l.034.023c.027.018.054.035.082.051l.034.02c.038.022.077.042.116.06.032.016.067.031.1.044l.002.001a.206.206 0 00.022.008l.03.011c.016.006.031.013.047.018l.034.011.023.007.026.009.02.006.05.014c.018.004.036.01.054.013l.01.004a3.258 3.258 0 00.573.08l.041.002c.044.002.087.004.13.004h.185l.102-.004.033-.001.127-.008.046-.004.09-.007.044-.003.122-.014.035-.004.092-.01.045-.007.09-.012.03-.005a5.59 5.59 0 00.115-.016l.037-.006.083-.013a.532.532 0 00.033-.005l.236-.039a4.707 4.707 0 01.097-.015c.029-.005.056-.01.083-.013l.023-.004.06-.008c.008 0 .016-.002.023-.003l.072-.008c.802-.079.47.661 1.153 1.053.681.39.288-1.232.194-1.917-.093-.685-.144-.878.377-.77z" fill="#92348F"/><path d="M17.44 9.255c.405-.127.572-.65.372-1.168-.2-.519-.69-.837-1.096-.71-.405.126-.572.649-.372 1.167.2.52.69.837 1.095.71z" stroke="#fff" stroke-width="2" stroke-miterlimit="10"/><path d="M10.67 5.782s1.607.467 3.07 1.567c1.463 1.1 2.232 2.111 3.338 2.256 1.105.144 1.533-1.044 2.443-2.024.91-.98 2.106-1.799 2.106-1.799s-1.5 1.895-2.284 2.955c-.785 1.06-.34 1.494-.16 1.8.178.305-.144.77-.483 1.332-.339.563-.374.964-.32 1.816.053.85.193 2.152-.484 2.843-.677.69-1.176 1.3-1.283 2.12-.107.819-.107 5.51-.268 5.51-.16 0-.82-3.952-.981-5.318-.161-1.365-1.035-3.79-.09-4.963.946-1.172 1.553-1.413 1.428-2.377-.125-.964-.82-1.397-1.999-2.49-1.177-1.092-4.032-3.228-4.032-3.228z" stroke="#fff" stroke-width="2" stroke-miterlimit="10"/><path d="M17.44 9.255c.405-.126.572-.65.372-1.168-.2-.519-.69-.836-1.096-.71-.405.126-.572.65-.372 1.168.2.519.69.836 1.095.71z" fill="#ED4993"/><path d="M10.67 5.782s1.607.467 3.07 1.567c1.463 1.1 2.232 2.111 3.338 2.256 1.105.144 1.533-1.044 2.443-2.024.91-.98 2.106-1.799 2.106-1.799s-1.5 1.895-2.284 2.955c-.785 1.06-.34 1.494-.16 1.8.178.305-.144.77-.483 1.332-.339.563-.374.964-.32 1.816.053.85.193 2.152-.484 2.843-.677.69-1.176 1.3-1.283 2.12-.107.819-.107 5.51-.268 5.51-.16 0-.82-3.952-.981-5.318-.161-1.365-1.035-3.79-.09-4.963.946-1.172 1.553-1.413 1.428-2.377-.125-.964-.82-1.397-1.999-2.49-1.177-1.092-4.032-3.228-4.032-3.228z" fill="#ED4993"/><path d="M6.286 32.34a.1.1 0 01-.021.063.153.153 0 01-.079.046.83.83 0 01-.15.028c-.063.007-.143.01-.24.01-.094 0-.172-.003-.235-.01a.792.792 0 01-.149-.028.166.166 0 01-.078-.045.095.095 0 01-.024-.064v-3.68h-.007l-1.47 3.677a.169.169 0 01-.051.075.256.256 0 01-.096.047.716.716 0 01-.155.023 4.18 4.18 0 01-.455-.003.764.764 0 01-.155-.028.298.298 0 01-.096-.047.134.134 0 01-.047-.067L1.36 28.66h-.007v3.68a.1.1 0 01-.022.063c-.014.02-.041.034-.08.046a.881.881 0 01-.151.028c-.062.007-.14.01-.237.01-.094 0-.173-.003-.235-.01a.839.839 0 01-.151-.028.154.154 0 01-.079-.045.1.1 0 01-.021-.064v-4.03c0-.118.035-.21.106-.272a.408.408 0 01.282-.095h.674c.12 0 .223.01.31.026.086.018.16.047.223.088.063.04.115.094.157.16.042.067.078.15.11.247l1.097 2.695h.016l1.136-2.688c.034-.098.071-.18.112-.248a.59.59 0 01.141-.165.487.487 0 01.19-.089c.073-.017.158-.026.255-.026h.693c.071 0 .132.008.183.025.05.016.093.04.125.071.033.032.058.07.075.116a.444.444 0 01.025.155v4.03zM11.546 32.124c.031.084.05.15.059.199.007.049-.003.086-.032.11-.029.025-.08.04-.153.046a7.06 7.06 0 01-.613.004.843.843 0 01-.17-.022.16.16 0 01-.083-.044.226.226 0 01-.039-.073l-.341-.909H8.269l-.321.884a.262.262 0 01-.041.083.17.17 0 01-.083.052.679.679 0 01-.16.026 4.358 4.358 0 01-.555-.003c-.068-.007-.115-.024-.141-.05-.026-.028-.035-.066-.028-.114.008-.05.028-.114.06-.196l1.563-4.013a.337.337 0 01.055-.096.197.197 0 01.1-.056.87.87 0 01.19-.025 10.391 10.391 0 01.69 0c.091.004.162.012.213.025a.21.21 0 01.11.057c.022.026.041.061.057.105l1.568 4.01zm-2.328-3.317h-.004l-.717 1.922h1.438l-.717-1.922zM15.128 28.324c0 .07-.003.129-.01.176a.436.436 0 01-.03.116.143.143 0 01-.048.063.123.123 0 01-.069.02H13.29v3.648a.085.085 0 01-.026.062.196.196 0 01-.084.043.831.831 0 01-.157.027 2.933 2.933 0 01-.25.008c-.1 0-.183-.003-.25-.008a.835.835 0 01-.158-.027.196.196 0 01-.085-.043.085.085 0 01-.025-.062v-4.114c0-.098.028-.17.084-.218a.33.33 0 01.222-.072h2.41c.052 0 .092.03.118.087.026.059.039.156.039.294zM19.251 32.124c.031.084.051.15.059.199.008.049-.003.086-.031.11-.03.025-.08.04-.153.046a7.052 7.052 0 01-.613.004.842.842 0 01-.171-.022.16.16 0 01-.083-.044.228.228 0 01-.039-.073l-.34-.909h-1.905l-.322.884a.263.263 0 01-.04.083.17.17 0 01-.083.052.68.68 0 01-.16.026 4.358 4.358 0 01-.556-.003c-.068-.007-.115-.024-.14-.05-.027-.028-.036-.066-.028-.114.008-.05.027-.114.058-.196l1.564-4.013a.335.335 0 01.055-.096.197.197 0 01.1-.056.87.87 0 01.19-.025 10.392 10.392 0 01.69 0c.092.004.163.012.214.025a.21.21 0 01.11.057c.021.026.04.061.056.105l1.568 4.01zm-2.328-3.317h-.004l-.717 1.922h1.438l-.717-1.922zM23.002 31.155c0 .229-.049.43-.145.603-.097.174-.235.32-.414.437a1.98 1.98 0 01-.643.264c-.25.058-.525.088-.828.088-.168 0-.321-.01-.46-.032a2.57 2.57 0 01-.365-.078 1.764 1.764 0 01-.25-.093.836.836 0 01-.132-.075.236.236 0 01-.06-.062.278.278 0 01-.03-.089 1.113 1.113 0 01-.018-.145 3.26 3.26 0 01-.006-.216c0-.098.01-.164.03-.198a.096.096 0 01.088-.05c.031 0 .075.014.133.043.057.03.13.063.22.1a1.902 1.902 0 001.148.101.905.905 0 00.292-.13.62.62 0 00.186-.2.517.517 0 00.066-.26c0-.105-.02-.2-.06-.284a.54.54 0 00-.19-.213.993.993 0 00-.328-.135 2.078 2.078 0 00-.476-.047h-.537a.259.259 0 01-.094-.014.114.114 0 01-.056-.052.267.267 0 01-.028-.107 2.19 2.19 0 01.002-.346.28.28 0 01.03-.103.124.124 0 01.054-.054.188.188 0 01.08-.016h.545c.16 0 .3-.014.424-.042a.922.922 0 00.307-.124.569.569 0 00.188-.2.543.543 0 00.065-.266.578.578 0 00-.045-.231.434.434 0 00-.14-.177.704.704 0 00-.238-.112 1.3 1.3 0 00-.345-.04 1.8 1.8 0 00-.424.046 2.814 2.814 0 00-.562.197.373.373 0 01-.143.047.077.077 0 01-.047-.014.116.116 0 01-.035-.05.348.348 0 01-.022-.1 1.804 1.804 0 01.014-.402.353.353 0 01.031-.086.251.251 0 01.06-.071.78.78 0 01.17-.091 2.05 2.05 0 01.311-.103 3.724 3.724 0 01.905-.11c.272 0 .51.025.712.076.203.052.372.126.507.222a.93.93 0 01.306.357c.068.14.102.302.102.484 0 .145-.022.276-.067.395a.973.973 0 01-.19.315c-.082.09-.18.167-.294.229a1.35 1.35 0 01-.378.134v.007c.16.016.305.056.437.117.132.062.245.14.34.236.093.096.166.205.219.327a.998.998 0 01.078.393zM27.956 32.348a.084.084 0 01-.026.06.194.194 0 01-.084.044.82.82 0 01-.159.027c-.067.006-.15.009-.249.009-.1 0-.182-.003-.249-.01a.778.778 0 01-.156-.026.176.176 0 01-.08-.043.088.088 0 01-.024-.061v-2.384a9 9 0 01.016-.5h-.008a6.97 6.97 0 01-.167.25 5.708 5.708 0 01-.214.292l-1.763 2.345a.494.494 0 01-.065.066.237.237 0 01-.086.044.618.618 0 01-.13.021c-.05.004-.117.005-.197.005-.102 0-.185-.003-.247-.009a.68.68 0 01-.147-.026c-.036-.011-.06-.026-.073-.045a.113.113 0 01-.02-.067v-4.278c0-.023.01-.044.026-.061a.193.193 0 01.086-.044.855.855 0 01.16-.026 2.931 2.931 0 01.498 0 .815.815 0 01.156.026c.039.012.066.026.082.044a.088.088 0 01.023.06v2.399a7.711 7.711 0 01-.015.482h.008a7.54 7.54 0 01.38-.538l1.764-2.345a.394.394 0 01.058-.062.254.254 0 01.085-.043.598.598 0 01.13-.025 2.665 2.665 0 01.44.002c.063.006.112.014.149.026a.16.16 0 01.076.044.1.1 0 01.022.065v4.282zM33.02 32.34a.09.09 0 01-.026.063.182.182 0 01-.085.046.902.902 0 01-.156.028c-.066.007-.148.01-.247.01a2.49 2.49 0 01-.253-.01.863.863 0 01-.157-.028.183.183 0 01-.082-.045.09.09 0 01-.025-.064v-1.828h-1.897v1.828a.095.095 0 01-.024.063.167.167 0 01-.082.046.902.902 0 01-.157.028c-.065.007-.149.01-.25.01-.1 0-.183-.003-.25-.01a.915.915 0 01-.158-.028.184.184 0 01-.084-.045.09.09 0 01-.026-.064v-4.27c0-.024.008-.045.026-.064a.183.183 0 01.084-.045.906.906 0 01.158-.028c.067-.007.15-.01.25-.01.101 0 .185.003.25.01a.92.92 0 01.157.028.17.17 0 01.082.045c.016.019.024.04.024.063v1.66h1.897v-1.66a.09.09 0 01.025-.063.182.182 0 01.082-.045.853.853 0 01.157-.028c.067-.007.15-.01.253-.01.1 0 .181.003.247.01a.92.92 0 01.156.028c.04.011.068.027.085.045a.09.09 0 01.025.063v4.271zM39.89 32.347a.089.089 0 01-.024.062.179.179 0 01-.082.043.828.828 0 01-.159.027c-.066.005-.15.008-.249.008-.1 0-.182-.003-.249-.008a.826.826 0 01-.158-.027.195.195 0 01-.085-.043.085.085 0 01-.025-.062V28.71h-1.89v3.638a.085.085 0 01-.025.062.195.195 0 01-.084.043.823.823 0 01-.157.027 2.933 2.933 0 01-.25.008c-.1 0-.183-.003-.25-.008a.826.826 0 01-.158-.027.18.18 0 01-.083-.043.088.088 0 01-.023-.062v-4.114c0-.098.028-.17.082-.218a.323.323 0 01.22-.072h3.35c.095 0 .168.024.22.072.053.048.079.12.079.218v4.114zM44.467 29.317c0 .254-.044.479-.133.674-.089.196-.218.361-.388.495a1.78 1.78 0 01-.625.306 3.22 3.22 0 01-.872.105h-.423v1.443a.092.092 0 01-.026.063.183.183 0 01-.084.046.899.899 0 01-.157.028 2.44 2.44 0 01-.25.01c-.1 0-.183-.004-.25-.01a.911.911 0 01-.158-.028.17.17 0 01-.083-.046.095.095 0 01-.023-.063v-4.068c0-.11.032-.192.096-.247a.376.376 0 01.253-.082h1.195c.12 0 .235.004.343.012.108.009.238.026.39.053.151.026.305.076.46.148.156.073.288.164.398.275.11.11.194.24.251.388.057.148.086.314.086.498zm-1.078.066a.74.74 0 00-.094-.391.609.609 0 00-.23-.227.827.827 0 00-.289-.093c-.1-.013-.204-.02-.312-.02h-.438v1.535h.462c.165 0 .302-.02.413-.06a.712.712 0 00.273-.165.704.704 0 00.16-.256.927.927 0 00.055-.323zM49.829 30.152c0 .376-.053.711-.157 1.007-.105.296-.26.547-.466.753a2.03 2.03 0 01-.767.472 3.145 3.145 0 01-1.056.163c-.394 0-.739-.046-1.033-.138a1.829 1.829 0 01-.734-.421 1.758 1.758 0 01-.441-.72 3.252 3.252 0 01-.147-1.035c0-.366.052-.695.157-.988.104-.292.26-.541.466-.746.206-.205.462-.362.766-.472.304-.11.658-.164 1.06-.164.384 0 .723.045 1.017.136.294.091.54.23.737.42.197.188.346.427.447.714.1.288.15.628.15 1.02zm-1.082.05c0-.238-.02-.455-.063-.65a1.307 1.307 0 00-.213-.499.991.991 0 00-.402-.322 1.523 1.523 0 00-.627-.113 1.41 1.41 0 00-.635.128c-.17.085-.307.198-.412.34a1.324 1.324 0 00-.22.498c-.044.19-.066.391-.066.604 0 .246.021.468.063.665.042.197.113.366.212.505.1.14.233.247.4.32.167.074.377.11.63.11.254 0 .466-.042.636-.125.17-.084.307-.199.411-.343.105-.144.178-.313.221-.505.044-.192.065-.397.065-.614zM55.656 30.068c0 .254-.045.484-.135.69-.09.207-.224.385-.4.536-.176.15-.396.271-.658.363-.263.092-.565.15-.908.173v.524a.085.085 0 01-.025.062.179.179 0 01-.083.042.844.844 0 01-.156.022 3.706 3.706 0 01-.49 0 .874.874 0 01-.155-.022.194.194 0 01-.084-.04.083.083 0 01-.026-.064v-.524a3.867 3.867 0 01-.911-.134 1.832 1.832 0 01-.657-.327 1.362 1.362 0 01-.397-.528 1.856 1.856 0 01-.136-.738c0-.24.045-.46.136-.662a1.48 1.48 0 01.4-.528c.176-.15.395-.273.656-.367.26-.094.564-.154.909-.18v-.496a.08.08 0 01.026-.06.185.185 0 01.084-.038c.039-.01.091-.017.157-.023.065-.005.146-.008.242-.008.097 0 .179.003.245.008.067.006.12.014.157.023a.18.18 0 01.082.038.08.08 0 01.026.06v.496c.345.017.648.064.91.142.26.078.48.187.656.327.176.14.31.313.4.519.09.206.135.444.135.714zm-3.104-1.006c-.201.018-.37.058-.508.118-.137.061-.247.136-.33.224a.814.814 0 00-.183.302 1.123 1.123 0 00-.057.359c0 .154.02.292.057.414a.812.812 0 00.182.318c.084.09.194.163.331.22.138.058.307.096.508.117v-2.072zm2.066 1.045c0-.147-.019-.28-.055-.4a.783.783 0 00-.18-.313.934.934 0 00-.332-.217 1.88 1.88 0 00-.511-.115v2.072a1.73 1.73 0 00.503-.12.981.981 0 00.333-.226.824.824 0 00.185-.31 1.19 1.19 0 00.057-.371zM59.509 32.106c0 .068-.004.124-.01.17a.4.4 0 01-.03.11.142.142 0 01-.049.06.115.115 0 01-.064.02h-2.548a.344.344 0 01-.217-.068c-.06-.045-.089-.12-.089-.222v-3.943c0-.102.03-.176.089-.222a.345.345 0 01.217-.068h2.532c.023 0 .044.006.063.017a.137.137 0 01.047.062.42.42 0 01.029.112c.006.045.01.103.01.173 0 .065-.004.12-.01.166a.4.4 0 01-.03.11.15.15 0 01-.046.061.107.107 0 01-.063.02h-1.81v1.104h1.532c.023 0 .045.006.064.02.02.012.036.032.05.058a.374.374 0 01.029.109c.006.045.01.1.01.166 0 .068-.004.124-.01.168a.374.374 0 01-.03.106.134.134 0 01-.049.058.125.125 0 01-.064.017h-1.533v1.276h1.826c.024 0 .046.007.065.02.02.012.036.033.05.06a.397.397 0 01.029.11c.006.046.01.103.01.17zM63.746 31.781c0 .059-.002.108-.006.149a.664.664 0 01-.018.105.284.284 0 01-.031.075.369.369 0 01-.063.072.803.803 0 01-.166.103 2.097 2.097 0 01-.302.12 2.887 2.887 0 01-.903.135c-.348 0-.661-.048-.941-.143a1.882 1.882 0 01-.713-.429 1.869 1.869 0 01-.451-.71 2.87 2.87 0 01-.157-.994c0-.384.058-.725.173-1.024a2.09 2.09 0 01.482-.751c.206-.203.454-.357.742-.462.29-.105.607-.157.955-.157a2.759 2.759 0 01.77.113c.11.034.21.073.3.118.088.044.15.082.186.113.035.032.06.058.072.079a.273.273 0 01.032.08.778.778 0 01.017.116 1.882 1.882 0 01-.002.342.412.412 0 01-.027.12.165.165 0 01-.047.066.1.1 0 01-.063.02c-.04 0-.089-.02-.149-.06a2.457 2.457 0 00-.233-.137 2.018 2.018 0 00-.341-.136 1.616 1.616 0 00-.472-.061c-.202 0-.381.036-.54.11a1.128 1.128 0 00-.403.314 1.402 1.402 0 00-.253.495 2.29 2.29 0 00-.086.654c0 .265.03.495.092.69.062.195.15.355.263.48.114.126.25.22.411.282.161.062.342.093.543.093.183 0 .341-.02.475-.058.133-.038.247-.081.342-.127.096-.047.174-.089.236-.126a.313.313 0 01.143-.056c.026 0 .047.004.062.014.016.009.03.028.04.056a.5.5 0 01.023.117c.005.05.008.116.008.2zM67.931 31.781c0 .059-.001.108-.005.149a.652.652 0 01-.018.105.28.28 0 01-.032.075.366.366 0 01-.062.072.803.803 0 01-.167.103 2.088 2.088 0 01-.302.12 2.885 2.885 0 01-.903.135c-.347 0-.66-.048-.94-.143a1.884 1.884 0 01-.714-.429 1.87 1.87 0 01-.45-.71 2.872 2.872 0 01-.157-.994c0-.384.057-.725.172-1.024a2.09 2.09 0 01.482-.751c.207-.203.454-.357.743-.462.289-.105.607-.157.954-.157a2.76 2.76 0 01.77.113c.112.034.212.073.3.118.089.044.151.082.186.113.036.032.06.058.073.079a.27.27 0 01.031.08.793.793 0 01.018.116 1.877 1.877 0 01-.002.342.412.412 0 01-.028.12.165.165 0 01-.047.066.1.1 0 01-.062.02c-.04 0-.09-.02-.15-.06a2.448 2.448 0 00-.233-.137 2.014 2.014 0 00-.34-.136 1.616 1.616 0 00-.473-.061c-.2 0-.38.036-.538.11a1.13 1.13 0 00-.404.314 1.402 1.402 0 00-.253.495 2.291 2.291 0 00-.086.654c0 .265.03.495.092.69.061.195.149.355.263.48.113.126.25.22.411.282.16.062.342.093.543.093.183 0 .34-.02.474-.058.133-.038.248-.081.343-.127a3 3 0 00.235-.126.312.312 0 01.143-.056c.026 0 .047.004.063.014.016.009.029.028.04.056a.5.5 0 01.023.117c.005.05.007.116.007.2zM72.799 32.348a.084.084 0 01-.026.06.194.194 0 01-.084.044.82.82 0 01-.158.027c-.067.006-.15.009-.25.009-.099 0-.182-.003-.248-.01a.778.778 0 01-.157-.026.176.176 0 01-.08-.043.088.088 0 01-.024-.061v-2.384a9.357 9.357 0 01.016-.5h-.008a6.97 6.97 0 01-.167.25 5.717 5.717 0 01-.213.292l-1.764 2.345a.494.494 0 01-.065.066.237.237 0 01-.086.044.618.618 0 01-.13.021c-.05.004-.116.005-.197.005-.102 0-.184-.003-.247-.009a.678.678 0 01-.147-.026c-.035-.011-.06-.026-.072-.045a.113.113 0 01-.02-.067v-4.278c0-.023.008-.044.026-.061a.194.194 0 01.086-.044.857.857 0 01.159-.026 2.933 2.933 0 01.498 0 .815.815 0 01.156.026c.04.012.067.026.082.044a.088.088 0 01.024.06v2.399a7.711 7.711 0 01-.016.482h.008a7.367 7.367 0 01.38-.538l1.764-2.345a.394.394 0 01.059-.062.254.254 0 01.084-.043.598.598 0 01.131-.025 2.665 2.665 0 01.44.002c.062.006.111.014.148.026a.16.16 0 01.077.044.1.1 0 01.021.065v4.282zM78.466 30.152c0 .376-.052.711-.156 1.007a1.98 1.98 0 01-.467.753 2.03 2.03 0 01-.766.472 3.145 3.145 0 01-1.056.163c-.395 0-.739-.046-1.033-.138a1.83 1.83 0 01-.735-.421 1.758 1.758 0 01-.44-.72 3.255 3.255 0 01-.148-1.035c0-.366.053-.695.157-.988.105-.292.26-.541.467-.746.206-.205.462-.362.766-.472.304-.11.657-.164 1.06-.164.384 0 .723.045 1.017.136.294.091.54.23.737.42.197.188.346.427.447.714.1.288.15.628.15 1.02zm-1.081.05c0-.238-.021-.455-.063-.65a1.307 1.307 0 00-.214-.499.992.992 0 00-.401-.322 1.524 1.524 0 00-.627-.113 1.41 1.41 0 00-.635.128c-.17.085-.307.198-.412.34a1.323 1.323 0 00-.221.498 3.22 3.22 0 00-.002 1.269c.042.197.112.366.212.505.099.14.232.247.4.32.166.074.377.11.63.11.254 0 .465-.042.635-.125.17-.084.307-.199.412-.343.104-.144.178-.313.221-.505.043-.192.065-.397.065-.614zM83.29 32.34a.091.091 0 01-.025.063.183.183 0 01-.084.046.899.899 0 01-.157.028 2.42 2.42 0 01-.247.01c-.102 0-.186-.003-.252-.01a.863.863 0 01-.157-.028.184.184 0 01-.083-.045.09.09 0 01-.025-.064v-1.828h-1.897v1.828a.095.095 0 01-.023.063.168.168 0 01-.083.046.902.902 0 01-.157.028c-.065.007-.148.01-.25.01-.1 0-.183-.003-.25-.01a.911.911 0 01-.158-.028.185.185 0 01-.084-.045.091.091 0 01-.026-.064v-4.27c0-.024.009-.045.026-.064a.183.183 0 01.084-.045.902.902 0 01.159-.028c.066-.007.15-.01.249-.01.102 0 .185.003.25.01a.92.92 0 01.157.028.17.17 0 01.083.045c.016.019.023.04.023.063v1.66h1.897v-1.66c0-.023.008-.044.025-.063a.181.181 0 01.083-.045.853.853 0 01.157-.028c.066-.007.15-.01.252-.01.1 0 .182.003.247.01a.917.917 0 01.157.028c.039.011.067.027.084.045.017.019.026.04.026.063v4.271zM88.55 32.124c.031.084.05.15.059.199.008.049-.003.086-.032.11-.028.025-.08.04-.153.046a7.045 7.045 0 01-.613.004.841.841 0 01-.17-.022.16.16 0 01-.083-.044.23.23 0 01-.039-.073l-.34-.909h-1.906l-.321.884a.265.265 0 01-.041.083.17.17 0 01-.082.052.68.68 0 01-.161.026 4.356 4.356 0 01-.555-.003c-.068-.007-.115-.024-.141-.05-.026-.028-.035-.066-.027-.114.007-.05.027-.114.058-.196l1.564-4.013a.345.345 0 01.055-.096.198.198 0 01.1-.056.872.872 0 01.19-.025 10.404 10.404 0 01.69 0c.091.004.162.012.213.025.051.013.088.032.11.057.022.026.041.061.057.105l1.568 4.01zm-2.328-3.317h-.004l-.717 1.922h1.438l-.717-1.922zM93.198 32.348a.088.088 0 01-.023.06.178.178 0 01-.082.044.818.818 0 01-.159.027c-.067.005-.15.009-.249.009a2.92 2.92 0 01-.25-.01.814.814 0 01-.157-.026.179.179 0 01-.083-.043.088.088 0 01-.023-.061v-3.65h-1.09c-.073.534-.147 1-.223 1.398-.076.399-.157.74-.243 1.025a3.471 3.471 0 01-.284.699c-.103.181-.22.325-.353.431a1.123 1.123 0 01-.447.219c-.166.04-.354.06-.566.06a.33.33 0 01-.102-.015.127.127 0 01-.069-.052.276.276 0 01-.037-.108 1.124 1.124 0 01-.011-.179c0-.1.002-.181.007-.243a.532.532 0 01.028-.143c.013-.034.03-.056.05-.068a.15.15 0 01.075-.018.634.634 0 00.234-.043.538.538 0 00.215-.173 1.49 1.49 0 00.2-.364c.064-.156.127-.362.188-.617s.123-.566.184-.933c.062-.367.124-.804.186-1.31.016-.118.047-.201.094-.25.047-.047.117-.07.208-.07h2.489c.094 0 .167.023.218.07.05.049.076.121.076.22v4.114zM98.038 30.967c0 .214-.036.411-.107.59a1.18 1.18 0 01-.35.47c-.16.135-.37.241-.628.32-.259.08-.613.12-1.062.12h-1.266a.465.465 0 01-.124-.016.258.258 0 01-.168-.144.304.304 0 01-.026-.13v-4.115c0-.023.009-.044.026-.061a.195.195 0 01.086-.044.87.87 0 01.16-.026c.067-.006.149-.009.246-.009.102 0 .185.003.25.009a.824.824 0 01.157.026.18.18 0 01.082.044.089.089 0 01.024.061v1.542h.71c.383 0 .689.03.916.089.228.06.42.147.578.263.158.117.28.26.367.43.086.17.13.364.13.58zm-1.058.077a.791.791 0 00-.055-.304.578.578 0 00-.168-.227.789.789 0 00-.292-.145 2.078 2.078 0 00-.531-.051h-.596v1.436h.615c.246 0 .43-.021.55-.064a.741.741 0 00.285-.168.624.624 0 00.147-.229.732.732 0 00.045-.248zM102.706 32.34a.095.095 0 01-.025.063.186.186 0 01-.085.046.89.89 0 01-.156.028c-.066.007-.148.01-.247.01-.102 0-.186-.003-.253-.01a.862.862 0 01-.157-.028.181.181 0 01-.082-.045.091.091 0 01-.026-.064v-1.828h-1.897v1.828a.096.096 0 01-.023.063.17.17 0 01-.082.046.902.902 0 01-.157.028c-.065.007-.149.01-.25.01-.1 0-.183-.003-.25-.01a.907.907 0 01-.158-.028.183.183 0 01-.085-.045.091.091 0 01-.025-.064v-4.27c0-.024.008-.045.025-.064a.182.182 0 01.085-.045.897.897 0 01.158-.028c.067-.007.15-.01.25-.01.101 0 .185.003.25.01a.92.92 0 01.157.028.17.17 0 01.082.045c.016.019.023.04.023.063v1.66h1.897v-1.66c0-.023.009-.044.026-.063a.18.18 0 01.082-.045.852.852 0 01.157-.028 2.54 2.54 0 01.253-.01c.099 0 .181.003.247.01a.908.908 0 01.156.028.188.188 0 01.085.045c.016.019.025.04.025.063v4.271zM108.374 30.152c0 .376-.053.711-.157 1.007-.104.296-.26.547-.466.753a2.033 2.033 0 01-.767.472 3.142 3.142 0 01-1.056.163c-.394 0-.739-.046-1.033-.138a1.829 1.829 0 01-.735-.421 1.756 1.756 0 01-.44-.72 3.255 3.255 0 01-.147-1.035c0-.366.052-.695.156-.988.105-.292.26-.541.467-.746.206-.205.461-.362.766-.472.304-.11.658-.164 1.06-.164.384 0 .723.045 1.017.136.294.091.54.23.737.42.197.188.346.427.447.714.1.288.151.628.151 1.02zm-1.082.05a3.08 3.08 0 00-.063-.65 1.319 1.319 0 00-.213-.499.996.996 0 00-.402-.322 1.522 1.522 0 00-.627-.113 1.41 1.41 0 00-.635.128c-.17.085-.307.198-.412.34a1.33 1.33 0 00-.221.498 3.206 3.206 0 00-.002 1.269c.042.197.112.366.211.505.1.14.233.247.4.32.168.074.378.11.631.11.254 0 .465-.042.635-.125.17-.084.307-.199.412-.343.104-.144.178-.313.221-.505.043-.193.065-.397.065-.614zM113.367 32.348a.085.085 0 01-.026.06.195.195 0 01-.084.044.815.815 0 01-.159.027 2.919 2.919 0 01-.248.008c-.1 0-.183-.003-.249-.008a.778.778 0 01-.157-.027.171.171 0 01-.08-.043.088.088 0 01-.024-.061v-2.384a7.817 7.817 0 01.016-.5h-.008l-.075.113-.092.136a5.331 5.331 0 01-.213.292l-1.764 2.346a.52.52 0 01-.065.066.237.237 0 01-.086.044.61.61 0 01-.129.021 3.013 3.013 0 01-.198.005c-.102 0-.184-.003-.247-.009a.676.676 0 01-.147-.026c-.035-.011-.06-.027-.073-.045a.113.113 0 01-.019-.067v-4.278c0-.024.008-.044.025-.061a.196.196 0 01.086-.044.872.872 0 01.159-.026 2.93 2.93 0 01.498 0 .832.832 0 01.157.026.178.178 0 01.082.044.087.087 0 01.023.06v2.399l-.003.238a9 9 0 01-.012.244h.008a6.854 6.854 0 01.38-.538l1.764-2.346a.382.382 0 01.058-.06.256.256 0 01.085-.045.595.595 0 01.131-.024 2.673 2.673 0 01.441.002c.061.006.11.014.147.026a.159.159 0 01.076.044.095.095 0 01.022.064v4.283zm-.6-5.618a.95.95 0 01-.074.37.8.8 0 01-.241.31c-.111.09-.258.162-.439.215-.182.054-.405.08-.669.08a2.52 2.52 0 01-.654-.073 1.294 1.294 0 01-.441-.2.755.755 0 01-.249-.308.977.977 0 01-.078-.394c0-.035.007-.063.021-.085a.152.152 0 01.073-.055.504.504 0 01.139-.03 2.344 2.344 0 01.429.003.413.413 0 01.125.031.13.13 0 01.061.054.163.163 0 01.018.079.34.34 0 00.147.285.617.617 0 00.178.089.746.746 0 00.235.035c.084 0 .16-.011.228-.034a.606.606 0 00.174-.087.367.367 0 00.11-.13.38.38 0 00.037-.166c0-.027.005-.052.016-.073a.116.116 0 01.06-.052.433.433 0 01.122-.032 2.588 2.588 0 01.427-.002.563.563 0 01.147.03.156.156 0 01.077.054.16.16 0 01.021.086zM120.041 32.344a.092.092 0 01-.024.065.173.173 0 01-.084.043.874.874 0 01-.162.027 3.212 3.212 0 01-.263.008c-.112 0-.203-.003-.273-.008a.822.822 0 01-.166-.028.211.211 0 01-.094-.053.205.205 0 01-.047-.082l-.408-1.007a2.118 2.118 0 00-.18-.368.992.992 0 00-.208-.241.683.683 0 00-.259-.132 1.271 1.271 0 00-.325-.038h-.231v1.81a.096.096 0 01-.023.065.194.194 0 01-.083.046.716.716 0 01-.157.028 2.92 2.92 0 01-.25.008c-.1 0-.183-.003-.249-.008a.731.731 0 01-.159-.028.207.207 0 01-.084-.046.09.09 0 01-.026-.064v-4.275a.09.09 0 01.026-.065.193.193 0 01.084-.044.815.815 0 01.159-.026c.066-.006.149-.009.249-.009.102 0 .185.003.25.01a.804.804 0 01.157.026.183.183 0 01.083.043.096.096 0 01.023.065v1.699h.231c.118 0 .221-.015.31-.042a.7.7 0 00.241-.133.973.973 0 00.196-.236c.059-.097.115-.216.17-.358l.341-.902a.312.312 0 01.047-.082.183.183 0 01.089-.053.774.774 0 01.16-.028c.067-.005.156-.009.269-.009.102 0 .186.004.253.01a.925.925 0 01.156.024c.038.01.064.024.077.042.013.017.019.039.019.064 0 .03-.006.068-.017.112a1.632 1.632 0 01-.061.175l-.341.804c-.063.15-.125.276-.188.381a1.57 1.57 0 01-.198.267 1.044 1.044 0 01-.22.18 1.207 1.207 0 01-.256.116v.003c.104.04.199.085.284.135.085.05.164.113.239.19.074.077.146.172.214.284.068.111.137.249.207.412l.416.937c.042.095.066.161.074.197a.425.425 0 01.012.089zM125.163 30.152c0 .376-.052.711-.156 1.007-.105.296-.26.547-.467.753a2.029 2.029 0 01-.766.472 3.142 3.142 0 01-1.056.163c-.395 0-.739-.046-1.033-.138a1.829 1.829 0 01-.735-.421 1.758 1.758 0 01-.441-.72 3.255 3.255 0 01-.147-1.035c0-.366.052-.695.157-.988.104-.292.26-.541.466-.746a2.06 2.06 0 01.767-.472 3.12 3.12 0 011.06-.164c.384 0 .723.045 1.017.136.294.091.539.23.737.42.197.188.346.427.446.714.101.288.151.628.151 1.02zm-1.081.05a3.08 3.08 0 00-.063-.65 1.304 1.304 0 00-.214-.499.987.987 0 00-.401-.322 1.528 1.528 0 00-.627-.113c-.254 0-.466.042-.636.128a1.129 1.129 0 00-.411.34 1.33 1.33 0 00-.221.498 3.206 3.206 0 00-.002 1.269c.042.197.112.366.211.505.1.14.233.247.4.32.167.074.378.11.631.11.254 0 .465-.042.635-.125.17-.084.307-.199.412-.343.104-.144.178-.313.221-.505.043-.193.065-.397.065-.614zM129.537 31.781c0 .059-.002.108-.006.149a.554.554 0 01-.017.105.325.325 0 01-.031.075.394.394 0 01-.063.072.79.79 0 01-.167.103 2.08 2.08 0 01-.302.12 2.904 2.904 0 01-.903.135 2.9 2.9 0 01-.941-.143 1.887 1.887 0 01-.713-.429 1.878 1.878 0 01-.451-.71 2.884 2.884 0 01-.156-.994c0-.384.057-.725.172-1.024.115-.298.276-.548.482-.751.207-.203.454-.357.743-.462.289-.105.607-.157.954-.157a2.563 2.563 0 01.77.113c.111.034.211.073.3.118a.889.889 0 01.186.113c.036.032.06.058.073.079a.279.279 0 01.031.08.787.787 0 01.018.116 2.375 2.375 0 01-.002.342.446.446 0 01-.028.12.166.166 0 01-.047.066.1.1 0 01-.063.02c-.039 0-.089-.02-.149-.06a2.353 2.353 0 00-.233-.137 1.998 1.998 0 00-.341-.136 1.614 1.614 0 00-.472-.061c-.201 0-.381.036-.539.11a1.13 1.13 0 00-.404.314 1.398 1.398 0 00-.252.495 2.273 2.273 0 00-.087.654c0 .265.031.495.092.69.062.195.149.355.263.48.114.126.251.22.412.282.16.062.341.093.542.093.183 0 .341-.02.475-.058.133-.038.247-.081.342-.127.096-.047.174-.089.236-.126a.31.31 0 01.143-.056.12.12 0 01.062.014c.016.009.029.028.04.056a.51.51 0 01.023.117c.006.05.008.116.008.2zM136.189 32.34a.103.103 0 01-.022.063.159.159 0 01-.078.046.848.848 0 01-.151.028c-.063.007-.143.01-.239.01-.094 0-.173-.003-.236-.01a.783.783 0 01-.148-.028.168.168 0 01-.079-.045.093.093 0 01-.023-.064v-3.68h-.008l-1.47 3.677a.162.162 0 01-.051.075.249.249 0 01-.096.047.71.71 0 01-.155.023 4.142 4.142 0 01-.454-.003.755.755 0 01-.155-.028.288.288 0 01-.096-.047.126.126 0 01-.047-.067l-1.419-3.677h-.008v3.68a.097.097 0 01-.022.063c-.014.02-.041.034-.08.046a.884.884 0 01-.151.028c-.061.007-.14.01-.237.01-.094 0-.172-.003-.235-.01a.839.839 0 01-.151-.028c-.038-.012-.064-.027-.078-.045a.097.097 0 01-.022-.064v-4.03c0-.118.035-.21.106-.272a.406.406 0 01.282-.095h.674c.12 0 .224.01.31.026a.633.633 0 01.223.088c.063.04.115.094.157.16.042.067.078.15.11.247l1.097 2.695h.016l1.136-2.688c.034-.098.071-.18.112-.248a.61.61 0 01.141-.165.49.49 0 01.19-.089c.073-.017.158-.026.255-.026h.694c.07 0 .131.008.182.025a.303.303 0 01.2.187.442.442 0 01.025.155v4.03h.001zM140.3 32.106c0 .068-.003.124-.01.17a.384.384 0 01-.029.11.146.146 0 01-.049.06.116.116 0 01-.065.02H137.6a.344.344 0 01-.218-.068c-.059-.045-.088-.12-.088-.222v-3.943c0-.102.029-.176.088-.222a.346.346 0 01.218-.068h2.531c.024 0 .045.006.063.017a.138.138 0 01.047.062.441.441 0 01.03.112 1.338 1.338 0 010 .339.416.416 0 01-.03.11.152.152 0 01-.047.061.106.106 0 01-.063.02h-1.81v1.104h1.532c.024 0 .045.006.065.02a.15.15 0 01.049.058.362.362 0 01.029.109c.007.045.01.1.01.166 0 .068-.003.124-.01.168a.358.358 0 01-.029.106.134.134 0 01-.049.058.126.126 0 01-.065.017h-1.532v1.276h1.826a.12.12 0 01.065.02.147.147 0 01.049.06.385.385 0 01.029.11c.007.046.01.103.01.17zM144.556 28.32c0 .069-.004.126-.01.174a.446.446 0 01-.03.115.15.15 0 01-.049.065.107.107 0 01-.064.02h-1.27v3.646a.095.095 0 01-.025.063.186.186 0 01-.085.046.89.89 0 01-.158.028c-.067.007-.15.01-.249.01-.1 0-.183-.003-.249-.01a.896.896 0 01-.159-.028.183.183 0 01-.084-.045.091.091 0 01-.026-.064v-3.645h-1.27a.104.104 0 01-.066-.021.165.165 0 01-.047-.065.446.446 0 01-.03-.115 1.416 1.416 0 01-.009-.173c0-.07.003-.13.009-.179a.453.453 0 01.03-.117.15.15 0 01.047-.063.11.11 0 01.066-.019h3.575c.023 0 .045.006.064.02.02.012.036.033.049.062.014.03.023.069.03.117.006.05.01.109.01.179zM149.282 32.348a.084.084 0 01-.025.06.194.194 0 01-.084.044.828.828 0 01-.159.027c-.067.006-.15.009-.249.009s-.182-.003-.249-.01a.778.778 0 01-.157-.026.176.176 0 01-.08-.043.087.087 0 01-.023-.061v-2.384a5.98 5.98 0 01.015-.5h-.008l-.074.113-.092.137a8.741 8.741 0 01-.214.292l-1.764 2.345a.452.452 0 01-.064.066.237.237 0 01-.086.044.633.633 0 01-.13.021 3.002 3.002 0 01-.198.005 2.79 2.79 0 01-.247-.009.7.7 0 01-.147-.026c-.035-.011-.059-.026-.072-.045a.114.114 0 01-.02-.067v-4.278c0-.023.009-.044.026-.061a.19.19 0 01.086-.044.843.843 0 01.159-.026 2.86 2.86 0 01.247-.01c.102 0 .185.004.25.01a.804.804 0 01.157.026.183.183 0 01.083.044.091.091 0 01.023.06v2.399a6.626 6.626 0 01-.016.482h.008a8.718 8.718 0 01.38-.538l1.764-2.345a.382.382 0 01.059-.062.256.256 0 01.084-.043.594.594 0 01.131-.025 2.663 2.663 0 01.441.002c.062.006.11.014.147.026a.163.163 0 01.077.044.1.1 0 01.021.065v4.282zM154.142 32.344a.096.096 0 01-.023.065.182.182 0 01-.085.043.86.86 0 01-.162.027 3.212 3.212 0 01-.263.008c-.112 0-.203-.003-.272-.008a.82.82 0 01-.167-.028.211.211 0 01-.094-.053.205.205 0 01-.047-.082l-.408-1.007a2.118 2.118 0 00-.18-.368.992.992 0 00-.208-.241.686.686 0 00-.258-.132 1.285 1.285 0 00-.326-.038h-.231v1.81a.096.096 0 01-.023.065.188.188 0 01-.083.046.716.716 0 01-.156.028 2.946 2.946 0 01-.251.008c-.099 0-.182-.003-.249-.008a.731.731 0 01-.159-.028.207.207 0 01-.084-.046.089.089 0 01-.025-.064v-4.275c0-.026.008-.047.025-.065a.193.193 0 01.084-.044.815.815 0 01.159-.026c.067-.006.15-.009.249-.009.102 0 .185.003.251.01a.806.806 0 01.156.026c.04.011.067.026.083.043a.096.096 0 01.023.065v1.699h.231c.118 0 .221-.015.31-.042a.69.69 0 00.241-.133.95.95 0 00.196-.236c.059-.097.116-.216.17-.358l.341-.902a.312.312 0 01.047-.082.188.188 0 01.089-.053.774.774 0 01.16-.028c.067-.005.157-.009.269-.009.102 0 .186.004.253.01a.94.94 0 01.157.024c.037.01.063.024.076.042.013.017.019.039.019.064 0 .03-.005.068-.017.112a1.632 1.632 0 01-.061.175l-.341.804c-.063.15-.125.276-.188.381a1.57 1.57 0 01-.198.267 1.04 1.04 0 01-.476.296v.003c.104.04.199.085.284.135.085.05.165.113.239.19.075.077.146.172.214.284.068.111.137.249.207.412l.416.937c.042.095.067.161.075.197a.49.49 0 01.011.089zM159.034 32.348a.085.085 0 01-.026.06.194.194 0 01-.084.044.815.815 0 01-.159.027 2.922 2.922 0 01-.249.009c-.099 0-.182-.003-.249-.01a.779.779 0 01-.156-.026.18.18 0 01-.081-.043.091.091 0 01-.023-.061v-2.384a7.817 7.817 0 01.016-.5h-.008l-.075.113-.092.137a5.262 5.262 0 01-.214.292l-1.763 2.345a.514.514 0 01-.065.066.237.237 0 01-.086.044.61.61 0 01-.129.021 3.002 3.002 0 01-.198.005c-.102 0-.185-.003-.247-.009a.676.676 0 01-.147-.026c-.036-.011-.06-.026-.073-.045a.113.113 0 01-.019-.067v-4.278c0-.023.008-.044.025-.061a.196.196 0 01.086-.044.872.872 0 01.159-.026 2.946 2.946 0 01.498 0 .806.806 0 01.156.026c.04.012.067.026.083.044a.087.087 0 01.023.06v2.399a6.626 6.626 0 01-.015.482h.008a6.854 6.854 0 01.38-.538l1.763-2.345a.43.43 0 01.059-.062.256.256 0 01.084-.043.593.593 0 01.132-.025 2.688 2.688 0 01.441.002c.061.006.11.014.147.026a.159.159 0 01.076.044.1.1 0 01.022.065v4.282z" fill="#373737"/></svg>