<svg width="121" height="28" viewBox="0 0 121 28" fill="none" xmlns="http://www.w3.org/2000/svg"><path d="M4.482 27.826a.09.09 0 01-.016.053.115.115 0 01-.06.038.576.576 0 01-.114.024 1.523 1.523 0 01-.181.009c-.072 0-.131-.003-.179-.009a.55.55 0 01-.113-.023.124.124 0 01-.06-.039.086.086 0 01-.017-.053v-3.1h-.006l-1.114 3.097a.143.143 0 01-.04.064.187.187 0 01-.072.04.498.498 0 01-.117.019 2.893 2.893 0 01-.345-.004.523.523 0 01-.118-.023.217.217 0 01-.072-.04.114.114 0 01-.036-.056L.746 24.725H.74v3.101a.09.09 0 01-.016.053c-.011.016-.032.029-.061.038a.612.612 0 01-.115.024 1.484 1.484 0 01-.18.009c-.07 0-.13-.003-.178-.009a.583.583 0 01-.114-.023.115.115 0 01-.06-.039.09.09 0 01-.016-.053v-3.395c0-.1.027-.177.08-.23a.29.29 0 01.214-.08h.512c.09 0 .169.008.234.023a.419.419 0 01.288.21c.032.055.06.124.084.206l.832 2.27h.012l.862-2.264c.026-.082.054-.152.085-.209a.484.484 0 01.107-.138.354.354 0 01.144-.076.758.758 0 01.193-.022h.526c.054 0 .1.007.138.021a.235.235 0 01.152.157c.013.039.02.082.02.131v3.396zM8.47 27.643c.025.071.04.127.045.168.006.042-.002.073-.023.093-.022.02-.06.034-.116.038a4.895 4.895 0 01-.465.003.59.59 0 01-.13-.017.119.119 0 01-.062-.037.2.2 0 01-.03-.062l-.258-.765H5.986l-.244.744a.231.231 0 01-.03.07.128.128 0 01-.063.044.475.475 0 01-.122.022 2.97 2.97 0 01-.42-.003c-.052-.006-.088-.02-.108-.043-.02-.022-.027-.054-.02-.095a.962.962 0 01.044-.165l1.186-3.381a.294.294 0 01.042-.081.147.147 0 01.075-.047.6.6 0 01.144-.021 7.019 7.019 0 01.523 0c.07.003.124.01.162.02.04.012.067.028.084.05a.286.286 0 01.043.088l1.189 3.378zM6.706 24.85h-.003l-.543 1.62h1.09l-.544-1.62zM11.187 24.442c0 .06-.002.109-.007.149a.403.403 0 01-.022.097.12.12 0 01-.038.053.087.087 0 01-.052.016H9.793v3.075c0 .02-.006.037-.02.052a.144.144 0 01-.063.036.566.566 0 01-.119.022 2.004 2.004 0 01-.379 0 .568.568 0 01-.12-.022.144.144 0 01-.064-.037.075.075 0 01-.02-.05v-3.467c0-.083.022-.144.064-.184a.235.235 0 01.168-.06h1.828c.04 0 .07.024.09.073.02.049.03.131.03.247zM14.314 27.643c.024.071.039.127.045.168.006.042-.002.073-.024.093-.022.02-.06.034-.116.038a4.9 4.9 0 01-.465.003.59.59 0 01-.13-.017.119.119 0 01-.062-.037.2.2 0 01-.03-.062l-.258-.765h-1.445l-.243.744a.23.23 0 01-.032.07.127.127 0 01-.062.044.475.475 0 01-.122.022 2.971 2.971 0 01-.42-.003c-.052-.006-.088-.02-.107-.043-.02-.022-.027-.054-.021-.095a.971.971 0 01.044-.165l1.186-3.381a.294.294 0 01.042-.081.147.147 0 01.076-.047.6.6 0 01.144-.021 7.02 7.02 0 01.523 0c.07.003.123.01.162.02.038.012.066.028.083.05a.283.283 0 01.043.088l1.19 3.378zM12.55 24.85h-.003l-.544 1.62h1.09l-.543-1.62zM17.159 26.828c0 .192-.037.361-.11.508a1.015 1.015 0 01-.314.368 1.42 1.42 0 01-.487.222 2.511 2.511 0 01-.978.047 1.771 1.771 0 01-.276-.066 1.26 1.26 0 01-.19-.078.627.627 0 01-.1-.063.19.19 0 01-.045-.052.248.248 0 01-.024-.075 1.026 1.026 0 01-.013-.122 2.992 2.992 0 01-.004-.183c0-.082.007-.138.022-.166.015-.028.037-.043.067-.043.024 0 .057.012.1.037.044.025.1.053.167.084a1.306 1.306 0 00.87.085.657.657 0 00.223-.109.475.475 0 00.192-.389.593.593 0 00-.047-.238.442.442 0 00-.144-.18.713.713 0 00-.248-.113c-.1-.026-.22-.04-.361-.04h-.407a.176.176 0 01-.072-.012.09.09 0 01-.043-.044.245.245 0 01-.02-.09 2.088 2.088 0 010-.291.257.257 0 01.023-.087.1.1 0 01.042-.046.13.13 0 01.06-.013h.414c.12 0 .228-.012.32-.035a.664.664 0 00.234-.105.465.465 0 00.192-.393.536.536 0 00-.034-.194.364.364 0 00-.106-.149.513.513 0 00-.181-.094 1.235 1.235 0 00-.582.005 1.952 1.952 0 00-.427.166.264.264 0 01-.109.04.054.054 0 01-.035-.012.098.098 0 01-.027-.043.32.32 0 01-.017-.084 1.704 1.704 0 01.01-.339.321.321 0 01.025-.072.21.21 0 01.046-.06.577.577 0 01.127-.077c.065-.031.144-.06.237-.087a2.573 2.573 0 01.687-.093c.205 0 .385.022.539.065.154.044.282.106.385.187.103.082.18.182.232.3.051.12.077.255.077.408 0 .122-.017.233-.05.333a.84.84 0 01-.368.458.957.957 0 01-.287.114v.006a.941.941 0 01.332.098.889.889 0 01.483.806zM20.915 27.832c0 .02-.006.037-.019.052a.144.144 0 01-.064.037.562.562 0 01-.12.022c-.05.005-.114.007-.189.007s-.138-.002-.189-.007a.535.535 0 01-.119-.023.131.131 0 01-.06-.036.08.08 0 01-.018-.052v-2.008a8.75 8.75 0 01.012-.422h-.006a5.824 5.824 0 01-.127.21 4.85 4.85 0 01-.162.247l-1.337 1.976a.404.404 0 01-.05.056.172.172 0 01-.065.037.428.428 0 01-.098.017 2.026 2.026 0 01-.15.005 1.9 1.9 0 01-.187-.008.472.472 0 01-.111-.022c-.027-.01-.046-.022-.056-.038a.103.103 0 01-.014-.056v-3.605c0-.02.006-.037.019-.051a.142.142 0 01.065-.037c.031-.01.071-.017.12-.022a1.993 1.993 0 01.377 0 .56.56 0 01.12.022c.03.01.05.022.063.037a.08.08 0 01.017.051v2.02a7.107 7.107 0 01-.012.407h.006a6.465 6.465 0 01.289-.453l1.337-1.976a.32.32 0 01.045-.052.189.189 0 01.064-.037.41.41 0 01.1-.02 1.814 1.814 0 01.334.002.497.497 0 01.111.021.12.12 0 01.058.037.09.09 0 01.016.054v3.608zM24.756 27.826c0 .02-.007.038-.02.053a.134.134 0 01-.064.039.625.625 0 01-.119.023 1.68 1.68 0 01-.187.009c-.077 0-.141-.003-.192-.009a.6.6 0 01-.118-.023.135.135 0 01-.063-.039.08.08 0 01-.02-.053v-1.54h-1.438v1.54c0 .02-.006.038-.017.053a.125.125 0 01-.063.039.625.625 0 01-.119.023c-.05.006-.113.009-.19.009-.075 0-.138-.003-.189-.009a.631.631 0 01-.12-.023.137.137 0 01-.064-.039.082.082 0 01-.02-.053v-3.599c0-.02.007-.037.02-.053a.136.136 0 01.064-.038c.03-.01.07-.018.12-.023.05-.006.114-.01.189-.01.077 0 .14.004.19.01.05.006.09.013.12.023.029.01.05.023.062.038a.084.084 0 01.017.053v1.4h1.439v-1.4a.08.08 0 01.02-.053.135.135 0 01.062-.038.586.586 0 01.118-.023c.051-.006.115-.01.192-.01.075 0 .138.004.187.01.05.006.09.013.12.023.029.01.05.023.063.038a.08.08 0 01.02.053v3.6zM29.966 27.832a.08.08 0 01-.018.052.132.132 0 01-.063.036.57.57 0 01-.12.022 2.006 2.006 0 01-.378 0 .57.57 0 01-.12-.022.143.143 0 01-.064-.037.075.075 0 01-.019-.05v-3.067h-1.433v3.066c0 .02-.006.037-.019.052a.144.144 0 01-.064.036.567.567 0 01-.119.022 2.006 2.006 0 01-.379 0 .568.568 0 01-.12-.022.133.133 0 01-.063-.037.079.079 0 01-.017-.05v-3.467c0-.083.02-.144.062-.184a.23.23 0 01.167-.06h2.54c.072 0 .128.02.167.06.04.04.06.101.06.184v3.466zM33.437 25.279c0 .214-.033.403-.1.568a1.098 1.098 0 01-.295.417 1.3 1.3 0 01-.474.257 2.216 2.216 0 01-.661.089h-.321v1.216c0 .02-.007.037-.02.053a.135.135 0 01-.064.038.625.625 0 01-.118.024c-.05.006-.114.009-.19.009s-.139-.003-.19-.01a.634.634 0 01-.12-.023.126.126 0 01-.062-.038.085.085 0 01-.018-.053v-3.428c0-.092.024-.161.073-.208a.267.267 0 01.192-.069h.906c.091 0 .178.004.26.01.082.008.18.022.296.045.115.022.231.064.349.125a.96.96 0 01.492.558c.044.125.065.265.065.42zm-.817.056a.679.679 0 00-.071-.33.488.488 0 00-.176-.191.585.585 0 00-.218-.079 1.685 1.685 0 00-.236-.016h-.333v1.293h.35c.125 0 .23-.017.314-.05a.535.535 0 00.328-.355.859.859 0 00.042-.272zM37.503 25.983c0 .316-.04.598-.119.848-.079.25-.197.46-.353.634-.157.174-.35.307-.581.398-.231.091-.498.137-.801.137-.3 0-.56-.039-.784-.116a1.363 1.363 0 01-.557-.355 1.515 1.515 0 01-.334-.607 3.026 3.026 0 01-.112-.872c0-.308.04-.585.12-.832.078-.246.196-.456.353-.628.156-.173.35-.305.58-.398.232-.092.5-.138.805-.138.291 0 .548.038.771.114.223.077.41.195.559.354.15.159.263.36.339.602.076.243.114.529.114.859zm-.82.04c0-.2-.016-.381-.048-.545a1.168 1.168 0 00-.162-.422.773.773 0 00-.304-.27 1.055 1.055 0 00-.476-.096.98.98 0 00-.481.107.884.884 0 00-.312.287c-.08.12-.136.26-.168.42a3.006 3.006 0 00-.001 1.069 1.2 1.2 0 00.16.426.735.735 0 00.303.27c.127.061.286.092.478.092a.993.993 0 00.482-.106.86.86 0 00.312-.289c.08-.121.135-.263.168-.425.033-.162.049-.335.049-.517zM41.923 25.912c0 .214-.034.408-.103.582-.068.173-.17.324-.303.45a1.52 1.52 0 01-.5.307c-.198.077-.428.126-.687.145v.442c0 .02-.007.037-.02.052a.132.132 0 01-.062.035.58.58 0 01-.119.019 2.526 2.526 0 01-.371 0 .602.602 0 01-.118-.02.142.142 0 01-.064-.033.074.074 0 01-.02-.053v-.442a2.664 2.664 0 01-.69-.113 1.34 1.34 0 01-.498-.276 1.144 1.144 0 01-.302-.444 1.717 1.717 0 01-.102-.622c0-.202.034-.388.102-.558.068-.17.17-.318.303-.444.134-.127.3-.23.498-.31.198-.079.428-.13.69-.151v-.418a.07.07 0 01.019-.05.135.135 0 01.064-.033.795.795 0 01.119-.019 2.045 2.045 0 01.37 0c.05.005.09.011.119.02.028.007.05.018.062.032a.07.07 0 01.02.05v.418c.261.014.49.053.69.12.197.065.363.157.497.275.134.117.235.263.303.437.069.173.103.374.103.602zm-2.354-.848a1.14 1.14 0 00-.385.1.7.7 0 00-.39.443 1.04 1.04 0 00-.042.302c0 .13.014.246.043.35a.705.705 0 00.138.267.71.71 0 00.251.186c.104.048.232.08.385.098v-1.746zm1.566.88c0-.123-.014-.236-.041-.337a.681.681 0 00-.137-.263.71.71 0 00-.251-.183 1.312 1.312 0 00-.388-.097v1.746c.15-.017.278-.051.382-.101a.715.715 0 00.392-.452c.029-.099.043-.203.043-.312zM44.844 27.629c0 .057-.002.104-.007.142a.368.368 0 01-.022.093.117.117 0 01-.038.052.081.081 0 01-.049.016h-1.932a.244.244 0 01-.164-.057c-.045-.039-.067-.1-.067-.187v-3.322c0-.087.022-.149.067-.187a.244.244 0 01.164-.058h1.92a.08.08 0 01.048.015c.014.01.026.027.036.052.01.024.017.056.022.094.005.038.007.087.007.146 0 .055-.002.101-.007.14a.367.367 0 01-.022.092.127.127 0 01-.036.052.076.076 0 01-.048.016h-1.373v.93h1.162c.018 0 .035.006.05.017a.12.12 0 01.037.05c.01.023.017.053.022.091.005.039.007.085.007.14 0 .057-.002.104-.007.142a.345.345 0 01-.022.09.109.109 0 01-.038.048.087.087 0 01-.049.014h-1.162v1.075h1.385c.018 0 .035.006.05.017a.12.12 0 01.037.051c.01.024.017.055.022.093.005.038.007.086.007.143zM48.057 27.355c0 .05-.001.09-.004.125a.613.613 0 01-.014.089.255.255 0 01-.023.063.304.304 0 01-.048.06.601.601 0 01-.126.087c-.062.036-.139.07-.229.102a2.015 2.015 0 01-.685.113c-.264 0-.501-.04-.713-.12-.212-.081-.393-.201-.541-.361a1.605 1.605 0 01-.342-.6 2.664 2.664 0 01-.119-.836c0-.324.044-.611.13-.863.088-.251.21-.462.366-.633.157-.17.345-.3.564-.389a1.914 1.914 0 011.032-.106c.1.018.191.041.275.07.085.028.16.06.228.098.067.037.114.07.141.096a.328.328 0 01.055.066c.01.018.018.04.024.068.006.027.01.06.013.097a1.778 1.778 0 01-.002.289.382.382 0 01-.02.1.139.139 0 01-.036.056.071.071 0 01-.047.017c-.03 0-.068-.017-.113-.051a1.86 1.86 0 00-.177-.115 1.44 1.44 0 00-.259-.115c-.1-.034-.22-.051-.358-.051a.879.879 0 00-.409.093.876.876 0 00-.306.265 1.234 1.234 0 00-.191.416 2.132 2.132 0 00-.066.551c0 .224.023.418.07.582.046.164.113.299.2.405.085.106.19.185.311.237.122.052.26.078.412.078.139 0 .259-.017.36-.049.1-.032.187-.068.26-.107.072-.04.131-.075.178-.106.047-.032.083-.047.108-.047.02 0 .036.003.048.011.012.008.022.024.03.047a.462.462 0 01.018.1c.003.041.005.097.005.168zM51.231 27.355c0 .05 0 .09-.004.125a.614.614 0 01-.013.089.255.255 0 01-.024.063.307.307 0 01-.048.06.601.601 0 01-.126.087c-.062.036-.139.07-.229.102a2.015 2.015 0 01-.685.113c-.263 0-.501-.04-.713-.12-.212-.081-.393-.201-.541-.361a1.605 1.605 0 01-.342-.6 2.664 2.664 0 01-.119-.836c0-.324.044-.611.131-.863.087-.251.209-.462.366-.633.156-.17.344-.3.563-.389a1.914 1.914 0 011.033-.106c.099.018.19.041.275.07.084.028.16.06.227.098.067.037.114.07.141.096a.326.326 0 01.055.066c.01.018.018.04.024.068.006.027.01.06.013.097a1.784 1.784 0 01-.001.289.382.382 0 01-.021.1.14.14 0 01-.036.056.071.071 0 01-.047.017c-.03 0-.068-.017-.113-.051a1.845 1.845 0 00-.177-.115 1.44 1.44 0 00-.259-.115c-.1-.034-.22-.051-.358-.051a.878.878 0 00-.409.093.876.876 0 00-.306.265 1.234 1.234 0 00-.191.416 2.137 2.137 0 00-.066.551c0 .224.023.418.07.582.047.164.113.299.2.405.086.106.19.185.311.237.122.052.26.078.412.078.139 0 .259-.017.36-.049a1.52 1.52 0 00.26-.107c.072-.04.131-.075.178-.106.047-.032.083-.047.108-.047.02 0 .036.003.048.011.012.008.022.024.03.047a.462.462 0 01.018.1c.004.041.005.097.005.168zM54.923 27.832c0 .02-.006.037-.02.052a.144.144 0 01-.063.037.562.562 0 01-.12.022c-.05.005-.114.007-.19.007-.074 0-.137-.002-.188-.007a.535.535 0 01-.119-.023.131.131 0 01-.06-.036.08.08 0 01-.018-.052v-2.008a8.315 8.315 0 01.011-.422h-.005a5.824 5.824 0 01-.127.21 4.85 4.85 0 01-.162.247l-1.337 1.976a.404.404 0 01-.05.056.172.172 0 01-.065.037.428.428 0 01-.098.017 2.024 2.024 0 01-.15.005 1.9 1.9 0 01-.187-.008.472.472 0 01-.112-.022.104.104 0 01-.055-.038.103.103 0 01-.014-.056v-3.605c0-.02.006-.037.019-.051a.144.144 0 01.065-.037c.031-.01.071-.017.12-.022a1.993 1.993 0 01.377 0 .56.56 0 01.12.022c.03.01.05.022.062.037a.08.08 0 01.018.051v2.02a7.49 7.49 0 01-.012.407h.006a6.465 6.465 0 01.289-.453l1.337-1.976a.32.32 0 01.045-.052.189.189 0 01.064-.037.41.41 0 01.1-.02 1.814 1.814 0 01.334.002.497.497 0 01.11.021.12.12 0 01.059.037.09.09 0 01.016.054v3.608zM59.221 25.983c0 .316-.04.598-.119.848-.08.25-.197.46-.353.634-.157.174-.35.307-.582.398-.23.091-.498.137-.8.137-.3 0-.56-.039-.784-.116a1.362 1.362 0 01-.557-.355 1.515 1.515 0 01-.334-.607 3.023 3.023 0 01-.112-.872c0-.308.04-.585.119-.832.08-.246.197-.456.354-.628.156-.173.35-.305.58-.398.231-.092.5-.138.805-.138.291 0 .548.038.771.114.223.077.41.195.559.354.15.159.262.36.339.602.076.243.114.529.114.859zm-.82.04c0-.2-.016-.381-.048-.545a1.168 1.168 0 00-.162-.422.773.773 0 00-.305-.27 1.055 1.055 0 00-.475-.096.98.98 0 00-.482.107.884.884 0 00-.312.287c-.079.12-.135.26-.168.42a3.006 3.006 0 00-.001 1.069 1.2 1.2 0 00.16.426.736.736 0 00.304.27c.126.061.286.092.478.092a.993.993 0 00.482-.106.861.861 0 00.312-.289 1.21 1.21 0 00.168-.425c.032-.162.049-.335.049-.517zM62.88 27.826c0 .02-.007.038-.02.053a.134.134 0 01-.063.039.625.625 0 01-.12.023c-.049.006-.111.009-.187.009a1.73 1.73 0 01-.191-.009.598.598 0 01-.12-.023.136.136 0 01-.062-.039.081.081 0 01-.019-.053v-1.54H60.66v1.54c0 .02-.006.038-.018.053a.124.124 0 01-.063.039.625.625 0 01-.119.023 1.69 1.69 0 01-.19.009c-.075 0-.138-.003-.189-.009a.635.635 0 01-.12-.023.136.136 0 01-.064-.039.081.081 0 01-.02-.053v-3.599a.08.08 0 01.02-.053.135.135 0 01.064-.038.62.62 0 01.12-.023c.05-.006.114-.01.19-.01s.14.004.19.01c.049.006.089.013.118.023.03.01.05.023.063.038a.084.084 0 01.017.053v1.4h1.439v-1.4c0-.02.006-.037.02-.053a.134.134 0 01.062-.038.584.584 0 01.119-.023c.05-.006.114-.01.191-.01.076 0 .138.004.188.01.05.006.089.013.119.023s.05.023.063.038a.08.08 0 01.02.053v3.6zM66.868 27.643c.024.071.039.127.045.168.006.042-.002.073-.024.093-.022.02-.06.034-.116.038a4.888 4.888 0 01-.465.003.589.589 0 01-.13-.017.119.119 0 01-.062-.037.2.2 0 01-.03-.062l-.258-.765h-1.444l-.244.744a.236.236 0 01-.031.07.129.129 0 01-.063.044.475.475 0 01-.122.022 2.967 2.967 0 01-.42-.003c-.052-.006-.088-.02-.107-.043-.02-.022-.027-.054-.021-.095a.96.96 0 01.044-.165l1.186-3.381a.302.302 0 01.042-.081.148.148 0 01.076-.047.6.6 0 01.144-.021 7.024 7.024 0 01.523 0c.07.003.123.01.162.02.039.012.067.028.083.05a.287.287 0 01.043.088l1.19 3.378zm-1.765-2.794H65.1l-.544 1.62h1.09l-.543-1.62zM70.393 27.832a.08.08 0 01-.018.052.133.133 0 01-.062.037.57.57 0 01-.12.022c-.05.005-.114.007-.19.007a1.99 1.99 0 01-.19-.007.565.565 0 01-.118-.023.134.134 0 01-.063-.036.08.08 0 01-.017-.052v-3.075h-.827c-.055.45-.112.843-.169 1.179a9.335 9.335 0 01-.184.862c-.066.24-.138.436-.216.59a1.235 1.235 0 01-.267.363.82.82 0 01-.339.184c-.126.034-.269.05-.43.05a.224.224 0 01-.077-.012.098.098 0 01-.052-.044.252.252 0 01-.028-.091 1.055 1.055 0 01-.009-.15c0-.084.002-.153.006-.205a.496.496 0 01.02-.12c.01-.03.024-.048.04-.058a.105.105 0 01.056-.015.44.44 0 00.177-.037.42.42 0 00.163-.145c.053-.073.103-.175.152-.307.048-.131.096-.304.142-.52.047-.214.094-.476.14-.786.047-.31.094-.677.141-1.103.012-.1.036-.17.072-.21.035-.04.088-.06.157-.06h1.888c.071 0 .126.02.165.06.038.04.058.101.058.184v3.466zM74.064 26.669c0 .18-.027.346-.082.498a.993.993 0 01-.264.395c-.122.113-.281.203-.477.27-.197.067-.465.1-.806.1h-.96a.318.318 0 01-.093-.013.19.19 0 01-.076-.044.224.224 0 01-.052-.077.282.282 0 01-.02-.11v-3.466c0-.02.007-.037.02-.052a.144.144 0 01.065-.037.6.6 0 01.122-.022c.05-.005.112-.007.186-.007.077 0 .14.002.19.007.05.005.09.012.119.022.03.01.05.022.062.037a.08.08 0 01.018.051v1.3h.538c.291 0 .523.024.695.074.173.05.319.125.439.223s.212.218.278.362c.065.143.098.306.098.489zm-.802.065a.732.732 0 00-.042-.257.487.487 0 00-.128-.19.577.577 0 00-.221-.123 1.424 1.424 0 00-.403-.043h-.452v1.21h.467c.186 0 .325-.018.417-.054a.553.553 0 00.216-.141.533.533 0 00.111-.193.676.676 0 00.034-.21zM77.604 27.826c0 .02-.007.038-.02.053a.134.134 0 01-.063.039.624.624 0 01-.12.023 1.68 1.68 0 01-.186.009 1.73 1.73 0 01-.192-.009.598.598 0 01-.119-.023.136.136 0 01-.062-.039.082.082 0 01-.02-.053v-1.54h-1.438v1.54c0 .02-.006.038-.018.053a.126.126 0 01-.062.039.624.624 0 01-.12.023c-.049.006-.112.009-.19.009-.075 0-.138-.003-.188-.009a.63.63 0 01-.12-.023.136.136 0 01-.065-.039.082.082 0 01-.019-.053v-3.599c0-.02.007-.037.02-.053a.136.136 0 01.064-.038c.03-.01.07-.018.12-.023.05-.006.113-.01.189-.01.077 0 .14.004.19.01.05.006.089.013.119.023s.05.023.062.038a.085.085 0 01.018.053v1.4h1.438v-1.4c0-.02.007-.037.02-.053a.135.135 0 01.062-.038.584.584 0 01.119-.023c.05-.006.114-.01.192-.01.075 0 .137.004.187.01.05.006.089.013.119.023s.05.023.064.038a.08.08 0 01.019.053v3.6zM81.901 25.983c0 .316-.04.598-.118.848a1.7 1.7 0 01-.354.634c-.157.174-.35.307-.581.398-.231.091-.498.137-.801.137-.3 0-.56-.039-.783-.116a1.362 1.362 0 01-.558-.355 1.515 1.515 0 01-.334-.607 3.026 3.026 0 01-.112-.872c0-.308.04-.585.12-.832.079-.246.197-.456.353-.628.156-.173.35-.305.581-.398.23-.092.499-.138.804-.138.291 0 .549.038.771.114.223.077.41.195.56.354.149.159.262.36.338.602.076.243.114.529.114.859zm-.82.04c0-.2-.016-.381-.047-.545a1.168 1.168 0 00-.162-.422.771.771 0 00-.305-.27 1.054 1.054 0 00-.476-.096.98.98 0 00-.481.107.883.883 0 00-.312.287c-.08.12-.135.26-.168.42a3.006 3.006 0 00-.001 1.069 1.2 1.2 0 00.16.426.735.735 0 00.303.27c.127.061.286.092.478.092a.993.993 0 00.482-.106.86.86 0 00.312-.289c.08-.121.135-.263.168-.425.033-.162.05-.335.05-.517zM85.688 27.832c0 .02-.006.037-.019.052a.142.142 0 01-.064.036.563.563 0 01-.12.023c-.05.005-.114.007-.189.007s-.138-.002-.189-.007a.533.533 0 01-.119-.023.13.13 0 01-.06-.036.079.079 0 01-.018-.052v-2.008a8.309 8.309 0 01.011-.422h-.006a6.148 6.148 0 01-.288.457l-1.337 1.976a.406.406 0 01-.05.056.172.172 0 01-.065.037.428.428 0 01-.098.017 2.08 2.08 0 01-.337-.003.477.477 0 01-.112-.022.104.104 0 01-.055-.038.102.102 0 01-.014-.056V24.22c0-.02.006-.037.019-.051a.144.144 0 01.065-.037c.031-.01.071-.017.12-.022a1.992 1.992 0 01.377 0c.05.005.09.012.12.022.03.01.05.022.062.037a.08.08 0 01.018.051v2.02a7.486 7.486 0 01-.012.407h.006a6.165 6.165 0 01.289-.453l1.337-1.977a.32.32 0 01.045-.051.192.192 0 01.064-.037.413.413 0 01.099-.02 1.818 1.818 0 01.334.002.497.497 0 01.112.021.12.12 0 01.058.037c.01.015.016.033.016.054v3.608zm-.454-4.733a.867.867 0 01-.057.311.668.668 0 01-.183.262.92.92 0 01-.333.181 1.645 1.645 0 01-.506.068c-.195 0-.36-.02-.497-.062a.94.94 0 01-.334-.169.633.633 0 01-.189-.26.898.898 0 01-.06-.33c0-.03.006-.054.017-.073a.118.118 0 01.055-.045.355.355 0 01.105-.025 1.608 1.608 0 01.326.001.29.29 0 01.095.027.103.103 0 01.046.045c.009.019.013.041.013.067a.314.314 0 00.112.24.514.514 0 00.314.105c.063 0 .12-.01.172-.029a.44.44 0 00.132-.074.298.298 0 00.083-.109.34.34 0 00.029-.14c0-.023.004-.044.012-.061a.095.095 0 01.046-.045.303.303 0 01.092-.026 1.807 1.807 0 01.324-.002.398.398 0 01.111.025.118.118 0 01.058.046c.011.02.017.043.017.072zM90.75 27.83c0 .02-.006.039-.018.054a.132.132 0 01-.064.037.597.597 0 01-.123.022 2.18 2.18 0 01-.2.007c-.085 0-.153-.002-.206-.007a.567.567 0 01-.126-.024.157.157 0 01-.072-.044.184.184 0 01-.035-.07l-.31-.847a1.92 1.92 0 00-.136-.311.817.817 0 00-.158-.203.5.5 0 00-.196-.11.875.875 0 00-.246-.033h-.176v1.526c0 .021-.006.04-.018.054a.14.14 0 01-.062.038.5.5 0 01-.119.024c-.05.005-.113.007-.19.007-.076 0-.138-.002-.189-.007a.505.505 0 01-.12-.024.153.153 0 01-.064-.038.08.08 0 01-.02-.055v-3.601a.08.08 0 01.02-.055.143.143 0 01.064-.036c.03-.01.07-.018.12-.023.05-.004.114-.007.189-.007.077 0 .14.003.19.008.05.004.09.012.119.022.03.01.05.022.062.036a.084.084 0 01.018.055v1.431h.175c.09 0 .168-.012.235-.035a.512.512 0 00.183-.112.792.792 0 00.149-.199c.044-.081.087-.182.129-.302l.258-.76a.268.268 0 01.036-.069.136.136 0 01.067-.044.532.532 0 01.122-.023c.05-.005.118-.008.204-.008.077 0 .14.003.191.008.05.005.09.011.12.02.028.009.047.02.057.035.01.015.015.034.015.055a.418.418 0 01-.013.094 1.463 1.463 0 01-.046.147l-.259.678a2.736 2.736 0 01-.143.32 1.304 1.304 0 01-.15.226.818.818 0 01-.36.249v.003c.078.033.15.071.215.113a.882.882 0 01.18.16c.057.066.111.145.163.24.051.093.104.21.157.347l.316.79c.031.08.05.135.056.165.006.03.009.056.009.075zM94.635 25.983c0 .316-.04.598-.12.848-.079.25-.197.46-.353.634-.157.174-.35.307-.581.398-.231.091-.498.137-.801.137-.3 0-.56-.039-.783-.116a1.362 1.362 0 01-.558-.355 1.515 1.515 0 01-.334-.607 3.026 3.026 0 01-.112-.872c0-.308.04-.585.12-.832.079-.246.196-.456.353-.628.157-.173.35-.305.581-.398.23-.092.499-.138.804-.138.291 0 .549.038.771.114.223.077.41.195.56.354.149.159.262.36.338.602.076.243.115.529.115.859zm-.82.04c0-.2-.017-.381-.049-.545a1.17 1.17 0 00-.161-.422.772.772 0 00-.305-.27 1.054 1.054 0 00-.476-.096.98.98 0 00-.481.107.883.883 0 00-.312.287c-.08.12-.136.26-.168.42a3.006 3.006 0 00-.001 1.069 1.2 1.2 0 00.16.426.735.735 0 00.303.27c.127.061.286.092.478.092a.994.994 0 00.482-.106.861.861 0 00.312-.289c.08-.121.135-.263.168-.425.033-.162.05-.335.05-.517zM97.951 27.355c0 .05-.001.09-.004.125a.615.615 0 01-.013.089.259.259 0 01-.024.063.308.308 0 01-.048.06.596.596 0 01-.126.087 1.49 1.49 0 01-.229.102 2.015 2.015 0 01-.685.113c-.264 0-.501-.04-.713-.12a1.41 1.41 0 01-.541-.361 1.605 1.605 0 01-.342-.6 2.664 2.664 0 01-.119-.836c0-.324.044-.611.13-.863.088-.251.21-.462.367-.633.156-.17.344-.3.563-.389a1.915 1.915 0 011.033-.106c.099.018.19.041.275.07.084.028.16.06.227.098.067.037.114.07.141.096a.326.326 0 01.055.066c.01.018.018.04.024.068.006.027.01.06.013.097a1.778 1.778 0 01-.001.289.39.39 0 01-.021.1.14.14 0 01-.036.056.07.07 0 01-.047.017c-.03 0-.068-.017-.114-.051a1.845 1.845 0 00-.176-.115 1.436 1.436 0 00-.259-.115 1.11 1.11 0 00-.358-.051.878.878 0 00-.409.093.875.875 0 00-.306.265 1.238 1.238 0 00-.192.416 2.132 2.132 0 00-.065.551c0 .224.023.418.07.582.046.164.113.299.2.405.085.106.19.185.311.237.122.052.26.078.412.078.138 0 .258-.017.36-.049.1-.032.187-.068.26-.107a2.18 2.18 0 00.178-.106c.046-.032.083-.047.108-.047.02 0 .036.003.048.011.012.008.022.024.03.047a.463.463 0 01.017.1c.005.041.007.097.007.168zM102.995 27.826a.09.09 0 01-.016.053.117.117 0 01-.059.038.581.581 0 01-.115.024 1.535 1.535 0 01-.181.009c-.071 0-.131-.003-.178-.009a.535.535 0 01-.113-.023.125.125 0 01-.06-.039.085.085 0 01-.018-.053v-3.1h-.006l-1.114 3.097a.143.143 0 01-.039.064.188.188 0 01-.073.04.484.484 0 01-.117.019 2.896 2.896 0 01-.345-.004.517.517 0 01-.117-.023.218.218 0 01-.073-.04.113.113 0 01-.036-.056l-1.076-3.098h-.006v3.101a.09.09 0 01-.016.053c-.011.016-.031.029-.061.038a.613.613 0 01-.115.024 1.484 1.484 0 01-.18.009c-.07 0-.13-.003-.178-.009a.578.578 0 01-.114-.023.115.115 0 01-.06-.039.09.09 0 01-.016-.053v-3.395c0-.1.027-.177.08-.23a.29.29 0 01.214-.08h.512c.09 0 .169.008.234.023a.416.416 0 01.288.21.96.96 0 01.084.206l.832 2.27h.012l.862-2.264c.026-.082.054-.152.085-.209a.467.467 0 01.107-.138.346.346 0 01.144-.076.755.755 0 01.193-.022h.526c.054 0 .1.007.138.021a.227.227 0 01.095.06.261.261 0 01.057.097.407.407 0 01.019.131v3.396zM106.113 27.629c0 .057-.002.104-.007.142a.361.361 0 01-.023.093.117.117 0 01-.037.052.08.08 0 01-.049.016h-1.932a.245.245 0 01-.165-.057c-.044-.039-.067-.1-.067-.187v-3.322c0-.087.023-.149.067-.187a.246.246 0 01.165-.058h1.92c.018 0 .034.005.048.015.014.01.026.027.036.052a.44.44 0 01.022.094c.005.038.007.087.007.146 0 .055-.002.101-.007.14a.412.412 0 01-.022.092.125.125 0 01-.036.052.077.077 0 01-.048.016h-1.373v.93h1.162c.018 0 .034.006.049.017.015.01.028.027.037.05a.34.34 0 01.023.091c.005.039.007.085.007.14 0 .057-.002.104-.007.142a.335.335 0 01-.023.09.1.1 0 01-.037.048.087.087 0 01-.049.014h-1.162v1.075h1.385c.018 0 .034.006.049.017.015.01.027.028.037.051.01.024.018.055.023.093.005.038.007.086.007.143zM109.341 24.44c0 .056-.002.105-.007.145a.386.386 0 01-.023.097.13.13 0 01-.037.055.077.077 0 01-.049.018h-.963v3.071a.08.08 0 01-.019.053.134.134 0 01-.064.038.623.623 0 01-.121.024 1.68 1.68 0 01-.188.009c-.076 0-.139-.003-.189-.009a.603.603 0 01-.12-.023.135.135 0 01-.064-.039.081.081 0 01-.02-.053v-3.071h-.963a.076.076 0 01-.05-.018.139.139 0 01-.036-.055.39.39 0 01-.022-.097 1.195 1.195 0 010-.296.398.398 0 01.022-.098.125.125 0 01.036-.053.08.08 0 01.05-.017h2.711a.08.08 0 01.049.017c.015.01.027.028.037.053.01.024.018.057.023.098.005.042.007.092.007.15zM112.925 27.832c0 .02-.006.037-.019.052a.143.143 0 01-.064.037.569.569 0 01-.12.022 2.022 2.022 0 01-.189.007c-.075 0-.138-.002-.189-.007a.545.545 0 01-.119-.023.127.127 0 01-.06-.036.08.08 0 01-.018-.052v-2.008a8.315 8.315 0 01.012-.422h-.006l-.057.096-.07.115a4.036 4.036 0 01-.162.246l-1.337 1.976a.483.483 0 01-.049.056.175.175 0 01-.066.037.415.415 0 01-.098.017 2.055 2.055 0 01-.337-.003.478.478 0 01-.112-.022.108.108 0 01-.055-.038.102.102 0 01-.014-.056v-3.605c0-.02.006-.037.019-.051a.146.146 0 01.065-.037.593.593 0 01.121-.022 1.986 1.986 0 01.377 0c.05.005.089.012.119.022.03.01.05.022.062.037a.08.08 0 01.018.051v2.02a7.093 7.093 0 01-.012.407h.006a5.17 5.17 0 01.289-.454l1.337-1.975a.327.327 0 01.045-.052.188.188 0 01.064-.037.393.393 0 01.099-.02 1.792 1.792 0 01.334.002.5.5 0 01.112.021c.028.01.047.022.058.037a.088.088 0 01.016.054v3.608zM116.611 27.83c0 .02-.006.039-.018.054a.132.132 0 01-.064.037.59.59 0 01-.123.022 2.183 2.183 0 01-.199.007c-.085 0-.154-.002-.207-.007a.574.574 0 01-.126-.024.16.16 0 01-.072-.044.197.197 0 01-.035-.07l-.309-.847a1.918 1.918 0 00-.137-.311.816.816 0 00-.158-.203.5.5 0 00-.196-.11.87.87 0 00-.246-.033h-.176v1.526c0 .021-.006.04-.018.054a.137.137 0 01-.062.038.498.498 0 01-.119.024 1.986 1.986 0 01-.19.007c-.075 0-.138-.002-.189-.007a.513.513 0 01-.12-.024.152.152 0 01-.064-.038.079.079 0 01-.019-.055v-3.601c0-.022.006-.04.019-.055a.142.142 0 01.064-.036c.03-.01.07-.018.12-.023.051-.004.114-.007.189-.007.077 0 .141.003.19.008.05.004.089.012.119.022.03.01.05.022.062.036a.083.083 0 01.018.055v1.431h.176a.706.706 0 00.234-.035.503.503 0 00.183-.112.81.81 0 00.149-.199c.044-.081.087-.182.129-.302l.259-.76a.237.237 0 01.035-.069.136.136 0 01.067-.044.544.544 0 01.122-.023 2.227 2.227 0 01.395 0c.051.005.09.011.119.02.029.009.048.02.058.035.01.015.015.034.015.055a.41.41 0 01-.013.094 1.438 1.438 0 01-.046.147l-.259.678a2.717 2.717 0 01-.143.32 1.244 1.244 0 01-.15.226.816.816 0 01-.361.249v.003c.079.033.151.071.216.113a.905.905 0 01.181.16c.057.066.11.145.162.24.052.093.104.21.158.347l.315.79c.031.08.05.135.056.165.006.03.009.056.009.075zM120.32 27.832c0 .02-.006.037-.019.052a.143.143 0 01-.064.037.569.569 0 01-.12.022 2.022 2.022 0 01-.189.007c-.075 0-.138-.002-.189-.007a.534.534 0 01-.119-.023.136.136 0 01-.061-.036.078.078 0 01-.017-.052v-2.008c0-.077 0-.152.002-.226.002-.073.005-.139.009-.196h-.006l-.056.096-.07.115a4.606 4.606 0 01-.162.246l-1.337 1.976a.483.483 0 01-.049.056.175.175 0 01-.066.037.425.425 0 01-.098.017 2.093 2.093 0 01-.337-.003.478.478 0 01-.112-.022.104.104 0 01-.055-.038.102.102 0 01-.015-.056v-3.605c0-.02.007-.037.02-.051a.14.14 0 01.065-.037.595.595 0 01.12-.022 1.97 1.97 0 01.188-.008 2 2 0 01.19.008.57.57 0 01.119.022c.029.01.05.022.062.037a.08.08 0 01.018.051v2.02a7.093 7.093 0 01-.012.407h.006a6.316 6.316 0 01.288-.453l1.338-1.976a.383.383 0 01.044-.052.198.198 0 01.064-.037.412.412 0 01.1-.02 1.8 1.8 0 01.334.002.5.5 0 01.112.021c.027.01.047.022.058.037a.088.088 0 01.016.054v3.608z" fill="#fff"/><path d="M4.482 27.826a.09.09 0 01-.016.053.115.115 0 01-.06.038.576.576 0 01-.114.024 1.523 1.523 0 01-.181.009c-.072 0-.131-.003-.179-.009a.55.55 0 01-.113-.023.124.124 0 01-.06-.039.086.086 0 01-.017-.053v-3.1h-.006l-1.114 3.097a.143.143 0 01-.04.064.187.187 0 01-.072.04.498.498 0 01-.117.019 2.893 2.893 0 01-.345-.004.523.523 0 01-.118-.023.217.217 0 01-.072-.04.114.114 0 01-.036-.056L.746 24.725H.74v3.101a.09.09 0 01-.016.053c-.011.016-.032.029-.061.038a.612.612 0 01-.115.024 1.484 1.484 0 01-.18.009c-.07 0-.13-.003-.178-.009a.583.583 0 01-.114-.023.115.115 0 01-.06-.039.09.09 0 01-.016-.053v-3.395c0-.1.027-.177.08-.23a.29.29 0 01.214-.08h.512c.09 0 .169.008.234.023a.419.419 0 01.288.21c.032.055.06.124.084.206l.832 2.27h.012l.862-2.264c.026-.082.054-.152.085-.209a.484.484 0 01.107-.138.354.354 0 01.144-.076.758.758 0 01.193-.022h.526c.054 0 .1.007.138.021a.235.235 0 01.152.157c.013.039.02.082.02.131v3.396zM8.47 27.643c.025.071.04.127.045.168.006.042-.002.073-.023.093-.022.02-.06.034-.116.038a4.895 4.895 0 01-.465.003.59.59 0 01-.13-.017.119.119 0 01-.062-.037.2.2 0 01-.03-.062l-.258-.765H5.986l-.244.744a.231.231 0 01-.03.07.128.128 0 01-.063.044.475.475 0 01-.122.022 2.97 2.97 0 01-.42-.003c-.052-.006-.088-.02-.108-.043-.02-.022-.027-.054-.02-.095a.962.962 0 01.044-.165l1.186-3.381a.294.294 0 01.042-.081.147.147 0 01.075-.047.6.6 0 01.144-.021 7.019 7.019 0 01.523 0c.07.003.124.01.162.02.04.012.067.028.084.05a.286.286 0 01.043.088l1.189 3.378zM6.706 24.85h-.003l-.543 1.62h1.09l-.544-1.62zM11.187 24.442c0 .06-.002.109-.007.149a.403.403 0 01-.022.097.12.12 0 01-.038.053.087.087 0 01-.052.016H9.793v3.075c0 .02-.006.037-.02.052a.144.144 0 01-.063.036.566.566 0 01-.119.022 2.004 2.004 0 01-.379 0 .568.568 0 01-.12-.022.144.144 0 01-.064-.037.075.075 0 01-.02-.05v-3.467c0-.083.022-.144.064-.184a.235.235 0 01.168-.06h1.828c.04 0 .07.024.09.073.02.049.03.131.03.247zM14.314 27.643c.024.071.039.127.045.168.006.042-.002.073-.024.093-.022.02-.06.034-.116.038a4.9 4.9 0 01-.465.003.59.59 0 01-.13-.017.119.119 0 01-.062-.037.2.2 0 01-.03-.062l-.258-.765h-1.445l-.243.744a.23.23 0 01-.032.07.127.127 0 01-.062.044.475.475 0 01-.122.022 2.971 2.971 0 01-.42-.003c-.052-.006-.088-.02-.107-.043-.02-.022-.027-.054-.021-.095a.971.971 0 01.044-.165l1.186-3.381a.294.294 0 01.042-.081.147.147 0 01.076-.047.6.6 0 01.144-.021 7.02 7.02 0 01.523 0c.07.003.123.01.162.02.038.012.066.028.083.05a.283.283 0 01.043.088l1.19 3.378zM12.55 24.85h-.003l-.544 1.62h1.09l-.543-1.62zM17.159 26.828c0 .192-.037.361-.11.508a1.015 1.015 0 01-.314.368 1.42 1.42 0 01-.487.222 2.511 2.511 0 01-.978.047 1.771 1.771 0 01-.276-.066 1.26 1.26 0 01-.19-.078.627.627 0 01-.1-.063.19.19 0 01-.045-.052.248.248 0 01-.024-.075 1.026 1.026 0 01-.013-.122 2.992 2.992 0 01-.004-.183c0-.082.007-.138.022-.166.015-.028.037-.043.067-.043.024 0 .057.012.1.037.044.025.1.053.167.084a1.306 1.306 0 00.87.085.657.657 0 00.223-.109.475.475 0 00.192-.389.593.593 0 00-.047-.238.442.442 0 00-.144-.18.713.713 0 00-.248-.113c-.1-.026-.22-.04-.361-.04h-.407a.176.176 0 01-.072-.012.09.09 0 01-.043-.044.245.245 0 01-.02-.09 2.088 2.088 0 010-.291.257.257 0 01.023-.087.1.1 0 01.042-.046.13.13 0 01.06-.013h.414c.12 0 .228-.012.32-.035a.664.664 0 00.234-.105.465.465 0 00.192-.393.536.536 0 00-.034-.194.364.364 0 00-.106-.149.513.513 0 00-.181-.094 1.235 1.235 0 00-.582.005 1.952 1.952 0 00-.427.166.264.264 0 01-.109.04.054.054 0 01-.035-.012.098.098 0 01-.027-.043.32.32 0 01-.017-.084 1.704 1.704 0 01.01-.339.321.321 0 01.025-.072.21.21 0 01.046-.06.577.577 0 01.127-.077c.065-.031.144-.06.237-.087a2.573 2.573 0 01.687-.093c.205 0 .385.022.539.065.154.044.282.106.385.187.103.082.18.182.232.3.051.12.077.255.077.408 0 .122-.017.233-.05.333a.84.84 0 01-.368.458.957.957 0 01-.287.114v.006a.941.941 0 01.332.098.889.889 0 01.483.806zM20.915 27.832c0 .02-.006.037-.019.052a.144.144 0 01-.064.037.562.562 0 01-.12.022c-.05.005-.114.007-.189.007s-.138-.002-.189-.007a.535.535 0 01-.119-.023.131.131 0 01-.06-.036.08.08 0 01-.018-.052v-2.008a8.75 8.75 0 01.012-.422h-.006a5.824 5.824 0 01-.127.21 4.85 4.85 0 01-.162.247l-1.337 1.976a.404.404 0 01-.05.056.172.172 0 01-.065.037.428.428 0 01-.098.017 2.026 2.026 0 01-.15.005 1.9 1.9 0 01-.187-.008.472.472 0 01-.111-.022c-.027-.01-.046-.022-.056-.038a.103.103 0 01-.014-.056v-3.605c0-.02.006-.037.019-.051a.142.142 0 01.065-.037c.031-.01.071-.017.12-.022a1.993 1.993 0 01.377 0 .56.56 0 01.12.022c.03.01.05.022.063.037a.08.08 0 01.017.051v2.02a7.107 7.107 0 01-.012.407h.006a6.465 6.465 0 01.289-.453l1.337-1.976a.32.32 0 01.045-.052.189.189 0 01.064-.037.41.41 0 01.1-.02 1.814 1.814 0 01.334.002.497.497 0 01.111.021.12.12 0 01.058.037.09.09 0 01.016.054v3.608zM24.756 27.826c0 .02-.007.038-.02.053a.134.134 0 01-.064.039.625.625 0 01-.119.023 1.68 1.68 0 01-.187.009c-.077 0-.141-.003-.192-.009a.6.6 0 01-.118-.023.135.135 0 01-.063-.039.08.08 0 01-.02-.053v-1.54h-1.438v1.54c0 .02-.006.038-.017.053a.125.125 0 01-.063.039.625.625 0 01-.119.023c-.05.006-.113.009-.19.009-.075 0-.138-.003-.189-.009a.631.631 0 01-.12-.023.137.137 0 01-.064-.039.082.082 0 01-.02-.053v-3.599c0-.02.007-.037.02-.053a.136.136 0 01.064-.038c.03-.01.07-.018.12-.023.05-.006.114-.01.189-.01.077 0 .14.004.19.01.05.006.09.013.12.023.029.01.05.023.062.038a.084.084 0 01.017.053v1.4h1.439v-1.4a.08.08 0 01.02-.053.135.135 0 01.062-.038.586.586 0 01.118-.023c.051-.006.115-.01.192-.01.075 0 .138.004.187.01.05.006.09.013.12.023.029.01.05.023.063.038a.08.08 0 01.02.053v3.6zM29.966 27.832a.08.08 0 01-.018.052.132.132 0 01-.063.036.57.57 0 01-.12.022 2.006 2.006 0 01-.378 0 .57.57 0 01-.12-.022.143.143 0 01-.064-.037.075.075 0 01-.019-.05v-3.067h-1.433v3.066c0 .02-.006.037-.019.052a.144.144 0 01-.064.036.567.567 0 01-.119.022 2.006 2.006 0 01-.379 0 .568.568 0 01-.12-.022.133.133 0 01-.063-.037.079.079 0 01-.017-.05v-3.467c0-.083.02-.144.062-.184a.23.23 0 01.167-.06h2.54c.072 0 .128.02.167.06.04.04.06.101.06.184v3.466zM33.437 25.279c0 .214-.033.403-.1.568a1.098 1.098 0 01-.295.417 1.3 1.3 0 01-.474.257 2.216 2.216 0 01-.661.089h-.321v1.216c0 .02-.007.037-.02.053a.135.135 0 01-.064.038.625.625 0 01-.118.024c-.05.006-.114.009-.19.009s-.139-.003-.19-.01a.634.634 0 01-.12-.023.126.126 0 01-.062-.038.085.085 0 01-.018-.053v-3.428c0-.092.024-.161.073-.208a.267.267 0 01.192-.069h.906c.091 0 .178.004.26.01.082.008.18.022.296.045.115.022.231.064.349.125a.96.96 0 01.492.558c.044.125.065.265.065.42zm-.817.056a.679.679 0 00-.071-.33.488.488 0 00-.176-.191.585.585 0 00-.218-.079 1.685 1.685 0 00-.236-.016h-.333v1.293h.35c.125 0 .23-.017.314-.05a.535.535 0 00.328-.355.859.859 0 00.042-.272zM37.503 25.983c0 .316-.04.598-.119.848-.079.25-.197.46-.353.634-.157.174-.35.307-.581.398-.231.091-.498.137-.801.137-.3 0-.56-.039-.784-.116a1.363 1.363 0 01-.557-.355 1.515 1.515 0 01-.334-.607 3.026 3.026 0 01-.112-.872c0-.308.04-.585.12-.832.078-.246.196-.456.353-.628.156-.173.35-.305.58-.398.232-.092.5-.138.805-.138.291 0 .548.038.771.114.223.077.41.195.559.354.15.159.263.36.339.602.076.243.114.529.114.859zm-.82.04c0-.2-.016-.381-.048-.545a1.168 1.168 0 00-.162-.422.773.773 0 00-.304-.27 1.055 1.055 0 00-.476-.096.98.98 0 00-.481.107.884.884 0 00-.312.287c-.08.12-.136.26-.168.42a3.006 3.006 0 00-.001 1.069 1.2 1.2 0 00.16.426.735.735 0 00.303.27c.127.061.286.092.478.092a.993.993 0 00.482-.106.86.86 0 00.312-.289c.08-.121.135-.263.168-.425.033-.162.049-.335.049-.517zM41.923 25.912c0 .214-.034.408-.103.582-.068.173-.17.324-.303.45a1.52 1.52 0 01-.5.307c-.198.077-.428.126-.687.145v.442c0 .02-.007.037-.02.052a.132.132 0 01-.062.035.58.58 0 01-.119.019 2.526 2.526 0 01-.371 0 .602.602 0 01-.118-.02.142.142 0 01-.064-.033.074.074 0 01-.02-.053v-.442a2.664 2.664 0 01-.69-.113 1.34 1.34 0 01-.498-.276 1.144 1.144 0 01-.302-.444 1.717 1.717 0 01-.102-.622c0-.202.034-.388.102-.558.068-.17.17-.318.303-.444.134-.127.3-.23.498-.31.198-.079.428-.13.69-.151v-.418a.07.07 0 01.019-.05.135.135 0 01.064-.033.795.795 0 01.119-.019 2.045 2.045 0 01.37 0c.05.005.09.011.119.02.028.007.05.018.062.032a.07.07 0 01.02.05v.418c.261.014.49.053.69.12.197.065.363.157.497.275.134.117.235.263.303.437.069.173.103.374.103.602zm-2.354-.848a1.14 1.14 0 00-.385.1.7.7 0 00-.39.443 1.04 1.04 0 00-.042.302c0 .13.014.246.043.35a.705.705 0 00.138.267.71.71 0 00.251.186c.104.048.232.08.385.098v-1.746zm1.566.88c0-.123-.014-.236-.041-.337a.681.681 0 00-.137-.263.71.71 0 00-.251-.183 1.312 1.312 0 00-.388-.097v1.746c.15-.017.278-.051.382-.101a.715.715 0 00.392-.452c.029-.099.043-.203.043-.312zM44.844 27.629c0 .057-.002.104-.007.142a.368.368 0 01-.022.093.117.117 0 01-.038.052.081.081 0 01-.049.016h-1.932a.244.244 0 01-.164-.057c-.045-.039-.067-.1-.067-.187v-3.322c0-.087.022-.149.067-.187a.244.244 0 01.164-.058h1.92a.08.08 0 01.048.015c.014.01.026.027.036.052.01.024.017.056.022.094.005.038.007.087.007.146 0 .055-.002.101-.007.14a.367.367 0 01-.022.092.127.127 0 01-.036.052.076.076 0 01-.048.016h-1.373v.93h1.162c.018 0 .035.006.05.017a.12.12 0 01.037.05c.01.023.017.053.022.091.005.039.007.085.007.14 0 .057-.002.104-.007.142a.345.345 0 01-.022.09.109.109 0 01-.038.048.087.087 0 01-.049.014h-1.162v1.075h1.385c.018 0 .035.006.05.017a.12.12 0 01.037.051c.01.024.017.055.022.093.005.038.007.086.007.143zM48.057 27.355c0 .05-.001.09-.004.125a.613.613 0 01-.014.089.255.255 0 01-.023.063.304.304 0 01-.048.06.601.601 0 01-.126.087c-.062.036-.139.07-.229.102a2.015 2.015 0 01-.685.113c-.264 0-.501-.04-.713-.12-.212-.081-.393-.201-.541-.361a1.605 1.605 0 01-.342-.6 2.664 2.664 0 01-.119-.836c0-.324.044-.611.13-.863.088-.251.21-.462.366-.633.157-.17.345-.3.564-.389a1.914 1.914 0 011.032-.106c.1.018.191.041.275.07.085.028.16.06.228.098.067.037.114.07.141.096a.328.328 0 01.055.066c.01.018.018.04.024.068.006.027.01.06.013.097a1.778 1.778 0 01-.002.289.382.382 0 01-.02.1.139.139 0 01-.036.056.071.071 0 01-.047.017c-.03 0-.068-.017-.113-.051a1.86 1.86 0 00-.177-.115 1.44 1.44 0 00-.259-.115c-.1-.034-.22-.051-.358-.051a.879.879 0 00-.409.093.876.876 0 00-.306.265 1.234 1.234 0 00-.191.416 2.132 2.132 0 00-.066.551c0 .224.023.418.07.582.046.164.113.299.2.405.085.106.19.185.311.237.122.052.26.078.412.078.139 0 .259-.017.36-.049.1-.032.187-.068.26-.107.072-.04.131-.075.178-.106.047-.032.083-.047.108-.047.02 0 .036.003.048.011.012.008.022.024.03.047a.462.462 0 01.018.1c.003.041.005.097.005.168zM51.231 27.355c0 .05 0 .09-.004.125a.614.614 0 01-.013.089.255.255 0 01-.024.063.307.307 0 01-.048.06.601.601 0 01-.126.087c-.062.036-.139.07-.229.102a2.015 2.015 0 01-.685.113c-.263 0-.501-.04-.713-.12-.212-.081-.393-.201-.541-.361a1.605 1.605 0 01-.342-.6 2.664 2.664 0 01-.119-.836c0-.324.044-.611.131-.863.087-.251.209-.462.366-.633.156-.17.344-.3.563-.389a1.914 1.914 0 011.033-.106c.099.018.19.041.275.07.084.028.16.06.227.098.067.037.114.07.141.096a.326.326 0 01.055.066c.01.018.018.04.024.068.006.027.01.06.013.097a1.784 1.784 0 01-.001.289.382.382 0 01-.021.1.14.14 0 01-.036.056.071.071 0 01-.047.017c-.03 0-.068-.017-.113-.051a1.845 1.845 0 00-.177-.115 1.44 1.44 0 00-.259-.115c-.1-.034-.22-.051-.358-.051a.878.878 0 00-.409.093.876.876 0 00-.306.265 1.234 1.234 0 00-.191.416 2.137 2.137 0 00-.066.551c0 .224.023.418.07.582.047.164.113.299.2.405.086.106.19.185.311.237.122.052.26.078.412.078.139 0 .259-.017.36-.049a1.52 1.52 0 00.26-.107c.072-.04.131-.075.178-.106.047-.032.083-.047.108-.047.02 0 .036.003.048.011.012.008.022.024.03.047a.462.462 0 01.018.1c.004.041.005.097.005.168zM54.923 27.832c0 .02-.006.037-.02.052a.144.144 0 01-.063.037.562.562 0 01-.12.022c-.05.005-.114.007-.19.007-.074 0-.137-.002-.188-.007a.535.535 0 01-.119-.023.131.131 0 01-.06-.036.08.08 0 01-.018-.052v-2.008a8.315 8.315 0 01.011-.422h-.005a5.824 5.824 0 01-.127.21 4.85 4.85 0 01-.162.247l-1.337 1.976a.404.404 0 01-.05.056.172.172 0 01-.065.037.428.428 0 01-.098.017 2.024 2.024 0 01-.15.005 1.9 1.9 0 01-.187-.008.472.472 0 01-.112-.022.104.104 0 01-.055-.038.103.103 0 01-.014-.056v-3.605c0-.02.006-.037.019-.051a.144.144 0 01.065-.037c.031-.01.071-.017.12-.022a1.993 1.993 0 01.377 0 .56.56 0 01.12.022c.03.01.05.022.062.037a.08.08 0 01.018.051v2.02a7.49 7.49 0 01-.012.407h.006a6.465 6.465 0 01.289-.453l1.337-1.976a.32.32 0 01.045-.052.189.189 0 01.064-.037.41.41 0 01.1-.02 1.814 1.814 0 01.334.002.497.497 0 01.11.021.12.12 0 01.059.037.09.09 0 01.016.054v3.608zM59.221 25.983c0 .316-.04.598-.119.848-.08.25-.197.46-.353.634-.157.174-.35.307-.582.398-.23.091-.498.137-.8.137-.3 0-.56-.039-.784-.116a1.362 1.362 0 01-.557-.355 1.515 1.515 0 01-.334-.607 3.023 3.023 0 01-.112-.872c0-.308.04-.585.119-.832.08-.246.197-.456.354-.628.156-.173.35-.305.58-.398.231-.092.5-.138.805-.138.291 0 .548.038.771.114.223.077.41.195.559.354.15.159.262.36.339.602.076.243.114.529.114.859zm-.82.04c0-.2-.016-.381-.048-.545a1.168 1.168 0 00-.162-.422.773.773 0 00-.305-.27 1.055 1.055 0 00-.475-.096.98.98 0 00-.482.107.884.884 0 00-.312.287c-.079.12-.135.26-.168.42a3.006 3.006 0 00-.001 1.069 1.2 1.2 0 00.16.426.736.736 0 00.304.27c.126.061.286.092.478.092a.993.993 0 00.482-.106.861.861 0 00.312-.289 1.21 1.21 0 00.168-.425c.032-.162.049-.335.049-.517zM62.88 27.826c0 .02-.007.038-.02.053a.134.134 0 01-.063.039.625.625 0 01-.12.023c-.049.006-.111.009-.187.009a1.73 1.73 0 01-.191-.009.598.598 0 01-.12-.023.136.136 0 01-.062-.039.081.081 0 01-.019-.053v-1.54H60.66v1.54c0 .02-.006.038-.018.053a.124.124 0 01-.063.039.625.625 0 01-.119.023 1.69 1.69 0 01-.19.009c-.075 0-.138-.003-.189-.009a.635.635 0 01-.12-.023.136.136 0 01-.064-.039.081.081 0 01-.02-.053v-3.599a.08.08 0 01.02-.053.135.135 0 01.064-.038.62.62 0 01.12-.023c.05-.006.114-.01.19-.01s.14.004.19.01c.049.006.089.013.118.023.03.01.05.023.063.038a.084.084 0 01.017.053v1.4h1.439v-1.4c0-.02.006-.037.02-.053a.134.134 0 01.062-.038.584.584 0 01.119-.023c.05-.006.114-.01.191-.01.076 0 .138.004.188.01.05.006.089.013.119.023s.05.023.063.038a.08.08 0 01.02.053v3.6zM66.868 27.643c.024.071.039.127.045.168.006.042-.002.073-.024.093-.022.02-.06.034-.116.038a4.888 4.888 0 01-.465.003.589.589 0 01-.13-.017.119.119 0 01-.062-.037.2.2 0 01-.03-.062l-.258-.765h-1.444l-.244.744a.236.236 0 01-.031.07.129.129 0 01-.063.044.475.475 0 01-.122.022 2.967 2.967 0 01-.42-.003c-.052-.006-.088-.02-.107-.043-.02-.022-.027-.054-.021-.095a.96.96 0 01.044-.165l1.186-3.381a.302.302 0 01.042-.081.148.148 0 01.076-.047.6.6 0 01.144-.021 7.024 7.024 0 01.523 0c.07.003.123.01.162.02.039.012.067.028.083.05a.287.287 0 01.043.088l1.19 3.378zm-1.765-2.794H65.1l-.544 1.62h1.09l-.543-1.62zM70.393 27.832a.08.08 0 01-.018.052.133.133 0 01-.062.037.57.57 0 01-.12.022c-.05.005-.114.007-.19.007a1.99 1.99 0 01-.19-.007.565.565 0 01-.118-.023.134.134 0 01-.063-.036.08.08 0 01-.017-.052v-3.075h-.827c-.055.45-.112.843-.169 1.179a9.335 9.335 0 01-.184.862c-.066.24-.138.436-.216.59a1.235 1.235 0 01-.267.363.82.82 0 01-.339.184c-.126.034-.269.05-.43.05a.224.224 0 01-.077-.012.098.098 0 01-.052-.044.252.252 0 01-.028-.091 1.055 1.055 0 01-.009-.15c0-.084.002-.153.006-.205a.496.496 0 01.02-.12c.01-.03.024-.048.04-.058a.105.105 0 01.056-.015.44.44 0 00.177-.037.42.42 0 00.163-.145c.053-.073.103-.175.152-.307.048-.131.096-.304.142-.52.047-.214.094-.476.14-.786.047-.31.094-.677.141-1.103.012-.1.036-.17.072-.21.035-.04.088-.06.157-.06h1.888c.071 0 .126.02.165.06.038.04.058.101.058.184v3.466zM74.064 26.669c0 .18-.027.346-.082.498a.993.993 0 01-.264.395c-.122.113-.281.203-.477.27-.197.067-.465.1-.806.1h-.96a.318.318 0 01-.093-.013.19.19 0 01-.076-.044.224.224 0 01-.052-.077.282.282 0 01-.02-.11v-3.466c0-.02.007-.037.02-.052a.144.144 0 01.065-.037.6.6 0 01.122-.022c.05-.005.112-.007.186-.007.077 0 .14.002.19.007.05.005.09.012.119.022.03.01.05.022.062.037a.08.08 0 01.018.051v1.3h.538c.291 0 .523.024.695.074.173.05.319.125.439.223s.212.218.278.362c.065.143.098.306.098.489zm-.802.065a.732.732 0 00-.042-.257.487.487 0 00-.128-.19.577.577 0 00-.221-.123 1.424 1.424 0 00-.403-.043h-.452v1.21h.467c.186 0 .325-.018.417-.054a.553.553 0 00.216-.141.533.533 0 00.111-.193.676.676 0 00.034-.21zM77.604 27.826c0 .02-.007.038-.02.053a.134.134 0 01-.063.039.624.624 0 01-.12.023 1.68 1.68 0 01-.186.009 1.73 1.73 0 01-.192-.009.598.598 0 01-.119-.023.136.136 0 01-.062-.039.082.082 0 01-.02-.053v-1.54h-1.438v1.54c0 .02-.006.038-.018.053a.126.126 0 01-.062.039.624.624 0 01-.12.023c-.049.006-.112.009-.19.009-.075 0-.138-.003-.188-.009a.63.63 0 01-.12-.023.136.136 0 01-.065-.039.082.082 0 01-.019-.053v-3.599c0-.02.007-.037.02-.053a.136.136 0 01.064-.038c.03-.01.07-.018.12-.023.05-.006.113-.01.189-.01.077 0 .14.004.19.01.05.006.089.013.119.023s.05.023.062.038a.085.085 0 01.018.053v1.4h1.438v-1.4c0-.02.007-.037.02-.053a.135.135 0 01.062-.038.584.584 0 01.119-.023c.05-.006.114-.01.192-.01.075 0 .137.004.187.01.05.006.089.013.119.023s.05.023.064.038a.08.08 0 01.019.053v3.6zM81.901 25.983c0 .316-.04.598-.118.848a1.7 1.7 0 01-.354.634c-.157.174-.35.307-.581.398-.231.091-.498.137-.801.137-.3 0-.56-.039-.783-.116a1.362 1.362 0 01-.558-.355 1.515 1.515 0 01-.334-.607 3.026 3.026 0 01-.112-.872c0-.308.04-.585.12-.832.079-.246.197-.456.353-.628.156-.173.35-.305.581-.398.23-.092.499-.138.804-.138.291 0 .549.038.771.114.223.077.41.195.56.354.149.159.262.36.338.602.076.243.114.529.114.859zm-.82.04c0-.2-.016-.381-.047-.545a1.168 1.168 0 00-.162-.422.771.771 0 00-.305-.27 1.054 1.054 0 00-.476-.096.98.98 0 00-.481.107.883.883 0 00-.312.287c-.08.12-.135.26-.168.42a3.006 3.006 0 00-.001 1.069 1.2 1.2 0 00.16.426.735.735 0 00.303.27c.127.061.286.092.478.092a.993.993 0 00.482-.106.86.86 0 00.312-.289c.08-.121.135-.263.168-.425.033-.162.05-.335.05-.517zM85.688 27.832c0 .02-.006.037-.019.052a.142.142 0 01-.064.036.563.563 0 01-.12.023c-.05.005-.114.007-.189.007s-.138-.002-.189-.007a.533.533 0 01-.119-.023.13.13 0 01-.06-.036.079.079 0 01-.018-.052v-2.008a8.309 8.309 0 01.011-.422h-.006a6.148 6.148 0 01-.288.457l-1.337 1.976a.406.406 0 01-.05.056.172.172 0 01-.065.037.428.428 0 01-.098.017 2.08 2.08 0 01-.337-.003.477.477 0 01-.112-.022.104.104 0 01-.055-.038.102.102 0 01-.014-.056V24.22c0-.02.006-.037.019-.051a.144.144 0 01.065-.037c.031-.01.071-.017.12-.022a1.992 1.992 0 01.377 0c.05.005.09.012.12.022.03.01.05.022.062.037a.08.08 0 01.018.051v2.02a7.486 7.486 0 01-.012.407h.006a6.165 6.165 0 01.289-.453l1.337-1.977a.32.32 0 01.045-.051.192.192 0 01.064-.037.413.413 0 01.099-.02 1.818 1.818 0 01.334.002.497.497 0 01.112.021.12.12 0 01.058.037c.01.015.016.033.016.054v3.608zm-.454-4.733a.867.867 0 01-.057.311.668.668 0 01-.183.262.92.92 0 01-.333.181 1.645 1.645 0 01-.506.068c-.195 0-.36-.02-.497-.062a.94.94 0 01-.334-.169.633.633 0 01-.189-.26.898.898 0 01-.06-.33c0-.03.006-.054.017-.073a.118.118 0 01.055-.045.355.355 0 01.105-.025 1.608 1.608 0 01.326.001.29.29 0 01.095.027.103.103 0 01.046.045c.009.019.013.041.013.067a.314.314 0 00.112.24.514.514 0 00.314.105c.063 0 .12-.01.172-.029a.44.44 0 00.132-.074.298.298 0 00.083-.109.34.34 0 00.029-.14c0-.023.004-.044.012-.061a.095.095 0 01.046-.045.303.303 0 01.092-.026 1.807 1.807 0 01.324-.002.398.398 0 01.111.025.118.118 0 01.058.046c.011.02.017.043.017.072zM90.75 27.83c0 .02-.006.039-.018.054a.132.132 0 01-.064.037.597.597 0 01-.123.022 2.18 2.18 0 01-.2.007c-.085 0-.153-.002-.206-.007a.567.567 0 01-.126-.024.157.157 0 01-.072-.044.184.184 0 01-.035-.07l-.31-.847a1.92 1.92 0 00-.136-.311.817.817 0 00-.158-.203.5.5 0 00-.196-.11.875.875 0 00-.246-.033h-.176v1.526c0 .021-.006.04-.018.054a.14.14 0 01-.062.038.5.5 0 01-.119.024c-.05.005-.113.007-.19.007-.076 0-.138-.002-.189-.007a.505.505 0 01-.12-.024.153.153 0 01-.064-.038.08.08 0 01-.02-.055v-3.601a.08.08 0 01.02-.055.143.143 0 01.064-.036c.03-.01.07-.018.12-.023.05-.004.114-.007.189-.007.077 0 .14.003.19.008.05.004.09.012.119.022.03.01.05.022.062.036a.084.084 0 01.018.055v1.431h.175c.09 0 .168-.012.235-.035a.512.512 0 00.183-.112.792.792 0 00.149-.199c.044-.081.087-.182.129-.302l.258-.76a.268.268 0 01.036-.069.136.136 0 01.067-.044.532.532 0 01.122-.023c.05-.005.118-.008.204-.008.077 0 .14.003.191.008.05.005.09.011.12.02.028.009.047.02.057.035.01.015.015.034.015.055a.418.418 0 01-.013.094 1.463 1.463 0 01-.046.147l-.259.678a2.736 2.736 0 01-.143.32 1.304 1.304 0 01-.15.226.818.818 0 01-.36.249v.003c.078.033.15.071.215.113a.882.882 0 01.18.16c.057.066.111.145.163.24.051.093.104.21.157.347l.316.79c.031.08.05.135.056.165.006.03.009.056.009.075zM94.635 25.983c0 .316-.04.598-.12.848-.079.25-.197.46-.353.634-.157.174-.35.307-.581.398-.231.091-.498.137-.801.137-.3 0-.56-.039-.783-.116a1.362 1.362 0 01-.558-.355 1.515 1.515 0 01-.334-.607 3.026 3.026 0 01-.112-.872c0-.308.04-.585.12-.832.079-.246.196-.456.353-.628.157-.173.35-.305.581-.398.23-.092.499-.138.804-.138.291 0 .549.038.771.114.223.077.41.195.56.354.149.159.262.36.338.602.076.243.115.529.115.859zm-.82.04c0-.2-.017-.381-.049-.545a1.17 1.17 0 00-.161-.422.772.772 0 00-.305-.27 1.054 1.054 0 00-.476-.096.98.98 0 00-.481.107.883.883 0 00-.312.287c-.08.12-.136.26-.168.42a3.006 3.006 0 00-.001 1.069 1.2 1.2 0 00.16.426.735.735 0 00.303.27c.127.061.286.092.478.092a.994.994 0 00.482-.106.861.861 0 00.312-.289c.08-.121.135-.263.168-.425.033-.162.05-.335.05-.517zM97.951 27.355c0 .05-.001.09-.004.125a.615.615 0 01-.013.089.259.259 0 01-.024.063.308.308 0 01-.048.06.596.596 0 01-.126.087 1.49 1.49 0 01-.229.102 2.015 2.015 0 01-.685.113c-.264 0-.501-.04-.713-.12a1.41 1.41 0 01-.541-.361 1.605 1.605 0 01-.342-.6 2.664 2.664 0 01-.119-.836c0-.324.044-.611.13-.863.088-.251.21-.462.367-.633.156-.17.344-.3.563-.389a1.915 1.915 0 011.033-.106c.099.018.19.041.275.07.084.028.16.06.227.098.067.037.114.07.141.096a.326.326 0 01.055.066c.01.018.018.04.024.068.006.027.01.06.013.097a1.778 1.778 0 01-.001.289.39.39 0 01-.021.1.14.14 0 01-.036.056.07.07 0 01-.047.017c-.03 0-.068-.017-.114-.051a1.845 1.845 0 00-.176-.115 1.436 1.436 0 00-.259-.115 1.11 1.11 0 00-.358-.051.878.878 0 00-.409.093.875.875 0 00-.306.265 1.238 1.238 0 00-.192.416 2.132 2.132 0 00-.065.551c0 .224.023.418.07.582.046.164.113.299.2.405.085.106.19.185.311.237.122.052.26.078.412.078.138 0 .258-.017.36-.049.1-.032.187-.068.26-.107a2.18 2.18 0 00.178-.106c.046-.032.083-.047.108-.047.02 0 .036.003.048.011.012.008.022.024.03.047a.463.463 0 01.017.1c.005.041.007.097.007.168zM102.995 27.826a.09.09 0 01-.016.053.117.117 0 01-.059.038.581.581 0 01-.115.024 1.535 1.535 0 01-.181.009c-.071 0-.131-.003-.178-.009a.535.535 0 01-.113-.023.125.125 0 01-.06-.039.085.085 0 01-.018-.053v-3.1h-.006l-1.114 3.097a.143.143 0 01-.039.064.188.188 0 01-.073.04.484.484 0 01-.117.019 2.896 2.896 0 01-.345-.004.517.517 0 01-.117-.023.218.218 0 01-.073-.04.113.113 0 01-.036-.056l-1.076-3.098h-.006v3.101a.09.09 0 01-.016.053c-.011.016-.031.029-.061.038a.613.613 0 01-.115.024 1.484 1.484 0 01-.18.009c-.07 0-.13-.003-.178-.009a.578.578 0 01-.114-.023.115.115 0 01-.06-.039.09.09 0 01-.016-.053v-3.395c0-.1.027-.177.08-.23a.29.29 0 01.214-.08h.512c.09 0 .169.008.234.023a.416.416 0 01.288.21.96.96 0 01.084.206l.832 2.27h.012l.862-2.264c.026-.082.054-.152.085-.209a.467.467 0 01.107-.138.346.346 0 01.144-.076.755.755 0 01.193-.022h.526c.054 0 .1.007.138.021a.227.227 0 01.095.06.261.261 0 01.057.097.407.407 0 01.019.131v3.396zM106.113 27.629c0 .057-.002.104-.007.142a.361.361 0 01-.023.093.117.117 0 01-.037.052.08.08 0 01-.049.016h-1.932a.245.245 0 01-.165-.057c-.044-.039-.067-.1-.067-.187v-3.322c0-.087.023-.149.067-.187a.246.246 0 01.165-.058h1.92c.018 0 .034.005.048.015.014.01.026.027.036.052a.44.44 0 01.022.094c.005.038.007.087.007.146 0 .055-.002.101-.007.14a.412.412 0 01-.022.092.125.125 0 01-.036.052.077.077 0 01-.048.016h-1.373v.93h1.162c.018 0 .034.006.049.017.015.01.028.027.037.05a.34.34 0 01.023.091c.005.039.007.085.007.14 0 .057-.002.104-.007.142a.335.335 0 01-.023.09.1.1 0 01-.037.048.087.087 0 01-.049.014h-1.162v1.075h1.385c.018 0 .034.006.049.017.015.01.027.028.037.051.01.024.018.055.023.093.005.038.007.086.007.143zM109.341 24.44c0 .056-.002.105-.007.145a.386.386 0 01-.023.097.13.13 0 01-.037.055.077.077 0 01-.049.018h-.963v3.071a.08.08 0 01-.019.053.134.134 0 01-.064.038.623.623 0 01-.121.024 1.68 1.68 0 01-.188.009c-.076 0-.139-.003-.189-.009a.603.603 0 01-.12-.023.135.135 0 01-.064-.039.081.081 0 01-.02-.053v-3.071h-.963a.076.076 0 01-.05-.018.139.139 0 01-.036-.055.39.39 0 01-.022-.097 1.195 1.195 0 010-.296.398.398 0 01.022-.098.125.125 0 01.036-.053.08.08 0 01.05-.017h2.711a.08.08 0 01.049.017c.015.01.027.028.037.053.01.024.018.057.023.098.005.042.007.092.007.15zM112.925 27.832c0 .02-.006.037-.019.052a.143.143 0 01-.064.037.569.569 0 01-.12.022 2.022 2.022 0 01-.189.007c-.075 0-.138-.002-.189-.007a.545.545 0 01-.119-.023.127.127 0 01-.06-.036.08.08 0 01-.018-.052v-2.008a8.315 8.315 0 01.012-.422h-.006l-.057.096-.07.115a4.036 4.036 0 01-.162.246l-1.337 1.976a.483.483 0 01-.049.056.175.175 0 01-.066.037.415.415 0 01-.098.017 2.055 2.055 0 01-.337-.003.478.478 0 01-.112-.022.108.108 0 01-.055-.038.102.102 0 01-.014-.056v-3.605c0-.02.006-.037.019-.051a.146.146 0 01.065-.037.593.593 0 01.121-.022 1.986 1.986 0 01.377 0c.05.005.089.012.119.022.03.01.05.022.062.037a.08.08 0 01.018.051v2.02a7.093 7.093 0 01-.012.407h.006a5.17 5.17 0 01.289-.454l1.337-1.975a.327.327 0 01.045-.052.188.188 0 01.064-.037.393.393 0 01.099-.02 1.792 1.792 0 01.334.002.5.5 0 01.112.021c.028.01.047.022.058.037a.088.088 0 01.016.054v3.608zM116.611 27.83c0 .02-.006.039-.018.054a.132.132 0 01-.064.037.59.59 0 01-.123.022 2.183 2.183 0 01-.199.007c-.085 0-.154-.002-.207-.007a.574.574 0 01-.126-.024.16.16 0 01-.072-.044.197.197 0 01-.035-.07l-.309-.847a1.918 1.918 0 00-.137-.311.816.816 0 00-.158-.203.5.5 0 00-.196-.11.87.87 0 00-.246-.033h-.176v1.526c0 .021-.006.04-.018.054a.137.137 0 01-.062.038.498.498 0 01-.119.024 1.986 1.986 0 01-.19.007c-.075 0-.138-.002-.189-.007a.513.513 0 01-.12-.024.152.152 0 01-.064-.038.079.079 0 01-.019-.055v-3.601c0-.022.006-.04.019-.055a.142.142 0 01.064-.036c.03-.01.07-.018.12-.023.051-.004.114-.007.189-.007.077 0 .141.003.19.008.05.004.089.012.119.022.03.01.05.022.062.036a.083.083 0 01.018.055v1.431h.176a.706.706 0 00.234-.035.503.503 0 00.183-.112.81.81 0 00.149-.199c.044-.081.087-.182.129-.302l.259-.76a.237.237 0 01.035-.069.136.136 0 01.067-.044.544.544 0 01.122-.023 2.227 2.227 0 01.395 0c.051.005.09.011.119.02.029.009.048.02.058.035.01.015.015.034.015.055a.41.41 0 01-.013.094 1.438 1.438 0 01-.046.147l-.259.678a2.717 2.717 0 01-.143.32 1.244 1.244 0 01-.15.226.816.816 0 01-.361.249v.003c.079.033.151.071.216.113a.905.905 0 01.181.16c.057.066.11.145.162.24.052.093.104.21.158.347l.315.79c.031.08.05.135.056.165.006.03.009.056.009.075zM120.32 27.832c0 .02-.006.037-.019.052a.143.143 0 01-.064.037.569.569 0 01-.12.022 2.022 2.022 0 01-.189.007c-.075 0-.138-.002-.189-.007a.534.534 0 01-.119-.023.136.136 0 01-.061-.036.078.078 0 01-.017-.052v-2.008c0-.077 0-.152.002-.226.002-.073.005-.139.009-.196h-.006l-.056.096-.07.115a4.606 4.606 0 01-.162.246l-1.337 1.976a.483.483 0 01-.049.056.175.175 0 01-.066.037.425.425 0 01-.098.017 2.093 2.093 0 01-.337-.003.478.478 0 01-.112-.022.104.104 0 01-.055-.038.102.102 0 01-.015-.056v-3.605c0-.02.007-.037.02-.051a.14.14 0 01.065-.037.595.595 0 01.12-.022 1.97 1.97 0 01.188-.008 2 2 0 01.19.008.57.57 0 01.119.022c.029.01.05.022.062.037a.08.08 0 01.018.051v2.02a7.093 7.093 0 01-.012.407h.006a6.316 6.316 0 01.288-.453l1.338-1.976a.383.383 0 01.044-.052.198.198 0 01.064-.037.412.412 0 01.1-.02 1.8 1.8 0 01.334.002.5.5 0 01.112.021c.027.01.047.022.058.037a.088.088 0 01.016.054v3.608zM35.881 9.277c.276-.714.51-1.515.705-2.403.194-.888.291-1.621.291-2.199 0-.378-.088-.567-.265-.567-.162 0-.459.218-.89.653-.642.699-1.214 1.503-1.716 2.413a13.21 13.21 0 00-1.154 2.787 10.192 10.192 0 00-.403 2.783c0 .713.076 1.202.228 1.466.152.264.44.395.863.395.367 0 .823-.103 1.367-.31 1.229-.492 2.528-1.195 3.898-2.108.607-.392.992-.588 1.155-.588.233 0 .35.117.35.353v.021c-.036.321-.146.685-.33 1.092-.366.784-.684 1.298-.952 1.54-.453.407-1.072.807-1.86 1.199-.787.392-1.594.713-2.42.963-.826.25-1.519.375-2.076.375a4.68 4.68 0 01-3.316-1.38A4.694 4.694 0 0128 12.432c0-.492.078-1.025.233-1.6.155-.574.381-1.175.678-1.802.297-.628.632-1.217 1.006-1.766.22-.328.447-.642.684-.942a9.955 9.955 0 011.721-1.701c.339-.264.65-.489.932-.674a11.371 11.371 0 011.536-.878c.53-.25 1.02-.435 1.473-.556a4.815 4.815 0 011.24-.182c.924 0 1.648.243 2.17.728.523.485.785 1.155.785 2.011 0 .9-.22 1.84-.657 2.82a8.612 8.612 0 01-1.748 2.573c-.502.521-1 .931-1.494 1.231-.494.3-.939.45-1.334.45-.346 0-.52-.168-.52-.503 0-.157.096-.375.287-.653.268-.386.565-.956.89-1.713zM48.381 6.27c1.053 0 1.579.125 1.579.374 0 .286-.237.439-.71.46-.572.036-1.105.2-1.6.493a4.602 4.602 0 00-1.318 1.198 5.98 5.98 0 00-.9 1.712 6.214 6.214 0 00-.324 2.012c0 .778.18 1.404.54 1.878.36.474.83.712 1.41.712.536 0 1.006-.279 1.408-.835.403-.556.604-1.206.604-1.948 0-.606-.126-1.175-.376-1.706a3.584 3.584 0 00-1.097-1.343c-.204-.164-.307-.282-.307-.353 0-.1.145-.254.435-.46a5.074 5.074 0 011.09-.557c.403-.15.742-.225 1.018-.225.318 0 .62.084.906.252.286.167.538.406.757.717.219.31.386.667.503 1.07.117.403.175.833.175 1.29 0 .755-.142 1.503-.424 2.24-.282.74-.653 1.337-1.112 1.793a7.167 7.167 0 01-2.145 1.418c-.837.368-1.634.551-2.39.551a6.501 6.501 0 01-2.187-.385c-.723-.257-1.297-.595-1.72-1.017-.566-.57-.848-1.38-.848-2.429 0-.827.2-1.655.604-2.482a8.097 8.097 0 011.636-2.253 8.244 8.244 0 012.278-1.594c.83-.389 1.668-.583 2.515-.583zM56.23 17.495c.417-.022.797-.227 1.14-.616.342-.388.513-.811.513-1.268 0-.313-.102-.563-.307-.749-.219-.22-.71-.438-1.472-.652-1.123-.329-1.854-.696-2.193-1.103a1.632 1.632 0 01-.477-1.177c0-.82.295-1.64.885-2.461a7.047 7.047 0 012.261-2.017c.918-.524 1.843-.787 2.776-.787.451 0 .875.107 1.27.321.396.214.71.498.944.851.233.353.35.737.35 1.15 0 .407-.128.828-.382 1.263a3.628 3.628 0 01-.959 1.086c-.385.29-.75.434-1.096.434a.99.99 0 01-.514-.129c-.145-.085-.217-.178-.217-.278 0-.1.028-.246.085-.439.155-.613.233-1.148.233-1.605 0-.45-.135-.874-.403-1.273-.346.242-.572.435-.678.577-.268.314-.476.67-.625 1.07a3.111 3.111 0 00-.243 1.154c0 .256.058.461.175.614.117.153.308.284.572.39.265.108.666.226 1.203.354.896.222 1.528.436 1.895.643.085.05.215.154.392.31.268.293.402.671.402 1.135 0 .493-.152.99-.455 1.494-.304.503-.773 1.022-1.41 1.557-.677.578-1.352.992-2.023 1.242-.67.25-1.412.375-2.224.375-.784 0-1.4-.157-1.849-.471-.448-.314-.672-.742-.672-1.284 0-.385.148-.776.445-1.172a3.55 3.55 0 011.107-.968c.441-.25.874-.375 1.297-.375.318 0 .477.071.477.214 0 .072-.046.19-.138.353-.275.5-.413.96-.413 1.38 0 .3.11.585.329.857zM74.356 13.161l-2.892 2.996c-.375.378-.677.637-.906.776-.23.14-.482.209-.758.209-.43 0-.792-.162-1.085-.487-.294-.325-.44-.722-.44-1.193 0-.293.044-.612.132-.958.089-.346.263-.861.525-1.546.05-.143.097-.266.143-.37.046-.103.083-.19.111-.262l-.042-.042a42.685 42.685 0 00-2.013 2.3c-.551.664-.989 1.16-1.314 1.488-.324.328-.618.574-.879.738-.261.164-.494.246-.699.246-.46 0-.823-.182-1.091-.546-.269-.363-.403-.86-.403-1.487 0-.792.34-2.072 1.017-3.842.608-1.569 1.077-2.621 1.409-3.156.487-.742 1.044-1.113 1.673-1.113.38 0 .697.09.947.272a.84.84 0 01.376.712c0 .535-.2 1.351-.601 2.449a25.21 25.21 0 00-.475 1.38l.042.042c.261-.292.681-.795 1.26-1.508.995-1.24 1.746-2.085 2.255-2.534.657-.614 1.258-.92 1.802-.92.24 0 .47.082.688.246.22.164.394.384.525.658.13.275.196.562.196.862 0 .307-.218 1.092-.655 2.355-.091.264-.161.471-.21.621-.05.15-.096.278-.138.385l.053.043.264-.267c.078-.079.164-.163.26-.252.094-.09.184-.173.27-.252.19-.186.669-.674 1.438-1.467.507-.57.906-.962 1.195-1.172.29-.21.569-.316.837-.316.438 0 .772.152 1.001.455.23.303.344.75.344 1.343 0 .364-.056.938-.169 1.723-.1.885-.168 1.578-.207 2.081-.038.503-.058.855-.058 1.054a8.947 8.947 0 00.116 1.316c.043.264.1.557.17.878.085.392.141.699.17.92-.057.257-.243.474-.557.653a2.038 2.038 0 01-1.022.267c-.58 0-1.123-.264-1.631-.791a3.179 3.179 0 01-.525-.733 2.97 2.97 0 01-.264-.878 9.056 9.056 0 01-.08-1.343c0-.364.043-1.116.127-2.258l-.042-.043-.19.268zM86.59 6.27c1.053 0 1.579.125 1.579.374 0 .286-.237.439-.71.46a3.53 3.53 0 00-1.6.493 4.604 4.604 0 00-1.318 1.198 5.982 5.982 0 00-.9 1.712 6.217 6.217 0 00-.324 2.012c0 .778.18 1.404.54 1.878.36.474.83.712 1.41.712.536 0 1.006-.279 1.408-.835.403-.556.604-1.206.604-1.948 0-.606-.125-1.175-.376-1.706a3.583 3.583 0 00-1.096-1.343c-.205-.164-.307-.282-.307-.353 0-.1.144-.254.434-.46a5.069 5.069 0 011.091-.557c.402-.15.741-.225 1.017-.225.318 0 .62.084.906.252.286.167.538.406.757.717.219.31.387.667.503 1.07.117.403.175.833.175 1.29 0 .755-.141 1.503-.424 2.24-.282.74-.653 1.337-1.112 1.793a7.164 7.164 0 01-2.145 1.418c-.837.368-1.633.551-2.389.551a6.501 6.501 0 01-2.187-.385c-.725-.257-1.298-.595-1.722-1.017-.565-.57-.847-1.38-.847-2.429 0-.827.2-1.655.603-2.482a8.095 8.095 0 011.637-2.253 8.243 8.243 0 012.278-1.594c.83-.389 1.668-.583 2.516-.583zM98.349 14.103l-.286.213a1.1 1.1 0 01-.1.086c-.047.036-.105.082-.175.14-1.222.963-2.181 1.64-2.877 2.033-.695.392-1.3.588-1.816.588-.572 0-1.033-.21-1.383-.631-.35-.421-.524-.985-.524-1.691 0-.877.245-1.785.736-2.723a10.22 10.22 0 011.944-2.585 10.353 10.353 0 012.648-1.888c.96-.475 1.89-.712 2.786-.712.883 0 1.556.153 2.018.46.463.307.694.767.694 1.38 0 .514-.201 1.15-.604 1.905.29.022.502.113.636.273.134.16.201.412.201.755 0 .556-.113 1.332-.339 2.327a19.873 19.873 0 01-.826 2.756 8.197 8.197 0 01-1.695 2.771c-.558.592-1.25 1.1-2.076 1.525-.827.424-1.536.637-2.13.637-.494 0-.935-.2-1.324-.6-.388-.4-.582-.849-.582-1.348 0-.335.084-.683.254-1.043.17-.36.388-.669.657-.926.55-.563 1.36-1.098 2.426-1.605.197-.1.35-.15.455-.15.043 0 .081.018.117.054a.165.165 0 01.053.117c0 .05-.043.147-.127.29-.212.363-.4.829-.562 1.396-.162.567-.243 1.057-.243 1.471 0 .485.074.728.222.728.078 0 .175-.088.291-.262a3.47 3.47 0 00.313-.594c.6-1.541.984-2.968 1.152-4.281.022-.193.044-.481.066-.866zm.54-2.28v.043l-.042-.043a.542.542 0 01-.17.022 4.948 4.948 0 01-.508.021c-.36 0-.54-.068-.54-.203 0-.071.045-.157.137-.257.269-.307.5-.71.694-1.21.194-.499.302-.952.323-1.358a1.496 1.496 0 01.037-.343.344.344 0 00.006-.053c0-.1-.067-.15-.201-.15-.276 0-.7.3-1.272.899-.36.385-.699.842-1.017 1.37a7.981 7.981 0 00-.741 1.583c-.177.528-.265 1.003-.265 1.424 0 .413.102.62.307.62.198 0 .696-.335 1.494-1.006.36-.314.946-.766 1.758-1.359zM104.767 17.142c-.318-.022-.607-.168-.868-.439a2.544 2.544 0 01-.555-.926c-.11-.331-.164-.761-.164-1.29 0-1.176.217-2.505.651-3.985.434-1.48.927-2.552 1.478-3.216.219-.278.522-.417.911-.417.409 0 .739.189.99.567.25.378.376.874.376 1.487 0 .906-.13 1.967-.388 3.183a29.785 29.785 0 01-1.088 3.794c-.183.528-.409.885-.677 1.07a1.193 1.193 0 01-.645.172h-.021zm1.273-10.755c-.664-.021-.996-.424-.996-1.209 0-.392.097-.847.291-1.364.195-.517.415-.9.663-1.15a1.2 1.2 0 01.386-.29c.131-.056.298-.085.503-.085.353 0 .613.087.779.262.166.175.249.466.249.872a4 4 0 01-.26 1.44c-.173.453-.404.82-.693 1.102-.29.282-.587.422-.89.422h-.032zM115.701 7.243l.106-.438c.218-.978.416-1.768.593-2.37.176-.603.358-1.113.545-1.53.187-.418.373-.72.557-.905.296-.321.829-.482 1.599-.482.339 0 .592.018.758.054.165.036.298.1.397.193-.339 1.063-.574 1.86-.705 2.391-.13.532-.273 1.261-.429 2.189-.24 1.512-.36 2.878-.36 4.098 0 .806.065 1.643.196 2.51.131.866.344 1.831.641 2.894-.374.264-.733.489-1.075.674a6.692 6.692 0 01-.975.439c-.307.107-.577.16-.81.16-.41 0-.699-.203-.869-.61a4.66 4.66 0 01-.275-.808c-.042-.203-.117-.768-.223-1.696-.946 1-1.852 1.786-2.717 2.36-.865.574-1.555.861-2.071.861-.593 0-1.079-.244-1.456-.733-.378-.488-.567-1.118-.567-1.889 0-.691.146-1.46.44-2.306.293-.845.697-1.663 1.213-2.455.339-.52.686-.962 1.043-1.322a8.13 8.13 0 011.213-1c.819-.542 1.504-.814 2.055-.814.268 0 .66.179 1.176.535zm-.329 5.083v-.62c-.36.32-.628.481-.805.481-.099 0-.148-.05-.148-.15 0-.043.021-.132.064-.267.148-.428.222-.842.222-1.242 0-.577-.124-1.177-.371-1.797-.106-.321-.236-.482-.392-.482a.222.222 0 00-.19.107c-.233.271-.456.655-.668 1.15a9.95 9.95 0 00-.524 1.616 6.79 6.79 0 00-.207 1.547c0 .849.255 1.273.763 1.273.254 0 .595-.152 1.022-.455.428-.303.839-.69 1.234-1.16z" fill="#fff"/><path d="M22.169 18.78c.55.127.334-.474.282-1.007-.052-.533-.334-1.276.032-1.09.367.187.978 1.066.89.484-.087-.582-.851-1.616-1.074-2.175-.223-.559-.022-.44.46-.149.482.29.105-.992-.377-2.158-.481-1.167-1.855-1.635-1.855-1.635 1.365-.058 2.284-1.802 2.236-2.947-.047-1.145 1.415-4.471 1.952-6.01.016-.047.03-.09.041-.134l.009-.04a1.452 1.452 0 00.023-.13 1.43 1.43 0 00.009-.073v-.044a.55.55 0 00-.002-.065c0-.014-.003-.028-.004-.041a.478.478 0 00-.02-.098.634.634 0 00-.033-.087c-.007-.016-.017-.031-.026-.046a.384.384 0 00-.02-.032c-.01-.015-.022-.028-.035-.042l-.024-.027a.446.446 0 00-.046-.038c-.008-.007-.016-.014-.026-.02a.688.688 0 00-.078-.047l-.033-.014a.96.96 0 00-.068-.028l-.05-.013a.604.604 0 00-.059-.016l-.058-.01c-.02-.004-.041-.008-.063-.01l-.066-.006c-.022-.001-.043-.003-.065-.003a1.31 1.31 0 00-.075-.001h-.069l-.083.005-.072.007c-.03.002-.059.005-.09.01-.024.002-.05.006-.074.01-.033.005-.065.01-.1.017-.024.003-.049.008-.073.014l-.111.022-.066.017a5.75 5.75 0 00-.493.142l-.041.014c-.05.016-.101.035-.152.054l-.074.026-.15.058a4.138 4.138 0 00-.086.034l-.153.064c-.031.013-.062.025-.093.04a8.908 8.908 0 00-.255.114c-.054.025-.109.05-.164.077l-.099.048-.173.085-.098.05-.184.096-.09.048-.201.11-.058.033c-.385.215-.793.46-1.223.739-3.095 2.003-5.652 5.44-6.437 6.557a.772.772 0 00-.072-.292.823.823 0 00-.077-.115c.132-.12.233-.444.176-.58-.049-.117-.227-.295-.332-.31a.332.332 0 00-.128-.052c.098-.31.043-.334-.044-.007a1.914 1.914 0 00-.13-.014.603.603 0 00-.104.001c-.093-.344-.15-.324-.047.006-.127.023-.184.085-.184.085a.72.72 0 00-.272.29c-.057.136.042.46.174.58a.783.783 0 00-.076.115.769.769 0 00-.074.29c-.782-1.118-3.331-4.56-6.42-6.571-.426-.277-.83-.521-1.21-.735l-.071-.041a19.09 19.09 0 00-.291-.158l-.177-.093-.105-.053a11.952 11.952 0 00-.431-.21l-.102-.048-.154-.068-.097-.042-.149-.062-.09-.036c-.05-.02-.098-.039-.146-.056l-.081-.03-.144-.052-.055-.017a5.763 5.763 0 00-.477-.14c-.023-.005-.047-.012-.07-.016-.037-.009-.073-.016-.109-.023L1.34 1.05a2.493 2.493 0 00-.174-.027l-.09-.01-.072-.007A4.458 4.458 0 00.853 1H.778l-.065.004c-.022.002-.045.003-.067.006a1.025 1.025 0 00-.12.019l-.06.016c-.016.004-.034.008-.05.014a.81.81 0 00-.065.026c-.013.006-.027.011-.04.018a.567.567 0 00-.073.043l-.028.022a.614.614 0 00-.045.037l-.025.028a.37.37 0 00-.034.04c-.008.01-.014.022-.02.032a.524.524 0 00-.06.134l-.01.04a.87.87 0 00-.014.099C0 1.598 0 1.621 0 1.642v.045l.008.072.006.045c.004.028.01.057.017.086l.01.04c.01.043.024.087.04.134.534 1.54 1.987 4.869 1.938 6.014-.05 1.145.864 2.891 2.229 2.953 0 0-1.375.465-1.859 1.63-.485 1.165-.864 2.447-.382 2.157.482-.29.684-.407.46.15-.225.56-.992 1.591-1.08 2.173-.09.581.525-.297.892-.481.366-.186.082.556.028 1.09-.052.531-.27 1.133.281 1.008.55-.125.496.101.396.903-.1.804-.52 2.702.2 2.246.72-.456.373-1.323 1.218-1.23a1.266 1.266 0 01.096.013l.08.013h.005c.214.037.493.094.804.141l.032.006.082.011.044.007.135.017.058.007.073.007.064.006.07.006.091.006.09.005.08.003.065.002h.142c.043 0 .086-.002.13-.004l.054-.003.09-.007.055-.005.124-.015.039-.006c.037-.005.074-.012.11-.02.017-.002.033-.006.05-.01.033-.006.065-.014.098-.023l.032-.007a.106.106 0 01.016-.004l.016-.005c.031-.01.063-.018.094-.029.004 0 .008-.002.013-.004l.029-.01.066-.024.004-.001a.54.54 0 00.039-.017 1.86 1.86 0 00.557-.347 1.675 1.675 0 00.208-.228c.01-.013.02-.025.028-.038.031-.041.061-.084.09-.13l.001-.003c.028-.046.055-.096.081-.146l.023-.047a3.26 3.26 0 00.053-.12l.021-.05c.022-.057.043-.116.063-.178.68-2.2.807-5.501 1.865-6.926.83-1.118 1.303-1.375 1.469-1.434.023.158.044.308.06.44.082.712-.231 1.258-.107 2.019.124.762.5.73.5.73s.375.032.502-.729c.126-.76-.186-1.307-.102-2.019.015-.132.037-.282.06-.44.165.06.637.317 1.466 1.438 1.054 1.427 1.172 4.728 1.848 6.93.02.063.04.121.063.178l.02.05c.017.042.035.082.054.12l.022.047c.026.05.053.1.081.146L16.4 20c.028.045.058.088.088.13l.029.038c.023.03.047.059.072.087l.03.034a1.827 1.827 0 00.339.287l.036.023c.04.026.08.049.123.071.034.018.07.035.106.05l.001.002a.238.238 0 00.023.01l.032.012c.017.008.033.015.05.021l.035.013.025.009.027.01.02.006.054.017.056.016.011.004a2.968 2.968 0 00.604.095l.044.002c.046.002.091.004.137.004H18.537l.108-.005.034-.001c.045-.002.09-.005.134-.009l.05-.004.094-.01.046-.003.129-.015.037-.005.097-.013.048-.007.095-.014a5.333 5.333 0 00.152-.024l.04-.008.087-.015.035-.007.249-.045.063-.011.04-.007.087-.015.024-.004.063-.01c.009 0 .017-.002.024-.003l.076-.01c.846-.092.497.775 1.216 1.234.719.457.304-1.443.205-2.246-.098-.803-.151-1.03.399-.903z" fill="#08B0CF"/><path d="M19.423 16.735c.396.09.24-.342.203-.725-.037-.383-.24-.917.023-.783.264.134.704.766.64.348-.062-.419-.612-1.162-.772-1.564-.16-.402-.016-.317.33-.107.347.209.076-.713-.27-1.552-.347-.839-1.335-1.175-1.335-1.175.982-.042 1.643-1.296 1.609-2.12-.034-.823 1.017-3.214 1.403-4.32.012-.034.021-.066.03-.097l.006-.028a1.033 1.033 0 00.017-.094l.006-.053v-.031l-.001-.047-.003-.03a.338.338 0 00-.015-.07.418.418 0 00-.012-.037l-.011-.025-.019-.034a.27.27 0 00-.014-.022l-.025-.03-.018-.02a.325.325 0 00-.033-.027l-.019-.015a.484.484 0 00-.056-.033l-.024-.01a.672.672 0 00-.049-.02c-.01-.004-.023-.007-.035-.01-.014-.004-.028-.009-.043-.012l-.042-.007-.044-.007-.048-.004c-.016 0-.031-.002-.047-.003a.903.903 0 00-.054 0h-.05l-.059.003-.051.005a1.579 1.579 0 00-.065.007l-.054.008-.071.012a1.076 1.076 0 00-.053.01l-.08.016-.047.012c-.111.027-.229.06-.355.103l-.03.01c-.035.011-.072.025-.109.038l-.053.019-.108.042a3.12 3.12 0 00-.061.024l-.11.046-.067.028a6.37 6.37 0 00-.183.082l-.119.056-.07.034c-.042.02-.083.04-.125.062l-.07.036a5.334 5.334 0 00-.133.069l-.064.034-.145.08-.042.023a16 16 0 00-.88.531c-2.224 1.44-4.063 3.911-4.627 4.715a.556.556 0 00-.053-.21.587.587 0 00-.054-.083c.094-.086.167-.319.126-.417-.035-.084-.163-.212-.24-.223a.238.238 0 00-.09-.037c.07-.223.03-.24-.033-.005a1.353 1.353 0 00-.093-.01.436.436 0 00-.075 0c-.066-.247-.107-.232-.034.005-.091.016-.131.061-.131.061a.517.517 0 00-.196.208c-.041.098.03.332.125.418a.572.572 0 00-.055.082.554.554 0 00-.053.21c-.562-.805-2.395-3.28-4.616-4.726-.306-.2-.596-.375-.87-.529l-.051-.029a13.787 13.787 0 00-.21-.114l-.127-.066-.075-.039-.12-.06-.075-.036a6.186 6.186 0 00-.115-.055c-.025-.01-.05-.023-.073-.034l-.11-.048-.07-.03-.107-.045-.066-.027-.104-.04-.059-.021-.104-.038-.039-.012a4.135 4.135 0 00-.343-.1c-.016-.004-.033-.009-.05-.012l-.078-.017-.055-.01a1.748 1.748 0 00-.124-.02l-.065-.007-.052-.005a3.263 3.263 0 00-.162-.003l-.047.002-.048.004a.716.716 0 00-.087.014l-.042.011-.036.01-.047.019-.029.013a.41.41 0 00-.053.03l-.02.017a.447.447 0 00-.032.026l-.018.02a.274.274 0 00-.025.03l-.014.022a.365.365 0 00-.043.096l-.007.029a.588.588 0 00-.01.071l-.002.046a.847.847 0 00.006.085l.004.032a1 1 0 00.013.062l.007.028c.008.031.017.063.029.097.383 1.107 1.428 3.5 1.393 4.324-.036.823.621 2.079 1.603 2.123 0 0-.99.334-1.337 1.172-.349.838-.621 1.76-.275 1.55.347-.208.492-.292.33.11-.16.4-.712 1.143-.775 1.56-.064.419.377-.212.64-.345.264-.134.06.4.021.783-.037.383-.193.815.202.726.396-.09.357.072.285.65-.072.577-.374 1.942.144 1.614.517-.328.268-.952.876-.884a.997.997 0 01.056.007l.013.002.057.009h.004c.153.026.354.068.577.101l.024.005.059.008.032.004c.031.005.064.009.096.012l.042.006.052.005.046.004.051.005.065.004c.022.002.043.003.065.003l.058.002.047.002h.101l.094-.003.038-.002.065-.005.04-.003c.03-.004.06-.007.089-.012a.685.685 0 00.028-.004l.079-.014.036-.007c.024-.005.047-.01.07-.017l.024-.005a.512.512 0 00.023-.007c.022-.006.045-.012.067-.02l.01-.003.02-.007.048-.017.003-.002a.382.382 0 00.028-.011 1.33 1.33 0 00.4-.25 1.21 1.21 0 00.15-.164c.006-.01.014-.018.02-.027.022-.03.044-.061.064-.094l.001-.002c.02-.033.04-.069.059-.105l.016-.034c.013-.028.026-.056.038-.086l.015-.036c.016-.04.032-.083.045-.128.49-1.582.58-3.955 1.342-4.98.597-.803.937-.988 1.055-1.03.017.113.032.22.043.316.06.512-.165.904-.076 1.451.089.548.36.525.36.525s.269.024.36-.523c.09-.548-.133-.94-.073-1.452.011-.096.027-.203.043-.317.119.043.458.228 1.054 1.034.758 1.026.843 3.4 1.33 4.983a2.175 2.175 0 00.097.25l.016.034c.019.036.038.072.058.105l.002.002c.02.033.041.064.063.094l.02.027.053.063.021.025a1.312 1.312 0 00.244.206l.026.016c.029.019.058.035.088.051.025.013.05.026.076.037h.001l.017.007.023.01.036.015.025.01.018.005.02.007.014.005a.94.94 0 00.039.012l.04.012.008.002a.592.592 0 00.36.062l.074.006.032.002c.033.002.065.003.098.003h.141l.077-.003.025-.001.096-.007.036-.003.067-.006.034-.003.092-.011.027-.003.07-.01.034-.005.068-.01a4.511 4.511 0 00.11-.017l.028-.006.063-.01a.358.358 0 00.025-.005l.18-.033.045-.008a.848.848 0 01.028-.005l.062-.01.018-.004.046-.007.017-.002.054-.007c.608-.066.358.557.875.887.516.33.218-1.037.147-1.615-.07-.577-.11-.74.286-.65z" fill="#92348F"/><path d="M12.94 8.376c.308-.107.434-.547.283-.984-.151-.437-.523-.705-.83-.598-.308.106-.435.547-.283.984.151.437.523.704.83.598z" stroke="#fff" stroke-width="2" stroke-miterlimit="10"/><path d="M7.807 5.45s1.218.393 2.328 1.32c1.11.926 1.693 1.779 2.531 1.9.838.123 1.163-.879 1.853-1.704.69-.826 1.597-1.516 1.597-1.516s-1.137 1.597-1.732 2.49c-.595.893-.257 1.259-.122 1.516.135.257-.108.65-.365 1.123s-.284.812-.244 1.53c.04.716.147 1.813-.366 2.394-.514.582-.892 1.097-.974 1.787-.08.69-.08 4.641-.203 4.641-.121 0-.622-3.329-.744-4.479s-.785-3.194-.067-4.182c.717-.987 1.177-1.19 1.082-2.002-.095-.812-.622-1.178-1.515-2.098-.894-.92-3.059-2.72-3.059-2.72z" stroke="#fff" stroke-width="2" stroke-miterlimit="10"/><path d="M12.94 8.376c.308-.106.434-.547.283-.984-.151-.437-.523-.705-.83-.598-.308.106-.435.547-.283.984.151.437.523.705.83.598z" fill="#ED4993"/><path d="M7.807 5.45s1.218.393 2.328 1.32c1.11.926 1.693 1.779 2.531 1.9.838.123 1.163-.879 1.853-1.704.69-.826 1.597-1.516 1.597-1.516s-1.137 1.597-1.732 2.49c-.595.893-.257 1.259-.122 1.516.135.257-.108.65-.365 1.123s-.284.812-.244 1.53c.04.716.147 1.813-.366 2.394-.514.582-.892 1.097-.974 1.787-.08.69-.08 4.641-.203 4.641-.121 0-.622-3.329-.744-4.479s-.785-3.194-.067-4.182c.717-.987 1.177-1.19 1.082-2.002-.095-.812-.622-1.178-1.515-2.098-.894-.92-3.059-2.72-3.059-2.72z" fill="#ED4993"/></svg>