<svg width="259" height="72" viewBox="0 0 259 72" fill="none" xmlns="http://www.w3.org/2000/svg">
<path d="M25.3059 1.63346L26.3169 0C39.711 7.916 44.1336 24.7532 44.6392 27.5175C40.7979 12.54 30.1497 4.02085 25.3059 1.63346Z" fill="#C4C4C4"/>
<path d="M25.3059 1.63346L26.3169 0C39.711 7.916 44.1336 24.7532 44.6392 27.5175C40.7979 12.54 30.1497 4.02085 25.3059 1.63346Z" fill="url(#paint0_linear_3014_13890)"/>
<path d="M65.7015 1.63346L64.6905 0C51.2964 7.916 46.8738 24.7532 46.3682 27.5175C50.2095 12.54 60.8577 4.02085 65.7015 1.63346Z" fill="#C4C4C4"/>
<path d="M65.7015 1.63346L64.6905 0C51.2964 7.916 46.8738 24.7532 46.3682 27.5175C50.2095 12.54 60.8577 4.02085 65.7015 1.63346Z" fill="url(#paint1_linear_3014_13890)"/>
<path d="M29.5584 47.9723C40.3355 47.9723 39.8953 55.3831 39.3182 59.458C36.2531 63.1186 28.2595 70.5908 20.246 71.9756C19.81 72.0508 19.362 71.9556 19.0123 71.6857C16.6239 69.8434 12.7354 64.8939 12.7354 56.7839C12.7354 51.7673 16.187 47.2393 17.9128 45.6025C21.4863 47.1278 25.4231 47.9723 29.5584 47.9723Z" fill="url(#paint2_linear_3014_13890)"/>
<g style="mix-blend-mode:lighten">
<path style="mix-blend-mode:lighten" d="M12.7354 56.7839C12.7354 51.7673 16.187 47.2393 17.9128 45.6025C20.2148 46.585 22.6678 47.2851 25.2275 47.6589C24.9131 48.789 24.3158 52.1957 24.4415 56.7839C24.5675 61.3718 27.7425 66.2859 29.3143 68.1696C26.488 69.9719 23.3687 71.436 20.246 71.9756C19.81 72.0508 19.362 71.9556 19.0123 71.6857C16.6239 69.8434 12.7354 64.8939 12.7354 56.7839Z" fill="url(#paint3_linear_3014_13890)"/>
</g>
<g style="mix-blend-mode:luminosity">
<g style="mix-blend-mode:luminosity">
<path d="M29.5585 47.9723C40.3355 47.9723 39.8954 55.3831 39.3183 59.458C39.0042 56.7216 36.4438 51.4715 28.7135 52.3637C20.983 53.2562 16.3285 50.7699 14.9675 49.4151C15.981 47.6953 17.1262 46.3487 17.9129 45.6025C21.4864 47.1278 25.4232 47.9723 29.5585 47.9723Z" fill="#313131" fill-opacity="0.2"/>
</g>
</g>
<path d="M44.5331 47.9714C44.5671 47.521 44.5728 46.9642 44.5678 46.4681C44.5589 45.6264 44.5391 44.7815 44.5145 43.9397C43.8413 20.7675 24.7455 2.18848 1.28696 2.18848C0.576218 2.18848 0 2.76168 0 3.46876V18.5695C0 30.6945 7.37834 41.1052 17.9128 45.6013C21.4864 47.1268 25.4231 47.9714 29.5581 47.9714C40.3355 47.9714 39.8953 55.3822 39.3182 59.457C43.4749 56.3286 44.1617 52.8792 44.5331 47.9714Z" fill="url(#paint4_linear_3014_13890)"/>
<g style="mix-blend-mode:lighten">
<path style="mix-blend-mode:lighten" d="M0.0229525 3.22736C0.136369 2.63567 0.65903 2.18848 1.28691 2.18848C22.5341 2.18848 40.2025 17.43 43.845 37.5211C36.4547 35.303 19.9971 29.6625 13.2873 24.8446C6.67449 20.0966 1.7768 8.91664 0.0730435 3.69511C0.0229514 3.54212 -0.00760681 3.38537 0.0229525 3.22736Z" fill="url(#paint5_linear_3014_13890)"/>
</g>
<path d="M61.379 47.9723C50.602 47.9723 51.0418 55.3831 51.6193 59.458C54.6843 63.1186 62.6779 70.5908 70.6914 71.9756C71.1274 72.0508 71.5754 71.9556 71.9251 71.6857C74.3135 69.8434 78.2021 64.8939 78.2021 56.7839C78.2021 51.7673 74.7505 47.2393 73.0246 45.6025C69.4511 47.1278 65.5143 47.9723 61.379 47.9723Z" fill="url(#paint6_linear_3014_13890)"/>
<g style="mix-blend-mode:lighten">
<path style="mix-blend-mode:lighten" d="M78.2022 56.7839C78.2022 51.7673 74.7506 47.2393 73.0248 45.6025C70.7227 46.585 68.2695 47.2851 65.7101 47.6589C66.0245 48.789 66.6218 52.1957 66.4958 56.7839C66.3701 61.3718 63.195 66.2859 61.6233 68.1696C64.4492 69.9719 67.5688 71.436 70.6915 71.9756C71.1276 72.0508 71.5756 71.9556 71.9253 71.6857C74.3136 69.8434 78.2022 64.8939 78.2022 56.7839Z" fill="url(#paint7_linear_3014_13890)"/>
</g>
<g style="mix-blend-mode:luminosity">
<g style="mix-blend-mode:luminosity">
<path d="M61.3795 47.9723C50.6025 47.9723 51.0423 55.3831 51.6197 59.458C51.9335 56.7216 54.4939 51.4715 62.2245 52.3637C69.9547 53.2562 74.6092 50.7699 75.9702 49.4151C74.9567 47.6953 73.8115 46.3487 73.0251 45.6025C69.4513 47.1278 65.5145 47.9723 61.3795 47.9723Z" fill="#313131" fill-opacity="0.2"/>
</g>
</g>
<path d="M46.4044 47.9714C46.3704 47.521 46.3647 46.9642 46.3698 46.4681C46.3783 45.6264 46.3984 44.7815 46.423 43.9397C47.0963 20.7675 66.192 2.18848 89.6506 2.18848C90.3613 2.18848 90.9375 2.76168 90.9375 3.46876V18.5695C90.9375 30.6945 83.5592 41.1052 73.0247 45.6013C69.4512 47.1268 65.5144 47.9714 61.3791 47.9714C50.6021 47.9714 51.0422 55.3822 51.6193 59.457C47.4626 56.3286 46.7759 52.8792 46.4044 47.9714Z" fill="url(#paint8_linear_3014_13890)"/>
<g style="mix-blend-mode:lighten">
<path style="mix-blend-mode:lighten" d="M90.9146 3.22736C90.8012 2.63567 90.2782 2.18848 89.6506 2.18848C68.4034 2.18848 50.7351 17.43 47.0925 37.5211C54.4828 35.303 70.9405 29.6625 77.6503 24.8446C84.2631 20.0966 89.1607 8.91664 90.8645 3.69511C90.9143 3.54212 90.9451 3.38537 90.9146 3.22736Z" fill="url(#paint9_linear_3014_13890)"/>
</g>
<path d="M146.532 44.3105L146.281 44.7859C145.765 45.8125 145.075 46.6355 144.209 47.2544C143.359 47.8583 142.434 48.251 141.432 48.4321C141.159 49.2021 140.802 49.9191 140.362 50.5834C139.937 51.2328 139.443 51.799 138.882 52.282C138.335 52.7652 137.713 53.1425 137.015 53.4142C136.332 53.6862 135.588 53.8219 134.784 53.8219C133.615 53.8219 132.56 53.5803 131.619 53.0974C130.693 52.5991 129.904 51.9347 129.251 51.1043C128.599 50.2588 128.098 49.2776 127.749 48.1604C127.4 47.0281 127.225 45.8201 127.225 44.5368C127.225 43.4196 127.354 42.408 127.612 41.5023C127.87 40.5813 128.197 39.7659 128.591 39.0564C128.986 38.3319 129.426 37.7051 129.912 37.1767C130.397 36.6333 130.876 36.1877 131.346 35.8405C131.817 35.4933 132.242 35.2366 132.621 35.0705C133.016 34.8894 133.311 34.7988 133.509 34.7988L133.805 35.5914C133.183 36.0445 132.628 36.6785 132.143 37.4939C131.718 38.1883 131.331 39.1094 130.982 40.2566C130.648 41.4042 130.481 42.8307 130.481 44.5368C130.481 45.5788 130.58 46.59 130.777 47.5715C130.974 48.5527 131.262 49.4211 131.642 50.176C132.021 50.9307 132.484 51.5345 133.031 51.9877C133.592 52.4405 134.222 52.6671 134.92 52.6671C135.877 52.6671 136.666 52.2895 137.288 51.5345C137.926 50.7646 138.396 49.7154 138.7 48.387C137.91 48.2209 137.159 47.9113 136.446 47.4584C135.733 47.0053 135.102 46.4468 134.556 45.7825C134.01 45.1031 133.569 44.3256 133.236 43.45C132.917 42.5741 132.758 41.623 132.758 40.5963C132.758 39.7509 132.864 39.0113 133.076 38.377C133.304 37.7277 133.6 37.1918 133.964 36.769C134.328 36.3312 134.746 36.0066 135.217 35.7954C135.702 35.5688 136.21 35.4557 136.742 35.4557C137.364 35.4557 138.002 35.6368 138.654 35.9991C139.307 36.3463 139.899 36.8746 140.43 37.5845C140.961 38.2789 141.394 39.1545 141.728 40.2115C142.061 41.2682 142.228 42.4986 142.228 43.9028C142.228 44.4312 142.198 44.952 142.137 45.4653C142.077 45.9786 141.986 46.4769 141.864 46.9601C142.593 46.7486 143.253 46.4089 143.845 45.941C144.452 45.4728 144.953 44.8539 145.348 44.0839L145.598 43.6082L146.532 44.3105ZM134.26 40.4152C134.26 41.3058 134.382 42.1288 134.625 42.8837C134.883 43.6236 135.224 44.2801 135.649 44.8539C136.074 45.4127 136.567 45.8805 137.129 46.2582C137.69 46.6355 138.29 46.8997 138.927 47.0507C139.003 46.628 139.049 46.1902 139.064 45.737C139.094 45.2691 139.11 44.7934 139.11 44.3105C139.11 43.2384 139.026 42.2723 138.859 41.4118C138.692 40.5359 138.472 39.7963 138.199 39.1924C137.926 38.5732 137.607 38.0978 137.243 37.7656C136.878 37.4334 136.507 37.2673 136.127 37.2673C135.611 37.2673 135.171 37.5465 134.807 38.1053C134.442 38.6487 134.26 39.4187 134.26 40.4152Z" fill="url(#paint10_linear_3014_13890)"/>
<path d="M158.917 45.9416C158.917 46.9682 158.757 47.9569 158.439 48.9083C158.135 49.8444 157.68 50.6821 157.073 51.4219C156.481 52.1468 155.737 52.7278 154.842 53.1659C153.961 53.6037 152.952 53.8224 151.813 53.8224C150.994 53.8224 150.258 53.6943 149.605 53.4376C148.968 53.1659 148.421 52.8108 147.966 52.3731C147.51 51.9202 147.161 51.4144 146.919 50.8557C146.676 50.2822 146.554 49.6933 146.554 49.0895C146.554 48.4856 146.668 47.9268 146.896 47.4135C147.139 46.8851 147.457 46.4398 147.852 46.0773C148.262 45.6999 148.725 45.4057 149.241 45.1942C149.757 44.9829 150.303 44.877 150.88 44.877C151.244 44.877 151.624 44.9225 152.018 45.013V45.6699C151.533 45.6699 151.054 45.768 150.584 45.9641C150.129 46.1603 149.719 46.4323 149.355 46.7795C149.005 47.1117 148.725 47.5191 148.512 48.0023C148.3 48.4702 148.193 48.976 148.193 49.5197C148.193 50.516 148.535 51.3163 149.218 51.9202C149.916 52.5091 150.865 52.8033 152.064 52.8033C152.671 52.8033 153.225 52.6902 153.726 52.4636C154.227 52.2223 154.652 51.8977 155.001 51.4899C155.365 51.0672 155.638 50.5689 155.82 49.9951C156.018 49.4216 156.116 48.7949 156.116 48.1155C156.116 47.4665 155.987 46.8626 155.729 46.3038C155.471 45.7454 155.13 45.2167 154.705 44.7184C154.28 44.2205 153.794 43.7523 153.248 43.3145C152.717 42.8767 152.17 42.4615 151.609 42.0688C151.062 41.6614 150.523 41.2688 149.992 40.8915C149.461 40.5138 148.998 40.1365 148.603 39.7589L146.327 44.7864L145.393 44.0845L147.715 39.0344C147.154 38.506 146.736 38.0077 146.463 37.5395C146.205 37.0566 146.076 36.4828 146.076 35.8185C146.076 35.4562 146.137 35.1165 146.258 34.7994C146.395 34.4672 146.569 34.188 146.782 33.9614C147.01 33.7198 147.268 33.5311 147.556 33.3954C147.844 33.2594 148.148 33.1914 148.467 33.1914C149.043 33.1914 149.476 33.3575 149.764 33.6897C150.053 34.0068 150.197 34.407 150.197 34.8899C150.197 35.1165 150.174 35.3581 150.129 35.6148C150.083 35.8564 150.022 36.1052 149.946 36.3619C149.886 36.6035 149.818 36.8301 149.742 37.0413C149.681 37.2528 149.628 37.4339 149.582 37.585C150.038 37.9322 150.584 38.2719 151.221 38.6041C151.859 38.9209 152.519 39.2531 153.202 39.6003C153.901 39.9479 154.591 40.3252 155.274 40.7329C155.957 41.1406 156.564 41.5934 157.095 42.0917C157.642 42.59 158.082 43.1559 158.416 43.7902C158.75 44.4242 158.917 45.1412 158.917 45.9416ZM148.512 34.2105C148.3 34.2105 148.125 34.286 147.989 34.4371C147.867 34.5728 147.806 34.7618 147.806 35.0034C147.806 35.2751 147.875 35.5769 148.011 35.909C148.148 36.2412 148.391 36.5659 148.74 36.883C148.892 36.5659 149.005 36.2563 149.081 35.9545C149.172 35.6524 149.218 35.3506 149.218 35.0485C149.218 34.8069 149.15 34.6107 149.013 34.4597C148.892 34.2936 148.725 34.2105 148.512 34.2105Z" fill="url(#paint11_linear_3014_13890)"/>
<path d="M168.205 36.8824C167.765 36.8824 167.34 37.0406 166.931 37.3578C166.536 37.6599 166.157 38.0826 165.792 38.626C165.428 39.1544 165.071 39.7811 164.722 40.5057C164.388 41.2152 164.054 41.9776 163.72 42.793V43.0647C163.675 44.3934 163.629 45.8049 163.584 47.2997C163.553 48.7942 163.538 50.4248 163.538 52.1913C163.538 52.4934 163.432 52.75 163.22 52.9612C163.022 53.1574 162.787 53.3235 162.514 53.4595C162.241 53.5802 161.96 53.6711 161.671 53.7312C161.383 53.7917 161.148 53.8218 160.966 53.8218C160.738 53.8218 160.526 53.7538 160.328 53.6181C160.131 53.4821 160.032 53.1803 160.032 52.7121C160.032 52.4858 160.055 52.2063 160.101 51.8741C160.146 51.5269 160.207 51.1571 160.283 50.7645C160.343 50.3721 160.419 49.9719 160.51 49.5642C160.586 49.1415 160.662 48.7491 160.738 48.3868C160.738 47.1032 160.738 45.9484 160.738 44.9218C160.723 43.8952 160.715 42.9817 160.715 42.1816C160.715 41.3812 160.715 40.6793 160.715 40.0754C160.7 39.4715 160.693 38.9507 160.693 38.5129C160.693 37.788 160.708 37.2597 160.738 36.9275C160.753 36.5803 160.784 36.3387 160.829 36.203C160.905 35.9914 161.042 35.8253 161.239 35.7047C161.452 35.5837 161.671 35.4932 161.899 35.433C162.127 35.3575 162.354 35.312 162.582 35.297C162.81 35.2819 162.985 35.2744 163.106 35.2744C163.394 35.2744 163.584 35.3575 163.675 35.5236C163.766 35.6896 163.811 35.9463 163.811 36.2935C163.811 37.0785 163.811 37.788 163.811 38.4223C163.811 39.0563 163.796 39.6906 163.766 40.3245C164.054 39.6451 164.388 39.0033 164.768 38.3994C165.162 37.7805 165.595 37.2446 166.066 36.7918C166.536 36.3236 167.029 35.9538 167.545 35.6818C168.077 35.4101 168.623 35.2744 169.185 35.2744C169.868 35.2744 170.429 35.4176 170.869 35.7047C171.325 35.9764 171.681 36.3612 171.939 36.8595C172.212 37.3578 172.41 37.9466 172.531 38.626C172.668 39.2904 172.759 40.0149 172.804 40.8002C173.229 40.03 173.685 39.3129 174.17 38.6486C174.671 37.9692 175.195 37.3803 175.741 36.8824C176.303 36.3841 176.887 35.9914 177.495 35.7047C178.117 35.4176 178.762 35.2744 179.43 35.2744C180.583 35.2744 181.426 35.6367 181.957 36.3612C182.488 37.071 182.754 38.0372 182.754 39.26C182.754 40.03 182.693 40.8908 182.571 41.8419C182.45 42.793 182.321 43.7592 182.185 44.7407C182.048 45.7068 181.919 46.6579 181.797 47.594C181.676 48.5301 181.615 49.3831 181.615 50.1531C181.615 51.0891 181.851 51.5573 182.321 51.5573C182.564 51.5573 182.829 51.4138 183.118 51.127C183.406 50.8249 183.733 50.3721 184.097 49.7682C184.476 49.149 184.909 48.3715 185.395 47.4354C185.895 46.4994 186.472 45.3822 187.125 44.0838L187.353 43.6081L188.286 44.3104L188.058 44.7858C187.163 46.5674 186.396 48.0393 185.759 49.2019C185.137 50.3646 184.575 51.2931 184.074 51.9876C183.573 52.667 183.095 53.1424 182.64 53.4141C182.2 53.6861 181.706 53.8218 181.16 53.8218C180.841 53.8218 180.53 53.7767 180.227 53.6861C179.923 53.5955 179.657 53.437 179.43 53.2104C179.202 52.9838 179.02 52.682 178.883 52.3044C178.747 51.9121 178.678 51.4138 178.678 50.8099C178.678 49.9039 178.739 48.8848 178.861 47.7526C178.982 46.6203 179.119 45.4881 179.27 44.3555C179.422 43.2233 179.559 42.1587 179.68 41.1625C179.802 40.1509 179.862 39.328 179.862 38.694C179.862 38.1353 179.741 37.6899 179.498 37.3578C179.255 37.0105 178.891 36.8369 178.405 36.8369C177.92 36.8369 177.411 37.0256 176.88 37.4032C176.364 37.7805 175.855 38.2713 175.354 38.8752C174.869 39.464 174.406 40.1284 173.966 40.8679C173.541 41.6078 173.169 42.3402 172.85 43.0647C172.85 44.6501 172.835 46.039 172.804 47.2317C172.774 48.4094 172.729 49.4056 172.668 50.2211C172.622 51.0365 172.554 51.6855 172.463 52.1687C172.372 52.6366 172.273 52.9537 172.167 53.1198C172.091 53.2254 171.962 53.3235 171.78 53.4141C171.598 53.505 171.393 53.5802 171.165 53.6407C170.953 53.7011 170.74 53.7463 170.528 53.7767C170.33 53.8067 170.179 53.8218 170.072 53.8218C169.829 53.8218 169.617 53.7538 169.435 53.6181C169.268 53.467 169.185 53.1803 169.185 52.7575C169.185 52.5611 169.2 52.2969 169.23 51.9647C169.276 51.6328 169.329 51.2627 169.389 50.855C169.45 50.4476 169.519 50.0098 169.594 49.5416C169.67 49.0738 169.746 48.5981 169.822 48.1148C169.837 47.662 169.852 47.1562 169.868 46.5978C169.883 46.039 169.898 45.4881 169.913 44.9444C169.928 44.3859 169.936 43.8573 169.936 43.3593C169.951 42.846 169.959 42.4079 169.959 42.0456C169.959 41.2756 169.936 40.5737 169.89 39.9394C169.845 39.3054 169.754 38.762 169.617 38.3089C169.496 37.856 169.321 37.5088 169.094 37.2672C168.866 37.0105 168.57 36.8824 168.205 36.8824Z" fill="url(#paint12_linear_3014_13890)"/>
<path d="M206.454 44.3105L206.204 44.7859C205.688 45.8125 204.997 46.6355 204.132 47.2544C203.282 47.8583 202.356 48.251 201.354 48.4321C201.081 49.2021 200.724 49.9191 200.284 50.5834C199.859 51.2328 199.366 51.799 198.804 52.282C198.258 52.7652 197.636 53.1425 196.937 53.4142C196.254 53.6862 195.511 53.8219 194.706 53.8219C193.538 53.8219 192.483 53.5803 191.542 53.0974C190.616 52.5991 189.827 51.9347 189.174 51.1043C188.521 50.2588 188.02 49.2776 187.671 48.1604C187.322 47.0281 187.147 45.8201 187.147 44.5368C187.147 43.4196 187.277 42.408 187.535 41.5023C187.793 40.5813 188.119 39.7659 188.513 39.0564C188.908 38.3319 189.348 37.7051 189.834 37.1767C190.32 36.6333 190.798 36.1877 191.269 35.8405C191.739 35.4933 192.164 35.2366 192.543 35.0705C192.938 34.8894 193.234 34.7988 193.431 34.7988L193.727 35.5914C193.105 36.0445 192.551 36.6785 192.065 37.4939C191.64 38.1883 191.253 39.1094 190.904 40.2566C190.57 41.4042 190.403 42.8307 190.403 44.5368C190.403 45.5788 190.502 46.59 190.699 47.5715C190.896 48.5527 191.185 49.4211 191.564 50.176C191.944 50.9307 192.407 51.5345 192.953 51.9877C193.515 52.4405 194.145 52.6671 194.843 52.6671C195.799 52.6671 196.588 52.2895 197.211 51.5345C197.848 50.7646 198.319 49.7154 198.622 48.387C197.833 48.2209 197.081 47.9113 196.368 47.4584C195.655 47.0053 195.025 46.4468 194.479 45.7825C193.932 45.1031 193.492 44.3256 193.158 43.45C192.839 42.5741 192.68 41.623 192.68 40.5963C192.68 39.7509 192.786 39.0113 192.999 38.377C193.226 37.7277 193.522 37.1918 193.887 36.769C194.251 36.3312 194.668 36.0066 195.139 35.7954C195.624 35.5688 196.133 35.4557 196.664 35.4557C197.287 35.4557 197.924 35.6368 198.577 35.9991C199.229 36.3463 199.821 36.8746 200.353 37.5845C200.884 38.2789 201.316 39.1545 201.65 40.2115C201.984 41.2682 202.151 42.4986 202.151 43.9028C202.151 44.4312 202.121 44.952 202.06 45.4653C201.999 45.9786 201.908 46.4769 201.787 46.9601C202.515 46.7486 203.175 46.4089 203.767 45.941C204.374 45.4728 204.875 44.8539 205.27 44.0839L205.521 43.6082L206.454 44.3105ZM194.183 40.4152C194.183 41.3058 194.304 42.1288 194.547 42.8837C194.805 43.6236 195.146 44.2801 195.571 44.8539C195.996 45.4127 196.489 45.8805 197.051 46.2582C197.613 46.6355 198.212 46.8997 198.85 47.0507C198.926 46.628 198.971 46.1902 198.987 45.737C199.017 45.2691 199.032 44.7934 199.032 44.3105C199.032 43.2384 198.948 42.2723 198.781 41.4118C198.614 40.5359 198.395 39.7963 198.121 39.1924C197.848 38.5732 197.529 38.0978 197.165 37.7656C196.801 37.4334 196.429 37.2673 196.049 37.2673C195.533 37.2673 195.093 37.5465 194.729 38.1053C194.365 38.6487 194.183 39.4187 194.183 40.4152Z" fill="url(#paint13_linear_3014_13890)"/>
<path d="M211.895 62.4049C211.895 61.7406 212.017 61.0687 212.259 60.3893C212.517 59.7099 212.867 59.0154 213.307 58.3059C213.747 57.5964 214.255 56.8566 214.832 56.0866C215.424 55.3316 216.062 54.5466 216.745 53.7312V49.4511C216.38 50.1606 215.97 50.7873 215.515 51.3307C215.06 51.8741 214.574 52.3348 214.058 52.7121C213.557 53.0747 213.034 53.3539 212.487 53.5501C211.956 53.7312 211.432 53.8218 210.916 53.8218C210.203 53.8218 209.512 53.6482 208.845 53.3009C208.192 52.9537 207.607 52.4329 207.091 51.7384C206.575 51.0289 206.165 50.138 205.862 49.0659C205.558 47.9942 205.407 46.7335 205.407 45.2841C205.407 44.0613 205.551 42.8535 205.839 41.6608C206.128 40.4681 206.56 39.4035 207.137 38.4674C207.713 37.5163 208.427 36.7464 209.277 36.1575C210.127 35.5687 211.121 35.2744 212.259 35.2744C213.155 35.2744 213.99 35.4556 214.764 35.8178C215.553 36.1801 216.213 36.7088 216.745 37.4032V37.1312C216.745 36.8445 216.828 36.5878 216.995 36.3612C217.177 36.1199 217.397 35.9234 217.655 35.7727C217.928 35.6066 218.209 35.4856 218.497 35.4101C218.801 35.3195 219.067 35.2744 219.295 35.2744C219.553 35.2744 219.735 35.312 219.841 35.3876C219.947 35.448 220 35.5612 220 35.7272C220 35.9689 219.97 36.5123 219.909 37.3578C219.848 38.2033 219.818 39.4414 219.818 41.0719V50.9005C220.197 50.4326 220.6 49.9114 221.025 49.338C221.45 48.7642 221.875 48.1678 222.3 47.5489C222.725 46.9146 223.134 46.2656 223.529 45.6012C223.939 44.9368 224.318 44.2725 224.667 43.6081L224.895 43.1553L225.829 43.8573L225.601 44.3104C225.237 45.0349 224.812 45.7899 224.326 46.5749C223.855 47.3449 223.355 48.1073 222.823 48.8622C222.307 49.6021 221.784 50.3191 221.252 51.0136C220.736 51.693 220.258 52.3044 219.818 52.8481V57.7622C219.818 59.1514 219.689 60.3291 219.431 61.2953C219.188 62.2765 218.847 63.0693 218.406 63.6732C217.981 64.2921 217.465 64.7374 216.858 65.0091C216.266 65.2811 215.621 65.4168 214.923 65.4168C214.058 65.4168 213.337 65.1451 212.76 64.6017C212.184 64.0734 211.895 63.341 211.895 62.4049ZM212.305 51.5119C212.776 51.5119 213.238 51.3762 213.694 51.1042C214.164 50.8325 214.597 50.4852 214.991 50.0625C215.386 49.6397 215.735 49.1794 216.039 48.6811C216.357 48.1678 216.593 47.6695 216.745 47.1863V40.8002C216.745 40.1208 216.638 39.5091 216.426 38.9657C216.213 38.407 215.932 37.9391 215.583 37.5618C215.234 37.1691 214.832 36.867 214.377 36.6558C213.937 36.4443 213.481 36.3387 213.011 36.3387C212.282 36.3387 211.645 36.5577 211.098 36.9955C210.552 37.4182 210.096 37.9845 209.732 38.694C209.368 39.3885 209.095 40.1885 208.913 41.0945C208.746 42.0005 208.662 42.9212 208.662 43.8573C208.662 45.0199 208.73 46.0691 208.867 47.0052C209.019 47.9412 209.247 48.7491 209.55 49.4285C209.854 50.0929 210.233 50.6062 210.688 50.9685C211.144 51.3307 211.683 51.5119 212.305 51.5119ZM214.673 64.0354C214.915 64.0354 215.158 63.9825 215.401 63.8769C215.659 63.7863 215.887 63.5676 216.084 63.2204C216.281 62.8728 216.441 62.3595 216.562 61.6801C216.684 61.0007 216.745 60.08 216.745 58.9173V55.5429C215.697 56.7961 214.84 57.9813 214.172 59.0985C213.519 60.2307 213.193 61.2877 213.193 62.2689C213.193 62.7371 213.322 63.1448 213.58 63.4921C213.838 63.8543 214.202 64.0354 214.673 64.0354Z" fill="url(#paint14_linear_3014_13890)"/>
<path d="M226.056 43.858L225.828 44.3112L225.601 44.7866L224.667 44.0846L224.895 43.6089C225.274 42.8389 225.586 42.069 225.828 41.299C226.087 40.514 226.291 39.7819 226.443 39.1025C226.61 38.4231 226.747 37.8267 226.853 37.3134C226.959 36.8001 227.065 36.43 227.172 36.2037C227.263 36.0223 227.392 35.8791 227.559 35.7735C227.741 35.6525 227.923 35.5544 228.105 35.4789C228.303 35.4034 228.485 35.3507 228.652 35.3203C228.834 35.2902 228.963 35.2752 229.038 35.2752C229.372 35.2752 229.593 35.3432 229.699 35.4789C229.82 35.6149 229.881 35.8565 229.881 36.2037C229.881 36.3698 229.843 36.7847 229.767 37.4491C229.706 38.0984 229.63 38.9211 229.539 39.9176C229.463 40.8991 229.388 42.0088 229.312 43.2466C229.251 44.4698 229.221 45.7377 229.221 47.0514C229.221 48.0025 229.266 48.7574 229.357 49.3159C229.448 49.8596 229.562 50.2673 229.699 50.539C229.851 50.8107 230.01 50.9843 230.177 51.0598C230.359 51.1353 230.541 51.1729 230.723 51.1729C230.966 51.1729 231.239 51.0673 231.543 50.8558C231.846 50.6446 232.203 50.2748 232.613 49.7461C233.023 49.2027 233.493 48.4782 234.024 47.5722C234.556 46.6512 235.178 45.4889 235.891 44.0846L236.142 43.6089L237.075 44.3112L236.825 44.7866C236.248 45.9038 235.671 47.0059 235.095 48.093C234.533 49.1802 233.956 50.1463 233.364 50.9918C232.788 51.8373 232.203 52.5242 231.611 53.0526C231.019 53.5659 230.427 53.8226 229.836 53.8226C229.213 53.8226 228.674 53.7019 228.219 53.4603C227.779 53.2036 227.407 52.7884 227.103 52.2146C226.815 51.6411 226.595 50.8862 226.443 49.9501C226.306 48.999 226.238 47.8289 226.238 46.44C226.238 46.0473 226.238 45.6396 226.238 45.2169C226.238 44.7791 226.253 44.3262 226.284 43.858H226.056ZM230.723 30.6325C230.723 31.1608 230.541 31.6065 230.177 31.9687C229.828 32.316 229.388 32.4896 228.856 32.4896C228.34 32.4896 227.9 32.316 227.536 31.9687C227.172 31.6065 226.989 31.1608 226.989 30.6325C226.989 30.1192 227.172 29.6814 227.536 29.3191C227.9 28.9568 228.34 28.7754 228.856 28.7754C229.388 28.7754 229.828 28.9568 230.177 29.3191C230.541 29.6814 230.723 30.1192 230.723 30.6325Z" fill="url(#paint15_linear_3014_13890)"/>
<path d="M240.764 53.8224C239.838 53.8224 239.033 53.6262 238.35 53.2336C237.683 52.8412 237.129 52.3129 236.688 51.6485C236.248 50.9691 235.922 50.1916 235.709 49.3157C235.497 48.4401 235.391 47.5116 235.391 46.5304C235.391 45.6698 235.474 44.7939 235.641 43.9033C235.808 43.0124 236.043 42.1518 236.347 41.3217C236.666 40.4762 237.06 39.6912 237.531 38.9663C238.001 38.2264 238.54 37.585 239.147 37.0412C239.754 36.4978 240.43 36.0676 241.174 35.7504C241.933 35.4336 242.744 35.275 243.61 35.275C244.596 35.275 245.431 35.4938 246.114 35.9316C246.812 36.3697 247.374 36.9056 247.799 37.5395C247.814 34.6862 247.958 32.1648 248.231 29.9758C248.504 27.7865 248.884 25.952 249.369 24.4725C249.87 22.9931 250.462 21.8759 251.145 21.1209C251.828 20.351 252.58 19.9658 253.399 19.9658C253.688 19.9658 253.946 20.0037 254.173 20.0789C254.416 20.1394 254.614 20.2604 254.765 20.4415C254.932 20.6227 255.054 20.8718 255.13 21.1886C255.221 21.4907 255.266 21.8834 255.266 22.3663C255.266 23.3629 255.168 24.5101 254.97 25.8088C254.773 27.0921 254.492 28.496 254.128 30.0209C253.764 31.5308 253.316 33.1462 252.785 34.8673C252.268 36.5734 251.692 38.3474 251.054 40.1891C251.069 41.8046 251.092 43.2013 251.123 44.3787C251.153 45.5564 251.191 46.5529 251.236 47.3684C251.297 48.1835 251.366 48.8478 251.442 49.3611C251.533 49.8744 251.631 50.2746 251.737 50.5614C251.859 50.8331 251.995 51.0217 252.147 51.1277C252.314 51.2182 252.496 51.2633 252.693 51.2633C253.043 51.2633 253.392 51.1123 253.741 50.8105C254.105 50.4934 254.492 50.033 254.902 49.4291C255.312 48.8099 255.752 48.0553 256.222 47.1643C256.708 46.2737 257.239 45.2471 257.816 44.0845L258.067 43.6087L259 44.311L258.75 44.7864C257.869 46.5529 257.095 48.0174 256.427 49.18C255.759 50.3273 255.145 51.2483 254.583 51.9428C254.037 52.6372 253.513 53.128 253.012 53.4147C252.511 53.6867 251.988 53.8224 251.442 53.8224C250.91 53.8224 250.447 53.6942 250.052 53.4376C249.673 53.1659 249.347 52.7507 249.074 52.1919C248.8 51.6181 248.58 50.8936 248.413 50.018C248.246 49.127 248.117 48.0628 248.026 46.8246C247.495 47.8817 246.949 48.8403 246.387 49.7008C245.826 50.5614 245.241 51.3013 244.634 51.9202C244.042 52.5241 243.42 52.9923 242.767 53.3241C242.115 53.6563 241.447 53.8224 240.764 53.8224ZM244.065 36.4298C243.23 36.4298 242.501 36.6865 241.879 37.1998C241.257 37.6981 240.741 38.3549 240.331 39.17C239.921 39.9704 239.618 40.8761 239.42 41.8877C239.223 42.8992 239.125 43.9108 239.125 44.9224C239.125 45.7529 239.185 46.5529 239.307 47.3229C239.443 48.0778 239.641 48.7497 239.899 49.3386C240.172 49.9274 240.498 50.3953 240.877 50.7425C241.257 51.0897 241.697 51.2633 242.198 51.2633C242.684 51.2633 243.154 51.1427 243.61 50.9011C244.08 50.6595 244.543 50.2746 244.998 49.746C245.454 49.2026 245.917 48.5081 246.387 47.6626C246.858 46.8021 247.359 45.7604 247.89 44.5373C247.859 43.8127 247.837 43.0428 247.821 42.2274C247.806 41.3972 247.799 40.5138 247.799 39.5777C247.465 38.5965 246.956 37.8266 246.273 37.2678C245.606 36.7094 244.869 36.4298 244.065 36.4298ZM253.627 23.2043C253.627 22.5098 253.543 22.0266 253.377 21.7549C253.225 21.4832 253.043 21.3472 252.83 21.3472C252.466 21.3472 252.17 21.7023 251.942 22.4117C251.715 23.1062 251.533 24.0498 251.396 25.2425C251.275 26.4352 251.183 27.8166 251.123 29.387C251.077 30.957 251.054 32.6101 251.054 34.3465V36.8376C251.525 35.3126 251.927 33.9388 252.261 32.716C252.595 31.4929 252.86 30.3531 253.058 29.2964C253.255 28.2394 253.399 27.2202 253.491 26.2391C253.582 25.2575 253.627 24.246 253.627 23.2043Z" fill="url(#paint16_linear_3014_13890)"/>
<path d="M107.034 33.7597C107.034 36.781 107.325 39.4166 107.908 41.666C108.49 43.9151 109.257 45.7869 110.209 47.2808C111.175 48.7747 112.269 49.8994 113.49 50.655C114.726 51.3933 115.991 51.7628 117.283 51.7628C118.207 51.7628 119.116 51.5613 120.011 51.1586C120.92 50.7556 121.801 50.1514 122.653 49.3457C123.506 48.5397 124.322 47.5328 125.104 46.3241C125.899 45.1154 126.638 43.697 127.32 42.0687L127.554 41.54L128.428 42.3206L128.193 42.8493C127.412 44.7127 126.545 46.3491 125.594 47.7594C124.656 49.1692 123.655 50.3526 122.589 51.3096C121.524 52.2495 120.416 52.963 119.265 53.4497C118.129 53.9364 116.964 54.1799 115.771 54.1799C114.748 54.1799 113.732 54.0038 112.723 53.6512C111.729 53.3156 110.777 52.8035 109.868 52.1153C108.973 51.4102 108.135 50.529 107.354 49.4713C106.586 48.414 105.919 47.1802 105.35 45.77C104.782 44.3432 104.335 42.7403 104.008 40.9609C103.696 39.1649 103.539 37.1925 103.539 35.044C103.539 32.207 103.738 29.6388 104.136 27.3389C104.548 25.0227 105.095 22.9663 105.777 21.17C106.473 19.3571 107.275 17.7877 108.185 16.4618C109.108 15.1356 110.074 14.0444 111.082 13.1886C112.091 12.3155 113.121 11.6693 114.172 11.2497C115.224 10.8301 116.232 10.6201 117.198 10.6201C118.462 10.6201 119.627 10.8802 120.693 11.4007C121.758 11.9043 122.674 12.6261 123.442 13.5662C124.209 14.4894 124.805 15.6223 125.231 16.9654C125.672 18.2913 125.892 19.7686 125.892 21.3969C125.892 22.9579 125.686 24.4267 125.274 25.803C124.876 27.1797 124.337 28.3881 123.655 29.4288C122.987 30.453 122.213 31.2671 121.332 31.8713C120.465 32.4755 119.556 32.7776 118.604 32.7776C117.965 32.7776 117.368 32.6435 116.815 32.3749C116.26 32.1064 115.778 31.7287 115.366 31.2417C114.954 30.7551 114.627 30.159 114.385 29.4542C114.144 28.7491 114.023 27.9685 114.023 27.1123C114.023 26.29 114.13 25.5009 114.343 24.7457C114.556 23.9735 114.826 23.2684 115.152 22.6307C115.479 21.9761 115.835 21.4051 116.218 20.9184C116.616 20.4148 116.999 20.0203 117.368 19.7351L117.944 20.4148C117.646 20.8178 117.362 21.254 117.092 21.7241C116.836 22.1772 116.609 22.6724 116.41 23.2098C116.211 23.73 116.054 24.2922 115.941 24.8967C115.827 25.5009 115.771 26.1556 115.771 26.8607C115.771 27.5824 115.841 28.2286 115.984 28.7996C116.14 29.3702 116.346 29.8569 116.601 30.2599C116.871 30.6626 117.177 30.9732 117.518 31.1913C117.859 31.3928 118.221 31.4937 118.604 31.4937C119.13 31.4937 119.656 31.2671 120.181 30.8137C120.707 30.3436 121.176 29.6639 121.588 28.7742C122 27.8679 122.334 26.7598 122.589 25.4505C122.845 24.1412 122.973 22.6307 122.973 20.9184C122.973 19.3741 122.823 18.0397 122.525 16.915C122.241 15.7733 121.843 14.8335 121.332 14.0949C120.821 13.3562 120.217 12.8106 119.521 12.4581C118.825 12.0889 118.079 11.9043 117.283 11.9043C116.715 11.9043 116.069 12.0554 115.344 12.3575C114.62 12.643 113.874 13.1212 113.107 13.7928C112.354 14.464 111.615 15.3537 110.891 16.4618C110.166 17.5527 109.513 18.9125 108.93 20.5408C108.362 22.1522 107.9 24.0491 107.545 26.2311C107.205 28.4135 107.034 30.9227 107.034 33.7597Z" fill="url(#paint17_linear_3014_13890)"/>
<path d="M116.864 6.58301C108.768 9.06341 105.357 22.0655 104.88 27.2739L107.73 21.509C108.271 12.7563 114.938 7.1731 116.864 6.58301Z" fill="url(#paint18_linear_3014_13890)"/>
<defs>
<linearGradient id="paint0_linear_3014_13890" x1="25.3059" y1="0" x2="44.5111" y2="34.2504" gradientUnits="userSpaceOnUse">
<stop stop-color="#F30092"/>
<stop offset="1" stop-color="#20ACE8"/>
</linearGradient>
<linearGradient id="paint1_linear_3014_13890" x1="65.7015" y1="0" x2="46.4963" y2="34.2505" gradientUnits="userSpaceOnUse">
<stop stop-color="#F30092"/>
<stop offset="1" stop-color="#20ACE8"/>
</linearGradient>
<linearGradient id="paint2_linear_3014_13890" x1="17.7843" y1="45.9529" x2="26.0171" y2="70.2949" gradientUnits="userSpaceOnUse">
<stop stop-color="#F30092"/>
<stop offset="1" stop-color="#1E9BD1"/>
</linearGradient>
<linearGradient id="paint3_linear_3014_13890" x1="17.7843" y1="45.9529" x2="22.2064" y2="65.6808" gradientUnits="userSpaceOnUse">
<stop stop-color="#F30092"/>
<stop offset="1" stop-color="#1E9BD1"/>
</linearGradient>
<linearGradient id="paint4_linear_3014_13890" x1="0" y1="2.18848" x2="37.7712" y2="76.7451" gradientUnits="userSpaceOnUse">
<stop stop-color="#F30092"/>
<stop offset="1" stop-color="#20ACE8"/>
</linearGradient>
<linearGradient id="paint5_linear_3014_13890" x1="-4.56451e-05" y1="2.18848" x2="16.671" y2="54.7007" gradientUnits="userSpaceOnUse">
<stop stop-color="#F30092"/>
<stop offset="1" stop-color="#20ACE8"/>
</linearGradient>
<linearGradient id="paint6_linear_3014_13890" x1="73.1532" y1="45.9529" x2="64.9203" y2="70.2949" gradientUnits="userSpaceOnUse">
<stop stop-color="#F30092"/>
<stop offset="1" stop-color="#1E9BD1"/>
</linearGradient>
<linearGradient id="paint7_linear_3014_13890" x1="73.1533" y1="45.9529" x2="68.7311" y2="65.6808" gradientUnits="userSpaceOnUse">
<stop stop-color="#F30092"/>
<stop offset="1" stop-color="#1E9BD1"/>
</linearGradient>
<linearGradient id="paint8_linear_3014_13890" x1="90.9375" y1="2.18848" x2="53.1663" y2="76.7451" gradientUnits="userSpaceOnUse">
<stop stop-color="#F30092"/>
<stop offset="1" stop-color="#20ACE8"/>
</linearGradient>
<linearGradient id="paint9_linear_3014_13890" x1="90.9376" y1="2.18848" x2="74.2666" y2="54.7007" gradientUnits="userSpaceOnUse">
<stop stop-color="#F30092"/>
<stop offset="1" stop-color="#20ACE8"/>
</linearGradient>
<linearGradient id="paint10_linear_3014_13890" x1="139.762" y1="4.64921" x2="29.5439" y2="8.18185" gradientUnits="userSpaceOnUse">
<stop stop-color="#F30092"/>
<stop offset="1" stop-color="#20ACE8"/>
</linearGradient>
<linearGradient id="paint11_linear_3014_13890" x1="139.762" y1="4.64973" x2="29.5438" y2="8.18237" gradientUnits="userSpaceOnUse">
<stop stop-color="#F30092"/>
<stop offset="1" stop-color="#20ACE8"/>
</linearGradient>
<linearGradient id="paint12_linear_3014_13890" x1="139.762" y1="4.64908" x2="29.5439" y2="8.18171" gradientUnits="userSpaceOnUse">
<stop stop-color="#F30092"/>
<stop offset="1" stop-color="#20ACE8"/>
</linearGradient>
<linearGradient id="paint13_linear_3014_13890" x1="139.762" y1="4.64921" x2="29.5439" y2="8.18185" gradientUnits="userSpaceOnUse">
<stop stop-color="#F30092"/>
<stop offset="1" stop-color="#20ACE8"/>
</linearGradient>
<linearGradient id="paint14_linear_3014_13890" x1="139.762" y1="4.64908" x2="29.5438" y2="8.18171" gradientUnits="userSpaceOnUse">
<stop stop-color="#F30092"/>
<stop offset="1" stop-color="#20ACE8"/>
</linearGradient>
<linearGradient id="paint15_linear_3014_13890" x1="139.762" y1="4.64986" x2="29.5438" y2="8.18249" gradientUnits="userSpaceOnUse">
<stop stop-color="#F30092"/>
<stop offset="1" stop-color="#20ACE8"/>
</linearGradient>
<linearGradient id="paint16_linear_3014_13890" x1="139.762" y1="4.64971" x2="29.5441" y2="8.18234" gradientUnits="userSpaceOnUse">
<stop stop-color="#F30092"/>
<stop offset="1" stop-color="#20ACE8"/>
</linearGradient>
<linearGradient id="paint17_linear_3014_13890" x1="139.762" y1="4.6493" x2="29.5438" y2="8.18193" gradientUnits="userSpaceOnUse">
<stop stop-color="#F30092"/>
<stop offset="1" stop-color="#20ACE8"/>
</linearGradient>
<linearGradient id="paint18_linear_3014_13890" x1="139.762" y1="4.64946" x2="29.5439" y2="8.18209" gradientUnits="userSpaceOnUse">
<stop stop-color="#F30092"/>
<stop offset="1" stop-color="#20ACE8"/>
</linearGradient>
</defs>
</svg>
