<svg width="100" height="20" viewBox="0 0 100 20" fill="none" xmlns="http://www.w3.org/2000/svg"><path d="M32.93 9.66a10.86 10.86 0 00.79-3.28c0-.27-.07-.4-.21-.4-.13 0-.37.15-.7.46a8.9 8.9 0 00-2.29 3.71 6.6 6.6 0 00-.31 1.99c0 .5.06.85.18 1.04.12.2.34.29.68.29.3 0 .65-.08 1.08-.23.98-.35 2-.85 3.1-1.5.48-.28.78-.42.91-.42.19 0 .28.08.28.25v.02a3.71 3.71 0 01-1.02 1.88c-.36.29-.85.57-1.47.85-.63.28-1.27.51-1.92.69-.66.18-1.2.27-1.65.27a3.97 3.97 0 01-2.63-.99c-.33-.3-.6-.66-.79-1.07-.19-.4-.28-.84-.28-1.3 0-.36.06-.74.18-1.15a9.07 9.07 0 013.98-4.92 9.32 9.32 0 012.39-1.02c.36-.08.69-.13.98-.13.74 0 1.31.18 1.72.52.42.35.63.83.63 1.44 0 .64-.18 1.31-.52 2.01-.35.7-.81 1.31-1.4 1.84-.39.37-.78.66-1.18.88-.39.21-.74.32-1.05.32-.28 0-.42-.12-.42-.36 0-.11.08-.27.23-.47.21-.27.45-.68.7-1.22zM42.84 7.52c.83 0 1.25.08 1.25.26 0 .2-.19.32-.56.33-.45.03-.88.14-1.27.35-.4.21-.74.5-1.05.86a4.14 4.14 0 00-.97 2.66 2 2 0 00.43 1.34c.29.34.66.5 1.12.5.43 0 .8-.2 1.12-.6.32-.39.48-.85.48-1.38a2.59 2.59 0 00-1.17-2.18c-.16-.12-.25-.2-.25-.25 0-.07.12-.18.35-.33a4.2 4.2 0 011.67-.56c.25 0 .5.06.72.18.23.12.43.3.6.51.17.23.3.48.4.77.1.29.14.6.14.92a4.06 4.06 0 01-1.22 2.88 5.77 5.77 0 01-3.6 1.4c-.58 0-1.16-.09-1.73-.27a3.72 3.72 0 01-1.37-.73c-.44-.4-.67-.98-.67-1.73 0-.6.16-1.18.48-1.77a6.59 6.59 0 013.1-2.75 5.1 5.1 0 012-.41zM49.06 15.53c.34-.02.64-.16.9-.44.28-.28.41-.58.41-.9 0-.23-.08-.4-.24-.54a3.06 3.06 0 00-1.17-.47c-.89-.23-1.47-.5-1.74-.78a1.1 1.1 0 01-.37-.84c0-.59.23-1.18.7-1.76a5.44 5.44 0 014-2c.35 0 .69.07 1 .23.31.15.56.35.75.6.18.26.28.53.28.83 0 .29-.1.59-.3.9-.2.3-.46.57-.77.77-.3.2-.6.31-.87.31a.86.86 0 01-.4-.09c-.12-.06-.18-.13-.18-.2s.03-.17.07-.31c.12-.44.19-.82.19-1.15 0-.32-.11-.62-.32-.9-.28.17-.46.3-.54.4-.21.23-.38.48-.5.77-.13.29-.19.56-.19.82 0 .19.05.33.14.44.1.11.24.2.45.28.21.08.53.16.96.25.7.16 1.2.31 1.5.46l.31.22c.21.21.32.48.32.81 0 .35-.12.71-.36 1.07-.24.36-.61.73-1.12 1.11-.54.41-1.07.7-1.6.89-.54.18-1.12.26-1.77.26-.62 0-1.1-.1-1.46-.33a1.04 1.04 0 01-.54-.92c0-.27.12-.55.36-.83.23-.29.52-.52.87-.7.35-.17.7-.26 1.03-.26.25 0 .38.05.38.15 0 .05-.04.13-.1.25-.23.36-.34.69-.34.99 0 .21.1.41.26.6zM63.44 12.43l-2.3 2.14c-.3.27-.53.46-.71.56-.19.1-.39.15-.6.15-.35 0-.63-.12-.87-.35a1.16 1.16 0 01-.34-.85c0-.21.03-.44.1-.69a10.42 10.42 0 01.62-1.55l-.04-.03a31.7 31.7 0 00-1.6 1.64c-.43.47-.78.83-1.03 1.06-.26.24-.5.41-.7.53a1.06 1.06 0 01-1.42-.21 1.63 1.63 0 01-.32-1.07c0-.56.27-1.48.8-2.74.49-1.12.86-1.87 1.12-2.25.39-.53.83-.8 1.33-.8.3 0 .55.07.75.2.2.13.3.3.3.5 0 .39-.16.97-.48 1.75l-.37.99.03.03c.2-.2.54-.57 1-1.08.79-.88 1.38-1.49 1.79-1.8.52-.44 1-.66 1.43-.66.19 0 .37.06.54.17a1.3 1.3 0 01.57 1.08c0 .23-.17.79-.52 1.69a29.2 29.2 0 00-.27.72l.04.03.21-.2a7.1 7.1 0 01.42-.35l1.14-1.05c.4-.4.72-.69.95-.84.23-.15.45-.22.66-.22.35 0 .61.1.8.32.18.22.27.54.27.96 0 .26-.05.67-.14 1.23a41.2 41.2 0 00-.2 2.24 5.02 5.02 0 00.09.94l.13.63.14.65c-.05.19-.2.34-.45.47-.24.13-.51.19-.8.19-.47 0-.9-.19-1.3-.57a1.97 1.97 0 01-.63-1.15 5.83 5.83 0 01-.06-.95c0-.26.03-.8.1-1.62l-.03-.03-.15.2zM73.14 7.52c.84 0 1.25.08 1.25.26 0 .2-.18.32-.56.33-.45.03-.88.14-1.27.35-.4.21-.74.5-1.04.86a4.14 4.14 0 00-.97 2.66 2 2 0 00.42 1.34c.29.34.66.5 1.12.5.43 0 .8-.2 1.12-.6.32-.39.48-.85.48-1.38a2.59 2.59 0 00-1.17-2.18c-.16-.12-.24-.2-.24-.25 0-.07.11-.18.34-.33a4.2 4.2 0 011.67-.56c.25 0 .5.06.72.18.23.12.43.3.6.51.17.23.3.48.4.77.1.29.14.6.14.92a4.06 4.06 0 01-1.22 2.88 5.76 5.76 0 01-3.6 1.4c-.58 0-1.16-.09-1.73-.27a3.72 3.72 0 01-1.36-.73c-.45-.4-.68-.98-.68-1.73 0-.6.16-1.18.48-1.77a6.6 6.6 0 013.1-2.75 5.1 5.1 0 012-.41zM82.47 13.1l-.23.16a3.29 3.29 0 01-3.94 2.03c-.45 0-.82-.15-1.1-.45a1.7 1.7 0 01-.41-1.2c0-.63.2-1.28.58-1.95a8.25 8.25 0 013.64-3.2c.76-.33 1.5-.5 2.21-.5.7 0 1.24.1 1.6.33.37.22.55.54.55.98 0 .37-.16.82-.48 1.36.23.02.4.08.5.2.11.11.17.3.17.54 0 .4-.1.95-.27 1.66-.18.7-.4 1.36-.66 1.96a5.77 5.77 0 01-2.99 3.07c-.65.3-1.22.46-1.69.46-.39 0-.74-.15-1.05-.43-.3-.29-.46-.6-.46-.96 0-.24.07-.5.2-.75.14-.26.31-.48.52-.66a6.8 6.8 0 012.29-1.25c.03 0 .06.01.1.04.02.02.03.05.03.08s-.03.1-.1.2c-.16.27-.31.6-.44 1s-.2.76-.2 1.05c0 .35.06.52.18.52.06 0 .14-.06.23-.19.1-.12.18-.26.25-.42.48-1.1.78-2.12.91-3.05l.06-.62zm.42-1.62v.03l-.03-.03a4.36 4.36 0 01-.54.03c-.28 0-.43-.05-.43-.14 0-.06.04-.12.11-.19.22-.22.4-.5.55-.86a2.9 2.9 0 00.28-1.16.73.73 0 00.01-.1c0-.07-.05-.1-.16-.1-.21 0-.55.21-1 .64a5.92 5.92 0 00-1.4 2.1c-.14.39-.2.72-.2 1.02 0 .3.07.45.24.45.15 0 .55-.24 1.18-.72.29-.22.75-.55 1.4-.97zM87.56 15.28a1.09 1.09 0 01-.7-.32 1.8 1.8 0 01-.43-.66 2.73 2.73 0 01-.13-.92c0-.84.17-1.79.51-2.84A6.32 6.32 0 0188 8.24a.9.9 0 01.72-.3c.32 0 .58.14.78.4.2.28.3.63.3 1.07 0 .65-.1 1.4-.3 2.27-.21.87-.5 1.77-.87 2.7-.14.39-.32.64-.54.77-.14.08-.31.13-.5.13h-.02zm1-7.68c-.52-.02-.78-.3-.78-.86 0-.28.07-.6.23-.98.15-.37.33-.64.52-.82.1-.1.2-.16.3-.2.11-.05.24-.07.4-.07.29 0 .5.07.62.2.14.12.2.32.2.61 0 .36-.07.7-.2 1.03-.14.32-.32.59-.55.79-.23.2-.47.3-.71.3h-.02zM96.23 8.21l.08-.31c.17-.7.33-1.26.47-1.7.14-.42.29-.79.43-1.09.15-.3.3-.51.44-.64.24-.23.66-.35 1.27-.35.27 0 .47.02.6.04.14.03.24.07.32.14a26.8 26.8 0 00-.56 1.7 20.45 20.45 0 00-.63 4.5c0 .57.06 1.17.16 1.79.1.61.27 1.3.5 2.06a8.76 8.76 0 01-1.62.8c-.24.07-.46.11-.64.11a.7.7 0 01-.69-.43 3.1 3.1 0 01-.22-.58c-.03-.15-.09-.55-.17-1.21-.75.71-1.47 1.27-2.16 1.68-.68.41-1.23.62-1.64.62-.47 0-.86-.18-1.16-.53a2 2 0 01-.45-1.34c0-.5.12-1.05.35-1.65a7.73 7.73 0 011.8-2.7c.28-.25.6-.5.95-.71a3.4 3.4 0 011.63-.58c.22 0 .53.13.94.38zm-.26 3.63v-.44c-.29.22-.5.34-.64.34-.08 0-.12-.04-.12-.1l.05-.2c.12-.3.18-.6.18-.88 0-.42-.1-.84-.3-1.29-.08-.23-.19-.34-.3-.34a.18.18 0 00-.16.07c-.18.2-.36.47-.53.83a6.6 6.6 0 00-.58 2.25c0 .6.2.91.6.91.2 0 .48-.1.82-.32.34-.22.66-.5.98-.83z" fill="#ED4993"/><path d="M21.95 16.4c.54.1.33-.43.27-.9-.05-.47-.32-1.13.04-.96.36.16.96.94.87.42-.08-.51-.84-1.43-1.05-1.92-.22-.5-.03-.39.45-.13.47.26.1-.88-.37-1.91-.48-1.03-1.83-1.45-1.83-1.45 1.35-.05 2.25-1.6 2.2-2.6-.04-1.02 1.4-3.96 1.92-5.32l.04-.12v-.03a1.22 1.22 0 00.04-.18v-.04-.06-.03a.36.36 0 00-.03-.1.51.51 0 00-.01-.04L24.47 1l-.02-.04a.36.36 0 00-.02-.03L24.39.9l-.02-.03a.43.43 0 00-.05-.03L24.3.82a.7.7 0 00-.08-.04L24.2.77l-.07-.03-.05-.01-.06-.01-.05-.01L23.9.7h-.07l-.06-.01h-.23l-.07.01h-.08l-.08.02-.1.01a1.56 1.56 0 00-.18.04l-.06.01a6.13 6.13 0 00-.53.14l-.15.05-.07.02-.15.05a4.12 4.12 0 00-.23.09l-.1.03a9.41 9.41 0 00-.24.1l-.16.07-.1.04-.17.08-.1.04-.18.09-.09.04-.2.1-.05.03c-.38.19-.78.4-1.2.65-3.04 1.77-5.56 4.81-6.33 5.8a.63.63 0 00-.07-.26.72.72 0 00-.07-.1c.13-.1.23-.4.17-.51-.05-.1-.22-.26-.33-.28a.35.35 0 00-.12-.04c.1-.28.04-.3-.05-.01a2.09 2.09 0 00-.23-.01c-.09-.3-.14-.29-.04 0-.13.02-.18.08-.18.08a.67.67 0 00-.27.26c-.06.12.04.4.17.5a.69.69 0 00-.07.11.63.63 0 00-.08.26c-.76-1-3.27-4.04-6.3-5.82a21.9 21.9 0 00-1.2-.65L4.2 1.7a19.54 19.54 0 00-.29-.14l-.17-.08-.1-.05-.17-.07-.1-.05-.16-.07-.1-.04-.15-.06-.1-.04-.14-.05-.1-.03-.13-.05L2.4.94 2.25.9 2.2.88a6.15 6.15 0 00-.47-.12L1.66.74l-.1-.02-.08-.01a2.7 2.7 0 00-.17-.02L1.22.68 1.15.67a4.83 4.83 0 00-.22 0H.8A1.1 1.1 0 00.68.7L.62.7.57.72a.85.85 0 00-.06.02L.47.76A.57.57 0 00.4.79L.37.81a.6.6 0 00-.04.04L.3.87a.34.34 0 00-.03.04L.25.93a.45.45 0 00-.06.12v.04a.7.7 0 00-.02.09v.05a.92.92 0 000 .1v.05l.03.07v.04l.04.12c.53 1.36 1.96 4.3 1.9 5.31-.04 1.02.86 2.56 2.2 2.62 0 0-1.35.4-1.83 1.44-.47 1.03-.85 2.16-.37 1.9.47-.25.67-.35.45.14-.22.5-.97 1.4-1.06 1.92-.09.51.51-.26.87-.43.36-.16.09.5.03.97-.05.47-.26 1 .28.89.54-.11.49.09.39.8-.1.71-.51 2.39.2 1.99.7-.4.36-1.18 1.2-1.1a1.34 1.34 0 01.09.02l.07.01.8.13h.03l.08.01h.04l.14.02h.05l.07.01h.07l.07.01.09.01a3.27 3.27 0 00.16 0h.53l.12-.02a2.48 2.48 0 00.15-.02l.05-.01.1-.02.03-.01h.03l.09-.03h.01l.03-.02.06-.02.05-.01a1.92 1.92 0 00.28-.13l.03-.02a1.67 1.67 0 00.23-.16 1.61 1.61 0 00.2-.2l.04-.04.08-.11.09-.13.02-.04.05-.1.02-.05.06-.16c.67-1.95.8-4.87 1.83-6.13.82-.99 1.29-1.21 1.45-1.26l.06.38c.08.63-.23 1.12-.1 1.79.11.67.48.64.48.64s.37.03.5-.64c.12-.67-.19-1.15-.1-1.78l.06-.4c.16.06.62.29 1.44 1.28 1.03 1.26 1.15 4.18 1.81 6.13a2.5 2.5 0 00.14.3l.02.05.08.13.09.11.02.04.07.07.03.03a1.66 1.66 0 00.22.18l.03.03.09.05.03.02.12.06.1.05h.03l.03.02.05.02h.04l.02.01.03.01h.02a1.11 1.11 0 00.1.04h.04l.1.03h.05a3.77 3.77 0 00.42.06h.04a4 4 0 00.14 0h.33l.13-.01h.05l.1-.01h.04l.12-.02H19l.1-.02h.04l.1-.02h.03l.12-.02h.03l.09-.02h.03l.25-.04.06-.01h.04l.09-.02H20a3 3 0 01.06-.01h.03l.07-.02c.83-.08.49.69 1.2 1.1.7.4.3-1.28.2-2-.1-.7-.15-.9.39-.79z" fill="#08B0CF"/><path d="M19.25 14.58c.39.08.24-.3.2-.64-.04-.34-.24-.81.02-.7.26.13.7.69.63.31-.06-.37-.6-1.02-.76-1.38-.16-.35-.01-.28.33-.1.34.2.07-.62-.27-1.36-.34-.75-1.31-1.04-1.31-1.04.96-.04 1.61-1.15 1.58-1.88-.03-.73 1-2.84 1.38-3.82l.03-.09v-.02a.88.88 0 00.03-.13V3.7v-.04-.03a.28.28 0 00-.02-.06l-.01-.03-.02-.02-.01-.03-.02-.02-.02-.03-.02-.02a.31.31 0 00-.03-.02l-.02-.01a.49.49 0 00-.06-.03l-.02-.01a.72.72 0 00-.05-.02h-.03l-.04-.02h-.05l-.04-.01h-.37l-.05.01-.07.01-.05.01-.08.02h-.05l-.34.1h-.03l-.11.04-.05.02c-.04 0-.07.02-.11.03a3 3 0 00-.06.03c-.04 0-.07.02-.1.04l-.07.02a6.7 6.7 0 00-.18.07l-.12.05-.07.03-.12.06-.07.03-.13.06-.06.03a13.38 13.38 0 00-1.05.56 17.9 17.9 0 00-4.55 4.17.45.45 0 00-.05-.18.52.52 0 00-.05-.08c.09-.07.16-.28.12-.37-.03-.07-.16-.18-.23-.2a.25.25 0 00-.1-.03c.07-.2.04-.2-.03 0a1.48 1.48 0 00-.16 0c-.07-.23-.1-.21-.03 0-.1.01-.13.05-.13.05a.48.48 0 00-.2.18c-.04.09.03.3.13.37a.5.5 0 00-.06.08.45.45 0 00-.05.18 17.9 17.9 0 00-4.54-4.18l-.85-.47-.05-.02a13.91 13.91 0 00-.2-.1l-.13-.06-.07-.04a9.16 9.16 0 00-.12-.05l-.08-.03a6.4 6.4 0 00-.1-.05c-.03 0-.06-.02-.08-.03l-.11-.04-.07-.03-.1-.04-.07-.02-.1-.04-.06-.02-.1-.03-.04-.01a4.42 4.42 0 00-.34-.09h-.04l-.08-.02-.05-.01a1.86 1.86 0 00-.13-.02h-.06l-.05-.01a3.48 3.48 0 00-.16 0h-.1a.77.77 0 00-.08.01l-.04.01-.04.01-.04.02-.03.01a.42.42 0 00-.05.03l-.02.01a.44.44 0 00-.03.03l-.02.01-.03.03-.01.02a.32.32 0 00-.04.08l-.01.03a.47.47 0 00-.01.06v.04a.68.68 0 000 .08v.03l.02.05v.03l.04.08c.37.98 1.4 3.1 1.36 3.83-.03.72.62 1.83 1.58 1.87 0 0-.97.3-1.31 1.04-.35.74-.61 1.56-.27 1.37.34-.18.48-.26.32.1-.16.35-.7 1-.76 1.38-.06.37.37-.19.63-.3.26-.13.06.35.02.69-.04.33-.2.72.2.64.39-.08.35.06.28.57-.07.51-.37 1.72.14 1.43.5-.3.26-.84.86-.78h.07l.05.01.57.1h.09a4.96 4.96 0 00.13.01l.03.01h.05l.05.01h.05l.06.01h.23a2.6 2.6 0 01.13 0h.14a3 3 0 00.2-.03h.03l.07-.02h.02l.01-.01h.01l.07-.02h.01l.02-.01.05-.02h.03l.02-.02a1.37 1.37 0 00.37-.2 1.15 1.15 0 00.15-.15l.02-.03.06-.08a1.5 1.5 0 00.11-.2l.02-.03.04-.12c.48-1.4.57-3.5 1.32-4.4.59-.71.92-.87 1.04-.91l.04.28c.06.45-.16.8-.08 1.28.1.49.36.47.36.47s.26.02.35-.47c.1-.48-.13-.83-.07-1.28l.04-.28c.12.04.45.2 1.04.91.74.91.83 3.01 1.3 4.41l.05.11.01.04.04.07.02.03.05.1a1.18 1.18 0 00.14.16l.02.02a1.22 1.22 0 00.24.18l.02.02a1.32 1.32 0 00.17.07l.01.01.03.01.03.01.03.01h.01l.02.01h.02l.03.02h.04l.01.01h.02a3.33 3.33 0 00.2.04 2.38 2.38 0 00.2.02H16.92l.07-.01h.03l.1-.02a1.5 1.5 0 01.09 0l.03-.01.07-.01h.02l.09-.02h.03l.06-.01h.02l.18-.03a2.46 2.46 0 01.13-.02h.02l.04-.01h.02l.05-.01c.6-.06.36.5.86.78.51.3.22-.91.15-1.42-.07-.52-.1-.66.28-.58z" fill="#92348F"/><path d="M12.88 7.19c.3-.1.43-.49.28-.87-.15-.39-.52-.63-.82-.53-.3.1-.43.48-.28.87.15.39.52.62.82.53z" stroke="#fff" stroke-width="2" stroke-miterlimit="10"/><path d="M7.84 4.6a8 8 0 002.28 1.17c1.1.82 1.67 1.57 2.49 1.68.82.1 1.14-.78 1.82-1.5C15.11 5.2 16 4.6 16 4.6s-1.12 1.41-1.7 2.2c-.59.8-.25 1.12-.12 1.34.13.23-.1.58-.36 1-.25.42-.28.71-.24 1.35.04.63.14 1.6-.36 2.12-.5.51-.88.97-.96 1.58-.08.6-.08 4.1-.2 4.1-.12 0-.6-2.94-.73-3.96-.12-1.02-.77-2.82-.06-3.7.7-.87 1.15-1.05 1.06-1.77-.1-.72-.61-1.04-1.49-1.85-.88-.82-3-2.4-3-2.4z" stroke="#fff" stroke-width="2" stroke-miterlimit="10"/><path d="M12.88 7.19c.3-.1.43-.49.28-.87-.15-.39-.52-.62-.82-.53-.3.1-.43.48-.28.87.15.39.52.62.82.53z" fill="#ED4993"/><path d="M7.84 4.6a8 8 0 002.28 1.17c1.1.82 1.67 1.57 2.49 1.68.82.1 1.14-.78 1.82-1.5C15.11 5.2 16 4.6 16 4.6s-1.12 1.41-1.7 2.2c-.59.8-.25 1.12-.12 1.34.13.23-.1.58-.36 1-.25.42-.28.71-.24 1.35.04.63.14 1.6-.36 2.12-.5.51-.88.97-.96 1.58-.08.6-.08 4.1-.2 4.1-.12 0-.6-2.94-.73-3.96-.12-1.02-.77-2.82-.06-3.7.7-.87 1.15-1.05 1.06-1.77-.1-.72-.61-1.04-1.49-1.85-.88-.82-3-2.4-3-2.4z" fill="#ED4993"/></svg>