<svg width="458" height="77" viewBox="0 0 458 77" fill="none" xmlns="http://www.w3.org/2000/svg">
<path d="M13.8 41.3999C14.7 41.3999 15.6 41.3 16.4 41C17.3 40.8 18 40.3999 18.7 39.8999C19.4 39.3999 19.9 38.8 20.3 38.1C20.7 37.4 20.9 36.6 20.9 35.7C20.9 34.6 20.6 33.5999 20 32.7999C19.4 31.8999 18.7 31.1999 17.8 30.3999C16.9 29.6999 15.8 28.9999 14.6 28.3999C13.4 27.7999 12.2 27.1 11 26.5C9.8 25.9 8.6 25.2 7.4 24.5C6.2 23.8 5.2 23 4.2 22.2C3.3 21.3 2.5 20.3999 2 19.2999C1.4 18.1999 1.09999 17 1.09999 15.7C1.09999 14.3 1.4 13.0999 1.9 11.8999C2.4 10.6999 3.2 9.69995 4.2 8.89995C5.2 7.99995 6.4 7.39995 7.9 6.89995C9.4 6.39995 11 6.19995 12.9 6.19995C14.6 6.19995 16.1 6.39995 17.4 6.69995C18.7 7.09995 19.9 7.59996 20.9 8.29996C21.9 8.99996 22.8 9.89995 23.5 10.8999C24.2 11.8999 24.8 13.1 25.2 14.5L22.1 15.8999C21.7 14.7999 21.3 13.7999 20.7 12.8999C20.1 11.9999 19.5 11.2 18.7 10.6C17.9 9.99996 17 9.49996 16 9.09996C15 8.69996 13.8 8.59996 12.6 8.59996C11.5 8.59996 10.5 8.79996 9.59999 9.09996C8.79999 9.39996 8 9.79996 7.5 10.3C6.9 10.8 6.5 11.4 6.2 12C5.9 12.6 5.8 13.3 5.8 14C5.8 14.9 6.1 15.8 6.7 16.6C7.3 17.4 8 18.0999 9 18.7999C10 19.4999 11 20.1999 12.3 20.7999C13.5 21.3999 14.8 22.0999 16 22.7999C17.3 23.4999 18.5 24.1999 19.7 24.8999C20.9 25.5999 22 26.3999 23 27.2999C24 28.1999 24.7 29.1 25.3 30.1C25.9 31.1 26.2 32.3 26.2 33.5C26.2 34.9 25.9 36.3 25.4 37.5C24.9 38.8 24 39.7999 23 40.7999C21.9 41.6999 20.6 42.5 19 43C17.4 43.5 15.5 43.7999 13.4 43.7999C11.7 43.7999 10.1 43.6 8.8 43.2C7.4 42.8 6.3 42.3 5.2 41.6C4.2 40.9 3.3 40 2.5 39C1.8 38 1.2 36.7999 0.699997 35.3999L3.9 34.1C4.3 35.3 4.8 36.3 5.4 37.2C6 38.1 6.79999 38.9 7.59999 39.5C8.39999 40.1 9.4 40.6 10.4 41C11.5 41.2 12.6 41.3999 13.8 41.3999Z" fill="#06070A"/>
<path d="M40.2 7H46.2V22.9L65.1 7H69L51.1 22.1L73.8 42.9H66.1L46.2 24.7V42.9H40.2V7Z" fill="#06070A"/>
<path d="M84.3 7H90.3V42.9H84.3V7Z" fill="#06070A"/>
<path d="M105.6 7H109L132.5 33.2H132.8V7H135.5V43.7H134L108.5 14.5H108.3V42.8H105.6V7Z" fill="#06070A"/>
<path d="M150.7 7H163.1C165.2 7 167.1 7.2 168.8 7.7C170.4 8.2 171.8 8.80001 172.9 9.60001C174 10.4 174.8 11.4 175.3 12.6C175.8 13.7 176.1 15 176.1 16.3C176.1 17.4 175.9 18.5 175.5 19.4C175.1 20.4 174.5 21.3 173.7 22C172.9 22.8 172 23.5 170.9 24C169.8 24.6 168.6 25 167.3 25.3L180.4 42.7H173.4L161 26H156.8V42.9H150.8V7H150.7ZM156.8 24.2H160.3C161.7 24.2 162.9 24 164 23.7C165.1 23.3 166.1 22.8 167 22.2C167.8 21.5 168.5 20.7 169 19.8C169.5 18.9 169.7 17.8 169.7 16.6C169.7 15.5 169.5 14.5 169.1 13.6C168.7 12.7 168.2 11.9 167.5 11.3C166.8 10.7 166 10.2 165.1 9.8C164.2 9.4 163.2 9.3 162.1 9.3H156.8V24.2Z" fill="#06070A"/>
<path d="M242.5 7H248.7L262.7 34.5H263L276.7 7H282.8V42.9H276.7V13.5H276.5L261.8 42.9H260.6L245.7 13.7H245.3V42.9H242.6V7H242.5Z" fill="#06070A"/>
<path d="M312 6.19995L328.9 42.8999H322.8L317.3 30.8999H301.9L296.2 42.8999H293.2L310.5 6.19995H312ZM302.9 28.6H316.1L309.6 14.3999L302.9 28.6Z" fill="#06070A"/>
<path d="M339.4 7H342.8L366.3 33.2H366.6V7H369.3V43.7H367.9L342.4 14.5H342.2V42.8H339.5V7H339.4Z" fill="#06070A"/>
<path d="M390.1 25C390.1 27.5 390.5 29.8 391.2 31.7C392 33.7 393 35.3999 394.3 36.7999C395.6 38.1999 397.2 39.2 399 40C400.8 40.7 402.8 41.1 404.9 41.1C406.2 41.1 407.4 40.8999 408.6 40.3999C409.8 39.8999 410.9 39.3 411.9 38.5C412.9 37.7 413.8 36.7999 414.6 35.7999C415.4 34.7999 416 33.7999 416.5 32.7999L419 34.3999C418.3 35.5999 417.4 36.7999 416.4 37.8999C415.4 38.9999 414.2 39.9999 412.9 40.7999C411.6 41.6999 410.1 42.2999 408.4 42.7999C406.7 43.2999 404.9 43.6 402.8 43.6C399.8 43.6 397.1 43.1 394.7 42.1C392.3 41.1 390.2 39.8 388.5 38.1C386.8 36.4 385.4 34.4 384.5 32.2C383.6 29.9 383.1 27.5 383.1 25C383.1 23.3 383.3 21.7 383.7 20.1C384.1 18.5 384.8 17 385.6 15.6C386.4 14.2 387.4 12.8999 388.6 11.7999C389.8 10.5999 391.1 9.59996 392.6 8.79996C394.1 7.99996 395.7 7.29995 397.5 6.89995C399.3 6.39995 401.2 6.19995 403.2 6.19995C405.1 6.19995 406.9 6.49995 408.5 6.99995C410.1 7.49995 411.6 8.19995 412.9 8.99995C414.2 9.79995 415.4 10.7999 416.4 11.8999C417.4 12.9999 418.3 14.1999 419.1 15.3999L416.5 17.1C415 14.2 413.3 12.1 411.5 10.7C409.6 9.39995 407.5 8.69995 405.1 8.69995C403 8.69995 401.1 9.09996 399.3 9.79996C397.5 10.6 395.9 11.6 394.6 13C393.3 14.4 392.2 16.1 391.4 18.1C390.5 20.2 390.1 22.5 390.1 25Z" fill="#06070A"/>
<path d="M457.9 7V9.3H439V22.1H451.7V24.4H439V40.5H457.9V42.8H433V7H457.9Z" fill="#06070A"/>
<path d="M63.7 64.5H72.6V76.5H71.8V65.2H64.5V76.5H63.7V64.5Z" fill="#06070A"/>
<path d="M80 70.8H78.5V76.5H77.7V64.5H80C81 64.5 81.9 64.8 82.5 65.3C83.2 65.8 83.5 66.6 83.5 67.6C83.5 68.6 83.2 69.4 82.5 69.9C81.9 70.5 81 70.8 80 70.8ZM78.4 65.2V70.1H80C80.8 70.1 81.4 69.9 81.9 69.4C82.4 69 82.6 68.4 82.6 67.6C82.6 66.8 82.4 66.2 81.9 65.8C81.4 65.4 80.7 65.2 79.9 65.2H78.4Z" fill="#06070A"/>
<path d="M88.6 66.1001C89.8 64.9001 91.3 64.3 93 64.3C94.7 64.3 96.2 64.9001 97.4 66.1001C98.6 67.3001 99.2 68.8001 99.2 70.5001C99.2 72.2001 98.6 73.7001 97.4 74.9001C96.2 76.1001 94.7 76.7001 93 76.7001C91.3 76.7001 89.8 76.1001 88.6 74.9001C87.4 73.7001 86.8 72.2001 86.8 70.5001C86.8 68.8001 87.4 67.3001 88.6 66.1001ZM89.2 74.4001C90.2 75.5001 91.5 76.0001 93.1 76.0001C94.7 76.0001 95.9 75.5001 97 74.4001C98 73.4001 98.5 72.1001 98.5 70.5001C98.5 69.0001 98 67.7001 97 66.6001C96 65.6001 94.7 65.0001 93.1 65.0001C91.5 65.0001 90.3 65.5001 89.2 66.6001C88.2 67.7001 87.7 68.9001 87.7 70.5001C87.6 72.0001 88.1 73.3001 89.2 74.4001Z" fill="#06070A"/>
<path d="M109 76.5V74.8H108.5C107.6 74.8 106.9 74.7 106.2 74.5C105.5 74.3 105 74 104.6 73.7C104.2 73.4 103.9 73 103.6 72.6C103.3 72.2 103.2 71.8 103.1 71.3C103 70.9 103 70.5 103 70.1C103 69.7 103 69.3 103.1 68.9C103.2 68.5 103.4 68.1 103.6 67.6C103.8 67.1 104.2 66.8 104.6 66.5C105 66.2 105.5 65.9 106.2 65.7C106.9 65.5 107.6 65.4 108.5 65.4H109V64H109.8V65.4H110.3C111.2 65.4 111.9 65.5 112.6 65.7C113.3 65.9 113.8 66.2 114.2 66.5C114.6 66.8 114.9 67.2 115.2 67.6C115.5 68 115.6 68.4 115.7 68.9C115.8 69.3 115.8 69.7 115.8 70.1C115.8 70.5 115.8 70.9 115.7 71.3C115.6 71.7 115.4 72.1 115.2 72.6C114.9 73 114.6 73.4 114.2 73.7C113.8 74 113.3 74.3 112.6 74.5C111.9 74.7 111.2 74.8 110.3 74.8H109.8V76.5H109ZM109 74.1V66.2H108.5C107.6 66.2 106.9 66.3 106.2 66.6C105.5 66.9 105.1 67.2 104.8 67.6C104.5 68 104.2 68.4 104.1 68.9C104 69.3 103.9 69.8 103.9 70.3C103.9 70.8 104 71.2 104.1 71.7C104.2 72.1 104.5 72.5 104.8 73C105.1 73.4 105.6 73.7 106.2 74C106.8 74.3 107.6 74.4 108.5 74.4H109V74.1ZM109.8 66.1V74H110.3C111.2 74 111.9 73.9 112.6 73.6C113.3 73.3 113.7 73 114 72.6C114.3 72.2 114.6 71.8 114.7 71.3C114.8 70.9 114.9 70.4 114.9 69.9C114.9 69.4 114.8 69 114.7 68.5C114.6 68.1 114.3 67.7 114 67.2C113.7 66.8 113.2 66.5 112.6 66.2C112 65.9 111.2 65.8 110.3 65.8H109.8V66.1Z" fill="#06070A"/>
<path d="M126 64.5V65.2H121V69.6H125.9V70.3H121V75.8H126V76.5H120.2V64.5H126Z" fill="#06070A"/>
<path d="M140 65.8999V66.8999C139.5 66.2999 138.9 65.7999 138.2 65.4999C137.5 65.1999 136.8 64.9999 136 64.9999C134.5 64.9999 133.2 65.4999 132.2 66.5999C131.2 67.6999 130.7 68.9999 130.7 70.4999C130.7 71.3999 130.9 72.0999 131.2 72.7999C131.5 73.4999 132 74.0999 132.5 74.4999C133 74.8999 133.6 75.2999 134.2 75.4999C134.8 75.6999 135.4 75.8999 136.1 75.8999C136.8 75.8999 137.5 75.7999 138.2 75.4999C138.9 75.1999 139.6 74.6999 140.1 74.0999V75.0999C139 76.0999 137.6 76.5999 136.1 76.5999C134.3 76.5999 132.8 75.9999 131.6 74.7999C130.4 73.5999 129.8 72.0999 129.8 70.3999C129.8 68.6999 130.4 67.1999 131.6 65.9999C132.8 64.7999 134.3 64.2 136 64.2C137.5 64.3 138.9 64.7999 140 65.8999Z" fill="#06070A"/>
<path d="M154 65.8999V66.8999C153.5 66.2999 152.9 65.7999 152.2 65.4999C151.5 65.1999 150.8 64.9999 150 64.9999C148.5 64.9999 147.2 65.4999 146.2 66.5999C145.2 67.6999 144.7 68.9999 144.7 70.4999C144.7 71.3999 144.9 72.0999 145.2 72.7999C145.5 73.4999 146 74.0999 146.5 74.4999C147 74.8999 147.6 75.2999 148.2 75.4999C148.8 75.6999 149.4 75.8999 150.1 75.8999C150.8 75.8999 151.5 75.7999 152.2 75.4999C152.9 75.1999 153.6 74.6999 154.1 74.0999V75.0999C153 76.0999 151.6 76.5999 150.1 76.5999C148.3 76.5999 146.8 75.9999 145.6 74.7999C144.4 73.5999 143.8 72.0999 143.8 70.3999C143.8 68.6999 144.4 67.1999 145.6 65.9999C146.8 64.7999 148.3 64.2 150 64.2C151.5 64.3 152.9 64.7999 154 65.8999Z" fill="#06070A"/>
<path d="M166.9 76.4999V66.4999L158.3 76.7999V64.4999H159.1V74.6999L167.7 64.3999V76.4999H166.9Z" fill="#06070A"/>
<path d="M173.9 66.1001C175.1 64.9001 176.6 64.3 178.3 64.3C180 64.3 181.5 64.9001 182.7 66.1001C183.9 67.3001 184.5 68.8001 184.5 70.5001C184.5 72.2001 183.9 73.7001 182.7 74.9001C181.5 76.1001 180 76.7001 178.3 76.7001C176.6 76.7001 175.1 76.1001 173.9 74.9001C172.7 73.7001 172.1 72.2001 172.1 70.5001C172.1 68.8001 172.7 67.3001 173.9 66.1001ZM174.5 74.4001C175.5 75.5001 176.8 76.0001 178.4 76.0001C180 76.0001 181.2 75.5001 182.3 74.4001C183.3 73.4001 183.8 72.1001 183.8 70.5001C183.8 69.0001 183.3 67.7001 182.3 66.6001C181.3 65.6001 180 65.0001 178.4 65.0001C176.8 65.0001 175.6 65.5001 174.5 66.6001C173.5 67.7001 173 68.9001 173 70.5001C172.9 72.0001 173.5 73.3001 174.5 74.4001Z" fill="#06070A"/>
<path d="M189.8 64.5V69.6H197.1V64.5H197.9V76.5H197V70.3H189.7V76.5H189V64.5H189.8Z" fill="#06070A"/>
<path d="M210.7 76.5001L209.1 72.6001H204L202.4 76.5001H201.5L206.6 64.1001L211.6 76.5001H210.7ZM204.3 71.8001H208.8L206.6 66.1001L204.3 71.8001Z" fill="#06070A"/>
<path d="M216.4 64.5H223.2V76.5H222.4V65.2H217.2V72.2C217.2 72.8 217.2 73.3 217.2 73.6C217.2 73.9 217.1 74.3 217 74.8C216.9 75.3 216.7 75.6 216.4 75.9C216 76.4 215.4 76.6 214.7 76.6C214.5 76.6 214.3 76.6 214 76.5V75.8C214.2 75.9 214.5 75.9 214.7 75.9C215.2 75.9 215.6 75.7 215.9 75.4C216.1 75.2 216.3 74.9 216.4 74.5C216.5 74.1 216.6 73.8 216.6 73.5C216.6 73.2 216.6 72.8 216.6 72.2V64.5H216.4Z" fill="#06070A"/>
<path d="M228.2 76.5V64.5H229V69.7H231.1C233.9 69.7 235.2 70.8 235.2 73C235.2 74 234.9 74.8 234.2 75.5C233.5 76.2 232.6 76.5 231.3 76.5H228.2ZM229 70.4V75.8H231C232.2 75.8 233.1 75.5 233.6 75C234.1 74.5 234.4 73.8 234.4 73C234.4 72 234 71.2 233.2 70.8C232.7 70.6 232 70.4 230.9 70.4H229Z" fill="#06070A"/>
<path d="M240.2 64.5V69.6H247.5V64.5H248.3V76.5H247.5V70.3H240.2V76.5H239.4V64.5H240.2Z" fill="#06070A"/>
<path d="M261.1 76.5001L259.5 72.6001H254.4L252.8 76.5001H252L257.1 64.1001L262.1 76.5001H261.1ZM254.7 71.8001H259.2L257 66.1001L254.7 71.8001Z" fill="#06070A"/>
<path d="M264.7 76.4999L268.3 71.0999C267.8 71.0999 267.4 70.9999 267 70.7999C266.8 70.6999 266.7 70.6999 266.5 70.5999C266.3 70.4999 266.1 70.2999 265.9 70.0999C265.7 69.8999 265.5 69.5999 265.3 69.1999C265.1 68.7999 265.1 68.2999 265.1 67.7999C265.1 67.0999 265.3 66.4999 265.6 65.9999C265.9 65.4999 266.3 65.1999 266.7 64.8999C267.2 64.5999 268 64.3999 268.9 64.3999H271V76.3999H270.2V70.9999H269.3L265.7 76.3999H264.7V76.4999ZM270.1 65.1999H268.8C268.1 65.1999 267.6 65.2999 267.2 65.4999C266.8 65.6999 266.4 65.9999 266.2 66.3999C266 66.7999 265.8 67.2999 265.8 67.7999C265.8 68.5999 266.1 69.2999 266.6 69.7999C267.1 70.1999 267.8 70.3999 268.7 70.3999H270.1V65.1999Z" fill="#06070A"/>
<path d="M282.7 64.5V70.2L288.4 64.5H289.4L283.6 70.2L289.8 76.5H288.7L283 70.8L282.7 71.1V76.5H281.9V64.5H282.7Z" fill="#06070A"/>
<path d="M294.6 66.1001C295.8 64.9001 297.3 64.3 299 64.3C300.7 64.3 302.2 64.9001 303.4 66.1001C304.6 67.3001 305.2 68.8001 305.2 70.5001C305.2 72.2001 304.6 73.7001 303.4 74.9001C302.2 76.1001 300.7 76.7001 299 76.7001C297.3 76.7001 295.8 76.1001 294.6 74.9001C293.4 73.7001 292.8 72.2001 292.8 70.5001C292.8 68.8001 293.4 67.3001 294.6 66.1001ZM295.2 74.4001C296.2 75.5001 297.5 76.0001 299.1 76.0001C300.7 76.0001 301.9 75.5001 303 74.4001C304 73.4001 304.5 72.1001 304.5 70.5001C304.5 69.0001 304 67.7001 303 66.6001C302 65.6001 300.7 65.0001 299.1 65.0001C297.5 65.0001 296.3 65.5001 295.2 66.6001C294.2 67.7001 293.7 68.9001 293.7 70.5001C293.6 72.0001 294.2 73.3001 295.2 74.4001Z" fill="#06070A"/>
<path d="M319.3 65.8999V66.8999C318.8 66.2999 318.2 65.7999 317.5 65.4999C316.8 65.1999 316.1 64.9999 315.3 64.9999C313.8 64.9999 312.5 65.4999 311.5 66.5999C310.5 67.6999 310 68.9999 310 70.4999C310 71.3999 310.2 72.0999 310.5 72.7999C310.8 73.4999 311.3 74.0999 311.8 74.4999C312.3 74.8999 312.9 75.2999 313.5 75.4999C314.1 75.6999 314.7 75.8999 315.4 75.8999C316.1 75.8999 316.8 75.7999 317.5 75.4999C318.2 75.1999 318.9 74.6999 319.4 74.0999V75.0999C318.3 76.0999 316.9 76.5999 315.4 76.5999C313.6 76.5999 312.1 75.9999 310.9 74.7999C309.7 73.5999 309.1 72.0999 309.1 70.3999C309.1 68.6999 309.7 67.1999 310.9 65.9999C312.1 64.7999 313.6 64.2 315.3 64.2C316.8 64.3 318.2 64.7999 319.3 65.8999Z" fill="#06070A"/>
<path d="M324.3 76.5001H323.5L324.9 64.1001L330.1 75.2001L335.3 64.1001L336.7 76.5001H335.9L334.8 66.9001L330.1 77.0001L325.4 66.9001L324.3 76.5001Z" fill="#06070A"/>
<path d="M347.3 64.5V65.2H342.3V69.6H347.2V70.3H342.3V75.8H347.3V76.5H341.5V64.5H347.3Z" fill="#06070A"/>
<path d="M357.4 65.2H354.3V76.5H353.5V65.2H350.4V64.5H357.4V65.2Z" fill="#06070A"/>
<path d="M369.6 76.4999V66.4999L361 76.7999V64.4999H361.8V74.6999L370.4 64.3999V76.4999H369.6Z" fill="#06070A"/>
<path d="M376.3 64.5V70.2L382 64.5H383L377.2 70.2L383.4 76.5H382.3L376.6 70.8L376.3 71.1V76.5H375.5V64.5H376.3Z" fill="#06070A"/>
<path d="M394.8 76.5001L393.2 72.6001H388.1L386.5 76.5001H385.6L390.7 64.1001L395.7 76.5001H394.8ZM388.4 71.8001H392.9L390.7 66.1001L388.4 71.8001Z" fill="#06070A"/>
<path d="M203.3 13C202.2 14.5 201.4 16.2999 200.9 18.2999C200.4 20.3999 200.1 22.6 200.1 25.1C200.1 27.6 200.4 29.9 200.9 32C201.4 34.1 202.2 35.8999 203.3 37.3999C204.4 38.8999 205.7 40.1 207.3 41C208.9 41.9 210.7 42.2999 212.8 42.2999C213 42.2999 213.1 42.2999 213.3 42.2999C215.4 37.1999 220.2 23.3 214.5 13.7C213.3 11.7 211.8 10.1 210.1 8.69995C209.1 8.89995 208.2 9.19995 207.4 9.69995C205.7 10.4 204.4 11.5 203.3 13Z" fill="#9FB270"/>
<path d="M198.7 38.4999C196.9 36.7999 195.5 34.7999 194.5 32.4999C193.5 30.1999 193 27.6999 193 25.0999C193 23.3999 193.2 21.6999 193.7 20.1999C194.2 18.5999 194.8 17.0999 195.7 15.7999C196.5 14.3999 197.6 13.1999 198.8 12.0999C200 10.9999 201.3 9.99991 202.8 9.19991C204.3 8.39991 205.8 7.79991 207.5 7.29991C207.7 7.29991 207.8 7.19991 208 7.19991C199.1 1.39991 186.6 0.899902 186.6 0.899902C186.6 0.899902 177.4 19.4999 184.5 31.4999C191.6 43.4999 212.4 44.3999 212.4 44.3999C212.4 44.3999 212.4 44.2999 212.5 44.1999C209.8 44.1999 207.3 43.6999 205 42.6999C202.6 41.5999 200.5 40.1999 198.7 38.4999Z" fill="#9FB270"/>
<path d="M219.5 33.5998C216.6 35.4998 215.5 39.5998 215.2 42.0998C216.3 41.8998 217.3 41.4998 218.3 40.9998C219.9 40.0998 221.2 38.8998 222.3 37.3998C223.3 35.9998 224.1 34.2998 224.6 32.2998C222.8 32.2998 221 32.5998 219.5 33.5998Z" fill="#9FB270"/>
<path d="M226.8 38.4998C225.6 39.6998 224.3 40.5998 222.8 41.4998C221.3 42.2998 219.7 42.9998 218.1 43.3998C217.1 43.6998 216 43.7998 215 43.9998C215 44.1998 215 44.2998 215 44.2998C215 44.2998 222.1 47.2998 226.5 44.3998C230.9 41.4998 231 33.7998 231 33.7998C231 33.7998 230.8 33.6999 230.5 33.5999C230.3 33.9999 230.1 34.3998 229.9 34.7998C229.1 36.0998 228 37.3998 226.8 38.4998Z" fill="#9FB270"/>
<path d="M213.3 42.2998C212.9 43.1998 212.7 43.7999 212.5 44.0999C212.6 44.0999 212.7 44.0999 212.8 44.0999C213.5 44.0999 214.3 44.0998 215 43.9998C215 43.6998 215.1 42.9999 215.2 42.0999C214.5 42.1999 213.9 42.2998 213.3 42.2998Z" fill="#9FB270"/>
<path d="M232.6 25.0999C232.6 23.3999 232.4 21.6999 231.9 20.1999C231.4 18.5999 230.8 17.0998 229.9 15.7998C229 14.3998 228 13.1999 226.8 12.0999C225.6 10.9999 224.3 9.99984 222.8 9.19984C221.3 8.39984 219.7 7.79985 218.1 7.29985C216.4 6.89985 214.6 6.59985 212.8 6.59985C211.1 6.59985 209.5 6.79985 208 7.09985C208.7 7.59985 209.4 8.09985 210 8.59985C210.9 8.39985 211.8 8.29985 212.8 8.29985C214.9 8.29985 216.7 8.69985 218.2 9.49985C219.8 10.2998 221.1 11.4998 222.2 12.9998C223.3 14.4998 224.1 16.2998 224.6 18.2998C225.2 20.3998 225.4 22.5999 225.4 25.0999C225.4 27.5999 225.1 29.8998 224.6 31.9998C224.6 32.0998 224.5 32.1998 224.5 32.3998C227.1 32.3998 229.5 33.1999 230.5 33.5999C231 32.4999 231.5 31.3999 231.8 30.1999C232.3 28.4999 232.6 26.8999 232.6 25.0999Z" fill="#9FB270"/>
</svg>
