<svg width="238" height="40" viewBox="0 0 238 40" fill="none" xmlns="http://www.w3.org/2000/svg">
<path d="M7.16884 21.5065C7.63638 21.5065 8.10391 21.4545 8.51949 21.2987C8.98702 21.1948 9.35066 20.987 9.7143 20.7273C10.0779 20.4675 10.3377 20.1558 10.5455 19.7922C10.7533 19.4286 10.8572 19.013 10.8572 18.5454C10.8572 17.974 10.7013 17.4545 10.3896 17.0389C10.0779 16.5714 9.7143 16.2078 9.24677 15.7922C8.77923 15.4286 8.2078 15.0649 7.58443 14.7532C6.96105 14.4415 6.33767 14.0779 5.7143 13.7662C5.09092 13.4545 4.46754 13.0909 3.84417 12.7273C3.22079 12.3636 2.70131 11.948 2.18183 11.5325C1.7143 11.0649 1.29871 10.5974 1.03897 10.026C0.727283 9.45453 0.571438 8.83116 0.571438 8.15584C0.571438 7.42856 0.727284 6.80518 0.987024 6.1818C1.24676 5.55842 1.66235 5.03894 2.18183 4.62336C2.70131 4.15583 3.32469 3.84414 4.10391 3.5844C4.88313 3.32466 5.7143 3.22076 6.70131 3.22076C7.58443 3.22076 8.36365 3.32466 9.03897 3.4805C9.7143 3.6883 10.3377 3.94804 10.8572 4.31168C11.3766 4.67531 11.8442 5.14284 12.2078 5.66232C12.5714 6.1818 12.8831 6.80518 13.0909 7.53245L11.4805 8.25972C11.2727 7.68829 11.0649 7.16881 10.7533 6.70128C10.4416 6.23375 10.1299 5.81817 9.7143 5.50648C9.29871 5.19479 8.83118 4.93505 8.3117 4.72726C7.79222 4.51947 7.16884 4.46752 6.54546 4.46752C5.97404 4.46752 5.45456 4.57142 4.98702 4.72726C4.57144 4.88311 4.15585 5.0909 3.89611 5.35064C3.58443 5.61038 3.37663 5.92206 3.22079 6.23375C3.06495 6.54544 3.013 6.90908 3.013 7.27271C3.013 7.74025 3.16884 8.20778 3.48053 8.62337C3.79222 9.03895 4.15585 9.40258 4.67534 9.76621C5.19482 10.1299 5.7143 10.4935 6.38962 10.8052C7.013 11.1169 7.68832 11.4805 8.3117 11.8441C8.98702 12.2078 9.6104 12.5714 10.2338 12.935C10.8572 13.2987 11.4286 13.7143 11.9481 14.1818C12.4675 14.6493 12.8312 15.1169 13.1429 15.6364C13.4546 16.1558 13.6104 16.7792 13.6104 17.4026C13.6104 18.1299 13.4546 18.8571 13.1948 19.4805C12.9351 20.1558 12.4675 20.6753 11.9481 21.1948C11.3766 21.6623 10.7013 22.0779 9.87014 22.3376C9.03897 22.5974 8.05196 22.7532 6.96105 22.7532C6.07793 22.7532 5.24676 22.6493 4.57144 22.4416C3.84417 22.2338 3.27274 21.974 2.70131 21.6104C2.18183 21.2467 1.7143 20.7792 1.29871 20.2597C0.935076 19.7402 0.623388 19.1169 0.363647 18.3896L2.02599 17.7143C2.23378 18.3377 2.49352 18.8571 2.80521 19.3247C3.11689 19.7922 3.53248 20.2078 3.94806 20.5195C4.36365 20.8312 4.88313 21.0909 5.40261 21.2987C5.97404 21.4026 6.54547 21.5065 7.16884 21.5065Z" fill="#06070A"/>
<path d="M20.8831 3.63635H24V11.8961L33.8182 3.63635H35.8442L26.5455 11.4805L38.3377 22.2857H34.3377L24 12.8312V22.2857H20.8831V3.63635Z" fill="#06070A"/>
<path d="M43.7922 3.63635H46.9091V22.2857H43.7922V3.63635Z" fill="#06070A"/>
<path d="M54.8572 3.63635H56.6234L68.8312 17.2467H68.987V3.63635H70.3896V22.7013H69.6104L56.3637 7.53246H56.2598V22.2337H54.8572V3.63635Z" fill="#06070A"/>
<path d="M78.2857 3.63635H84.7273C85.8182 3.63635 86.8052 3.74025 87.6883 3.99999C88.5195 4.25973 89.2468 4.57142 89.8182 4.98701C90.3896 5.40259 90.8052 5.92207 91.0649 6.54545C91.3247 7.11688 91.4805 7.79219 91.4805 8.46751C91.4805 9.03894 91.3766 9.61038 91.1688 10.0779C90.961 10.5974 90.6494 11.0649 90.2338 11.4286C89.8182 11.8441 89.3507 12.2078 88.7792 12.4675C88.2078 12.7792 87.5844 12.987 86.9091 13.1428L93.7143 22.1818H90.0779L83.6364 13.5065H81.4546V22.2857H78.3377V3.63635H78.2857ZM81.4546 12.5714H83.2727C84 12.5714 84.6234 12.4675 85.1948 12.3117C85.7662 12.1039 86.2857 11.8442 86.7533 11.5325C87.1688 11.1688 87.5325 10.7532 87.7922 10.2857C88.052 9.81816 88.1558 9.24675 88.1558 8.62337C88.1558 8.05194 88.052 7.53246 87.8442 7.06493C87.6364 6.59739 87.3766 6.1818 87.013 5.87011C86.6494 5.55842 86.2338 5.29869 85.7662 5.0909C85.2987 4.88311 84.7792 4.83116 84.2078 4.83116H81.4546V12.5714Z" fill="#06070A"/>
<path d="M125.974 3.63635H129.195L136.468 17.9221H136.623L143.74 3.63635H146.909V22.2857H143.74V7.01298H143.636L136 22.2857H135.377L127.636 7.11688H127.429V22.2857H126.026V3.63635H125.974Z" fill="#06070A"/>
<path d="M162.078 3.22076L170.857 22.2857H167.688L164.831 16.0519H156.831L153.87 22.2857H152.312L161.299 3.22076H162.078ZM157.351 14.8571H164.208L160.831 7.4805L157.351 14.8571Z" fill="#06070A"/>
<path d="M176.312 3.63635H178.078L190.286 17.2467H190.442V3.63635H191.844V22.7013H191.117L177.87 7.53246H177.766V22.2337H176.364V3.63635H176.312Z" fill="#06070A"/>
<path d="M202.649 12.987C202.649 14.2857 202.857 15.4805 203.221 16.4675C203.636 17.5065 204.156 18.3896 204.831 19.1169C205.506 19.8441 206.338 20.3636 207.273 20.7792C208.208 21.1428 209.247 21.3506 210.338 21.3506C211.013 21.3506 211.636 21.2467 212.26 20.987C212.883 20.7273 213.455 20.4156 213.974 20C214.494 19.5844 214.961 19.1169 215.377 18.5974C215.792 18.0779 216.104 17.5584 216.364 17.0389L217.662 17.8701C217.299 18.4935 216.831 19.1169 216.312 19.6883C215.792 20.2597 215.169 20.7792 214.494 21.1948C213.818 21.6623 213.039 21.974 212.156 22.2337C211.273 22.4935 210.338 22.6493 209.247 22.6493C207.688 22.6493 206.286 22.3896 205.039 21.8701C203.792 21.3506 202.701 20.6753 201.818 19.7922C200.935 18.9091 200.208 17.8701 199.74 16.7273C199.273 15.5325 199.013 14.2857 199.013 12.987C199.013 12.1039 199.117 11.2727 199.325 10.4415C199.532 9.61038 199.896 8.83116 200.312 8.10389C200.727 7.37661 201.247 6.70128 201.87 6.12985C202.494 5.50647 203.169 4.987 203.948 4.57142C204.727 4.15583 205.558 3.79219 206.494 3.5844C207.429 3.32466 208.416 3.22076 209.455 3.22076C210.442 3.22076 211.377 3.37661 212.208 3.63635C213.039 3.89609 213.818 4.25973 214.494 4.67531C215.169 5.0909 215.792 5.61037 216.312 6.1818C216.831 6.75323 217.299 7.37661 217.714 7.99998L216.364 8.88311C215.584 7.37661 214.701 6.2857 213.766 5.55843C212.779 4.8831 211.688 4.51947 210.442 4.51947C209.351 4.51947 208.364 4.72726 207.429 5.0909C206.494 5.50648 205.662 6.02596 204.987 6.75323C204.312 7.48051 203.74 8.36363 203.325 9.40259C202.857 10.4935 202.649 11.6883 202.649 12.987Z" fill="#06070A"/>
<path d="M237.87 3.63635V4.83116H228.052V11.4805H234.649V12.6753H228.052V21.0389H237.87V22.2337H224.935V3.63635H237.87Z" fill="#06070A"/>
<path d="M33.0909 33.5065H37.7143V39.7403H37.2987V33.8701H33.5065V39.7403H33.0909V33.5065Z" fill="#06070A"/>
<path d="M41.5584 36.7792H40.7792V39.7403H40.3636V33.5065H41.5584C42.0779 33.5065 42.5455 33.6623 42.8571 33.9221C43.2208 34.1818 43.3766 34.5974 43.3766 35.1169C43.3766 35.6364 43.2208 36.052 42.8571 36.3117C42.5455 36.6234 42.0779 36.7792 41.5584 36.7792ZM40.7273 33.8701V36.4156H41.5584C41.974 36.4156 42.2857 36.3117 42.5454 36.052C42.8052 35.8442 42.9091 35.5325 42.9091 35.1169C42.9091 34.7013 42.8052 34.3896 42.5454 34.1818C42.2857 33.974 41.9221 33.8701 41.5065 33.8701H40.7273Z" fill="#06070A"/>
<path d="M46.026 34.3377C46.6494 33.7143 47.4286 33.4026 48.3117 33.4026C49.1948 33.4026 49.974 33.7143 50.5974 34.3377C51.2208 34.961 51.5325 35.7403 51.5325 36.6234C51.5325 37.5065 51.2208 38.2857 50.5974 38.9091C49.974 39.5325 49.1948 39.8442 48.3117 39.8442C47.4286 39.8442 46.6494 39.5325 46.026 38.9091C45.4026 38.2857 45.0909 37.5065 45.0909 36.6234C45.0909 35.7403 45.4026 34.961 46.026 34.3377ZM46.3377 38.6493C46.8571 39.2208 47.5325 39.4805 48.3636 39.4805C49.1948 39.4805 49.8182 39.2208 50.3896 38.6493C50.9091 38.1299 51.1688 37.4545 51.1688 36.6234C51.1688 35.8442 50.9091 35.1688 50.3896 34.5974C49.8701 34.0779 49.1948 33.7662 48.3636 33.7662C47.5325 33.7662 46.9091 34.026 46.3377 34.5974C45.8182 35.1688 45.5584 35.7922 45.5584 36.6234C45.5065 37.4026 45.7662 38.0779 46.3377 38.6493Z" fill="#06070A"/>
<path d="M56.6234 39.7403V38.8571H56.3636C55.8961 38.8571 55.5325 38.8052 55.1688 38.7013C54.8052 38.5974 54.5455 38.4416 54.3377 38.2857C54.1299 38.1299 53.974 37.9221 53.8182 37.7143C53.6623 37.5065 53.6104 37.2987 53.5585 37.039C53.5065 36.8312 53.5065 36.6234 53.5065 36.4156C53.5065 36.2078 53.5065 36 53.5585 35.7922C53.6104 35.5844 53.7143 35.3766 53.8182 35.1169C53.9221 34.8572 54.1299 34.7013 54.3377 34.5455C54.5455 34.3896 54.8052 34.2338 55.1688 34.1299C55.5325 34.026 55.8961 33.974 56.3636 33.974H56.6234V33.2468H57.039V33.974H57.2987C57.7662 33.974 58.1299 34.026 58.4935 34.1299C58.8572 34.2338 59.1169 34.3896 59.3247 34.5455C59.5325 34.7013 59.6883 34.9091 59.8442 35.1169C60 35.3247 60.052 35.5325 60.1039 35.7922C60.1558 36 60.1559 36.2078 60.1559 36.4156C60.1559 36.6234 60.1558 36.8312 60.1039 37.039C60.052 37.2468 59.9481 37.4546 59.8442 37.7143C59.6883 37.9221 59.5325 38.1299 59.3247 38.2857C59.1169 38.4416 58.8572 38.5974 58.4935 38.7013C58.1299 38.8052 57.7662 38.8571 57.2987 38.8571H57.039V39.7403H56.6234ZM56.6234 38.4935V34.3896H56.3636C55.8961 34.3896 55.5325 34.4416 55.1688 34.5974C54.8052 34.7533 54.5974 34.9091 54.4416 35.1169C54.2857 35.3247 54.1299 35.5325 54.0779 35.7922C54.026 36 53.974 36.2597 53.974 36.5195C53.974 36.7792 54.026 36.987 54.0779 37.2468C54.1299 37.4546 54.2857 37.6624 54.4416 37.9221C54.5974 38.1299 54.8571 38.2857 55.1688 38.4416C55.4805 38.5974 55.8961 38.6494 56.3636 38.6494H56.6234V38.4935ZM57.039 34.3377V38.4416H57.2987C57.7662 38.4416 58.1299 38.3896 58.4935 38.2338C58.8572 38.0779 59.0649 37.9221 59.2208 37.7143C59.3766 37.5065 59.5325 37.2987 59.5844 37.039C59.6364 36.8312 59.6883 36.5714 59.6883 36.3117C59.6883 36.052 59.6364 35.8442 59.5844 35.5844C59.5325 35.3766 59.3766 35.1688 59.2208 34.9091C59.0649 34.7013 58.8052 34.5455 58.4935 34.3896C58.1818 34.2338 57.7662 34.1818 57.2987 34.1818H57.039V34.3377Z" fill="#06070A"/>
<path d="M65.4545 33.5065V33.8701H62.8571V36.1559H65.4026V36.5195H62.8571V39.3766H65.4545V39.7403H62.4416V33.5065H65.4545Z" fill="#06070A"/>
<path d="M72.7273 34.2338V34.7533C72.4675 34.4416 72.1558 34.1818 71.7922 34.026C71.4286 33.8702 71.0649 33.7663 70.6493 33.7663C69.8701 33.7663 69.1948 34.026 68.6753 34.5974C68.1558 35.1689 67.8961 35.8442 67.8961 36.6234C67.8961 37.0909 68 37.4546 68.1558 37.8182C68.3117 38.1818 68.5714 38.4935 68.8312 38.7013C69.0909 38.9091 69.4026 39.1169 69.7143 39.2208C70.026 39.3247 70.3377 39.4286 70.7013 39.4286C71.0649 39.4286 71.4286 39.3766 71.7922 39.2208C72.1558 39.065 72.5195 38.8052 72.7792 38.4935V39.013C72.2078 39.5325 71.4805 39.7922 70.7013 39.7922C69.7662 39.7922 68.987 39.4805 68.3636 38.8572C67.7403 38.2338 67.4286 37.4546 67.4286 36.5714C67.4286 35.6883 67.7403 34.9091 68.3636 34.2857C68.987 33.6624 69.7662 33.3507 70.6493 33.3507C71.4286 33.4026 72.1558 33.6624 72.7273 34.2338Z" fill="#06070A"/>
<path d="M80 34.2338V34.7533C79.7403 34.4416 79.4286 34.1818 79.0649 34.026C78.7013 33.8702 78.3377 33.7663 77.9221 33.7663C77.1429 33.7663 76.4675 34.026 75.9481 34.5974C75.4286 35.1689 75.1688 35.8442 75.1688 36.6234C75.1688 37.0909 75.2727 37.4546 75.4286 37.8182C75.5844 38.1818 75.8442 38.4935 76.1039 38.7013C76.3636 38.9091 76.6753 39.1169 76.987 39.2208C77.2987 39.3247 77.6104 39.4286 77.974 39.4286C78.3377 39.4286 78.7013 39.3766 79.0649 39.2208C79.4286 39.065 79.7922 38.8052 80.052 38.4935V39.013C79.4805 39.5325 78.7533 39.7922 77.974 39.7922C77.039 39.7922 76.2598 39.4805 75.6364 38.8572C75.013 38.2338 74.7013 37.4546 74.7013 36.5714C74.7013 35.6883 75.013 34.9091 75.6364 34.2857C76.2598 33.6624 77.039 33.3507 77.9221 33.3507C78.7013 33.4026 79.4286 33.6624 80 34.2338Z" fill="#06070A"/>
<path d="M86.7013 39.7403V34.5455L82.2338 39.8961V33.5065H82.6494V38.8052L87.1169 33.4546V39.7403H86.7013Z" fill="#06070A"/>
<path d="M90.3377 34.3377C90.961 33.7143 91.7403 33.4026 92.6234 33.4026C93.5065 33.4026 94.2857 33.7143 94.9091 34.3377C95.5325 34.961 95.8442 35.7403 95.8442 36.6234C95.8442 37.5065 95.5325 38.2857 94.9091 38.9091C94.2857 39.5325 93.5065 39.8442 92.6234 39.8442C91.7403 39.8442 90.961 39.5325 90.3377 38.9091C89.7143 38.2857 89.4026 37.5065 89.4026 36.6234C89.4026 35.7403 89.7143 34.961 90.3377 34.3377ZM90.6494 38.6493C91.1688 39.2208 91.8442 39.4805 92.6753 39.4805C93.5065 39.4805 94.1299 39.2208 94.7013 38.6493C95.2208 38.1299 95.4805 37.4545 95.4805 36.6234C95.4805 35.8442 95.2208 35.1688 94.7013 34.5974C94.1818 34.0779 93.5065 33.7662 92.6753 33.7662C91.8442 33.7662 91.2208 34.026 90.6494 34.5974C90.1299 35.1688 89.8701 35.7922 89.8701 36.6234C89.8182 37.4026 90.1299 38.0779 90.6494 38.6493Z" fill="#06070A"/>
<path d="M98.5974 33.5065V36.1559H102.39V33.5065H102.805V39.7403H102.338V36.5195H98.5455V39.7403H98.1818V33.5065H98.5974Z" fill="#06070A"/>
<path d="M109.455 39.7403L108.623 37.7143H105.974L105.143 39.7403H104.675L107.325 33.2987L109.922 39.7403H109.455ZM106.13 37.2987H108.468L107.325 34.3377L106.13 37.2987Z" fill="#06070A"/>
<path d="M112.416 33.5065H115.948V39.7403H115.532V33.8701H112.831V37.5065C112.831 37.8182 112.831 38.0779 112.831 38.2338C112.831 38.3896 112.779 38.5974 112.727 38.8571C112.675 39.1169 112.571 39.2727 112.416 39.4286C112.208 39.6883 111.896 39.7922 111.532 39.7922C111.429 39.7922 111.325 39.7922 111.169 39.7403V39.3766C111.273 39.4286 111.429 39.4286 111.532 39.4286C111.792 39.4286 112 39.3247 112.156 39.1688C112.26 39.0649 112.364 38.9091 112.416 38.7013C112.468 38.4935 112.519 38.3377 112.519 38.1818C112.519 38.026 112.519 37.8182 112.519 37.5065V33.5065H112.416Z" fill="#06070A"/>
<path d="M118.545 39.7403V33.5065H118.961V36.2078H120.052C121.506 36.2078 122.182 36.7792 122.182 37.9221C122.182 38.4416 122.026 38.8572 121.662 39.2208C121.299 39.5844 120.831 39.7403 120.156 39.7403H118.545ZM118.961 36.5714V39.3766H120C120.623 39.3766 121.091 39.2208 121.351 38.961C121.61 38.7013 121.766 38.3377 121.766 37.9221C121.766 37.4026 121.558 36.987 121.143 36.7792C120.883 36.6753 120.519 36.5714 119.948 36.5714H118.961Z" fill="#06070A"/>
<path d="M124.779 33.5065V36.1559H128.571V33.5065H128.987V39.7403H128.571V36.5195H124.779V39.7403H124.364V33.5065H124.779Z" fill="#06070A"/>
<path d="M135.636 39.7403L134.805 37.7143H132.156L131.325 39.7403H130.909L133.558 33.2987L136.156 39.7403H135.636ZM132.312 37.2987H134.649L133.506 34.3377L132.312 37.2987Z" fill="#06070A"/>
<path d="M137.507 39.7403L139.377 36.9351C139.117 36.9351 138.909 36.8831 138.701 36.7792C138.597 36.7273 138.545 36.7273 138.442 36.6753C138.338 36.6234 138.234 36.5195 138.13 36.4156C138.026 36.3117 137.922 36.1559 137.818 35.9481C137.714 35.7403 137.714 35.4805 137.714 35.2208C137.714 34.8572 137.818 34.5455 137.974 34.2857C138.13 34.026 138.338 33.8701 138.545 33.7143C138.805 33.5585 139.221 33.4546 139.688 33.4546H140.779V39.6883H140.364V36.8831H139.896L138.026 39.6883H137.507V39.7403ZM140.312 33.8702H139.636C139.273 33.8702 139.013 33.9221 138.805 34.026C138.597 34.1299 138.39 34.2857 138.286 34.4935C138.182 34.7013 138.078 34.961 138.078 35.2208C138.078 35.6364 138.234 36 138.494 36.2598C138.753 36.4675 139.117 36.5714 139.584 36.5714H140.312V33.8702Z" fill="#06070A"/>
<path d="M146.857 33.5065V36.4675L149.818 33.5065H150.338L147.325 36.4675L150.545 39.7403H149.974L147.013 36.7792L146.857 36.9351V39.7403H146.442V33.5065H146.857Z" fill="#06070A"/>
<path d="M153.039 34.3377C153.662 33.7143 154.442 33.4026 155.325 33.4026C156.208 33.4026 156.987 33.7143 157.61 34.3377C158.234 34.961 158.545 35.7403 158.545 36.6234C158.545 37.5065 158.234 38.2857 157.61 38.9091C156.987 39.5325 156.208 39.8442 155.325 39.8442C154.442 39.8442 153.662 39.5325 153.039 38.9091C152.416 38.2857 152.104 37.5065 152.104 36.6234C152.104 35.7403 152.416 34.961 153.039 34.3377ZM153.351 38.6493C153.87 39.2208 154.545 39.4805 155.377 39.4805C156.208 39.4805 156.831 39.2208 157.403 38.6493C157.922 38.1299 158.182 37.4545 158.182 36.6234C158.182 35.8442 157.922 35.1688 157.403 34.5974C156.883 34.0779 156.208 33.7662 155.377 33.7662C154.545 33.7662 153.922 34.026 153.351 34.5974C152.831 35.1688 152.571 35.7922 152.571 36.6234C152.519 37.4026 152.831 38.0779 153.351 38.6493Z" fill="#06070A"/>
<path d="M165.87 34.2338V34.7533C165.61 34.4416 165.299 34.1818 164.935 34.026C164.571 33.8702 164.208 33.7663 163.792 33.7663C163.013 33.7663 162.338 34.026 161.818 34.5974C161.299 35.1689 161.039 35.8442 161.039 36.6234C161.039 37.0909 161.143 37.4546 161.299 37.8182C161.455 38.1818 161.714 38.4935 161.974 38.7013C162.234 38.9091 162.545 39.1169 162.857 39.2208C163.169 39.3247 163.481 39.4286 163.844 39.4286C164.208 39.4286 164.571 39.3766 164.935 39.2208C165.299 39.065 165.662 38.8052 165.922 38.4935V39.013C165.351 39.5325 164.623 39.7922 163.844 39.7922C162.909 39.7922 162.13 39.4805 161.506 38.8572C160.883 38.2338 160.571 37.4546 160.571 36.5714C160.571 35.6883 160.883 34.9091 161.506 34.2857C162.13 33.6624 162.909 33.3507 163.792 33.3507C164.571 33.4026 165.299 33.6624 165.87 34.2338Z" fill="#06070A"/>
<path d="M168.468 39.7403H168.052L168.779 33.2987L171.481 39.0649L174.182 33.2987L174.909 39.7403H174.493L173.922 34.7532L171.481 40L169.039 34.7532L168.468 39.7403Z" fill="#06070A"/>
<path d="M180.416 33.5065V33.8701H177.818V36.1559H180.364V36.5195H177.818V39.3766H180.416V39.7403H177.403V33.5065H180.416Z" fill="#06070A"/>
<path d="M185.662 33.8701H184.052V39.7403H183.636V33.8701H182.026V33.5065H185.662V33.8701Z" fill="#06070A"/>
<path d="M192 39.7403V34.5455L187.532 39.8961V33.5065H187.948V38.8052L192.416 33.4546V39.7403H192Z" fill="#06070A"/>
<path d="M195.481 33.5065V36.4675L198.442 33.5065H198.961L195.948 36.4675L199.169 39.7403H198.597L195.636 36.7792L195.481 36.9351V39.7403H195.065V33.5065H195.481Z" fill="#06070A"/>
<path d="M205.091 39.7403L204.26 37.7143H201.61L200.779 39.7403H200.312L202.961 33.2987L205.558 39.7403H205.091ZM201.766 37.2987H204.104L202.961 34.3377L201.766 37.2987Z" fill="#06070A"/>
<path d="M105.61 6.75324C105.039 7.53246 104.623 8.46752 104.364 9.50648C104.104 10.5974 103.948 11.7403 103.948 13.039C103.948 14.3377 104.104 15.5325 104.364 16.6234C104.623 17.7143 105.039 18.6493 105.61 19.4286C106.182 20.2078 106.857 20.8312 107.688 21.2987C108.519 21.7662 109.455 21.974 110.545 21.974C110.649 21.974 110.701 21.974 110.805 21.974C111.896 19.3247 114.39 12.1039 111.429 7.11688C110.805 6.07792 110.026 5.24674 109.143 4.51947C108.623 4.62337 108.156 4.77921 107.74 5.03895C106.857 5.40259 106.182 5.97402 105.61 6.75324Z" fill="#9FB270"/>
<path d="M103.221 20C102.286 19.1169 101.558 18.0779 101.039 16.8831C100.519 15.6883 100.26 14.3896 100.26 13.039C100.26 12.1558 100.364 11.2727 100.623 10.4935C100.883 9.66234 101.195 8.88311 101.662 8.20779C102.078 7.48051 102.649 6.85715 103.273 6.28572C103.896 5.71429 104.571 5.1948 105.351 4.77922C106.13 4.36363 106.909 4.05195 107.792 3.79221C107.896 3.79221 107.948 3.74026 108.052 3.74026C103.429 0.727271 96.9351 0.467529 96.9351 0.467529C96.9351 0.467529 92.1558 10.1299 95.8442 16.3636C99.5325 22.5974 110.338 23.0649 110.338 23.0649C110.338 23.0649 110.338 23.013 110.39 22.961C108.987 22.961 107.688 22.7013 106.494 22.1818C105.247 21.6104 104.156 20.8831 103.221 20Z" fill="#9FB270"/>
<path d="M114.026 17.4545C112.519 18.4416 111.948 20.5714 111.792 21.8701C112.364 21.7662 112.883 21.5584 113.403 21.2987C114.234 20.8312 114.909 20.2078 115.481 19.4286C116 18.7013 116.416 17.8182 116.675 16.7792C115.74 16.7792 114.805 16.9351 114.026 17.4545Z" fill="#9FB270"/>
<path d="M117.818 20C117.195 20.6234 116.519 21.0909 115.74 21.5585C114.961 21.974 114.13 22.3377 113.299 22.5455C112.779 22.7013 112.208 22.7533 111.688 22.8572C111.688 22.9611 111.688 23.013 111.688 23.013C111.688 23.013 115.377 24.5714 117.662 23.0649C119.948 21.5585 120 17.5584 120 17.5584C120 17.5584 119.896 17.5065 119.74 17.4546C119.636 17.6624 119.532 17.8701 119.429 18.0779C119.013 18.7533 118.442 19.4286 117.818 20Z" fill="#9FB270"/>
<path d="M110.805 21.974C110.597 22.4415 110.494 22.7532 110.39 22.9091C110.442 22.9091 110.494 22.9091 110.545 22.9091C110.909 22.9091 111.325 22.9091 111.688 22.8571C111.688 22.7013 111.74 22.3376 111.792 21.8701C111.429 21.9221 111.117 21.974 110.805 21.974Z" fill="#9FB270"/>
<path d="M120.831 13.039C120.831 12.1559 120.727 11.2727 120.468 10.4935C120.208 9.66236 119.896 8.88312 119.429 8.2078C118.961 7.48053 118.442 6.85716 117.818 6.28573C117.195 5.7143 116.519 5.19482 115.74 4.77923C114.961 4.36365 114.13 4.05196 113.299 3.79222C112.416 3.58443 111.481 3.42859 110.545 3.42859C109.662 3.42859 108.831 3.53248 108.052 3.68833C108.416 3.94807 108.779 4.20781 109.091 4.46755C109.558 4.36365 110.026 4.3117 110.545 4.3117C111.636 4.3117 112.571 4.51949 113.351 4.93508C114.182 5.35066 114.857 5.97404 115.429 6.75326C116 7.53248 116.416 8.46754 116.675 9.5065C116.987 10.5974 117.091 11.7403 117.091 13.039C117.091 14.3377 116.935 15.5325 116.675 16.6234C116.675 16.6753 116.623 16.7273 116.623 16.8312C117.974 16.8312 119.221 17.2468 119.74 17.4546C120 16.8831 120.26 16.3117 120.416 15.6883C120.675 14.8052 120.831 13.974 120.831 13.039Z" fill="#9FB270"/>
</svg>