<svg width="149" height="28" viewBox="0 0 149 28" fill="none" xmlns="http://www.w3.org/2000/svg"><path d="M29.558 23.708c.734.169.445-.634.377-1.344-.07-.711-.445-1.702.042-1.453.49.248 1.305 1.421 1.188.645-.117-.776-1.136-2.154-1.433-2.9-.297-.745-.029-.588.614-.199.642.388.14-1.322-.503-2.877-.642-1.555-2.474-2.18-2.474-2.18 1.82-.077 3.045-2.403 2.982-3.93-.063-1.526 1.886-5.961 2.602-8.013.022-.062.04-.12.055-.178l.012-.053a1.884 1.884 0 00.031-.175c.004-.032.009-.065.011-.097V.896c0-.03.001-.058-.002-.086 0-.019-.003-.038-.005-.056a.625.625 0 00-.027-.13.831.831 0 00-.023-.068l-.02-.048c-.01-.022-.023-.042-.035-.062a.55.55 0 00-.027-.042c-.014-.02-.03-.037-.047-.056-.01-.011-.02-.024-.032-.035a.584.584 0 00-.061-.051c-.011-.01-.022-.02-.035-.029a.923.923 0 00-.104-.06L32.6.152a1.287 1.287 0 00-.091-.037c-.02-.007-.043-.012-.065-.018-.026-.007-.052-.015-.08-.02-.025-.006-.052-.01-.078-.015-.027-.004-.054-.01-.083-.013a3.455 3.455 0 00-.088-.007l-.088-.005a1.74 1.74 0 00-.1-.001l-.091.001-.11.006-.096.009c-.04.003-.079.008-.12.013l-.1.014-.132.022a6.824 6.824 0 00-.247.05l-.087.021a7.66 7.66 0 00-.713.208c-.066.022-.134.047-.202.072l-.098.035-.2.078c-.04.014-.077.03-.114.045l-.205.084-.124.054a11.537 11.537 0 00-.34.152c-.072.033-.145.067-.219.103l-.132.063-.23.114-.13.068c-.082.04-.163.083-.246.127l-.12.064-.268.147-.077.043a29.6 29.6 0 00-1.632.986c-4.125 2.67-7.535 7.253-8.581 8.743a1.029 1.029 0 00-.098-.39 1.1 1.1 0 00-.101-.153c.175-.16.31-.592.234-.774-.065-.156-.303-.392-.443-.413a.442.442 0 00-.17-.07c.13-.413.057-.444-.06-.009a2.55 2.55 0 00-.173-.018.805.805 0 00-.139.002c-.123-.46-.2-.433-.062.007a.452.452 0 00-.244.114.959.959 0 00-.364.386c-.076.182.056.614.232.774-.035.044-.07.094-.102.153a1.026 1.026 0 00-.098.388c-1.043-1.493-4.441-6.083-8.56-8.763a28.927 28.927 0 00-1.614-.98l-.094-.055a25.142 25.142 0 00-.388-.21l-.236-.125-.14-.07c-.075-.039-.15-.076-.223-.112L4.331.973a12.42 12.42 0 00-.213-.1C4.073.852 4.028.83 3.982.81 3.913.779 3.845.748 3.778.72l-.13-.057A13.855 13.855 0 003.45.58L3.328.532C3.263.506 3.198.48 3.135.457l-.109-.04-.192-.069-.073-.023A7.684 7.684 0 002.125.14c-.03-.008-.062-.017-.093-.023-.05-.012-.097-.02-.145-.03l-.1-.02A3.332 3.332 0 001.554.03c-.041-.005-.081-.01-.12-.013L1.34.007A5.9 5.9 0 001.137 0l-.1.001C1.008.001.98.004.951.006a1.356 1.356 0 00-.171.02A3.038 3.038 0 00.7.039l-.078.02C.599.067.576.072.555.08.525.089.496.1.468.113.45.122.432.128.415.137a.755.755 0 00-.098.058C.303.204.292.214.28.224a.82.82 0 00-.06.05C.208.284.198.297.187.31a.494.494 0 00-.046.055L.114.407a.698.698 0 00-.08.178L.022.638A1.16 1.16 0 00.003.77 1.536 1.536 0 000 .916c.002.031.006.063.01.096l.007.06c.006.037.015.076.024.114.005.018.007.036.012.053.015.058.032.117.054.18.711 2.053 2.65 6.492 2.584 8.018-.068 1.527 1.152 3.855 2.972 3.937 0 0-1.834.62-2.479 2.175-.646 1.553-1.152 3.262-.51 2.875.644-.387.912-.543.614.201-.3.744-1.322 2.12-1.44 2.896-.119.776.7-.395 1.19-.642.487-.247.109.742.038 1.453-.07.71-.36 1.512.374 1.345.734-.166.661.135.528 1.205-.134 1.071-.694 3.602.266 2.994.96-.608.498-1.765 1.625-1.64a1.854 1.854 0 01.128.017c.034.006.069.01.106.017l.007.001c.285.048.656.125 1.071.188l.044.008.11.015.058.008c.059.009.118.016.18.023l.077.01.097.01.085.007.095.008c.04.004.08.006.12.008l.12.007.108.004.086.002h.188c.058 0 .116-.002.174-.005.024-.001.048-.002.072-.005l.12-.008.074-.007c.055-.006.11-.012.164-.02l.052-.008c.05-.007.099-.016.147-.025l.067-.014.13-.031.044-.01h-.001l.022-.005.021-.007c.042-.012.084-.024.125-.038l.017-.006.039-.013.088-.032.005-.002a.75.75 0 00.052-.022 2.464 2.464 0 00.742-.463v-.001a2.222 2.222 0 00.181-.187c.033-.037.066-.076.097-.116l.039-.051c.04-.055.08-.112.118-.174 0-.002.001-.002.003-.003a3.41 3.41 0 00.138-.257c.024-.052.048-.105.071-.16l.028-.067c.029-.076.058-.155.083-.237.908-2.934 1.076-7.335 2.487-9.235 1.108-1.49 1.738-1.833 1.959-1.912.03.21.058.41.08.587.11.95-.308 1.677-.143 2.692.165 1.015.667.972.667.972s.5.044.67-.97c.167-1.015-.249-1.743-.137-2.693.021-.176.05-.376.08-.586.22.078.85.422 1.954 1.916 1.407 1.904 1.564 6.305 2.465 9.241.027.083.054.161.084.238l.027.067c.023.055.046.108.071.159l.03.062c.035.068.07.134.108.195l.003.005c.037.06.076.118.117.174l.038.05c.032.04.064.08.096.117l.04.045a2.402 2.402 0 00.29.266l.047.036c.038.028.076.055.115.08l.049.031c.053.034.108.065.163.095v-.001c.046.025.094.048.142.069h.002c.01.005.02.01.03.013l.042.018c.023.01.045.02.067.027l.047.018.033.011c.012.004.024.01.037.013l.027.01.07.021.076.022.015.005.032.008a4.512 4.512 0 00.39.079 4.099 4.099 0 00.383.039l.059.003c.061.003.121.005.182.006l.055.001.137-.001.069-.001.143-.005.046-.002c.06-.003.12-.007.178-.012l.066-.006.126-.012.062-.005.171-.02a3.93 3.93 0 01.05-.007l.129-.017.063-.01.128-.018.042-.007.16-.026.053-.009.117-.02.046-.01c.117-.02.228-.04.332-.06a4.598 4.598 0 01.136-.023l.117-.02.032-.006c.03-.005.057-.01.085-.013l.032-.004.101-.014c1.128-.122.663 1.034 1.622 1.645.958.61.405-1.924.273-2.994-.13-1.07-.202-1.372.531-1.204z" fill="#08B0CF"/><path d="M25.897 20.98c.528.121.32-.456.271-.967-.05-.51-.32-1.223.03-1.044.353.178.939 1.022.855.464-.084-.559-.817-1.55-1.03-2.085-.214-.536-.021-.423.44-.143.462.279.101-.951-.36-2.069-.463-1.118-1.78-1.568-1.78-1.568 1.31-.055 2.19-1.727 2.145-2.825-.046-1.097 1.356-4.286 1.87-5.761a1.96 1.96 0 00.04-.129l.008-.037a1.488 1.488 0 00.023-.126l.008-.07v-.042c0-.02 0-.042-.002-.062l-.003-.04a.439.439 0 00-.02-.093.616.616 0 00-.031-.084c-.007-.015-.016-.03-.025-.044a.378.378 0 00-.02-.03c-.01-.014-.02-.027-.032-.04l-.024-.026a.412.412 0 00-.044-.037c-.008-.007-.015-.014-.025-.02a.652.652 0 00-.075-.044l-.032-.014a.906.906 0 00-.065-.027l-.047-.012c-.018-.006-.037-.012-.057-.016l-.056-.01-.06-.009-.063-.005-.063-.003a1.204 1.204 0 00-.071-.002l-.067.002c-.025 0-.052.002-.079.004l-.069.006a2.127 2.127 0 00-.086.01c-.024.002-.048.006-.071.01l-.095.016a1.382 1.382 0 00-.072.013l-.106.022-.063.016c-.148.035-.305.08-.472.136l-.04.013c-.048.016-.097.034-.146.052l-.07.025-.145.056c-.027.01-.054.02-.081.032l-.148.061-.089.038a8.089 8.089 0 00-.244.11l-.157.074-.095.046c-.055.027-.11.053-.166.082l-.094.048c-.058.03-.117.06-.176.092l-.086.046-.194.105-.055.031c-.37.207-.76.442-1.173.709-2.966 1.92-5.418 5.215-6.17 6.286a.739.739 0 00-.07-.28.793.793 0 00-.073-.11c.127-.115.223-.426.169-.556-.047-.113-.218-.283-.32-.298a.317.317 0 00-.121-.05c.093-.297.04-.32-.043-.006a1.767 1.767 0 00-.125-.013.593.593 0 00-.1 0c-.088-.33-.143-.31-.044.006a.323.323 0 00-.176.082.69.69 0 00-.261.277c-.055.131.04.442.167.557a.752.752 0 00-.073.11.737.737 0 00-.07.279c-.75-1.073-3.194-4.373-6.156-6.3-.408-.266-.795-.5-1.16-.705l-.068-.04a18.044 18.044 0 00-.279-.151l-.17-.09-.1-.05a11.96 11.96 0 00-.16-.08l-.1-.05a8.257 8.257 0 00-.153-.071l-.098-.046-.147-.065-.093-.04-.143-.06-.087-.035-.14-.054-.077-.028-.139-.05-.052-.016a5.514 5.514 0 00-.457-.133l-.067-.017-.105-.022-.072-.014a2.31 2.31 0 00-.166-.026l-.086-.01-.07-.006a4.405 4.405 0 00-.145-.006l-.071.001c-.021 0-.042.002-.062.003-.022.002-.044.003-.065.006a2.333 2.333 0 00-.115.018l-.057.015c-.016.005-.033.008-.048.014-.022.007-.042.016-.063.025-.012.006-.026.01-.038.017a.545.545 0 00-.07.041l-.027.021a.598.598 0 00-.043.036c-.009.008-.016.018-.024.026a.366.366 0 00-.033.04l-.02.03a.485.485 0 00-.056.128l-.01.037a.793.793 0 00-.013.096c-.002.02-.002.041-.002.062v.042l.008.07.005.042c.004.027.01.055.017.083.004.013.005.026.009.038.01.042.023.084.038.129.512 1.476 1.905 4.668 1.858 5.765-.048 1.098.829 2.772 2.137 2.831 0 0-1.318.446-1.782 1.563-.465 1.117-.828 2.346-.366 2.068.462-.278.655-.39.44.144-.214.535-.95 1.525-1.034 2.082-.086.558.503-.284.854-.461.351-.178.079.533.028 1.045-.05.51-.259 1.086.27.967.527-.12.474.097.379.866-.097.77-.5 2.59.191 2.153.69-.437.358-1.269 1.168-1.179.024.002.049.006.075.01l.017.002.077.012h.004c.205.035.472.09.77.136l.032.005.079.011a.811.811 0 00.042.006l.129.016.056.007.07.007.06.006.069.006.087.006.085.004.078.003.062.002h.135c.042 0 .084-.002.125-.004.017 0 .035-.001.052-.003l.087-.006.052-.005.119-.014a.92.92 0 00.037-.006c.036-.005.07-.012.106-.019l.047-.01a2.14 2.14 0 00.094-.022l.031-.007a1.919 1.919 0 00.031-.009c.03-.008.06-.016.09-.027a.45.45 0 01.012-.004l.028-.01.064-.022.003-.002a.55.55 0 00.038-.016 1.781 1.781 0 00.533-.333 1.627 1.627 0 00.2-.219 1.638 1.638 0 00.113-.161l.002-.002c.026-.044.053-.092.077-.14l.022-.045c.018-.037.035-.075.051-.115l.02-.048c.021-.055.042-.111.06-.17.653-2.11.774-5.274 1.788-6.64.797-1.072 1.25-1.318 1.408-1.375.023.151.043.295.058.422.079.683-.221 1.206-.103 1.935.12.73.48.7.48.7s.36.031.481-.698c.12-.73-.178-1.253-.098-1.936.015-.127.036-.27.058-.422.158.057.61.304 1.405 1.378 1.01 1.369 1.124 4.533 1.772 6.644a2.91 2.91 0 00.13.334l.022.045c.025.048.05.096.078.14l.002.003a1.792 1.792 0 00.18.245l.03.033a1.74 1.74 0 00.207.191l.035.026c.027.02.054.04.083.058l.035.022c.038.024.077.047.117.068.032.017.067.034.102.049a.26.26 0 00.023.01l.03.012.048.02.034.013.024.008.026.01a1.071 1.071 0 00.07.022l.055.015.01.004a2.87 2.87 0 00.579.09l.043.003.13.004h.139l.049-.001.103-.004.033-.001c.043-.002.086-.006.128-.009l.048-.004a2.3 2.3 0 00.09-.009l.045-.003.123-.015.035-.005a6.614 6.614 0 00.139-.019l.091-.013a6.245 6.245 0 00.146-.023c.013-.003.026-.006.038-.007l.084-.015.033-.006.24-.044.06-.01.037-.007.084-.015.023-.003.061-.01c.008 0 .016-.002.023-.003l.073-.01c.81-.087.476.744 1.165 1.183.69.44.292-1.383.197-2.153-.094-.77-.146-.986.381-.865z" fill="#92348F"/><path d="M17.254 9.835c.41-.142.579-.73.377-1.312-.202-.583-.698-.94-1.108-.798-.41.142-.579.73-.377 1.312.202.583.698.94 1.108.798z" stroke="#fff" stroke-width="2" stroke-miterlimit="10"/><path d="M10.41 5.933s1.623.525 3.103 1.76c1.48 1.235 2.257 2.372 3.375 2.535 1.118.162 1.55-1.173 2.47-2.274.921-1.1 2.13-2.02 2.13-2.02s-1.516 2.128-2.31 3.32c-.794 1.19-.342 1.677-.162 2.02.18.343-.144.866-.487 1.498-.343.631-.38 1.082-.325 2.039.054.956.196 2.418-.489 3.193-.684.776-1.189 1.462-1.297 2.382-.108.92-.108 6.189-.27 6.189-.163 0-.83-4.439-.993-5.972-.163-1.534-1.047-4.259-.09-5.576.956-1.317 1.57-1.588 1.443-2.67-.126-1.083-.83-1.57-2.02-2.797-1.192-1.227-4.079-3.627-4.079-3.627z" stroke="#fff" stroke-width="2" stroke-miterlimit="10"/><path d="M17.254 9.835c.41-.142.579-.73.377-1.312-.202-.583-.698-.94-1.108-.798-.41.142-.579.73-.377 1.312.202.583.698.94 1.108.798z" fill="#ED4993"/><path d="M10.41 5.933s1.623.525 3.103 1.76c1.48 1.235 2.257 2.372 3.375 2.535 1.118.162 1.55-1.173 2.47-2.274.921-1.1 2.13-2.02 2.13-2.02s-1.516 2.128-2.31 3.32c-.794 1.19-.342 1.677-.162 2.02.18.343-.144.866-.487 1.498-.343.631-.38 1.082-.325 2.039.054.956.196 2.418-.489 3.193-.684.776-1.189 1.462-1.297 2.382-.108.92-.108 6.189-.27 6.189-.163 0-.83-4.439-.993-5.972-.163-1.534-1.047-4.259-.09-5.576.956-1.317 1.57-1.588 1.443-2.67-.126-1.083-.83-1.57-2.02-2.797-1.192-1.227-4.079-3.627-4.079-3.627z" fill="#ED4993"/><path d="M43.794 11.544c.343-.877.634-1.863.876-2.955.241-1.093.362-1.995.362-2.706 0-.465-.11-.697-.33-.697-.201 0-.57.267-1.105.803-.799.86-1.51 1.85-2.133 2.968a16.161 16.161 0 00-1.434 3.43 12.42 12.42 0 00-.5 3.423c0 .877.093 1.478.282 1.803.189.325.547.487 1.073.487.456 0 1.022-.127 1.698-.382 1.528-.605 3.142-1.47 4.845-2.593.755-.483 1.233-.724 1.435-.724.29 0 .434.145.434.434v.027c-.044.395-.18.842-.408 1.342-.456.966-.851 1.598-1.185 1.896-.561.5-1.332.992-2.31 1.475-.979.482-1.981.877-3.008 1.184-1.027.308-1.887.461-2.58.461a5.72 5.72 0 01-2.265-.454 5.82 5.82 0 01-1.856-1.244 5.77 5.77 0 01-1.237-1.843A5.693 5.693 0 0134 15.428c0-.606.096-1.262.29-1.968.193-.707.474-1.446.842-2.218.369-.773.786-1.497 1.25-2.173.273-.403.556-.79.85-1.158.294-.369.619-.728.974-1.08.355-.35.744-.688 1.165-1.013.421-.325.808-.601 1.159-.83.614-.412 1.25-.772 1.908-1.079a11.145 11.145 0 011.83-.684A6.04 6.04 0 0145.808 3c1.15 0 2.05.298 2.7.895.649.597.974 1.422.974 2.475 0 1.106-.273 2.262-.817 3.469a10.592 10.592 0 01-2.172 3.166c-.623.64-1.242 1.145-1.856 1.514-.614.368-1.167.553-1.659.553-.43 0-.645-.207-.645-.62 0-.192.119-.46.356-.802.333-.474.702-1.176 1.105-2.107zM59.328 7.845c1.308 0 1.962.154 1.962.46 0 .352-.294.54-.882.567a4.42 4.42 0 00-1.988.606c-.614.36-1.16.851-1.639 1.474a7.336 7.336 0 00-1.119 2.106 7.576 7.576 0 00-.401 2.475c0 .957.224 1.727.671 2.31.448.584 1.031.876 1.751.876.667 0 1.25-.342 1.75-1.027.501-.684.751-1.483.751-2.396 0-.745-.156-1.445-.467-2.1a4.42 4.42 0 00-1.363-1.652c-.254-.201-.381-.346-.381-.434 0-.123.18-.311.54-.566.403-.272.855-.5 1.355-.685.5-.184.922-.276 1.264-.276.395 0 .77.103 1.126.31.355.206.669.5.941.881.272.382.48.821.625 1.317.145.495.218 1.024.218 1.586 0 .93-.176 1.85-.527 2.758-.351.908-.812 1.643-1.382 2.205-.738.71-1.626 1.292-2.666 1.744-1.04.452-2.03.678-2.969.678a8.154 8.154 0 01-2.718-.474c-.9-.316-1.613-.732-2.14-1.25-.702-.702-1.053-1.698-1.053-2.989 0-1.018.25-2.036.75-3.054a9.966 9.966 0 012.035-2.77 10.247 10.247 0 012.83-1.962c1.031-.479 2.073-.718 3.127-.718zM69.084 21.655c.517-.027.989-.279 1.415-.757.425-.479.638-.998.638-1.56 0-.386-.127-.694-.382-.922-.272-.272-.882-.54-1.83-.803-1.395-.404-2.303-.856-2.725-1.356a1.998 1.998 0 01-.592-1.448c0-1.01.366-2.018 1.1-3.028a8.728 8.728 0 012.81-2.481c1.14-.645 2.29-.968 3.449-.968.561 0 1.088.132 1.58.395.491.263.882.612 1.171 1.046a2.5 2.5 0 01.435 1.416c0 .5-.158 1.018-.474 1.553-.316.535-.713.98-1.192 1.336-.478.356-.932.534-1.362.534-.246 0-.459-.053-.638-.159-.18-.105-.27-.219-.27-.342 0-.123.035-.303.105-.54.193-.754.29-1.412.29-1.974 0-.553-.167-1.075-.5-1.567-.43.299-.712.535-.843.71a4.304 4.304 0 00-.777 1.316c-.202.5-.303.973-.303 1.42 0 .316.073.568.218.756.145.189.383.349.712.48.329.133.827.277 1.494.436 1.114.272 1.9.536 2.355.79.106.062.268.19.487.382.333.36.5.826.5 1.396 0 .606-.189 1.219-.566 1.837-.377.62-.96 1.258-1.75 1.916-.843.712-1.681 1.22-2.515 1.528-.834.308-1.756.461-2.765.461-.974 0-1.74-.193-2.297-.579-.558-.386-.836-.913-.836-1.58 0-.474.184-.954.553-1.441a4.397 4.397 0 011.376-1.192c.548-.307 1.086-.46 1.612-.46.395 0 .593.087.593.263 0 .088-.057.232-.171.434-.343.615-.514 1.18-.514 1.698 0 .37.136.72.409 1.054zM91.608 16.323l-3.594 3.686c-.465.465-.84.783-1.125.954a1.795 1.795 0 01-.942.257c-.535 0-.985-.2-1.35-.599-.363-.399-.545-.888-.545-1.468 0-.36.054-.752.164-1.178.11-.426.327-1.06.652-1.902.061-.176.12-.327.178-.454a8.74 8.74 0 00.138-.323l-.053-.053a52.736 52.736 0 00-2.501 2.83c-.685.817-1.229 1.427-1.632 1.83-.404.405-.769.707-1.093.91-.325.201-.615.302-.869.302-.57 0-1.023-.224-1.356-.671-.334-.448-.5-1.058-.5-1.83 0-.974.421-2.55 1.263-4.727.755-1.93 1.339-3.225 1.75-3.883.606-.913 1.3-1.37 2.08-1.37.473 0 .866.113 1.177.336.312.224.468.516.468.876 0 .658-.25 1.662-.748 3.013a30.84 30.84 0 00-.59 1.697l.053.052c.324-.36.846-.978 1.565-1.855 1.236-1.526 2.17-2.566 2.803-3.118.816-.755 1.563-1.132 2.239-1.132.298 0 .583.101.855.303.273.202.49.472.652.81.163.338.244.691.244 1.06 0 .377-.271 1.343-.813 2.897-.114.325-.201.58-.263.764a8.78 8.78 0 01-.17.475l.065.052c.123-.123.233-.232.329-.33.096-.096.204-.199.322-.309l.335-.31c.237-.228.832-.83 1.788-1.804.63-.703 1.126-1.183 1.486-1.442.36-.259.706-.389 1.04-.389.544 0 .958.187 1.244.56.285.373.427.924.427 1.652 0 .448-.07 1.154-.21 2.12a77.41 77.41 0 00-.257 2.56 19.496 19.496 0 00-.072 1.297 10.886 10.886 0 00.145 1.62c.052.324.123.684.21 1.078.106.483.176.86.21 1.132-.07.317-.3.584-.69.803-.391.22-.814.33-1.27.33-.72 0-1.396-.325-2.028-.974a3.905 3.905 0 01-.652-.902 3.627 3.627 0 01-.329-1.08c-.066-.416-.099-.967-.099-1.652 0-.448.053-1.373.158-2.778l-.052-.052-.237.329zM106.813 7.845c1.308 0 1.962.154 1.962.46 0 .352-.294.54-.882.567a4.42 4.42 0 00-1.988.606 5.704 5.704 0 00-1.639 1.474 7.354 7.354 0 00-1.119 2.106 7.574 7.574 0 00-.402 2.475c0 .957.224 1.727.672 2.31.447.584 1.031.876 1.751.876.667 0 1.25-.342 1.751-1.027.5-.684.75-1.483.75-2.396 0-.745-.156-1.445-.467-2.1a4.421 4.421 0 00-1.363-1.652c-.254-.201-.382-.346-.382-.434 0-.123.18-.311.54-.566.404-.272.856-.5 1.356-.685.5-.184.922-.276 1.264-.276.395 0 .77.103 1.125.31.356.206.67.5.942.881.272.382.48.821.625 1.317.145.495.217 1.024.217 1.586 0 .93-.176 1.85-.526 2.758-.352.908-.812 1.643-1.383 2.205-.737.71-1.626 1.292-2.666 1.744-1.04.452-2.029.678-2.968.678a8.159 8.159 0 01-2.719-.474c-.899-.316-1.612-.732-2.139-1.25-.702-.702-1.053-1.698-1.053-2.989 0-1.018.25-2.036.75-3.054a9.96 9.96 0 012.034-2.77 10.244 10.244 0 012.831-1.962c1.031-.479 2.073-.718 3.126-.718zM121.426 17.481l-.355.264a1.423 1.423 0 01-.125.105c-.058.044-.13.101-.218.171-1.518 1.185-2.71 2.019-3.574 2.502-.864.482-1.617.724-2.257.724-.711 0-1.284-.26-1.718-.777-.435-.518-.652-1.211-.652-2.08 0-1.08.305-2.196.915-3.35a12.594 12.594 0 012.415-3.18 12.87 12.87 0 013.292-2.323c1.193-.584 2.347-.876 3.462-.876 1.097 0 1.933.189 2.508.566.575.378.862.944.862 1.698 0 .632-.25 1.414-.75 2.344.359.026.623.138.789.335.167.198.251.507.251.929 0 .684-.141 1.639-.422 2.863a24.26 24.26 0 01-1.027 3.39 10.037 10.037 0 01-2.106 3.41c-.693.728-1.553 1.353-2.58 1.875-1.027.522-1.909.784-2.646.784-.615 0-1.163-.246-1.646-.737-.483-.492-.724-1.045-.724-1.66 0-.412.105-.84.316-1.283.211-.443.483-.823.816-1.139.685-.693 1.69-1.35 3.015-1.974.246-.123.434-.184.566-.184.053 0 .101.021.145.065a.201.201 0 01.066.145c0 .062-.053.18-.158.356-.263.447-.496 1.02-.698 1.718-.202.697-.303 1.3-.303 1.81 0 .596.093.895.277.895.096 0 .217-.108.362-.323a4.23 4.23 0 00.388-.73c.746-1.896 1.224-3.651 1.432-5.267.027-.237.055-.592.082-1.066zm.671-2.804v.053l-.052-.053a.683.683 0 01-.211.027 6.211 6.211 0 01-.632.026c-.447 0-.671-.083-.671-.25 0-.088.057-.193.171-.316.334-.377.621-.873.862-1.488.242-.614.376-1.171.402-1.672 0-.122.009-.232.026-.329a.969.969 0 00.027-.158c0-.122-.084-.184-.25-.184-.343 0-.869.369-1.58 1.106a10.017 10.017 0 00-1.264 1.685 9.76 9.76 0 00-.921 1.948c-.22.65-.33 1.233-.33 1.751 0 .51.127.764.382.764.246 0 .864-.413 1.856-1.238.448-.386 1.176-.943 2.185-1.672zM129.401 21.22c-.394-.026-.754-.206-1.078-.54a3.122 3.122 0 01-.69-1.138c-.136-.408-.204-.937-.204-1.587 0-1.448.27-3.082.81-4.903.539-1.821 1.151-3.14 1.836-3.956.272-.343.649-.514 1.132-.514.509 0 .919.233 1.23.698.312.465.467 1.075.467 1.83 0 1.114-.16 2.42-.481 3.915a36.467 36.467 0 01-1.352 4.667c-.228.65-.509 1.089-.842 1.317-.228.14-.495.211-.802.211h-.026zm1.582-13.23c-.825-.027-1.237-.522-1.237-1.488 0-.482.121-1.042.362-1.678.241-.637.515-1.108.823-1.415.158-.167.318-.285.48-.356a1.59 1.59 0 01.626-.105c.438 0 .761.107.967.322.206.215.31.573.31 1.073 0 .623-.108 1.214-.323 1.77-.215.558-.502 1.01-.862 1.357s-.729.52-1.106.52h-.04zM142.989 9.043l.132-.54c.272-1.202.518-2.174.737-2.916.22-.741.446-1.369.678-1.882.233-.514.463-.884.692-1.113.368-.395 1.031-.592 1.987-.592.422 0 .735.022.942.066.206.044.37.123.493.237-.421 1.308-.713 2.288-.875 2.942-.163.654-.34 1.551-.533 2.692-.299 1.861-.448 3.542-.448 5.042 0 .992.081 2.021.244 3.088a29.64 29.64 0 00.796 3.56c-.465.325-.91.602-1.336.83a8.33 8.33 0 01-1.211.54c-.382.131-.718.197-1.007.197-.509 0-.869-.25-1.08-.75-.175-.413-.289-.744-.342-.994-.053-.25-.145-.946-.276-2.087-1.177 1.229-2.302 2.197-3.377 2.903-1.075.707-1.933 1.06-2.574 1.06-.737 0-1.341-.301-1.81-.902-.47-.601-.704-1.376-.704-2.324 0-.851.182-1.797.546-2.837.364-1.04.867-2.047 1.507-3.021.422-.64.854-1.183 1.297-1.626.443-.443.946-.853 1.507-1.23 1.018-.668 1.87-1.001 2.554-1.001.334 0 .821.22 1.461.658zm-.408 6.253v-.763c-.447.395-.781.592-1 .592-.123 0-.184-.061-.184-.184 0-.053.026-.163.079-.33a4.62 4.62 0 00.276-1.527c0-.71-.154-1.448-.461-2.211-.131-.395-.294-.593-.487-.593a.278.278 0 00-.237.132c-.289.334-.566.805-.829 1.415s-.481 1.273-.652 1.988c-.171.715-.256 1.35-.256 1.902 0 1.045.315 1.567.947 1.567.316 0 .74-.186 1.271-.56a8.231 8.231 0 001.533-1.428z" fill="#fff"/></svg>