<svg width="36" height="30" viewBox="0 0 36 30" fill="none" xmlns="http://www.w3.org/2000/svg"><path d="M31.67 25.401c.785.181.477-.679.403-1.44-.074-.761-.477-1.823.045-1.556.525.266 1.398 1.522 1.273.69-.125-.831-1.217-2.307-1.535-3.106-.318-.798-.031-.63.657-.213.688.415.15-1.417-.538-3.083-.688-1.667-2.651-2.336-2.651-2.336 1.95-.083 3.262-2.574 3.195-4.21-.067-1.636 2.021-6.387 2.788-8.586.023-.066.042-.13.06-.19l.011-.057c.01-.043.02-.084.026-.124.004-.022.006-.042.008-.063.005-.035.009-.07.011-.104.002-.022.001-.042.001-.063 0-.031 0-.062-.002-.092l-.006-.06a.672.672 0 00-.028-.139.904.904 0 00-.048-.125c-.01-.023-.024-.044-.036-.066a.608.608 0 00-.03-.045c-.014-.02-.032-.04-.05-.06-.01-.012-.021-.026-.034-.038a.626.626 0 00-.066-.055c-.012-.01-.023-.02-.037-.03a.985.985 0 00-.111-.065c-.015-.008-.032-.014-.048-.02a1.364 1.364 0 00-.097-.04c-.022-.008-.046-.013-.07-.02-.027-.008-.055-.016-.085-.022-.027-.006-.056-.01-.084-.015l-.089-.014a3.683 3.683 0 00-.094-.008l-.094-.005a1.867 1.867 0 00-.107-.002l-.098.002-.118.006-.103.01a2.972 2.972 0 00-.129.013l-.106.016-.142.023a7.447 7.447 0 00-.264.053l-.093.024a8.204 8.204 0 00-.764.222c-.071.024-.144.05-.217.077l-.105.038-.215.083-.122.049c-.072.028-.146.06-.22.09-.043.02-.087.037-.132.057a12.649 12.649 0 00-.364.163l-.235.11-.14.069c-.083.04-.165.08-.248.122l-.14.072c-.087.044-.174.089-.262.137l-.128.068a27.22 27.22 0 00-.37.203 31.72 31.72 0 00-1.75 1.057c-4.42 2.86-8.073 7.77-9.194 9.367a1.105 1.105 0 00-.104-.417 1.182 1.182 0 00-.109-.164c.188-.171.332-.634.251-.83-.07-.167-.324-.42-.475-.442a.474.474 0 00-.182-.075c.14-.443.061-.476-.064-.01a2.766 2.766 0 00-.185-.019.865.865 0 00-.149.002c-.132-.493-.213-.464-.067.007a.483.483 0 00-.262.123 1.028 1.028 0 00-.389.413c-.082.195.06.658.249.83-.038.047-.075.1-.11.163a1.096 1.096 0 00-.104.416c-1.118-1.6-4.759-6.517-9.172-9.389a31 31 0 00-1.73-1.05l-.1-.058a27.207 27.207 0 00-.416-.226l-.253-.133-.15-.076a17.344 17.344 0 00-.615-.3L4.266.868C4.193.835 4.12.8 4.047.77L3.91.71C3.837.68 3.767.65 3.696.622l-.13-.053L3.36.49 3.242.447 3.036.373 2.958.348A8.232 8.232 0 002.277.15c-.033-.008-.067-.018-.1-.024-.053-.013-.104-.023-.155-.034l-.108-.02a3.567 3.567 0 00-.248-.04C1.622.027 1.58.023 1.538.019l-.103-.01A6.32 6.32 0 001.218 0l-.106.001c-.032 0-.063.003-.093.005C.987.009.954.01.922.015.892.018.864.023.835.027L.751.041C.72.048.694.056.666.064.642.07.617.076.595.084A1.16 1.16 0 00.5.121C.483.131.463.138.445.147a.81.81 0 00-.106.062L.3.24a.879.879 0 00-.065.053C.223.305.212.32.201.333A.53.53 0 00.15.39L.122.436a.747.747 0 00-.085.191L.023.683a1.242 1.242 0 00-.02.143A1.646 1.646 0 000 .98c.002.034.006.068.01.104l.009.063c.006.04.015.082.025.123l.013.057c.016.062.034.125.057.192.763 2.2 2.84 6.956 2.769 8.591-.072 1.636 1.234 4.13 3.184 4.218 0 0-1.964.665-2.655 2.33-.693 1.664-1.235 3.495-.546 3.081.689-.414.977-.581.657.216-.32.797-1.416 2.271-1.542 3.102-.128.831.75-.423 1.273-.687.523-.265.117.794.041 1.556-.074.76-.385 1.62.401 1.442.787-.18.709.144.566 1.29-.143 1.148-.744 3.86.285 3.209 1.03-.652.534-1.891 1.741-1.757.035.003.073.008.112.014l.025.004c.037.005.074.01.114.018h.007c.306.052.704.135 1.148.202l.047.008.117.016.063.01.192.024.083.01.104.01.091.009.102.009.13.008.127.007.116.004c.03.002.062.002.092.003h.202c.062 0 .124-.003.186-.006l.077-.004.13-.01.078-.006.176-.022.056-.01c.053-.007.105-.016.157-.026l.071-.015c.047-.01.094-.02.14-.033l.047-.011.023-.005.022-.008c.045-.013.09-.025.134-.04l.018-.006.042-.015c.032-.01.063-.022.095-.034l.005-.002a.797.797 0 00.056-.023l.046-.02a2.64 2.64 0 00.749-.477v-.001a2.409 2.409 0 00.298-.325c.013-.018.028-.035.04-.054a2.48 2.48 0 00.128-.186l.002-.004c.04-.066.08-.137.116-.209l.033-.066a4.69 4.69 0 00.076-.172l.03-.07c.03-.083.062-.167.09-.255.972-3.143 1.152-7.86 2.664-9.895 1.187-1.597 1.862-1.964 2.098-2.048.033.225.063.44.085.628.118 1.018-.33 1.798-.152 2.884.177 1.089.714 1.042.714 1.042s.536.048.717-1.04c.18-1.087-.265-1.867-.146-2.884.023-.19.054-.403.087-.628.235.084.91.452 2.093 2.053 1.507 2.039 1.676 6.755 2.641 9.9a4.337 4.337 0 00.12.327c.023.059.049.116.075.17a3.158 3.158 0 00.147.276l.004.005c.04.066.082.127.126.186l.04.054c.034.043.068.085.103.125l.043.05a2.56 2.56 0 00.485.408c.016.012.034.023.051.034.058.036.116.07.175.101V28.1c.049.027.1.052.152.074l.002.001c.01.005.021.01.033.013l.045.02.071.029.051.018.035.012.04.015.029.01.076.023.08.023.016.006a4.976 4.976 0 00.428.09 4.36 4.36 0 00.434.046l.064.002c.065.003.13.006.195.006l.058.001.148-.001.073-.001c.051-.002.103-.003.153-.006.016 0 .034 0 .05-.002.064-.003.128-.007.19-.012l.072-.007a3.21 3.21 0 00.134-.012l.067-.005.183-.023.053-.006.139-.02a5.34 5.34 0 00.068-.009l.136-.02.046-.008.171-.027c.02-.004.038-.008.057-.01l.125-.022c.016-.002.033-.006.05-.01l.355-.064.091-.016a2.05 2.05 0 01.055-.01l.125-.021.035-.006.09-.014.035-.005.108-.014c1.209-.131.71 1.107 1.737 1.763 1.027.654.435-2.062.293-3.209-.14-1.147-.216-1.47.57-1.29z" fill="#08B0CF"/><path d="M27.747 22.478c.565.13.343-.488.29-1.035-.053-.548-.343-1.31.033-1.119.377.191 1.005 1.095.915.497-.09-.598-.875-1.66-1.104-2.234-.228-.574-.022-.453.473-.153.495.299.108-1.02-.387-2.216-.495-1.199-1.906-1.68-1.906-1.68 1.402-.06 2.346-1.851 2.297-3.028-.048-1.175 1.453-4.592 2.005-6.172.017-.048.03-.093.042-.138l.009-.04a1.462 1.462 0 00.024-.135c.003-.025.007-.05.008-.075l.001-.045a.58.58 0 00-.002-.066c0-.014-.003-.029-.004-.043a.48.48 0 00-.02-.1.62.62 0 00-.034-.09c-.008-.016-.018-.032-.027-.047a.366.366 0 00-.02-.032c-.011-.016-.024-.03-.036-.044l-.025-.027a.47.47 0 00-.047-.04c-.01-.007-.017-.014-.027-.02a.704.704 0 00-.08-.048l-.035-.015a.942.942 0 00-.07-.028c-.015-.006-.033-.01-.05-.014-.02-.006-.04-.012-.061-.016-.02-.005-.04-.008-.06-.011l-.064-.01a2.828 2.828 0 00-.068-.006l-.067-.003a1.29 1.29 0 00-.077-.001h-.07l-.086.005-.074.007-.092.01-.076.011c-.034.006-.067.01-.102.017a1.504 1.504 0 00-.077.014l-.113.024-.068.017a5.877 5.877 0 00-.506.146l-.043.014-.156.055-.075.027-.155.06-.088.035c-.052.02-.105.043-.158.065l-.095.041a9.06 9.06 0 00-.261.117c-.056.026-.113.052-.17.08l-.1.049-.178.087-.1.052a7.749 7.749 0 00-.19.099l-.092.049-.207.113-.06.033a22.86 22.86 0 00-1.256.76c-3.178 2.057-5.805 5.587-6.611 6.735a.793.793 0 00-.075-.3.826.826 0 00-.078-.118c.135-.123.238-.456.18-.597-.05-.12-.233-.302-.341-.318a.342.342 0 00-.131-.053c.1-.32.044-.343-.046-.008a1.92 1.92 0 00-.133-.013.625.625 0 00-.107 0c-.095-.353-.154-.332-.048.006-.13.024-.188.088-.188.088a.74.74 0 00-.28.297c-.06.14.043.474.178.597a.806.806 0 00-.078.117.79.79 0 00-.076.3c-.803-1.15-3.42-4.686-6.594-6.751a22.328 22.328 0 00-1.243-.755c-.024-.015-.049-.028-.073-.042a19.846 19.846 0 00-.299-.163L8.7 5.158l-.107-.055-.172-.086-.107-.052a8.807 8.807 0 00-.164-.077l-.105-.049-.157-.07-.1-.043-.153-.064-.094-.037-.148-.058-.084-.03c-.05-.018-.1-.037-.148-.053-.02-.007-.037-.013-.057-.018a5.907 5.907 0 00-.49-.143c-.023-.006-.048-.013-.071-.017-.038-.01-.075-.017-.112-.024l-.078-.015a2.478 2.478 0 00-.177-.028l-.093-.01-.074-.007a4.71 4.71 0 00-.156-.006h-.076c-.023 0-.045.003-.067.004-.023.002-.047.003-.07.006a2.403 2.403 0 00-.123.02c-.021.004-.04.01-.06.016-.018.004-.036.008-.052.014-.023.008-.045.017-.067.027-.014.006-.028.011-.04.018a.585.585 0 00-.076.044l-.029.023a.64.64 0 00-.046.038c-.01.009-.017.02-.025.028a.391.391 0 00-.036.042.517.517 0 00-.082.17l-.01.04a.848.848 0 00-.014.103c-.002.021-.002.044-.002.066v.046l.008.074.006.046c.004.029.011.058.018.088l.01.04c.01.046.024.091.04.139.549 1.582 2.042 5.001 1.991 6.177-.052 1.176.888 2.97 2.29 3.033 0 0-1.413.478-1.91 1.675-.498 1.197-.887 2.513-.392 2.215.496-.298.702-.418.472.155-.23.574-1.018 1.634-1.109 2.231-.091.597.54-.305.916-.495s.084.572.03 1.12c-.054.546-.277 1.164.288 1.036.566-.128.51.104.407.928-.103.825-.535 2.775.205 2.307.74-.469.384-1.36 1.252-1.263l.08.01.018.002.082.014h.005c.22.037.506.096.825.145l.034.006.084.011.046.007.138.017.06.008.074.007.066.006c.024.003.049.004.073.006l.093.007.091.005.084.003c.022 0 .044 0 .066.002h.145c.045 0 .09-.002.134-.004l.056-.004.092-.006.057-.005.127-.016.04-.006.113-.02.05-.01.102-.024.033-.008a.916.916 0 00.033-.01c.032-.009.064-.017.096-.029.004 0 .009-.002.013-.004l.03-.01.068-.025.004-.001.04-.017a1.896 1.896 0 00.423-.236l.033-.025a1.725 1.725 0 00.33-.33l.03-.04c.031-.042.062-.086.091-.133 0-.002 0-.002.002-.003a2.595 2.595 0 00.161-.32l.021-.052a3.12 3.12 0 00.065-.183c.699-2.26.828-5.65 1.915-7.115.854-1.147 1.34-1.411 1.509-1.472.024.162.045.316.061.452.085.731-.236 1.292-.11 2.074.128.782.515.749.515.749s.385.034.515-.748-.19-1.343-.105-2.074c.016-.136.039-.29.062-.452.17.06.655.325 1.505 1.477 1.084 1.466 1.205 4.856 1.9 7.118.02.064.04.124.064.183l.02.052c.018.042.036.083.056.123l.022.048c.027.052.054.102.084.15a1.969 1.969 0 00.093.137 2.77 2.77 0 00.103.129l.03.035a1.862 1.862 0 00.223.205l.037.028c.03.021.058.042.089.061.012.008.024.017.037.024a1.834 1.834 0 00.235.125l.001.001a.219.219 0 00.024.01l.032.014.051.02.037.014.025.009.029.01.02.007.055.017.058.016.012.004a3.62 3.62 0 00.325.067 3.145 3.145 0 00.295.03l.045.003c.047.002.093.004.14.004l.042.001h.106c.018 0 .035 0 .053-.002.037 0 .074-.002.11-.004l.036-.001c.046-.002.092-.006.137-.009l.051-.005.097-.009.048-.004.132-.016.037-.004.1-.014.05-.007.097-.015.033-.005a6.19 6.19 0 00.123-.02l.041-.007.09-.016.036-.006.256-.047a4.1 4.1 0 01.104-.018l.09-.016.025-.004.066-.01.024-.003c.028-.004.054-.008.078-.01.869-.095.51.796 1.249 1.267.738.47.312-1.482.21-2.307-.1-.825-.156-1.057.41-.928z" fill="#92348F"/><path d="M18.486 10.537c.44-.152.62-.782.404-1.406-.216-.624-.748-1.007-1.187-.854-.439.152-.62.781-.403 1.405.216.625.747 1.007 1.186.855z" stroke="#fff" stroke-width="2" stroke-miterlimit="10"/><path d="M11.153 6.357s1.74.562 3.325 1.886c1.585 1.323 2.419 2.541 3.616 2.715 1.198.174 1.662-1.256 2.648-2.436.986-1.179 2.281-2.165 2.281-2.165s-1.624 2.281-2.475 3.557c-.85 1.276-.367 1.798-.173 2.166.193.367-.155.928-.523 1.604-.367.677-.405 1.16-.348 2.185.058 1.024.21 2.59-.523 3.422-.733.83-1.274 1.566-1.39 2.551-.116.986-.116 6.631-.29 6.631s-.89-4.755-1.064-6.399c-.174-1.643-1.12-4.562-.096-5.973 1.024-1.412 1.682-1.702 1.546-2.861-.135-1.16-.889-1.682-2.165-2.997s-4.369-3.886-4.369-3.886z" stroke="#fff" stroke-width="2" stroke-miterlimit="10"/><path d="M18.486 10.537c.44-.152.62-.781.404-1.406-.216-.624-.748-1.006-1.187-.854-.44.152-.62.781-.404 1.406.217.624.748 1.006 1.187.854z" fill="#ED4993"/><path d="M11.153 6.357s1.74.562 3.325 1.886c1.585 1.323 2.419 2.541 3.616 2.715 1.198.174 1.662-1.256 2.648-2.436.986-1.179 2.281-2.165 2.281-2.165s-1.624 2.281-2.475 3.557c-.85 1.276-.367 1.798-.173 2.166.193.367-.155.928-.523 1.604-.367.677-.405 1.16-.348 2.185.058 1.024.21 2.59-.523 3.422-.733.83-1.274 1.566-1.39 2.551-.116.986-.116 6.631-.29 6.631s-.89-4.755-1.064-6.399c-.174-1.643-1.12-4.562-.096-5.973 1.024-1.412 1.682-1.702 1.546-2.861-.135-1.16-.889-1.682-2.165-2.997s-4.369-3.886-4.369-3.886z" fill="#ED4993"/></svg>