<svg width="90" height="22" viewBox="0 0 90 22" xmlns="http://www.w3.org/2000/svg">
<path d="M0 9.78833C0.0312395 9.39836 0.062479 9.00406 0.0937184 8.61409C0.214214 6.98923 0.43289 5.37736 0.830078 3.79582C1.25404 2.10596 2.39205 1.1397 4.11022 0.758402C5.64542 0.416096 7.20293 0.182115 8.77829 0.112788C10.1216 0.052126 11.4649 0.0174622 12.8082 0.0477931C14.6826 0.0867899 16.5435 0.33377 18.3867 0.706406C20.3726 1.10937 21.5597 2.23595 21.9524 4.17712C22.2425 5.61134 22.5014 7.04989 22.5683 8.51444C22.6263 9.81433 22.6709 11.1186 22.6352 12.4228C22.5861 14.2946 22.3228 16.1491 21.9123 17.982C21.5062 19.7845 20.3726 20.8461 18.5384 21.2404C16.9541 21.5827 15.3564 21.8167 13.7364 21.8903C12.5717 21.9423 11.4069 21.9813 10.2421 21.9553C8.14012 21.9077 6.05153 21.6867 4.00312 21.1971C2.88742 20.9284 1.92346 20.4258 1.33437 19.4075C0.999663 18.8269 0.816689 18.203 0.682806 17.5574C0.312395 15.8372 0.102644 14.104 0.040165 12.3535C0.0357023 12.2928 0.0133883 12.2278 0 12.1671C0 11.3742 0 10.5813 0 9.78833ZM12.1254 20.4301C12.2548 20.4301 12.3485 20.4345 12.4467 20.4301C13.1295 20.3911 13.8123 20.3565 14.4907 20.3001C15.7492 20.2005 16.9943 20.0012 18.226 19.7369C19.3596 19.4942 20.0825 18.8703 20.3414 17.7523C20.8189 15.6855 21.0688 13.5927 21.0866 11.4825C21.0956 10.4253 21.0376 9.36803 20.9706 8.31079C20.8858 6.9459 20.6716 5.59401 20.3414 4.25945C20.1539 3.49684 19.8192 2.82957 19.007 2.51326C18.7615 2.41793 18.5072 2.32261 18.2528 2.26195C16.1776 1.78099 14.0667 1.56867 11.9379 1.54267C10.8089 1.52967 9.67978 1.586 8.55515 1.65533C7.1583 1.73766 5.78377 1.95864 4.41816 2.25328C3.24891 2.50893 2.56164 3.18487 2.30726 4.32011C1.919 6.04897 1.68693 7.79516 1.61106 9.55868C1.54859 11.0362 1.57536 12.5094 1.72263 13.9827C1.85205 15.2739 2.03057 16.5564 2.35635 17.813C2.54379 18.528 2.8785 19.1519 3.63271 19.4552C3.89155 19.5592 4.15485 19.6632 4.42708 19.7282C6.35054 20.1615 8.30078 20.3695 10.2733 20.4345C10.3581 20.4388 10.4429 20.4345 10.5411 20.4345C10.5411 19.5505 10.5277 18.6969 10.5456 17.8477C10.55 17.5487 10.5277 17.3147 10.1707 17.2454C10.0993 17.2324 10.0413 17.1804 9.97432 17.1414C8.72474 16.4611 7.46624 15.7938 6.22558 15.1006C5.4446 14.6586 5.01617 13.9653 5.00724 13.0771C4.98939 11.6948 4.99385 10.3083 5.00724 8.92607C5.01617 8.01614 5.44906 7.31853 6.25236 6.8679C7.51979 6.15729 8.79615 5.46835 10.0814 4.78807C10.907 4.35044 11.7684 4.35044 12.5984 4.78374C13.8659 5.45102 15.1154 6.13996 16.3695 6.82891C17.2353 7.3012 17.6771 8.03347 17.6905 8.9824C17.7128 10.317 17.7083 11.6472 17.6905 12.9817C17.6771 13.9393 17.2353 14.6759 16.3606 15.1526C15.7715 15.4732 15.1869 15.7982 14.5933 16.1145C13.8079 16.5348 13.0135 16.9421 12.228 17.3667C12.1745 17.3927 12.1343 17.488 12.1343 17.553C12.1254 17.969 12.1298 18.3893 12.1298 18.8053C12.1254 19.3382 12.1254 19.8712 12.1254 20.4301ZM12.1254 15.6855C12.1923 15.6552 12.228 15.6465 12.2593 15.6292C13.4017 15.0096 14.5442 14.3986 15.6778 13.7703C15.9634 13.61 16.1106 13.337 16.1106 13.0121C16.1151 11.8248 16.1106 10.6333 16.1106 9.44603C16.1106 9.38536 16.1017 9.3247 16.0928 9.25104C16.0437 9.26837 16.0125 9.27271 15.9902 9.28571C14.7406 9.99631 13.491 10.7069 12.2503 11.4262C12.1834 11.4652 12.1343 11.5865 12.1343 11.6688C12.1254 12.3405 12.1298 13.0077 12.1298 13.6793C12.1254 14.3336 12.1254 14.9879 12.1254 15.6855ZM10.5322 15.6682C10.5411 15.6075 10.55 15.5685 10.55 15.5252C10.55 14.2296 10.55 12.9341 10.5545 11.6385C10.5545 11.5042 10.4875 11.4479 10.3894 11.3915C9.17994 10.7026 7.97053 10.0136 6.76112 9.3247C6.70756 9.29437 6.64955 9.27704 6.5826 9.24671C6.57368 9.30737 6.56922 9.3377 6.56922 9.3637C6.56922 10.5856 6.56029 11.8118 6.57368 13.0337C6.57814 13.3587 6.74326 13.6274 7.04673 13.792C8.14458 14.39 9.24689 14.9879 10.3447 15.5859C10.3983 15.6162 10.4563 15.6335 10.5322 15.6682ZM15.1779 7.95548C15.1288 7.92082 15.0931 7.89482 15.0574 7.87749C13.9774 7.2882 12.8974 6.69458 11.8085 6.1183C11.4917 5.94931 11.148 5.96231 10.8267 6.13563C10.2198 6.4606 9.62176 6.78558 9.01928 7.11488C8.51499 7.38786 8.0107 7.66517 7.49301 7.94682C7.55103 7.99015 7.59119 8.02481 7.63582 8.05081C8.82739 8.73108 10.0189 9.40703 11.206 10.0916C11.3265 10.161 11.4069 10.1263 11.5095 10.07C12.6743 9.4027 13.8391 8.73975 15.0039 8.07681C15.0574 8.03781 15.111 7.99881 15.1779 7.95548Z" fill="#FA481C"/>
<path d="M58.7771 5.74761C59.0444 5.81232 59.3024 5.85977 59.5512 5.93742C60.3069 6.17036 60.6663 6.72252 60.6847 7.40408C60.7032 8.09859 60.6894 8.7931 60.6894 9.50487C59.7079 9.50487 58.7403 9.50487 57.7404 9.50487C57.7404 9.16408 57.7404 8.8233 57.7404 8.48252C57.7404 8.26683 57.7311 8.05114 57.745 7.83546C57.7772 7.34369 57.5054 7.11507 57.0861 6.98997C56.8188 6.90801 56.5285 6.86487 56.2428 6.85624C54.9941 6.83036 53.7454 6.82173 52.4967 6.80879C52.4137 6.80879 52.3308 6.80879 52.2202 6.80879C52.2202 7.71036 52.2202 8.6033 52.2202 9.50918C51.271 9.50918 50.3494 9.50918 49.4141 9.50918C49.4141 6.63624 49.4141 3.76761 49.4141 0.868791C49.497 0.868791 49.5753 0.868791 49.6583 0.868791C51.7779 0.868791 53.8975 0.847223 56.0124 0.877419C56.9709 0.89036 57.9385 0.89036 58.8785 1.1233C59.3531 1.24409 59.8185 1.39507 60.1779 1.71428C60.459 1.96448 60.6341 2.28801 60.7354 2.64173C60.8829 3.16801 60.9336 3.70291 60.7493 4.22487C60.4728 5.00134 59.8692 5.45859 59.049 5.68722C58.9614 5.70879 58.8739 5.72173 58.7771 5.74761ZM52.2156 4.92369C52.2432 4.94095 52.2479 4.94957 52.2571 4.94957C53.7638 4.94095 55.2706 5.01428 56.7727 4.87193C57.5008 4.80291 57.7219 4.65193 57.8509 4.04369C57.9477 3.60801 57.7864 2.99546 57.1506 2.92644C56.6714 2.87467 56.1875 2.81859 55.7037 2.81428C54.6209 2.79703 53.538 2.80997 52.4552 2.80997C52.3769 2.80997 52.2939 2.80997 52.211 2.80997C52.2156 3.53036 52.2156 4.22487 52.2156 4.92369Z" fill="#888888"/>
<path d="M42.1851 9.51717C41.4617 9.51717 40.7428 9.53874 40.0194 9.51286C39.3421 9.48697 38.6601 9.46972 38.015 9.21952C37.3192 8.95207 36.688 8.6156 36.2779 7.99442C36.0613 7.67089 35.9553 7.30854 35.9553 6.93325C35.9461 5.79874 35.9599 4.66423 35.9507 3.53403C35.9461 2.75756 36.3101 2.17521 36.969 1.72227C37.5957 1.29089 38.2915 1.0407 39.0472 0.9156C39.3144 0.872463 39.5909 0.86815 39.8674 0.86815C41.1575 0.863836 42.4477 0.850894 43.7379 0.872463C44.747 0.889718 45.7423 1.00188 46.6454 1.47207C47.2767 1.79991 47.8066 2.21835 47.9817 2.91286C48.0232 3.07678 48.0646 3.24501 48.0646 3.40893C48.0739 4.49168 48.0462 5.57442 48.0739 6.65717C48.1015 7.75285 47.5624 8.49482 46.5348 8.9607C45.7469 9.31874 44.9175 9.53011 44.0328 9.52148C43.4154 9.50854 42.7979 9.51717 42.1851 9.51717ZM38.826 5.03952C38.8536 5.58736 38.8582 6.00148 38.9043 6.41129C38.9781 7.0454 39.3651 7.52423 40.0747 7.66227C40.3097 7.7054 40.5539 7.74854 40.7889 7.74423C41.7473 7.72697 42.715 7.7356 43.6688 7.65364C44.7102 7.56305 45.0465 6.96776 45.1018 6.16972C45.1525 5.44501 45.1249 4.71168 45.0557 3.98697C45.0051 3.41756 44.6779 2.98619 44.0789 2.74462C43.6227 2.55913 43.1435 2.56776 42.6781 2.55482C41.9317 2.52893 41.1806 2.57638 40.4341 2.58501C39.6969 2.59364 39.0794 3.02933 38.9504 3.71089C38.8629 4.18972 38.8582 4.6858 38.826 5.03952Z" fill="#888888"/>
<path d="M34.6932 6.16167C32.6519 6.16167 30.6291 6.16167 28.5924 6.16167C28.5924 7.27893 28.5924 8.37893 28.5924 9.5005C27.6202 9.5005 26.6664 9.5005 25.6987 9.5005C25.6987 6.63187 25.6987 3.75893 25.6987 0.873047C28.7998 0.873047 31.9008 0.873047 35.0157 0.873047C35.0157 1.50285 35.0157 2.13697 35.0157 2.79265C32.8869 2.79265 30.7489 2.79265 28.6016 2.79265C28.6016 3.30599 28.6016 3.79775 28.6016 4.30246C30.6337 4.30246 32.6565 4.30246 34.6978 4.30246C34.6932 4.92364 34.6932 5.52756 34.6932 6.16167Z" fill="#888888"/>
<path d="M61.7173 0.873047C65.3667 0.873047 69.0022 0.873047 72.6516 0.873047C72.6516 1.51148 72.6516 2.13697 72.6516 2.78834C71.3199 2.78834 69.9837 2.78834 68.6198 2.78834C68.6198 5.03579 68.6198 7.26167 68.6198 9.5005C67.6429 9.5005 66.6891 9.5005 65.7169 9.5005C65.7169 7.27462 65.7169 5.05305 65.7169 2.80991C64.3806 2.80991 63.0582 2.80991 61.7173 2.80991C61.7173 2.15854 61.7173 1.52442 61.7173 0.873047Z" fill="#888888"/>
<path d="M45.3329 21.4137C44.6048 21.4137 43.8722 21.4353 43.1442 21.4094C42.4668 21.3835 41.7849 21.3663 41.1444 21.1161C40.4578 20.8486 39.8311 20.5165 39.4257 19.9039C39.2137 19.5847 39.0985 19.2353 39.0985 18.8686C39.0847 17.6565 39.0755 16.4443 39.0985 15.2322C39.1123 14.5506 39.504 14.0373 40.0754 13.6404C40.7066 13.2004 41.4208 12.9373 42.195 12.8165C42.4714 12.7733 42.7571 12.769 43.0382 12.769C44.25 12.7647 45.4665 12.7518 46.6783 12.7733C47.3649 12.7863 48.0561 12.7992 48.7242 12.9804C49.4799 13.1875 50.1895 13.4808 50.7148 14.0545C51.0373 14.4082 51.1986 14.8353 51.2032 15.2969C51.2124 16.453 51.2124 17.609 51.2032 18.7608C51.1986 19.6149 50.7747 20.2533 49.996 20.689C49.0836 21.1937 48.1022 21.4396 47.0424 21.4224C46.4664 21.4051 45.8996 21.4137 45.3329 21.4137ZM48.2772 17.113C48.2542 16.7075 48.2588 16.2977 48.2035 15.8965C48.1206 15.3184 47.8349 14.8353 47.2082 14.6498C46.8028 14.529 46.3696 14.46 45.9503 14.4471C45.1025 14.4298 44.2546 14.4514 43.4068 14.4902C43.1856 14.4988 42.9552 14.5937 42.7571 14.7016C42.218 14.9992 42.0245 15.5082 42.006 16.0475C41.9784 16.811 41.9968 17.5788 42.0521 18.338C42.089 18.8298 42.3654 19.2137 42.8631 19.451C43.2087 19.6192 43.5865 19.6279 43.9413 19.6322C44.9089 19.6408 45.8812 19.6192 46.8442 19.5502C47.6414 19.4898 48.116 19.0067 48.2081 18.2604C48.2496 17.8808 48.2542 17.4969 48.2772 17.113Z" fill="white"/>
<path d="M76.5599 15.5904C75.5923 15.5904 74.6753 15.5904 73.7492 15.5904C73.7123 15.4394 73.68 15.2928 73.634 15.1461C73.5556 14.8959 73.3898 14.7277 73.0995 14.6975C72.7262 14.6543 72.353 14.5853 71.9798 14.5767C71.3208 14.5551 70.6573 14.5551 69.9984 14.5767C69.662 14.5896 69.3211 14.6371 68.9985 14.7233C68.5239 14.8441 68.3719 15.0771 68.441 15.5516C68.487 15.8837 68.593 16.0218 69.1137 16.1167C69.3118 16.1555 69.5192 16.1598 69.7266 16.1641C70.837 16.1814 71.9475 16.1684 73.058 16.2202C73.8045 16.2547 74.5694 16.2892 75.279 16.5567C75.8826 16.781 76.4217 17.0916 76.6705 17.6955C76.8318 18.0837 76.9101 18.4892 76.8318 18.912C76.7903 19.1406 76.7811 19.3735 76.735 19.6022C76.5691 20.3959 75.9932 20.8402 75.2283 21.1206C74.6984 21.3147 74.1454 21.3708 73.5879 21.3794C72.1549 21.3967 70.7218 21.4355 69.2934 21.4139C68.5516 21.401 67.7913 21.3751 67.0863 21.1163C66.0633 20.741 65.515 20.2406 65.5012 19.05C65.5012 18.9508 65.5104 18.8473 65.4966 18.748C65.4735 18.5582 65.5381 18.4849 65.7592 18.4849C66.5333 18.4979 67.3075 18.4892 68.0862 18.4892C68.1553 18.4892 68.2198 18.4892 68.2843 18.4892C68.3073 18.679 68.3212 18.8473 68.3534 19.0112C68.4548 19.559 68.6898 19.6798 69.275 19.7273C69.9984 19.7877 70.7264 19.7833 71.4545 19.7747C72.095 19.7704 72.7308 19.7273 73.3713 19.6884C73.6017 19.6755 73.7906 19.572 73.8828 19.3563C74.0256 19.0284 74.0348 18.6877 73.9058 18.3641C73.7446 17.9673 73.3391 17.868 72.9474 17.8508C71.7632 17.8033 70.579 17.8033 69.3994 17.7516C68.5654 17.7128 67.7314 17.6394 66.925 17.3935C66.2154 17.1779 65.8053 16.7335 65.6394 16.0735C65.5012 15.5214 65.492 14.9649 65.6394 14.4128C65.8145 13.7528 66.303 13.3516 66.9619 13.1661C67.5056 13.0151 68.0723 12.9159 68.6391 12.8641C69.3948 12.7951 70.1597 12.7908 70.9246 12.7692C71.5006 12.7563 72.0811 12.7347 72.6525 12.7735C73.5003 12.8296 74.3528 12.8555 75.1499 13.1963C75.9148 13.5198 76.4539 13.9986 76.5138 14.8355C76.5092 15.0728 76.5323 15.3186 76.5599 15.5904Z" fill="white"/>
<path d="M37.6421 21.4013C36.6607 21.4013 35.6977 21.4013 34.7162 21.4013C34.7162 20.2452 34.7162 19.1021 34.7162 17.9417C32.6565 17.9417 30.6106 17.9417 28.5417 17.9417C28.5417 19.0935 28.5417 20.2409 28.5417 21.4013C27.5833 21.4013 26.6479 21.4013 25.6987 21.4013C25.6987 18.5284 25.6987 15.6554 25.6987 12.7695C26.6387 12.7695 27.5787 12.7695 28.5325 12.7695C28.5325 13.8652 28.5325 14.9523 28.5325 16.0566C30.5922 16.0566 32.6381 16.0566 34.707 16.0566C34.707 14.9652 34.707 13.8695 34.707 12.7695C35.6977 12.7695 36.6607 12.7695 37.6421 12.7695C37.6421 15.6425 37.6421 18.5154 37.6421 21.4013Z" fill="white"/>
<path d="M78.0256 12.7695C81.2188 12.7695 84.3936 12.7695 87.5776 12.7695C87.5776 13.408 87.5776 14.0378 87.5776 14.6891C85.3336 14.6891 83.0896 14.6891 80.8318 14.6891C80.8318 15.1895 80.8318 15.664 80.8318 16.1558C82.9698 16.1558 85.1032 16.1558 87.2504 16.1558C87.2504 16.7036 87.2504 17.2386 87.2504 17.795C85.1124 17.795 82.979 17.795 80.8271 17.795C80.8271 18.4033 80.8271 18.9899 80.8271 19.5982C83.1034 19.5982 85.3797 19.5982 87.6651 19.5982C87.6651 20.2064 87.6651 20.7931 87.6651 21.397C84.4627 21.397 81.2511 21.397 78.021 21.397C78.0256 18.5284 78.0256 15.6597 78.0256 12.7695Z" fill="white"/>
<path d="M52.4932 12.7695C53.4746 12.7695 54.4238 12.7695 55.3961 12.7695C55.3961 12.8558 55.3961 12.9335 55.3961 13.0111C55.3961 14.7452 55.3869 16.4836 55.4053 18.2178C55.4053 18.4593 55.5021 18.7095 55.5942 18.9425C55.691 19.1884 55.9398 19.3005 56.1978 19.3393C56.5987 19.3997 57.0042 19.4342 57.4097 19.4731C57.6493 19.4946 57.8935 19.5162 58.1377 19.5162C58.7413 19.5119 59.345 19.4989 59.9486 19.4731C60.1882 19.4644 60.4278 19.4299 60.6628 19.3782C61.0821 19.2876 61.2895 19.0029 61.2895 18.5456C61.2895 16.708 61.2895 14.8703 61.2895 13.037C61.2895 12.9507 61.2895 12.8687 61.2895 12.7738C62.2617 12.7738 63.2063 12.7738 64.1924 12.7738C64.1924 12.8472 64.1924 12.9248 64.1924 12.9982C64.1924 14.9048 64.2062 16.8158 64.1878 18.7225C64.1786 19.5335 63.7546 20.1589 63.022 20.5989C62.3446 21.0087 61.5751 21.164 60.7964 21.2891C59.5569 21.4876 58.3128 21.4358 57.0687 21.4013C56.0227 21.3754 54.9814 21.2417 54.0045 20.8491C53.2765 20.5601 52.8157 20.0338 52.6406 19.3178C52.5485 18.9425 52.5024 18.5499 52.5024 18.1617C52.4886 16.4491 52.4978 14.7323 52.4978 13.0154C52.4932 12.9421 52.4932 12.8644 52.4932 12.7695Z" fill="white"/>
</svg>
