<svg width="140" height="40" viewBox="0 0 140 40" fill="none" xmlns="http://www.w3.org/2000/svg">
<path d="M13.6787 0.907477L14.2252 0C21.4652 4.39778 23.8558 13.7518 24.1292 15.2875C22.0528 6.96665 16.297 2.2338 13.6787 0.907477Z" fill="#C4C4C4"/>
<path d="M13.6787 0.907477L14.2252 0C21.4652 4.39778 23.8558 13.7518 24.1292 15.2875C22.0528 6.96665 16.297 2.2338 13.6787 0.907477Z" fill="url(#paint0_linear_2947_15222)"/>
<path d="M35.5144 0.907477L34.9679 0C27.7279 4.39778 25.3373 13.7518 25.064 15.2875C27.1404 6.96665 32.8961 2.2338 35.5144 0.907477Z" fill="#C4C4C4"/>
<path d="M35.5144 0.907477L34.9679 0C27.7279 4.39778 25.3373 13.7518 25.064 15.2875C27.1404 6.96665 32.8961 2.2338 35.5144 0.907477Z" fill="url(#paint1_linear_2947_15222)"/>
<path d="M15.9773 26.651C21.8028 26.651 21.5649 30.7681 21.2529 33.0319C19.5961 35.0656 15.2752 39.2168 10.9436 39.9862C10.7079 40.028 10.4658 39.975 10.2767 39.8251C8.98573 38.8016 6.88379 36.0519 6.88379 31.5464C6.88379 28.7594 8.74953 26.2438 9.68241 25.3345C11.6141 26.1818 13.7421 26.651 15.9773 26.651Z" fill="url(#paint2_linear_2947_15222)"/>
<g style="mix-blend-mode:lighten">
<path style="mix-blend-mode:lighten" d="M6.88379 31.5464C6.88379 28.7594 8.74953 26.2438 9.68241 25.3345C10.9267 25.8803 12.2527 26.2692 13.6363 26.4769C13.4663 27.1047 13.1435 28.9974 13.2114 31.5464C13.2795 34.0952 14.9958 36.8252 15.8454 37.8717C14.3176 38.873 12.6316 39.6864 10.9436 39.9862C10.7079 40.028 10.4658 39.975 10.2767 39.8251C8.98573 38.8016 6.88379 36.0519 6.88379 31.5464Z" fill="url(#paint3_linear_2947_15222)"/>
</g>
<g style="mix-blend-mode:luminosity">
<g style="mix-blend-mode:luminosity">
<path d="M15.9773 26.651C21.8028 26.651 21.5649 30.7681 21.2529 33.0319C21.0831 31.5117 19.6991 28.595 15.5206 29.0907C11.3419 29.5865 8.826 28.2052 8.09033 27.4526C8.63817 26.4971 9.25719 25.749 9.68241 25.3345C11.6141 26.1818 13.7421 26.651 15.9773 26.651Z" fill="#313131" fill-opacity="0.2"/>
</g>
</g>
<path d="M24.072 26.651C24.0903 26.4008 24.0934 26.0914 24.0907 25.8158C24.0859 25.3482 24.0752 24.8788 24.0619 24.4112C23.698 11.5378 13.3759 1.21606 0.695653 1.21606C0.311469 1.21606 0 1.53451 0 1.92733V10.3166C0 17.0527 3.98829 22.8365 9.68259 25.3343C11.6142 26.1818 13.7422 26.651 15.9774 26.651C21.8029 26.651 21.5651 30.7681 21.2531 33.0319C23.4999 31.2939 23.8712 29.3776 24.072 26.651Z" fill="url(#paint4_linear_2947_15222)"/>
<g style="mix-blend-mode:lighten">
<path style="mix-blend-mode:lighten" d="M0.0124595 1.79322C0.0737655 1.4645 0.356285 1.21606 0.695682 1.21606C12.1807 1.21606 21.7311 9.68359 23.7001 20.8453C19.7053 19.613 10.8093 16.4794 7.18236 13.8028C3.60788 11.165 0.960487 4.95393 0.0395358 2.05308C0.012459 1.96809 -0.004059 1.881 0.0124595 1.79322Z" fill="url(#paint5_linear_2947_15222)"/>
</g>
<path d="M33.178 26.651C27.3526 26.651 27.5904 30.7681 27.9025 33.0319C29.5593 35.0656 33.8802 39.2168 38.2118 39.9862C38.4475 40.028 38.6896 39.975 38.8787 39.8251C40.1697 38.8016 42.2716 36.0519 42.2716 31.5464C42.2716 28.7594 40.4059 26.2438 39.473 25.3345C37.5413 26.1818 35.4133 26.651 33.178 26.651Z" fill="url(#paint6_linear_2947_15222)"/>
<g style="mix-blend-mode:lighten">
<path style="mix-blend-mode:lighten" d="M42.2716 31.5464C42.2716 28.7594 40.4059 26.2438 39.473 25.3345C38.2287 25.8803 36.9026 26.2692 35.5191 26.4769C35.6891 27.1047 36.0119 28.9974 35.9438 31.5464C35.8759 34.0952 34.1597 36.8252 33.3101 37.8717C34.8376 38.873 36.5239 39.6864 38.2118 39.9862C38.4475 40.028 38.6897 39.975 38.8787 39.8251C40.1697 38.8016 42.2716 36.0519 42.2716 31.5464Z" fill="url(#paint7_linear_2947_15222)"/>
</g>
<g style="mix-blend-mode:luminosity">
<g style="mix-blend-mode:luminosity">
<path d="M33.178 26.651C27.3526 26.651 27.5904 30.7681 27.9025 33.0319C28.0721 31.5117 29.4561 28.595 33.6348 29.0907C37.8133 29.5865 40.3292 28.2052 41.0649 27.4526C40.5171 26.4971 39.898 25.749 39.473 25.3345C37.5412 26.1818 35.4132 26.651 33.178 26.651Z" fill="#313131" fill-opacity="0.2"/>
</g>
</g>
<path d="M25.0836 26.651C25.0652 26.4008 25.0621 26.0914 25.0648 25.8158C25.0694 25.3482 25.0803 24.8788 25.0936 24.4112C25.4575 11.5378 35.7796 1.21606 48.4599 1.21606C48.844 1.21606 49.1555 1.53451 49.1555 1.92733V10.3166C49.1555 17.0527 45.1672 22.8365 39.4729 25.3343C37.5413 26.1818 35.4133 26.651 33.178 26.651C27.3526 26.651 27.5905 30.7681 27.9024 33.0319C25.6556 31.2939 25.2843 29.3776 25.0836 26.651Z" fill="url(#paint8_linear_2947_15222)"/>
<g style="mix-blend-mode:lighten">
<path style="mix-blend-mode:lighten" d="M49.1432 1.79322C49.0819 1.4645 48.7992 1.21606 48.4599 1.21606C36.975 1.21606 27.4245 9.68359 25.4556 20.8453C29.4503 19.613 38.3463 16.4794 41.9733 13.8028C45.5477 11.165 48.1951 4.95393 49.1161 2.05308C49.143 1.96809 49.1597 1.881 49.1432 1.79322Z" fill="url(#paint9_linear_2947_15222)"/>
</g>
<path d="M79.2065 24.617L79.0711 24.8811C78.7922 25.4515 78.4189 25.9087 77.9512 26.2525C77.4918 26.588 76.9913 26.8062 76.4498 26.9068C76.3021 27.3346 76.1093 27.7329 75.8714 28.102C75.6417 28.4627 75.375 28.7773 75.0714 29.0456C74.7761 29.3141 74.4398 29.5237 74.0624 29.6746C73.6932 29.8258 73.2911 29.9011 72.8564 29.9011C72.2246 29.9011 71.6544 29.7669 71.1458 29.4986C70.6453 29.2218 70.2187 28.8527 69.8658 28.3913C69.513 27.9216 69.2424 27.3765 69.0535 26.7559C68.8648 26.1268 68.7705 25.4557 68.7705 24.7427C68.7705 24.1221 68.8403 23.5601 68.9798 23.0569C69.1193 22.5453 69.2957 22.0922 69.5089 21.6981C69.7223 21.2956 69.9602 20.9474 70.2228 20.6538C70.4852 20.3519 70.7437 20.1044 70.998 19.9115C71.2524 19.7186 71.4821 19.576 71.6871 19.4837C71.9005 19.3831 72.0604 19.3328 72.1672 19.3328L72.3271 19.7731C71.9908 20.0248 71.6912 20.377 71.4288 20.83C71.1991 21.2158 70.9898 21.7275 70.8011 22.3649C70.6206 23.0024 70.5303 23.7949 70.5303 24.7427C70.5303 25.3216 70.5838 25.8834 70.6904 26.4287C70.797 26.9738 70.9528 27.4563 71.158 27.8757C71.3631 28.2949 71.6134 28.6304 71.9087 28.8821C72.2123 29.1337 72.5527 29.2596 72.9301 29.2596C73.447 29.2596 73.8737 29.0498 74.21 28.6304C74.5546 28.2026 74.809 27.6197 74.973 26.8817C74.5464 26.7895 74.1402 26.6174 73.7547 26.3659C73.3691 26.1141 73.0285 25.8039 72.7333 25.4348C72.438 25.0573 72.1999 24.6254 72.0194 24.139C71.8472 23.6523 71.761 23.124 71.761 22.5536C71.761 22.0839 71.8184 21.673 71.9334 21.3206C72.0563 20.9599 72.2164 20.6622 72.4133 20.4273C72.6101 20.1841 72.8358 20.0037 73.0902 19.8864C73.3526 19.7605 73.6275 19.6977 73.9146 19.6977C74.2511 19.6977 74.5956 19.7983 74.9484 19.9996C75.3011 20.1925 75.6211 20.486 75.9082 20.8803C76.1955 21.2661 76.4293 21.7526 76.6098 22.3398C76.7902 22.9269 76.8804 23.6104 76.8804 24.3905C76.8804 24.6841 76.8641 24.9734 76.8312 25.2586C76.7985 25.5438 76.7493 25.8206 76.6836 26.089C77.0775 25.9715 77.4342 25.7828 77.7542 25.5229C78.0824 25.2628 78.3531 24.9189 78.5665 24.4912L78.7019 24.2269L79.2065 24.617ZM72.5732 22.453C72.5732 22.9478 72.6389 23.405 72.7702 23.8244C72.9097 24.2354 73.0943 24.6002 73.324 24.9189C73.5537 25.2293 73.8202 25.4893 74.1239 25.6991C74.4273 25.9087 74.7514 26.0554 75.0961 26.1394C75.1371 25.9045 75.1617 25.6613 75.1698 25.4095C75.1863 25.1496 75.1945 24.8853 75.1945 24.617C75.1945 24.0214 75.1494 23.4847 75.0591 23.0066C74.9689 22.52 74.85 22.1091 74.7022 21.7736C74.5546 21.4296 74.3822 21.1655 74.1854 20.981C73.9885 20.7964 73.7876 20.7041 73.5823 20.7041C73.3034 20.7041 73.0655 20.8593 72.8686 21.1697C72.6718 21.4716 72.5732 21.8993 72.5732 22.453Z" fill="url(#paint10_linear_2947_15222)"/>
<path d="M85.9009 25.5229C85.9009 26.0932 85.8147 26.6425 85.6425 27.1711C85.4784 27.6911 85.2323 28.1565 84.9041 28.5675C84.5842 28.9702 84.1821 29.293 83.6981 29.5364C83.2221 29.7796 82.6767 29.9011 82.0613 29.9011C81.6183 29.9011 81.2203 29.8299 80.8675 29.6873C80.523 29.5364 80.2277 29.3391 79.9814 29.0959C79.7354 28.8444 79.5467 28.5634 79.4154 28.2529C79.2841 27.9343 79.2185 27.6072 79.2185 27.2717C79.2185 26.9362 79.28 26.6258 79.4031 26.3406C79.5344 26.0471 79.7066 25.7997 79.92 25.5983C80.1415 25.3886 80.3917 25.2252 80.6706 25.1076C80.9496 24.9903 81.245 24.9315 81.5567 24.9315C81.7537 24.9315 81.9587 24.9567 82.1721 25.007V25.3719C81.9095 25.3719 81.651 25.4264 81.3968 25.5354C81.1507 25.6444 80.9291 25.7955 80.7323 25.9884C80.5434 26.173 80.3917 26.3993 80.2769 26.6678C80.162 26.9277 80.1046 27.2087 80.1046 27.5107C80.1046 28.0642 80.2892 28.5089 80.6584 28.8444C81.0357 29.1715 81.5485 29.335 82.1966 29.335C82.5248 29.335 82.8243 29.2721 83.0951 29.1462C83.3657 29.0122 83.5954 28.8318 83.7841 28.6053C83.9812 28.3704 84.1288 28.0936 84.2272 27.7749C84.3338 27.4563 84.3871 27.1081 84.3871 26.7306C84.3871 26.37 84.3175 26.0346 84.178 25.7241C84.0385 25.4139 83.8539 25.1202 83.6242 24.8434C83.3945 24.5667 83.1319 24.3066 82.8366 24.0634C82.5495 23.8202 82.254 23.5895 81.9506 23.3714C81.6551 23.145 81.3639 22.9269 81.0768 22.7173C80.7897 22.5075 80.5393 22.2979 80.3261 22.0881L79.0954 24.8811L78.5908 24.4912L79.8461 21.6855C79.5426 21.392 79.317 21.1152 79.1693 20.8551C79.0298 20.5868 78.96 20.268 78.96 19.8989C78.96 19.6977 78.9929 19.5089 79.0584 19.3328C79.1324 19.1482 79.2267 18.9931 79.3416 18.8672C79.4646 18.733 79.6041 18.6282 79.7601 18.5528C79.9159 18.4772 80.0799 18.4395 80.2522 18.4395C80.564 18.4395 80.7978 18.5317 80.9537 18.7163C81.1096 18.8925 81.1875 19.1148 81.1875 19.3831C81.1875 19.509 81.1752 19.6432 81.1507 19.7858C81.126 19.92 81.0931 20.0582 81.0521 20.2008C81.0194 20.3351 80.9824 20.4609 80.9414 20.5783C80.9085 20.6958 80.8799 20.7964 80.8552 20.8803C81.1015 21.0732 81.3968 21.262 81.7413 21.4465C82.0859 21.6225 82.4427 21.8071 82.8119 22C83.1894 22.193 83.5627 22.4027 83.9319 22.6292C84.3011 22.8557 84.6293 23.1072 84.9164 23.3841C85.2117 23.6609 85.4496 23.9753 85.6301 24.3277C85.8106 24.6799 85.9009 25.0782 85.9009 25.5229ZM80.2769 19.0056C80.162 19.0056 80.0676 19.0476 79.9939 19.1315C79.9281 19.2069 79.8953 19.3119 79.8953 19.4461C79.8953 19.597 79.9322 19.7647 80.0061 19.9492C80.0799 20.1338 80.2112 20.3142 80.3999 20.4903C80.4819 20.3142 80.5434 20.1422 80.5845 19.9745C80.6337 19.8067 80.6584 19.639 80.6584 19.4712C80.6584 19.3369 80.6214 19.228 80.5477 19.144C80.4819 19.0518 80.3917 19.0056 80.2769 19.0056Z" fill="url(#paint11_linear_2947_15222)"/>
<path d="M90.9219 20.4903C90.684 20.4903 90.4542 20.5782 90.2328 20.7544C90.0195 20.9223 89.8144 21.1571 89.6174 21.459C89.4205 21.7525 89.2278 22.1007 89.0391 22.5033C88.8586 22.8974 88.6781 23.321 88.4975 23.774V23.925C88.473 24.6631 88.4483 25.4473 88.4238 26.2777C88.4073 27.108 88.3991 28.0139 88.3991 28.9953C88.3991 29.1631 88.3417 29.3057 88.2268 29.423C88.1202 29.532 87.993 29.6243 87.8453 29.6999C87.6977 29.7669 87.5459 29.8174 87.3899 29.8508C87.2341 29.8844 87.1069 29.9011 87.0085 29.9011C86.8854 29.9011 86.7706 29.8633 86.664 29.7879C86.5572 29.7124 86.5039 29.5447 86.5039 29.2846C86.5039 29.1589 86.5162 29.0036 86.5409 28.8191C86.5654 28.6262 86.5983 28.4207 86.6393 28.2026C86.6722 27.9846 86.7132 27.7623 86.7624 27.5358C86.8035 27.3009 86.8443 27.083 86.8854 26.8817C86.8854 26.1686 86.8854 25.527 86.8854 24.9567C86.8772 24.3863 86.8731 23.8788 86.8731 23.4343C86.8731 22.9897 86.8731 22.5997 86.8731 22.2642C86.8649 21.9287 86.8608 21.6394 86.8608 21.3962C86.8608 20.9935 86.869 20.6999 86.8854 20.5154C86.8937 20.3225 86.9101 20.1883 86.9346 20.1129C86.9756 19.9954 87.0495 19.9031 87.1561 19.8361C87.2711 19.7689 87.39 19.7185 87.5131 19.6851C87.6362 19.6432 87.7592 19.6179 87.8823 19.6096C88.0054 19.6012 88.0997 19.597 88.1653 19.597C88.3211 19.597 88.4238 19.6432 88.473 19.7354C88.5222 19.8277 88.5468 19.9703 88.5468 20.1632C88.5468 20.5993 88.5468 20.9935 88.5468 21.3458C88.5468 21.6981 88.5386 22.0504 88.5222 22.4026C88.6781 22.0252 88.8586 21.6686 89.0636 21.3331C89.277 20.9893 89.5108 20.6916 89.7652 20.44C90.0195 20.1799 90.2861 19.9745 90.5651 19.8233C90.8522 19.6724 91.1475 19.597 91.4511 19.597C91.8203 19.597 92.1238 19.6766 92.3619 19.8361C92.6079 19.987 92.8007 20.2008 92.9402 20.4776C93.0878 20.7544 93.1946 21.0816 93.2602 21.459C93.3341 21.8281 93.3833 22.2306 93.4078 22.6669C93.6375 22.239 93.8836 21.8406 94.1462 21.4716C94.417 21.0941 94.7 20.767 94.9953 20.4903C95.2989 20.2135 95.6148 19.9954 95.943 19.8361C96.2793 19.6766 96.6281 19.597 96.9889 19.597C97.6125 19.597 98.0679 19.7983 98.355 20.2008C98.6421 20.5951 98.7857 21.1319 98.7857 21.8112C98.7857 22.239 98.753 22.7172 98.6873 23.2456C98.6217 23.774 98.5519 24.3108 98.4782 24.856C98.4042 25.3928 98.3344 25.9212 98.2689 26.4412C98.2033 26.9613 98.1704 27.4352 98.1704 27.8629C98.1704 28.383 98.2976 28.6431 98.5519 28.6431C98.6832 28.6431 98.8267 28.5633 98.9826 28.404C99.1386 28.2362 99.315 27.9846 99.5118 27.6491C99.7169 27.3051 99.9507 26.8732 100.213 26.3531C100.484 25.8331 100.796 25.2124 101.149 24.4911L101.272 24.2269L101.776 24.617L101.653 24.8811C101.169 25.8709 100.755 26.6886 100.41 27.3345C100.074 27.9804 99.7702 28.4963 99.4996 28.8821C99.2288 29.2595 98.9703 29.5237 98.7242 29.6746C98.4863 29.8257 98.2196 29.9011 97.9244 29.9011C97.752 29.9011 97.5838 29.876 97.4198 29.8257C97.2556 29.7754 97.1121 29.6873 96.9889 29.5614C96.866 29.4356 96.7676 29.2679 96.6936 29.0581C96.6197 28.8401 96.5829 28.5633 96.5829 28.2278C96.5829 27.7245 96.6156 27.1583 96.6814 26.5293C96.7469 25.9003 96.8208 25.2713 96.9029 24.6421C96.9848 24.0131 97.0588 23.4216 97.1243 22.8682C97.1901 22.3062 97.2227 21.849 97.2227 21.4968C97.2227 21.1864 97.1572 20.939 97.0259 20.7544C96.8946 20.5615 96.6977 20.4651 96.4351 20.4651C96.1727 20.4651 95.8979 20.5699 95.6107 20.7797C95.3318 20.9893 95.0569 21.2619 94.7862 21.5974C94.5236 21.9246 94.2734 22.2937 94.0355 22.7045C93.8058 23.1156 93.6047 23.5224 93.4325 23.925C93.4325 24.8057 93.4243 25.5773 93.4078 26.24C93.3915 26.8942 93.3668 27.4477 93.3341 27.9007C93.3094 28.3537 93.2724 28.7143 93.2232 28.9827C93.174 29.2427 93.1207 29.4189 93.0633 29.5111C93.0223 29.5698 92.9524 29.6243 92.854 29.6746C92.7556 29.7251 92.6449 29.7669 92.5218 29.8005C92.407 29.8341 92.292 29.8592 92.1773 29.876C92.0705 29.8928 91.9886 29.9011 91.931 29.9011C91.7997 29.9011 91.6849 29.8633 91.5865 29.7879C91.4963 29.704 91.4511 29.5447 91.4511 29.3099C91.4511 29.2007 91.4593 29.0539 91.4757 28.8694C91.5003 28.685 91.5291 28.4794 91.5618 28.2529C91.5947 28.0266 91.6316 27.7834 91.6727 27.5233C91.7137 27.2633 91.7546 26.999 91.7956 26.7306C91.804 26.479 91.8122 26.198 91.8203 25.8878C91.8285 25.5773 91.8367 25.2713 91.8448 24.9692C91.8532 24.659 91.8573 24.3653 91.8573 24.0886C91.8655 23.8034 91.8695 23.5601 91.8695 23.3588C91.8695 22.931 91.8573 22.541 91.8326 22.1887C91.8081 21.8365 91.7589 21.5346 91.6849 21.2828C91.6194 21.0313 91.525 20.8383 91.4019 20.7041C91.2788 20.5615 91.1189 20.4903 90.9219 20.4903Z" fill="url(#paint12_linear_2947_15222)"/>
<path d="M111.597 24.617L111.461 24.8811C111.182 25.4515 110.809 25.9087 110.341 26.2525C109.882 26.588 109.381 26.8062 108.84 26.9068C108.692 27.3346 108.499 27.7329 108.262 28.102C108.032 28.4627 107.765 28.7773 107.462 29.0456C107.166 29.3141 106.83 29.5237 106.453 29.6746C106.083 29.8258 105.681 29.9011 105.247 29.9011C104.615 29.9011 104.045 29.7669 103.536 29.4986C103.035 29.2218 102.609 28.8527 102.256 28.3913C101.903 27.9216 101.633 27.3765 101.444 26.7559C101.255 26.1268 101.161 25.4557 101.161 24.7427C101.161 24.1221 101.23 23.5601 101.37 23.0569C101.509 22.5453 101.686 22.0922 101.899 21.6981C102.112 21.2956 102.35 20.9474 102.613 20.6538C102.876 20.3519 103.134 20.1044 103.388 19.9115C103.643 19.7186 103.872 19.576 104.077 19.4837C104.291 19.3831 104.451 19.3328 104.557 19.3328L104.717 19.7731C104.381 20.0248 104.082 20.377 103.819 20.83C103.589 21.2158 103.38 21.7275 103.191 22.3649C103.011 23.0024 102.92 23.7949 102.92 24.7427C102.92 25.3216 102.974 25.8834 103.081 26.4287C103.187 26.9738 103.343 27.4563 103.548 27.8757C103.753 28.2949 104.004 28.6304 104.299 28.8821C104.602 29.1337 104.943 29.2596 105.32 29.2596C105.837 29.2596 106.264 29.0498 106.6 28.6304C106.945 28.2026 107.199 27.6197 107.363 26.8817C106.937 26.7895 106.53 26.6174 106.145 26.3659C105.759 26.1141 105.419 25.8039 105.123 25.4348C104.828 25.0573 104.59 24.6254 104.41 24.139C104.237 23.6523 104.151 23.124 104.151 22.5536C104.151 22.0839 104.209 21.673 104.324 21.3206C104.446 20.9599 104.607 20.6622 104.803 20.4273C105 20.1841 105.226 20.0037 105.48 19.8864C105.743 19.7605 106.018 19.6977 106.305 19.6977C106.641 19.6977 106.986 19.7983 107.339 19.9996C107.691 20.1925 108.011 20.486 108.299 20.8803C108.586 21.2661 108.819 21.7526 109 22.3398C109.18 22.9269 109.271 23.6104 109.271 24.3905C109.271 24.6841 109.254 24.9734 109.221 25.2586C109.189 25.5438 109.139 25.8206 109.074 26.089C109.468 25.9715 109.824 25.7828 110.144 25.5229C110.473 25.2628 110.743 24.9189 110.957 24.4912L111.092 24.2269L111.597 24.617ZM104.963 22.453C104.963 22.9478 105.029 23.405 105.16 23.8244C105.3 24.2354 105.484 24.6002 105.714 24.9189C105.944 25.2293 106.21 25.4893 106.514 25.6991C106.818 25.9087 107.142 26.0554 107.486 26.1394C107.527 25.9045 107.552 25.6613 107.56 25.4095C107.576 25.1496 107.585 24.8853 107.585 24.617C107.585 24.0214 107.54 23.4847 107.449 23.0066C107.359 22.52 107.24 22.1091 107.093 21.7736C106.945 21.4296 106.773 21.1655 106.575 20.981C106.379 20.7964 106.178 20.7041 105.972 20.7041C105.694 20.7041 105.456 20.8593 105.259 21.1697C105.062 21.4716 104.963 21.8993 104.963 22.453Z" fill="url(#paint13_linear_2947_15222)"/>
<path d="M114.538 34.6695C114.538 34.3004 114.604 33.9272 114.735 33.5497C114.874 33.1723 115.063 32.7865 115.301 32.3923C115.539 31.9981 115.814 31.5871 116.125 31.1593C116.445 30.7399 116.79 30.3038 117.159 29.8508V27.4729C116.962 27.8671 116.741 28.2153 116.495 28.5172C116.249 28.8191 115.986 29.075 115.707 29.2846C115.436 29.4861 115.153 29.6412 114.858 29.7502C114.571 29.8508 114.288 29.9011 114.009 29.9011C113.623 29.9011 113.25 29.8047 112.889 29.6118C112.536 29.4189 112.22 29.1295 111.941 28.7437C111.662 28.3495 111.441 27.8546 111.277 27.259C111.113 26.6635 111.031 25.9631 111.031 25.1579C111.031 24.4786 111.109 23.8076 111.265 23.145C111.42 22.4824 111.654 21.891 111.966 21.3709C112.278 20.8425 112.663 20.4148 113.123 20.0876C113.582 19.7605 114.12 19.597 114.735 19.597C115.219 19.597 115.67 19.6976 116.089 19.8989C116.515 20.1002 116.872 20.3939 117.159 20.7797V20.6286C117.159 20.4693 117.204 20.3267 117.295 20.2008C117.393 20.0667 117.512 19.9576 117.651 19.8738C117.799 19.7816 117.951 19.7144 118.107 19.6724C118.271 19.6221 118.415 19.597 118.538 19.597C118.677 19.597 118.776 19.6179 118.833 19.6599C118.89 19.6935 118.919 19.7563 118.919 19.8486C118.919 19.9828 118.903 20.2847 118.87 20.7544C118.837 21.2242 118.821 21.912 118.821 22.8179V28.2782C119.026 28.0182 119.243 27.7287 119.473 27.4101C119.703 27.0913 119.932 26.76 120.162 26.4162C120.392 26.0638 120.613 25.7032 120.827 25.3341C121.048 24.965 121.253 24.5959 121.442 24.2269L121.565 23.9753L122.07 24.3653L121.946 24.617C121.75 25.0195 121.52 25.4389 121.257 25.8751C121.003 26.3028 120.732 26.7264 120.445 27.1458C120.166 27.5569 119.883 27.9552 119.596 28.341C119.317 28.7185 119.059 29.0581 118.821 29.3602V32.0902C118.821 32.862 118.751 33.5163 118.611 34.053C118.48 34.5981 118.296 35.0386 118.058 35.3741C117.828 35.718 117.549 35.9653 117.221 36.1163C116.901 36.2674 116.552 36.3428 116.175 36.3428C115.707 36.3428 115.317 36.1919 115.006 35.89C114.694 35.5964 114.538 35.1896 114.538 34.6695ZM114.76 28.6178C115.014 28.6178 115.264 28.5424 115.51 28.3913C115.765 28.2404 115.998 28.0475 116.212 27.8126C116.425 27.5778 116.614 27.322 116.778 27.0452C116.95 26.76 117.077 26.4832 117.159 26.2147V22.6669C117.159 22.2895 117.102 21.9496 116.987 21.6477C116.872 21.3373 116.72 21.0774 116.532 20.8678C116.343 20.6496 116.125 20.4818 115.879 20.3645C115.641 20.2469 115.395 20.1883 115.141 20.1883C114.747 20.1883 114.403 20.31 114.107 20.5532C113.812 20.788 113.566 21.1026 113.369 21.4968C113.172 21.8826 113.024 22.3271 112.926 22.8304C112.836 23.3337 112.791 23.8452 112.791 24.3653C112.791 25.0112 112.827 25.5941 112.901 26.1141C112.983 26.6341 113.106 27.083 113.27 27.4604C113.434 27.8295 113.64 28.1147 113.886 28.3159C114.132 28.5172 114.423 28.6178 114.76 28.6178ZM116.039 35.5754C116.171 35.5754 116.302 35.5459 116.433 35.4873C116.573 35.437 116.696 35.3154 116.802 35.1225C116.909 34.9295 116.995 34.6443 117.061 34.2668C117.126 33.8894 117.159 33.3779 117.159 32.732V30.8573C116.593 31.5535 116.13 32.2119 115.769 32.8326C115.416 33.4616 115.239 34.0489 115.239 34.594C115.239 34.8541 115.309 35.0806 115.449 35.2735C115.588 35.4747 115.785 35.5754 116.039 35.5754Z" fill="url(#paint14_linear_2947_15222)"/>
<path d="M122.193 24.3653L122.07 24.617L121.946 24.8811L121.442 24.4911L121.565 24.2269C121.77 23.7991 121.938 23.3713 122.07 22.9436C122.209 22.5075 122.32 22.1008 122.402 21.7233C122.492 21.3459 122.566 21.0145 122.623 20.7294C122.681 20.4442 122.738 20.2386 122.796 20.1129C122.845 20.0121 122.915 19.9325 123.005 19.8738C123.103 19.8066 123.202 19.7522 123.3 19.7102C123.407 19.6682 123.505 19.639 123.596 19.6221C123.694 19.6054 123.764 19.597 123.805 19.597C123.985 19.597 124.104 19.6348 124.162 19.7102C124.227 19.7858 124.26 19.92 124.26 20.1129C124.26 20.2052 124.24 20.4357 124.199 20.8048C124.166 21.1655 124.125 21.6225 124.075 22.1761C124.034 22.7214 123.993 23.3379 123.952 24.0256C123.92 24.7051 123.903 25.4095 123.903 26.1393C123.903 26.6677 123.928 27.0871 123.977 27.3974C124.026 27.6995 124.088 27.926 124.162 28.0769C124.244 28.2278 124.33 28.3243 124.42 28.3663C124.519 28.4082 124.617 28.4291 124.715 28.4291C124.847 28.4291 124.994 28.3704 125.158 28.2529C125.323 28.1356 125.515 27.9301 125.737 27.6364C125.958 27.3345 126.213 26.932 126.5 26.4287C126.787 25.917 127.123 25.2713 127.509 24.4911L127.644 24.2269L128.149 24.617L128.014 24.8811C127.702 25.5018 127.39 26.1141 127.078 26.7181C126.775 27.322 126.463 27.8588 126.143 28.3285C125.831 28.7982 125.515 29.1798 125.195 29.4734C124.875 29.7585 124.555 29.9011 124.236 29.9011C123.899 29.9011 123.608 29.8341 123.362 29.6999C123.124 29.5573 122.923 29.3266 122.759 29.0078C122.603 28.6892 122.484 28.2698 122.402 27.7498C122.328 27.2214 122.291 26.5713 122.291 25.7997C122.291 25.5815 122.291 25.355 122.291 25.1202C122.291 24.877 122.299 24.6254 122.316 24.3653H122.193ZM124.715 17.0177C124.715 17.3113 124.617 17.5588 124.42 17.7601C124.231 17.953 123.993 18.0495 123.706 18.0495C123.427 18.0495 123.189 17.953 122.993 17.7601C122.796 17.5588 122.697 17.3113 122.697 17.0177C122.697 16.7326 122.796 16.4893 122.993 16.2881C123.189 16.0868 123.427 15.986 123.706 15.986C123.993 15.986 124.231 16.0868 124.42 16.2881C124.617 16.4893 124.715 16.7326 124.715 17.0177Z" fill="url(#paint15_linear_2947_15222)"/>
<path d="M130.143 29.9012C129.642 29.9012 129.207 29.7922 128.838 29.574C128.477 29.3561 128.178 29.0625 127.94 28.6934C127.702 28.316 127.526 27.884 127.411 27.3974C127.296 26.911 127.238 26.3951 127.238 25.85C127.238 25.372 127.283 24.8854 127.374 24.3906C127.464 23.8956 127.591 23.4175 127.755 22.9563C127.927 22.4866 128.141 22.0505 128.395 21.6478C128.65 21.2367 128.941 20.8804 129.269 20.5783C129.597 20.2764 129.962 20.0374 130.364 19.8612C130.774 19.6852 131.213 19.5971 131.681 19.5971C132.214 19.5971 132.665 19.7186 133.035 19.9618C133.412 20.2052 133.716 20.5029 133.945 20.8551C133.953 19.2699 134.031 17.8691 134.179 16.653C134.327 15.4368 134.532 14.4176 134.794 13.5957C135.065 12.7738 135.385 12.1531 135.754 11.7337C136.124 11.3059 136.53 11.0919 136.973 11.0919C137.129 11.0919 137.268 11.113 137.391 11.1548C137.522 11.1884 137.629 11.2556 137.711 11.3562C137.801 11.4569 137.867 11.5953 137.908 11.7713C137.957 11.9391 137.982 12.1573 137.982 12.4256C137.982 12.9792 137.928 13.6166 137.822 14.338C137.715 15.051 137.563 15.8309 137.367 16.6781C137.17 17.5169 136.928 18.4144 136.64 19.3706C136.361 20.3184 136.05 21.3039 135.705 22.3271C135.713 23.2246 135.726 24.0006 135.742 24.6547C135.758 25.3089 135.779 25.8626 135.804 26.3156C135.836 26.7684 135.873 27.1375 135.914 27.4227C135.964 27.7079 136.017 27.9302 136.074 28.0895C136.14 28.2404 136.214 28.3452 136.296 28.4041C136.386 28.4544 136.485 28.4795 136.591 28.4795C136.78 28.4795 136.969 28.3955 137.157 28.2279C137.354 28.0517 137.563 27.7959 137.785 27.4605C138.006 27.1164 138.244 26.6972 138.499 26.2022C138.761 25.7074 139.048 25.1371 139.36 24.4912L139.496 24.2269L140 24.6171L139.865 24.8812C139.389 25.8626 138.971 26.6761 138.61 27.322C138.248 27.9594 137.916 28.4711 137.613 28.8569C137.317 29.2427 137.034 29.5154 136.764 29.6747C136.493 29.8258 136.21 29.9012 135.914 29.9012C135.627 29.9012 135.377 29.83 135.164 29.6874C134.959 29.5364 134.782 29.3057 134.635 28.9953C134.487 28.6765 134.368 28.274 134.278 27.7876C134.187 27.2926 134.118 26.7014 134.068 26.0135C133.781 26.6008 133.486 27.1333 133.182 27.6114C132.879 28.0895 132.563 28.5005 132.235 28.8444C131.915 29.1799 131.578 29.44 131.226 29.6243C130.873 29.8089 130.512 29.9012 130.143 29.9012ZM131.927 20.2386C131.476 20.2386 131.082 20.3812 130.746 20.6664C130.409 20.9432 130.13 21.3081 129.909 21.761C129.687 22.2056 129.523 22.7088 129.417 23.2707C129.31 23.8327 129.257 24.3947 129.257 24.9567C129.257 25.4181 129.289 25.8626 129.355 26.2903C129.429 26.7097 129.536 27.083 129.675 27.4101C129.823 27.7373 129.999 27.9972 130.204 28.1901C130.409 28.383 130.647 28.4795 130.918 28.4795C131.18 28.4795 131.435 28.4124 131.681 28.2782C131.935 28.144 132.186 27.9302 132.432 27.6365C132.678 27.3346 132.928 26.9488 133.182 26.4791C133.437 26.001 133.707 25.4223 133.995 24.7428C133.978 24.3402 133.966 23.9125 133.958 23.4595C133.949 22.9983 133.945 22.5075 133.945 21.9875C133.765 21.4424 133.49 21.0146 133.121 20.7042C132.76 20.3939 132.362 20.2386 131.927 20.2386ZM137.096 12.8911C137.096 12.5053 137.051 12.2368 136.96 12.0859C136.878 11.9349 136.78 11.8594 136.665 11.8594C136.468 11.8594 136.308 12.0566 136.185 12.4508C136.062 12.8366 135.964 13.3608 135.89 14.0234C135.824 14.6861 135.775 15.4535 135.742 16.3259C135.717 17.1982 135.705 18.1165 135.705 19.0812V20.4651C135.96 19.618 136.177 18.8547 136.357 18.1754C136.538 17.4959 136.681 16.8627 136.788 16.2756C136.895 15.6884 136.973 15.1222 137.022 14.5771C137.071 14.0318 137.096 13.4698 137.096 12.8911Z" fill="url(#paint16_linear_2947_15222)"/>
<path d="M57.8562 18.7555C57.8562 20.434 58.0137 21.8981 58.3286 23.1478C58.6433 24.3973 59.058 25.4372 59.5724 26.2672C60.0947 27.0971 60.686 27.722 61.3462 28.1417C62.0143 28.5519 62.6978 28.7571 63.3965 28.7571C63.8957 28.7571 64.3871 28.6452 64.8708 28.4215C65.3623 28.1976 65.8384 27.8619 66.299 27.4143C66.7599 26.9665 67.2014 26.4071 67.6238 25.7356C68.0538 25.0641 68.4529 24.2762 68.8216 23.3715L68.9483 23.0778L69.4205 23.5115L69.2938 23.8052C68.8715 24.8404 68.403 25.7496 67.8886 26.533C67.3818 27.3163 66.8404 27.9737 66.2645 28.5054C65.6887 29.0275 65.0896 29.4239 64.4677 29.6943C63.8534 29.9647 63.2237 30.1 62.5788 30.1C62.0258 30.1 61.4768 30.0021 60.9317 29.8063C60.3941 29.6198 59.8796 29.3353 59.3882 28.953C58.9044 28.5613 58.4514 28.0717 58.029 27.4841C57.6144 26.8967 57.2535 26.2113 56.9463 25.4278C56.6391 24.6352 56.3973 23.7446 56.2207 22.7561C56.0518 21.7583 55.9673 20.6626 55.9673 19.4689C55.9673 17.8928 56.0747 16.4661 56.2898 15.1883C56.5124 13.9016 56.8082 12.7591 57.1767 11.7612C57.5529 10.754 57.9868 9.88213 58.4783 9.14551C58.9774 8.40872 59.4995 7.8025 60.0446 7.32704C60.5899 6.842 61.1466 6.483 61.7149 6.24988C62.2832 6.01676 62.8283 5.90012 63.3504 5.90012C64.0338 5.90012 64.6635 6.04462 65.2395 6.3338C65.8154 6.61358 66.3106 7.01453 66.7253 7.53683C67.14 8.04973 67.4625 8.6791 67.6927 9.42529C67.9308 10.1619 68.0498 10.9826 68.0498 11.8872C68.0498 12.7544 67.9385 13.5704 67.7159 14.3351C67.5008 15.0999 67.2091 15.7712 66.8404 16.3494C66.4796 16.9184 66.0611 17.3707 65.585 17.7063C65.1165 18.042 64.625 18.2098 64.1106 18.2098C63.7651 18.2098 63.4425 18.1353 63.1431 17.9861C62.8436 17.8369 62.5825 17.6271 62.36 17.3566C62.1372 17.0862 61.9606 16.7551 61.83 16.3635C61.6996 15.9718 61.6342 15.5381 61.6342 15.0625C61.6342 14.6056 61.6919 14.1672 61.807 13.7477C61.9221 13.3187 62.0681 12.927 62.2447 12.5727C62.4213 12.209 62.6134 11.8918 62.8206 11.6214C63.0357 11.3416 63.2429 11.1224 63.4425 10.964L63.7537 11.3416C63.5924 11.5655 63.4388 11.8078 63.2928 12.069C63.1546 12.3207 63.0318 12.5958 62.9243 12.8944C62.8167 13.1834 62.7322 13.4957 62.6709 13.8316C62.6094 14.1672 62.5788 14.5309 62.5788 14.9227C62.5788 15.3236 62.6171 15.6826 62.6939 15.9998C62.7784 16.3169 62.8897 16.5872 63.0279 16.8111C63.1738 17.0348 63.339 17.2074 63.5232 17.3285C63.7075 17.4405 63.9033 17.4966 64.1106 17.4966C64.3948 17.4966 64.6789 17.3707 64.9629 17.1188C65.2471 16.8576 65.5005 16.48 65.7233 15.9857C65.9459 15.4822 66.1264 14.8666 66.2645 14.1392C66.4028 13.4118 66.4719 12.5727 66.4719 11.6214C66.4719 10.7634 66.3912 10.0221 66.2301 9.39726C66.0765 8.76301 65.8614 8.24089 65.585 7.83053C65.3086 7.42018 64.9822 7.11707 64.606 6.92121C64.2296 6.71612 63.8265 6.61358 63.3965 6.61358C63.0893 6.61358 62.7401 6.69749 62.3484 6.86533C61.9567 7.02393 61.5536 7.28961 61.139 7.6627C60.732 8.03562 60.3326 8.52989 59.9411 9.14551C59.5494 9.75155 59.1962 10.507 58.8814 11.4116C58.5743 12.3068 58.3247 13.3606 58.1327 14.5729C57.9485 15.7853 57.8562 17.1793 57.8562 18.7555Z" fill="url(#paint17_linear_2947_15222)"/>
<path d="M63.1699 3.65717C58.7938 5.03516 56.9499 12.2586 56.6919 15.1521L58.2324 11.9494C58.5249 7.08676 62.1285 3.985 63.1699 3.65717Z" fill="url(#paint18_linear_2947_15222)"/>
<defs>
<linearGradient id="paint0_linear_2947_15222" x1="13.6787" y1="0" x2="24.4988" y2="18.7751" gradientUnits="userSpaceOnUse">
<stop stop-color="#F30092"/>
<stop offset="1" stop-color="#20ACE8"/>
</linearGradient>
<linearGradient id="paint1_linear_2947_15222" x1="35.5144" y1="0" x2="24.6943" y2="18.7751" gradientUnits="userSpaceOnUse">
<stop stop-color="#F30092"/>
<stop offset="1" stop-color="#20ACE8"/>
</linearGradient>
<linearGradient id="paint2_linear_2947_15222" x1="9.61293" y1="25.5291" x2="14.2868" y2="38.9747" gradientUnits="userSpaceOnUse">
<stop stop-color="#F30092"/>
<stop offset="1" stop-color="#1E9BD1"/>
</linearGradient>
<linearGradient id="paint3_linear_2947_15222" x1="9.61293" y1="25.5291" x2="12.1311" y2="36.4596" gradientUnits="userSpaceOnUse">
<stop stop-color="#F30092"/>
<stop offset="1" stop-color="#1E9BD1"/>
</linearGradient>
<linearGradient id="paint4_linear_2947_15222" x1="0" y1="1.21606" x2="21.3216" y2="42.1653" gradientUnits="userSpaceOnUse">
<stop stop-color="#F30092"/>
<stop offset="1" stop-color="#20ACE8"/>
</linearGradient>
<linearGradient id="paint5_linear_2947_15222" x1="2.8114e-05" y1="1.21606" x2="9.47012" y2="30.2398" gradientUnits="userSpaceOnUse">
<stop stop-color="#F30092"/>
<stop offset="1" stop-color="#20ACE8"/>
</linearGradient>
<linearGradient id="paint6_linear_2947_15222" x1="39.5425" y1="25.5291" x2="34.8686" y2="38.9747" gradientUnits="userSpaceOnUse">
<stop stop-color="#F30092"/>
<stop offset="1" stop-color="#1E9BD1"/>
</linearGradient>
<linearGradient id="paint7_linear_2947_15222" x1="39.5425" y1="25.5291" x2="37.0243" y2="36.4596" gradientUnits="userSpaceOnUse">
<stop stop-color="#F30092"/>
<stop offset="1" stop-color="#1E9BD1"/>
</linearGradient>
<linearGradient id="paint8_linear_2947_15222" x1="49.1555" y1="1.21606" x2="27.8339" y2="42.1653" gradientUnits="userSpaceOnUse">
<stop stop-color="#F30092"/>
<stop offset="1" stop-color="#20ACE8"/>
</linearGradient>
<linearGradient id="paint9_linear_2947_15222" x1="49.1556" y1="1.21606" x2="39.6855" y2="30.2398" gradientUnits="userSpaceOnUse">
<stop stop-color="#F30092"/>
<stop offset="1" stop-color="#20ACE8"/>
</linearGradient>
<linearGradient id="paint10_linear_2947_15222" x1="75.5474" y1="2.58298" x2="15.9666" y2="4.441" gradientUnits="userSpaceOnUse">
<stop stop-color="#F30092"/>
<stop offset="1" stop-color="#20ACE8"/>
</linearGradient>
<linearGradient id="paint11_linear_2947_15222" x1="75.5471" y1="2.58297" x2="15.9663" y2="4.441" gradientUnits="userSpaceOnUse">
<stop stop-color="#F30092"/>
<stop offset="1" stop-color="#20ACE8"/>
</linearGradient>
<linearGradient id="paint12_linear_2947_15222" x1="75.5472" y1="2.58294" x2="15.9664" y2="4.44097" gradientUnits="userSpaceOnUse">
<stop stop-color="#F30092"/>
<stop offset="1" stop-color="#20ACE8"/>
</linearGradient>
<linearGradient id="paint13_linear_2947_15222" x1="75.547" y1="2.58298" x2="15.9663" y2="4.441" gradientUnits="userSpaceOnUse">
<stop stop-color="#F30092"/>
<stop offset="1" stop-color="#20ACE8"/>
</linearGradient>
<linearGradient id="paint14_linear_2947_15222" x1="75.5472" y1="2.58294" x2="15.9664" y2="4.44097" gradientUnits="userSpaceOnUse">
<stop stop-color="#F30092"/>
<stop offset="1" stop-color="#20ACE8"/>
</linearGradient>
<linearGradient id="paint15_linear_2947_15222" x1="75.5472" y1="2.58295" x2="15.9664" y2="4.44098" gradientUnits="userSpaceOnUse">
<stop stop-color="#F30092"/>
<stop offset="1" stop-color="#20ACE8"/>
</linearGradient>
<linearGradient id="paint16_linear_2947_15222" x1="75.5473" y1="2.583" x2="15.9666" y2="4.44102" gradientUnits="userSpaceOnUse">
<stop stop-color="#F30092"/>
<stop offset="1" stop-color="#20ACE8"/>
</linearGradient>
<linearGradient id="paint17_linear_2947_15222" x1="75.5472" y1="2.58299" x2="15.9665" y2="4.44102" gradientUnits="userSpaceOnUse">
<stop stop-color="#F30092"/>
<stop offset="1" stop-color="#20ACE8"/>
</linearGradient>
<linearGradient id="paint18_linear_2947_15222" x1="75.5472" y1="2.58297" x2="15.9665" y2="4.441" gradientUnits="userSpaceOnUse">
<stop stop-color="#F30092"/>
<stop offset="1" stop-color="#20ACE8"/>
</linearGradient>
</defs>
</svg>
