<svg width="32" height="32" viewBox="0 0 32 32" fill="none" xmlns="http://www.w3.org/2000/svg">
<path fill-rule="evenodd" clip-rule="evenodd" d="M0.00012207 7.69873C0.00012207 6.76051 0.764453 6 1.70645 6H30.2938C31.2362 6 32.0001 6.76034 32.0001 7.69873V24.3013C32.0001 25.2395 31.2358 26 30.2938 26H1.70645C0.764069 26 0.00012207 25.2397 0.00012207 24.3013V7.69873ZM18.9915 8.03516C17.8887 8.03516 16.8082 8.38907 15.9084 9.03673C15.0085 8.38907 13.9281 8.03516 12.8254 8.03516C9.85667 8.03516 7.44153 10.5242 7.44153 13.5834C7.44153 16.6427 9.85673 19.1315 12.8254 19.1315C13.9282 19.1315 15.0087 18.7776 15.9084 18.1303C16.8081 18.7777 17.8885 19.1315 18.9915 19.1315C21.9601 19.1315 24.3752 16.6427 24.3752 13.5834C24.3752 10.5242 21.96 8.03516 18.9915 8.03516ZM12.8288 18.1309C10.3945 18.1309 8.41418 16.0901 8.41418 13.5816C8.41418 11.0731 10.3945 9.0321 12.8288 9.0321C13.6466 9.0321 14.4497 9.26877 15.1415 9.70682C15.1379 9.71071 15.1345 9.71473 15.1308 9.71862C15.0766 9.77614 15.0236 9.8347 14.972 9.89425C14.968 9.89901 14.9638 9.90358 14.9597 9.90827C14.908 9.96844 14.8579 10.0298 14.8089 10.0921C14.8008 10.1024 14.7926 10.1127 14.7847 10.1231C14.7374 10.184 14.6913 10.2459 14.6467 10.3088C14.6391 10.3195 14.6316 10.3303 14.6241 10.3411C14.5788 10.4058 14.5347 10.4711 14.4922 10.5376C14.4889 10.5428 14.4856 10.5482 14.4823 10.5536C14.4406 10.6193 14.4005 10.686 14.3617 10.7534C14.3576 10.7605 14.3533 10.7675 14.3493 10.7746C14.3106 10.8424 14.2737 10.9111 14.238 10.9805C14.2316 10.9928 14.2253 11.005 14.219 11.0173C14.1844 11.0857 14.1511 11.1549 14.1194 11.2247C14.1139 11.2366 14.1087 11.2486 14.1034 11.2605C14.0711 11.3327 14.04 11.4056 14.0108 11.4792C14.009 11.4837 14.0073 11.4883 14.0056 11.4928C13.9771 11.5654 13.9502 11.6385 13.9246 11.7123C13.9213 11.7218 13.9179 11.7311 13.9147 11.7406C13.8897 11.8141 13.8664 11.8883 13.8443 11.9629C13.8403 11.9767 13.8362 11.9906 13.8322 12.0045C13.8109 12.0787 13.7911 12.1533 13.7728 12.2284C13.7698 12.2409 13.767 12.2534 13.764 12.2658C13.7456 12.3442 13.7283 12.4229 13.7132 12.5023C13.7126 12.505 13.7122 12.5079 13.7117 12.5107C13.6969 12.5889 13.684 12.6677 13.6724 12.7469C13.6707 12.7583 13.6689 12.7696 13.6673 12.781C13.6565 12.8586 13.6474 12.9366 13.6397 13.015C13.6383 13.0297 13.6369 13.0445 13.6355 13.0593C13.6284 13.1376 13.6227 13.2161 13.6188 13.2951C13.6182 13.3075 13.6179 13.3199 13.6173 13.3322C13.6138 13.4151 13.6115 13.4982 13.6115 13.5817C13.6115 13.6652 13.6138 13.7483 13.6173 13.8312C13.6179 13.8436 13.6182 13.856 13.6188 13.8684C13.6227 13.9473 13.6284 14.0259 13.6355 14.1043C13.6369 14.1189 13.6382 14.1336 13.6396 14.1482C13.6474 14.2267 13.6564 14.3048 13.6673 14.3825C13.6689 14.3937 13.6707 14.4048 13.6724 14.4159C13.684 14.4954 13.6969 14.5745 13.7119 14.653C13.7124 14.6556 13.7128 14.6582 13.7132 14.6608C13.7284 14.7403 13.7457 14.8192 13.7643 14.8978C13.7672 14.91 13.77 14.9223 13.7729 14.9344C13.7912 15.0098 13.8111 15.0847 13.8324 15.1591C13.8363 15.1726 13.8403 15.1862 13.8443 15.1998C13.8664 15.2748 13.8898 15.3493 13.9149 15.423C13.918 15.432 13.9213 15.4409 13.9243 15.4499C13.9501 15.5243 13.9772 15.5983 14.0061 15.6714C14.0077 15.6754 14.0091 15.6795 14.0108 15.6835C14.0401 15.7575 14.0714 15.8307 14.1039 15.9033C14.1091 15.9148 14.1141 15.9264 14.1194 15.9379C14.1513 16.008 14.1847 16.0774 14.2195 16.1462C14.2255 16.1582 14.2318 16.1701 14.238 16.1821C14.2738 16.2517 14.3108 16.3207 14.3496 16.3887C14.3536 16.3956 14.3577 16.4025 14.3617 16.4093C14.4007 16.477 14.4411 16.544 14.4829 16.61C14.4861 16.6151 14.4892 16.6203 14.4925 16.6254C14.5349 16.692 14.5791 16.7573 14.6244 16.8221C14.632 16.8329 14.6394 16.8436 14.647 16.8544C14.6916 16.9171 14.7375 16.979 14.7848 17.04C14.793 17.0504 14.8012 17.0608 14.8094 17.0713C14.8583 17.1334 14.9082 17.1946 14.9598 17.2547C14.9641 17.2597 14.9686 17.2646 14.9729 17.2696C15.0241 17.3288 15.0768 17.3869 15.1307 17.4442C15.1345 17.4482 15.138 17.4525 15.1417 17.4564C14.4499 17.8942 13.6466 18.1309 12.8288 18.1309ZM16.5427 16.0377C16.5157 16.0811 16.4885 16.1244 16.46 16.1669C16.4423 16.1931 16.4238 16.2188 16.4057 16.2447C16.3783 16.2837 16.3506 16.3226 16.3219 16.3608C16.302 16.3873 16.2815 16.4133 16.2611 16.4394C16.2323 16.4759 16.2032 16.5121 16.1733 16.5478C16.1517 16.5737 16.1297 16.5992 16.1075 16.6246C16.0769 16.6596 16.0456 16.6941 16.0138 16.7282C15.9909 16.7527 15.968 16.7771 15.9445 16.8013C15.9334 16.8127 15.9217 16.8237 15.9104 16.835C15.8991 16.8237 15.8874 16.8127 15.8763 16.8012C15.8529 16.7771 15.8299 16.7527 15.8071 16.7282C15.7753 16.6941 15.744 16.6596 15.7133 16.6246C15.6912 16.5993 15.6692 16.5737 15.6476 16.548C15.6177 16.5122 15.5885 16.4759 15.5597 16.4392C15.5393 16.4132 15.5188 16.3872 15.499 16.3608C15.4703 16.3225 15.4426 16.2837 15.4151 16.2446C15.397 16.2187 15.3785 16.1932 15.3609 16.1669C15.3322 16.1242 15.3049 16.0807 15.2778 16.0371C15.2631 16.0137 15.2478 15.9904 15.2335 15.9666C15.1994 15.9096 15.1669 15.8516 15.1353 15.7932C15.1294 15.7822 15.1228 15.7715 15.1169 15.7603C15.0799 15.6905 15.0448 15.6198 15.0116 15.5481C15.0015 15.5266 14.9926 15.5046 14.983 15.4829C14.9604 15.4323 14.9381 15.3816 14.9173 15.3302C14.9059 15.3021 14.8956 15.2735 14.8848 15.2452C14.8674 15.1994 14.8501 15.1535 14.8341 15.1071C14.8235 15.0762 14.8136 15.045 14.8036 15.0139C14.7892 14.9691 14.7753 14.9242 14.7622 14.8789C14.7529 14.8466 14.7441 14.8141 14.7356 14.7817C14.7237 14.7366 14.7124 14.6913 14.7018 14.6459C14.6941 14.6129 14.6868 14.58 14.6798 14.5468C14.6701 14.5007 14.6614 14.4543 14.6531 14.4078C14.6473 14.375 14.6414 14.3422 14.6362 14.3092C14.6287 14.2608 14.6224 14.212 14.6164 14.1632C14.6125 14.1317 14.6081 14.1005 14.6049 14.0689C14.5993 14.0149 14.5954 13.9606 14.5916 13.9062C14.5898 13.8795 14.5872 13.853 14.5858 13.8262C14.5816 13.7449 14.5792 13.6633 14.5792 13.5813C14.5792 13.4994 14.5816 13.4178 14.5858 13.3365C14.5871 13.3095 14.5898 13.2828 14.5916 13.256C14.5954 13.2019 14.5993 13.1476 14.6048 13.0938C14.6081 13.0621 14.6124 13.0307 14.6164 12.9992C14.6225 12.9505 14.6287 12.9019 14.6362 12.8536C14.6414 12.8204 14.6473 12.7875 14.6533 12.7545C14.6615 12.7082 14.6702 12.662 14.6798 12.616C14.6868 12.5827 14.6943 12.5494 14.702 12.5163C14.7125 12.4711 14.7236 12.4262 14.7355 12.3815C14.7441 12.3486 14.753 12.3157 14.7624 12.2831C14.7753 12.2383 14.7891 12.1939 14.8033 12.1496C14.8134 12.118 14.8234 12.0864 14.8342 12.055C14.8499 12.0093 14.867 11.9641 14.8842 11.9189C14.8952 11.8899 14.9058 11.8606 14.9174 11.8318C14.9378 11.7815 14.9596 11.7319 14.9817 11.6823C14.9918 11.6596 15.0011 11.6366 15.0117 11.6141C15.0449 11.5427 15.0798 11.4721 15.1167 11.4026C15.1235 11.3898 15.131 11.3775 15.1379 11.3649C15.1687 11.3082 15.2002 11.2518 15.2334 11.1964C15.248 11.1718 15.2638 11.1481 15.2789 11.1238C15.3057 11.081 15.3326 11.0381 15.3607 10.9961C15.3785 10.9696 15.3974 10.9435 15.4158 10.9173C15.443 10.8786 15.4704 10.8401 15.4988 10.8022C15.5188 10.7756 15.5394 10.7493 15.5601 10.7232C15.5887 10.6868 15.6178 10.6506 15.6476 10.615C15.6693 10.5892 15.6913 10.5636 15.7135 10.5382C15.7442 10.5032 15.7755 10.4686 15.8073 10.4345C15.83 10.4101 15.8529 10.3857 15.8762 10.3618C15.8874 10.3503 15.8992 10.3393 15.9105 10.3279C15.9219 10.3393 15.9336 10.3503 15.9449 10.3619C15.9681 10.3858 15.991 10.4101 16.0136 10.4344C16.0456 10.4687 16.077 10.5034 16.1077 10.5385C16.1298 10.5638 16.1517 10.5892 16.1732 10.6148C16.2032 10.6506 16.2324 10.687 16.2613 10.7237C16.2817 10.7497 16.3021 10.7756 16.3219 10.8019C16.3507 10.8402 16.3784 10.8793 16.406 10.9184C16.4241 10.9441 16.4425 10.9696 16.46 10.9956C16.4887 11.0383 16.516 11.0818 16.5432 11.1254C16.5579 11.149 16.5732 11.1722 16.5874 11.196C16.6215 11.2533 16.6539 11.3113 16.6856 11.3697C16.6915 11.3807 16.6981 11.3913 16.7039 11.4024C16.7409 11.4722 16.7759 11.5429 16.8093 11.6146C16.8193 11.6363 16.8284 11.6585 16.8382 11.6804C16.8606 11.7308 16.8829 11.7813 16.9036 11.8325C16.915 11.8606 16.9253 11.8892 16.9361 11.9177C16.9536 11.9635 16.9708 12.0093 16.9868 12.0557C16.9975 12.0865 17.0073 12.1178 17.0173 12.1489C17.0317 12.1936 17.0457 12.2385 17.0587 12.2837C17.068 12.316 17.0768 12.3485 17.0854 12.3812C17.0972 12.4262 17.1085 12.4715 17.1191 12.5169C17.1267 12.5497 17.1342 12.5827 17.1411 12.6158C17.1508 12.662 17.1595 12.7086 17.1677 12.7552C17.1736 12.7878 17.1795 12.8205 17.1846 12.8534C17.1921 12.902 17.1984 12.9508 17.2045 12.9997C17.2084 13.031 17.2127 13.0622 17.216 13.0937C17.2216 13.1477 17.2255 13.2019 17.2292 13.2562C17.231 13.283 17.2337 13.3097 17.2351 13.3366C17.2393 13.4179 17.2417 13.4995 17.2417 13.5814C17.2417 13.6633 17.2393 13.7449 17.2351 13.8262C17.2337 13.853 17.2311 13.8797 17.2292 13.9065C17.2255 13.9608 17.2216 14.0151 17.2161 14.0689C17.2128 14.1004 17.2084 14.1317 17.2045 14.1631C17.1985 14.212 17.1922 14.2608 17.1846 14.3093C17.1796 14.3422 17.1736 14.3749 17.1678 14.4077C17.1595 14.4542 17.1508 14.5006 17.1411 14.5468C17.1342 14.58 17.1268 14.613 17.1191 14.6459C17.1085 14.6913 17.0973 14.7366 17.0854 14.7815C17.0768 14.8141 17.068 14.8466 17.0587 14.879C17.0457 14.9242 17.0317 14.969 17.0173 15.0137C17.0073 15.0449 16.9975 15.0762 16.9868 15.1071C16.9709 15.1534 16.9536 15.1993 16.9362 15.2449C16.9253 15.2733 16.915 15.3021 16.9036 15.3302C16.883 15.3814 16.8608 15.4317 16.8383 15.482C16.8284 15.5041 16.8194 15.5264 16.8093 15.5482C16.7759 15.6198 16.741 15.6904 16.704 15.7602C16.6979 15.7718 16.691 15.7829 16.6848 15.7944C16.6534 15.8524 16.6212 15.9099 16.5874 15.9665C16.573 15.9907 16.5576 16.014 16.5427 16.0377ZM18.9933 18.1308C18.162 18.1308 17.3722 17.8995 16.6795 17.4574C16.6837 17.453 16.6876 17.4483 16.6918 17.4438C16.7448 17.3877 16.7964 17.3306 16.8469 17.2724C16.852 17.2664 16.8574 17.2606 16.8625 17.2546C16.9136 17.1951 16.9631 17.1344 17.0115 17.073C17.0203 17.0619 17.029 17.0509 17.0375 17.0398C17.0845 16.9793 17.1302 16.9179 17.1745 16.8555C17.1824 16.8444 17.1902 16.8332 17.198 16.822C17.243 16.7576 17.287 16.6926 17.3292 16.6264C17.3327 16.621 17.3359 16.6154 17.3394 16.6099C17.3808 16.5447 17.4207 16.4785 17.4592 16.4116C17.4636 16.4039 17.4682 16.3964 17.4726 16.3886C17.5111 16.3211 17.548 16.2526 17.5836 16.1835C17.59 16.171 17.5965 16.1586 17.6028 16.146C17.6374 16.0777 17.6706 16.0087 17.7023 15.939C17.7078 15.9271 17.713 15.9151 17.7183 15.9031C17.7507 15.8307 17.7819 15.758 17.8111 15.6843C17.8128 15.6799 17.8144 15.6756 17.8161 15.6713C17.8446 15.5986 17.8716 15.5253 17.8972 15.4514C17.9005 15.4419 17.904 15.4325 17.9072 15.4229C17.9322 15.3494 17.9555 15.2752 17.9776 15.2006C17.9817 15.1867 17.9858 15.1729 17.9898 15.159C18.0111 15.0848 18.031 15.0102 18.0492 14.935C18.0522 14.9226 18.055 14.9102 18.0579 14.8978C18.0764 14.8193 18.0937 14.7405 18.1089 14.6611C18.1094 14.6585 18.1098 14.6559 18.1103 14.6533C18.1251 14.5748 18.138 14.4958 18.1496 14.4164C18.1513 14.4051 18.1531 14.3938 18.1547 14.3825C18.1655 14.3048 18.1746 14.2268 18.1824 14.1484C18.1839 14.1336 18.1852 14.1188 18.1866 14.104C18.1937 14.0257 18.1993 13.9472 18.2032 13.8683C18.2039 13.8558 18.2042 13.8433 18.2048 13.8309C18.2083 13.748 18.2107 13.6649 18.2107 13.5815C18.2107 13.498 18.2083 13.4149 18.2048 13.332C18.2043 13.3195 18.2039 13.3071 18.2032 13.2946C18.1993 13.2158 18.1936 13.1373 18.1866 13.059C18.1852 13.0441 18.1838 13.0292 18.1823 13.0143C18.1746 12.936 18.1655 12.8581 18.1547 12.7807C18.1531 12.7691 18.1512 12.7576 18.1495 12.7461C18.138 12.6671 18.1251 12.5885 18.1103 12.5103C18.1098 12.5074 18.1094 12.5045 18.1088 12.5016C18.0937 12.4225 18.0765 12.344 18.0581 12.2658C18.055 12.253 18.0522 12.2401 18.0491 12.2273C18.0309 12.1525 18.0111 12.0782 17.99 12.0043C17.9859 11.9901 17.9817 11.9759 17.9775 11.9616C17.9556 11.8874 17.9324 11.8136 17.9075 11.7405C17.9041 11.7303 17.9003 11.7202 17.8968 11.7101C17.8716 11.6372 17.8449 11.5648 17.8167 11.4931C17.8147 11.4881 17.8128 11.483 17.8108 11.478C17.7818 11.4048 17.7508 11.3326 17.7188 11.2608C17.7131 11.2482 17.7077 11.2356 17.702 11.2231C17.6704 11.1539 17.6374 11.0854 17.6031 11.0176C17.5965 11.0045 17.5898 10.9914 17.583 10.9784C17.5476 10.9098 17.5111 10.8418 17.4729 10.7749C17.4681 10.7665 17.4631 10.7582 17.4583 10.7498C17.4202 10.6839 17.3809 10.6187 17.3402 10.5543C17.3364 10.5482 17.3327 10.542 17.3288 10.536C17.2868 10.4702 17.2431 10.4055 17.1983 10.3416C17.1902 10.3299 17.1822 10.3184 17.174 10.307C17.1299 10.2448 17.0844 10.1836 17.0375 10.1232C17.0288 10.1121 17.02 10.101 17.0112 10.0898C16.9628 10.0284 16.9135 9.96781 16.8624 9.90845C16.8572 9.90239 16.8518 9.89652 16.8466 9.89053C16.7961 9.83228 16.7443 9.77507 16.6913 9.7188C16.6872 9.71447 16.6835 9.70996 16.6794 9.7057C17.3722 9.26338 18.1619 9.03203 18.9932 9.03203C21.4273 9.03203 23.4077 11.0729 23.4077 13.5815C23.4078 16.0901 21.4275 18.1308 18.9933 18.1308ZM9.55097 23.3311V22.2876C9.56552 22.1122 9.50511 21.9389 9.38541 21.8128C9.26572 21.6866 9.09854 21.62 8.92724 21.6302C8.69915 21.6153 8.48111 21.7285 8.35775 21.9259C8.24525 21.7343 8.03991 21.621 7.82216 21.6302C7.6292 21.6185 7.44422 21.7108 7.33402 21.8737V21.6702H7.00012V23.3346H7.32894V22.3781C7.31679 22.2612 7.35534 22.1448 7.43433 22.0597C7.51332 21.9747 7.62478 21.9295 7.73911 21.9363C7.973 21.9363 8.10521 22.0928 8.10521 22.3746V23.3328H8.43402V22.3781C8.42248 22.2614 8.46122 22.1453 8.54008 22.0604C8.61894 21.9754 8.73003 21.9301 8.84419 21.9363C9.08487 21.9363 9.21368 22.0928 9.21368 22.3746V23.3328L9.55097 23.3311ZM14.8337 21.6723H14.2438V21.168H13.9133V21.6723H13.5743V21.9749H13.9133V22.7628C13.9133 23.1488 14.0455 23.3784 14.4625 23.3784C14.6182 23.3788 14.771 23.3342 14.9032 23.2497L14.8015 22.9541C14.7069 23.0119 14.5996 23.0442 14.4896 23.048C14.3201 23.048 14.2421 22.9367 14.2421 22.7697V21.9714H14.832L14.8337 21.6723ZM17.841 21.6285C17.6626 21.6247 17.4954 21.7171 17.4003 21.872V21.6702H17.0782V23.3346H17.4037V22.3954C17.4037 22.1207 17.5325 21.9433 17.763 21.9433C17.8384 21.9422 17.9133 21.9564 17.9833 21.985L18.0918 21.6702C18.0113 21.6407 17.9265 21.6254 17.841 21.625V21.6285ZM13.2916 21.8035C13.0921 21.6818 12.8626 21.6215 12.6306 21.6296C12.2205 21.6296 11.9696 21.8278 11.9696 22.1513C11.9696 22.4226 12.1527 22.5861 12.5154 22.6383L12.6849 22.6626C12.8781 22.6904 12.9832 22.76 12.9832 22.8539C12.9832 22.9826 12.8408 23.0661 12.6001 23.0661C12.4064 23.0731 12.2161 23.0117 12.0611 22.8922L11.8916 23.153C12.0982 23.2976 12.3433 23.3729 12.5933 23.3687C13.0611 23.3687 13.3205 23.1461 13.3205 22.8296C13.3205 22.513 13.1222 22.393 12.7713 22.3409L12.6018 22.3165C12.4493 22.2957 12.3137 22.247 12.3137 22.1426C12.3137 22.0383 12.4425 21.9374 12.6357 21.9374C12.8143 21.9396 12.9893 21.9887 13.1442 22.08L13.2916 21.8035ZM18.2081 22.5005C18.1969 22.7345 18.2825 22.9624 18.444 23.1281C18.6054 23.2937 18.8276 23.3816 19.0556 23.37C19.2673 23.3811 19.4753 23.3104 19.6387 23.1718L19.4692 22.9109C19.3472 23.0062 19.1987 23.0586 19.0454 23.0605C18.7621 23.0325 18.5458 22.7882 18.5458 22.4961C18.5458 22.2041 18.7621 21.9598 19.0454 21.9318C19.1987 21.9337 19.3472 21.9861 19.4692 22.0813L19.6387 21.8205C19.4753 21.6819 19.2673 21.6112 19.0556 21.6222C18.8276 21.6106 18.6054 21.6985 18.444 21.8642C18.2825 22.0298 18.1969 22.2578 18.2081 22.4918V22.5005ZM15.9245 21.6306C15.4499 21.6306 15.1228 21.9785 15.1228 22.5002C15.1087 22.731 15.1904 22.9571 15.3477 23.1227C15.5049 23.2883 15.723 23.3781 15.9482 23.3698C16.19 23.3783 16.4265 23.2954 16.6126 23.1367L16.4431 22.8898C16.3092 22.9998 16.1434 23.061 15.9719 23.0637C15.7258 23.0729 15.5135 22.8882 15.4821 22.6376H16.694C16.694 22.5924 16.694 22.5472 16.694 22.4985C16.694 21.9767 16.3855 21.6289 15.9295 21.6289L15.9245 21.6306ZM15.9269 21.9377C16.0383 21.934 16.1465 21.9766 16.2269 22.0558C16.3073 22.135 16.3531 22.2442 16.354 22.3586H15.4845C15.4973 22.1168 15.6961 21.9298 15.932 21.9377H15.9269ZM11.534 22.5009V21.6713H11.2086V21.873C11.0808 21.7113 10.886 21.621 10.6832 21.6296C10.2128 21.6296 9.83148 22.0208 9.83148 22.5035C9.83148 22.9861 10.2128 23.3774 10.6832 23.3774C10.886 23.386 11.0808 23.2957 11.2086 23.1339V23.3357H11.534V22.5009ZM10.2205 22.5009C10.2091 22.3554 10.2576 22.2117 10.3542 22.1047C10.4508 21.9976 10.5867 21.9369 10.7289 21.9374C11.0123 21.9654 11.2285 22.2097 11.2285 22.5017C11.2285 22.7938 11.0123 23.0381 10.7289 23.0661C10.5867 23.0666 10.4508 23.0059 10.3542 22.8988C10.2576 22.7918 10.2091 22.6481 10.2205 22.5026V22.5009ZM22.7442 21.6324C22.5658 21.6286 22.3986 21.721 22.3035 21.8759V21.6724H21.9815V23.3367H22.3069V22.3976C22.3069 22.1228 22.4357 21.9454 22.6662 21.9454C22.7416 21.9444 22.8165 21.9586 22.8866 21.9872L22.995 21.6741C22.9145 21.6446 22.8297 21.6293 22.7442 21.6289V21.6324ZM25.3577 23.0957C25.3798 23.0954 25.4017 23.0995 25.4222 23.1078C25.4416 23.116 25.4594 23.1278 25.4747 23.1426C25.4896 23.1576 25.5017 23.1753 25.5103 23.1948C25.5276 23.2358 25.5276 23.2824 25.5103 23.3235C25.5017 23.343 25.4896 23.3607 25.4747 23.3757C25.4594 23.3905 25.4416 23.4023 25.4222 23.4104C25.4019 23.4196 25.3799 23.4244 25.3577 23.4243C25.2922 23.4238 25.2327 23.3846 25.2052 23.3235C25.1881 23.2824 25.1881 23.2359 25.2052 23.1948C25.2138 23.1753 25.2259 23.1576 25.2408 23.1426C25.2561 23.1278 25.2739 23.116 25.2933 23.1078C25.3135 23.0977 25.3354 23.0918 25.3577 23.0904V23.0957ZM25.3577 23.3911C25.3747 23.3912 25.3914 23.3876 25.4069 23.3806C25.4215 23.3739 25.4347 23.3645 25.4459 23.3528C25.4898 23.3036 25.4898 23.2281 25.4459 23.1789C25.4347 23.1672 25.4215 23.1577 25.4069 23.1511C25.3914 23.1441 25.3747 23.1405 25.3577 23.1406C25.3408 23.1407 25.3241 23.1442 25.3086 23.1511C25.2934 23.1575 25.2795 23.1669 25.2679 23.1789C25.224 23.2281 25.224 23.3036 25.2679 23.3528C25.2796 23.3647 25.2934 23.3741 25.3086 23.3806C25.3244 23.3863 25.3411 23.3886 25.3577 23.3876V23.3911ZM25.3679 23.1837C25.3837 23.1829 25.3993 23.1878 25.412 23.1976C25.4225 23.2065 25.4282 23.2201 25.4272 23.2341C25.4277 23.2458 25.4234 23.2571 25.4154 23.2654C25.4055 23.2746 25.393 23.2801 25.3798 23.2811L25.4289 23.3385H25.3899L25.3442 23.2811H25.3289V23.3385H25.2967V23.1854L25.3679 23.1837ZM25.3322 23.2109V23.2527H25.3694C25.3761 23.2547 25.3831 23.2547 25.3898 23.2527C25.3922 23.2478 25.3922 23.2419 25.3898 23.237C25.3922 23.2321 25.3922 23.2263 25.3898 23.2214C25.3831 23.2194 25.3761 23.2194 25.3694 23.2214L25.3322 23.2109ZM21.495 22.5043V21.6713H21.1696V21.873C21.0418 21.7113 20.847 21.621 20.6442 21.6296C20.1738 21.6296 19.7925 22.0208 19.7925 22.5035C19.7925 22.9861 20.1738 23.3774 20.6442 23.3774C20.847 23.386 21.0418 23.2957 21.1696 23.1339V23.3357H21.495V22.5043ZM20.1815 22.5043C20.1701 22.3589 20.2186 22.2152 20.3152 22.1081C20.4118 22.0011 20.5477 21.9404 20.69 21.9409C20.9733 21.9689 21.1896 22.2131 21.1896 22.5052C21.1896 22.7973 20.9733 23.0416 20.69 23.0696C20.5477 23.07 20.4118 23.0094 20.3152 22.9023C20.2186 22.7952 20.1701 22.6515 20.1815 22.5061V22.5043ZM24.7696 22.5043V21H24.4442V21.8696C24.3164 21.7078 24.1216 21.6175 23.9188 21.6261C23.4484 21.6261 23.0671 22.0174 23.0671 22.5C23.0671 22.9826 23.4484 23.3739 23.9188 23.3739C24.1216 23.3825 24.3164 23.2922 24.4442 23.1304V23.3322H24.7696V22.5043ZM23.4576 22.5044C23.4462 22.3589 23.4947 22.2153 23.5914 22.1082C23.688 22.0011 23.8239 21.9405 23.9661 21.9409C24.2369 21.9837 24.4363 22.2236 24.4346 22.5048C24.4329 22.7859 24.2306 23.0233 23.9593 23.0627C23.8174 23.0631 23.6818 23.0027 23.5853 22.896C23.4887 22.7893 23.44 22.6461 23.4508 22.5009L23.4576 22.5044Z" fill="#9FB270"/>
</svg>
