<svg width="32" height="32" viewBox="0 0 32 32" fill="none" xmlns="http://www.w3.org/2000/svg">
<path fill-rule="evenodd" clip-rule="evenodd" d="M0.00012207 7.69873C0.00012207 6.76051 0.764453 6 1.70645 6H30.2938C31.2362 6 32.0001 6.76034 32.0001 7.69873V24.3013C32.0001 25.2395 31.2358 26 30.2938 26H1.70645C0.764069 26 0.00012207 25.2397 0.00012207 24.3013V7.69873ZM11.8478 20.1681L13.2712 11.8555H15.5478L14.1234 20.1681H11.8478H11.8478ZM22.3793 12.0601C21.9283 11.8917 21.2215 11.7109 20.3389 11.7109C18.0893 11.7109 16.5046 12.8383 16.4912 14.4542C16.4785 15.6486 17.6224 16.3149 18.486 16.7126C19.3722 17.1199 19.67 17.3798 19.6658 17.7437C19.6602 18.3008 18.9582 18.5554 18.3038 18.5554C17.3926 18.5554 16.9085 18.4295 16.1608 18.119L15.8675 17.987L15.5479 19.8478C16.0797 20.0799 17.063 20.281 18.084 20.2914C20.4771 20.2914 22.0307 19.1768 22.0483 17.4513C22.0569 16.5058 21.4504 15.7861 20.1369 15.1928C19.3411 14.8083 18.8538 14.5516 18.859 14.1623C18.859 13.8168 19.2715 13.4472 20.1627 13.4472C20.9072 13.4358 21.4464 13.5974 21.8666 13.7657L22.0707 13.8617L22.3793 12.06L22.3793 12.0601ZM28.2154 11.8633H26.4562C25.9112 11.8633 25.5034 12.0113 25.2641 12.5526L21.8829 20.1706H24.2735C24.2735 20.1706 24.6645 19.1463 24.7529 18.9215C25.0142 18.9215 27.3365 18.925 27.6686 18.925C27.7367 19.216 27.9455 20.1706 27.9455 20.1706H30.0581L28.2154 11.8633V11.8633ZM7.47181 16.3765C7.47181 16.3766 7.4719 16.3768 7.47198 16.3769L7.70942 17.5289L9.93833 11.8603H12.3499L8.76568 20.157L6.35697 20.1597L4.33287 12.9399C3.63305 12.5538 2.8345 12.2433 1.94153 12.0283L1.97054 11.8552H5.64158C6.13609 11.8735 6.53579 12.0306 6.6736 12.557L7.47181 16.3765V16.3765ZM25.41 17.2187C25.5982 16.7397 26.3171 14.8949 26.3171 14.8949C26.3035 14.917 26.5039 14.4137 26.6188 14.1016L26.7728 14.8182C26.7728 14.8182 27.2087 16.8025 27.2997 17.2185H25.41V17.2186L25.41 17.2187Z" fill="#9FB270"/>
</svg>
