<svg width="219" height="60" viewBox="0 0 219 60" fill="none" xmlns="http://www.w3.org/2000/svg"><path d="M19.7 1.75c.3-.14.66-.16 1.08-.06.44.08.85.21 1.23.4.4.15.72.34.96.56.26.2.38.35.36.45a24.2 24.2 0 00-.8 3.4c-.2 1.25-.38 2.61-.52 4.07a135 135 0 00-.36 4.53l-.24 4.71c-.1 2.28-.24 4.6-.42 6.96a80.4 80.4 0 01-.75 6.84c-.32 2.2-.76 4.27-1.32 6.21a19.34 19.34 0 01-2.16 5.04 10.52 10.52 0 01-3.27 3.42 8.26 8.26 0 01-4.62 1.32 7.99 7.99 0 01-3.54-1.29 10.13 10.13 0 01-2.3-2.04 9.48 9.48 0 01-1.75-3.42v.03C1 42.04.82 41.22.74 40.42.48 38.6.6 37 1.07 35.62a9.55 9.55 0 012.01-3.48 8.64 8.64 0 012.88-2.07 7.24 7.24 0 012.97-.72 4.06 4.06 0 012.28.7 8.38 8.38 0 011.17 1.53 17.55 17.55 0 011.05 2.03c.12.28.18.5.18.66.02.16-.03.21-.15.15a10.1 10.1 0 00-4.02-.96c-1.2 0-2.23.3-3.09.9a6.05 6.05 0 00-2 2.25 9.35 9.35 0 00-.66 6.42c.07.38.25.82.53 1.32.3.52.68 1 1.14 1.44.46.44 1.01.78 1.65 1.02.64.26 1.36.32 2.16.18a5.19 5.19 0 003.15-1.77 11.9 11.9 0 002.2-3.75c.6-1.54 1.07-3.29 1.43-5.25.36-1.98.64-4.05.84-6.2.2-2.17.34-4.37.42-6.6.1-2.27.18-4.45.24-6.55.04-1.88.1-3.66.15-5.34.08-1.7.2-3.22.33-4.56-.6.5-1.23 1.08-1.89 1.74a21.3 21.3 0 00-3.66 4.95c-.52 1-.96 2.1-1.32 3.27a18.75 18.75 0 00-.3 9.39l.3 1.38c.02.24-.14.4-.48.45-.32.04-.7 0-1.14-.15a4.93 4.93 0 01-1.32-.75 3.1 3.1 0 01-.96-1.35c-.16-.5-.3-.99-.42-1.47s-.2-.96-.27-1.44c-.22-1.5-.16-2.96.18-4.38.36-1.42.88-2.78 1.56-4.08a25 25 0 012.43-3.69 37.9 37.9 0 015.67-5.7 46.4 46.4 0 012.31-1.8c.16-.42.32-.76.48-1.02.18-.28.4-.47.63-.57h-.03zM36 41.92c.35.04.8-.33 1.31-1.1a21.2 21.2 0 001.71-3.13 53.5 53.5 0 001.77-4.47c.58-1.68 1.1-3.4 1.56-5.19.1-.42.26-.68.48-.78.24-.1.47-.1.7 0 .23.1.42.3.56.57.14.28.16.6.06.96v-.03c-.28 1-.6 2.1-.96 3.3-.36 1.2-.76 2.41-1.2 3.63-.44 1.2-.92 2.36-1.44 3.48-.5 1.1-1.05 2.08-1.65 2.94a8.1 8.1 0 01-1.86 1.98c-.66.46-1.36.65-2.1.57a2.8 2.8 0 01-1.8-1.44 8.58 8.58 0 01-.87-2.88c-.12-.94-.17-1.98-.15-3.12a40.7 40.7 0 01.84-6.8c.24-1.1.5-2.09.78-2.95.04-.06.03-.07-.03-.03l-.15.06c-.22.24-.5.64-.87 1.2a63.08 63.08 0 00-2.46 4.35c-.42.86-.82 1.72-1.2 2.58-.36.86-.68 1.68-.96 2.46a9.86 9.86 0 00-.48 2.01l-.06 1.08a21.13 21.13 0 00.1 1.98c.03.26.07.48.11.66.1.28.14.51.12.7-.02.2-.2.3-.54.3-.36 0-.68-.1-.96-.3-.26-.19-.48-.4-.66-.67a9.3 9.3 0 01-.69-1.53v-.06a28.01 28.01 0 01-.24-9.54 36.42 36.42 0 011.65-7.2 1 1 0 01.51-.57c.26-.16.56-.27.9-.33.36-.08.71-.13 1.05-.15.36-.04.67-.06.93-.06.42 0 .67.11.75.33.08.22.1.47.03.75-.22.98-.46 1.9-.72 2.76l-.6 2.16c.42-.8.86-1.56 1.32-2.28.46-.72.91-1.35 1.35-1.89.46-.54.9-.96 1.3-1.26.41-.32.8-.47 1.16-.45.72.02 1.38.25 1.98.7.6.43.97 1.14 1.11 2.12.04.24.05.52.03.84a5 5 0 01-.12 1.02h.03c-.1.52-.2 1.05-.33 1.6a46.5 46.5 0 00-.33 1.61l-.57 2.85-.42 2.5c-.12.75-.2 1.43-.27 2.03-.04.58-.03 1.06.03 1.44.04.2.1.37.15.51.08.12.18.18.3.18zm15.7-19.74a9.5 9.5 0 00-2.37 1.8 7.52 7.52 0 00-1.26 1.83c-.26.6-.4 1.2-.42 1.77-.02.56 0 1.08.06 1.56l.18 1.11.06.21.03.18c.1.54.23 1.1.39 1.65.16.56.34 1.12.54 1.68l1.17-1.14 1.77-1.74c.58-.58 1.1-1.14 1.59-1.68a24 24 0 001.26-1.53c.36-.48.63-.93.8-1.35.05-.08.13-.07.25.03.14.08.27.21.39.4.14.17.25.37.33.6.1.21.14.41.12.6-.08.43-.31.92-.7 1.46-.35.52-.8 1.07-1.34 1.65a186.43 186.43 0 01-3.84 3.75l-1.11 1.05c.08.22.15.45.2.7l.22.65c.18.78.24 1.62.18 2.52a6.18 6.18 0 01-.66 2.43c-.36.74-.9 1.35-1.62 1.83-.7.46-1.6.66-2.67.6a1.66 1.66 0 01-.6-.2 2.47 2.47 0 01-1.41-1.99c-.12-.88.12-1.83.72-2.85.6-1.04 1.39-2.1 2.37-3.18-.18-.74-.4-1.56-.66-2.46-.24-.9-.55-1.93-.93-3.09l-.3-1.05c-.08-.38-.14-.74-.18-1.08a8.85 8.85 0 01.69-5.22 6.33 6.33 0 013.42-3.12h-.03c.14-.06.39-.05.75.03.36.06.72.17 1.08.33.38.14.72.3 1.02.48.32.16.5.3.57.42l-.06.36zm-6.06 20.37c.22 0 .42-.04.6-.12.2-.1.36-.27.48-.5.12-.27.19-.62.2-1.06a10.6 10.6 0 00-.11-1.8l-.03-.24c-.6.68-1.08 1.3-1.44 1.83-.34.52-.48.95-.42 1.3.04.15.09.3.15.41.08.12.27.18.57.18zm23.5-27.63c.24 0 .4.08.45.24.08.16.1.34.03.54a1.6 1.6 0 01-.24.54c-.12.18-.24.3-.36.33l-.27.03c-.12 0-.29.02-.5.06l-1.2.21a39.9 39.9 0 00-3.33.63c-.63.12-1.24.25-1.84.4a55.4 55.4 0 00-1.32 6.26c-.32 2.1-.56 4.13-.72 6.1l-.24 2.57-.24 3.1a88.65 88.65 0 00-.18 2.93c-.02.9 0 1.57.03 2.01 0 .02 0 .05-.03.1l.03.11c0 .32.04.45.12.4.08-.03.24-.26.48-.7a59.46 59.46 0 001.92-4.29c.4-.96.8-1.95 1.17-2.97.4-1.02.77-2.03 1.11-3.03.36-1.02.67-1.97.93-2.85l.03.06a.54.54 0 01.33-.39c.18-.08.37-.1.57-.06.22.04.42.14.6.3.18.16.3.4.33.7a29.3 29.3 0 01-.87 2.94 112.81 112.81 0 01-3.5 8.57c-.45.94-.89 1.8-1.33 2.55-.42.76-.83 1.38-1.23 1.86-.38.46-.72.7-1.02.72-.18 0-.38-.02-.6-.06a1.67 1.67 0 01-.69-.33 3.6 3.6 0 01-.66-.75c-.2-.34-.37-.79-.5-1.35v.03a4.38 4.38 0 01-.16-.6l-.09-.72a29.9 29.9 0 01-.2-4.32c.01-1.72.1-3.56.26-5.52.16-1.98.38-4 .66-6.06.3-2.06.63-4 1-5.85-.19.1-.36.23-.52.4-.08.01-.18-.06-.3-.22-.1-.18-.2-.39-.3-.63a4.56 4.56 0 01-.18-.75c-.02-.28.03-.5.15-.69.22-.38.82-.7 1.8-.99.34-1.42.7-2.64 1.08-3.66.4-1.04.8-1.79 1.2-2.25.08-.08.25-.16.51-.24a14.7 14.7 0 012.76-.42c.28 0 .5.03.63.1.16.05.21.14.15.26a30.74 30.74 0 00-2.28 5.34c.76-.12 1.51-.22 2.25-.3l2.04-.2c.62-.07 1.13-.1 1.53-.13l.75-.06zm5.93 14.76c.38-.1.65-.03.81.21.16.24.22.52.18.84a176 176 0 00-1.74 10.14c-.04.12-.05.2-.03.24.2-.16.45-.48.75-.96s.62-1.05.96-1.7a133.18 133.18 0 004.05-9.09l.57-1.42c.16-.36.26-.56.3-.6.1-.12.23-.16.4-.12.15.04.3.12.44.24.16.12.3.27.4.45.11.18.18.35.2.51l-.27.75c-.16.48-.39 1.11-.69 1.9l-1.05 2.6a66.76 66.76 0 01-2.73 5.91c-.48.96-.97 1.82-1.47 2.58-.48.74-.95 1.34-1.4 1.8-.45.46-.86.7-1.24.7-.24 0-.52-.06-.84-.16-.3-.08-.59-.36-.87-.84a1.1 1.1 0 01-.2-.5 16.97 16.97 0 01-.28-3.64c0-1.2.08-2.46.24-3.78a75.42 75.42 0 00-1.83 4.2l-.66 1.62-.63 1.38c-.2.4-.39.75-.57 1.05-.16.28-.3.46-.42.54-.26.18-.52.2-.78.03a2.66 2.66 0 01-.75-.75 10.06 10.06 0 01-1.1-2.34v.1a8.41 8.41 0 01-.33-1.5 20.98 20.98 0 01.12-5.94c.15-1.15.42-2.28.8-3.4.36-1.14.85-2.17 1.47-3.09a8.46 8.46 0 012.34-2.28c.94-.6 2.06-.94 3.36-1.02.54-.02 1.01.1 1.41.36a3.16 3.16 0 011.41 2.04c.08.4.07.74-.03 1.02a.73.73 0 01-.5.51c-.27.06-.62-.06-1.06-.36a.62.62 0 01-.24-.3 3.52 3.52 0 00-.15-.42c-.04-.16-.1-.3-.18-.42a.46.46 0 00-.3-.24c-.52.08-1.02.37-1.5.87-.48.48-.93 1.1-1.35 1.86-.42.74-.8 1.6-1.17 2.55-.34.96-.63 1.95-.87 2.97a32.54 32.54 0 00-.5 3.06c-.1 1.02-.13 1.96-.07 2.82.22-.68.55-1.48 1-2.4a73.49 73.49 0 012.9-5.34l1.11-1.77c0-.06.01-.1.03-.12.04-.06.15-.16.33-.3h.03-.03a9.08 9.08 0 012.22-1.05zm-2.4 1.2c.04-.08.1-.13.18-.15a.85.85 0 00-.18.15zM94.75.64a7.13 7.13 0 016.84 2.52 8.62 8.62 0 011.47 2.61c.36.96.6 1.91.72 2.85.18 1.42.21 2.78.1 4.08a20.5 20.5 0 01-.67 3.66 19.73 19.73 0 01-2.49 5.61c-.48.72-.95 1.31-1.4 1.77-.45.46-.83.77-1.15.93-.28.14-.65.11-1.1-.09a5.14 5.14 0 01-2.28-1.86c-.25-.36-.28-.62-.1-.78l1.11-1.05a15.5 15.5 0 003.9-6.21c.32-.98.54-2.08.66-3.3.12-1.22.08-2.56-.12-4.02a7.06 7.06 0 00-.48-1.92 3.46 3.46 0 00-.78-1.2 3.05 3.05 0 00-2.67-.66l-.63.12a6.76 6.76 0 00-3.12 1.47c-.98.78-1.83 1.77-2.55 2.97a13.84 13.84 0 00-1.56 4 12.59 12.59 0 001.11 8.63c.46.9 1 1.77 1.6 2.61.6.84 1.22 1.65 1.88 2.43.68.78 1.36 1.54 2.04 2.28a75.21 75.21 0 013.3 3.96 15.36 15.36 0 012.4 4.08c.28.82.48 1.61.6 2.37.2 1.48.1 2.85-.33 4.11a8.5 8.5 0 01-1.89 3.24 9.1 9.1 0 01-3.12 2.16 9.92 9.92 0 01-5.6.63 9.8 9.8 0 01-5.05-2.37 12.31 12.31 0 01-1.95-2.22 12.51 12.51 0 01-1.38-2.79 8.91 8.91 0 01-.48-2 7.18 7.18 0 01.18-3.1A7.4 7.4 0 0184.67 32a5.11 5.11 0 011.9-.87c.4-.14.81-.17 1.25-.09a4.65 4.65 0 012.37 1.14c.34.26.6.52.75.78.18.24.25.45.21.63-.04.18-.2.27-.5.27-.75.02-1.5.2-2.29.54a6.6 6.6 0 00-3.45 3.4 4.9 4.9 0 00-.18 3.3l.24.68c.2.54.48 1.05.84 1.53a7.52 7.52 0 004.71 2.64 5.2 5.2 0 002.88-.33 6.44 6.44 0 002.37-1.59 7.34 7.34 0 001.5-2.49 5.99 5.99 0 00.06-3.9c-.1-.34-.22-.66-.36-.96-.6-1.1-1.34-2.2-2.22-3.3a59.64 59.64 0 00-2.73-3.3l-2.46-2.85a25.25 25.25 0 01-4.05-6.48c-.52-1.2-.89-2.49-1.1-3.87-.33-2.1-.28-4.1.14-6 .42-1.9 1.11-3.58 2.07-5.04a12.3 12.3 0 013.54-3.57 9.98 9.98 0 014.6-1.62zm23.1 41.28c.36.04.81-.34 1.35-1.14.54-.82 1.11-1.89 1.71-3.2.6-1.35 1.2-2.87 1.77-4.57.6-1.7 1.12-3.44 1.56-5.22.18-.46.4-.72.63-.78a.77.77 0 01.7.15c.2.16.34.4.44.72.1.3.1.6 0 .87l-.99 3.3c-.36 1.2-.76 2.41-1.2 3.63-.44 1.2-.92 2.36-1.44 3.48-.5 1.1-1.05 2.08-1.65 2.94a8.1 8.1 0 01-1.86 1.98c-.66.46-1.36.65-2.1.57a2.78 2.78 0 01-1.8-1.47 9.04 9.04 0 01-.84-2.85 19.1 19.1 0 01-.12-3.09 40.7 40.7 0 011.56-9.78c.04-.1.02-.13-.06-.09a.98.98 0 00-.15.12h.03c-.18.2-.45.57-.8 1.11a52.52 52.52 0 00-4.65 9.51c-.29.8-.46 1.5-.52 2.07v.6c.02.18.03.4.03.66.02.26.02.46 0 .6v.24a5.75 5.75 0 00.21 1.56c.08.28.1.51.06.7-.02.17-.18.26-.48.26-.42 0-.77-.1-1.05-.33a3.05 3.05 0 01-.69-.75 4.91 4.91 0 01-.6-1.53c-.18-1.2-.3-2.53-.36-3.99a88.92 88.92 0 01.27-9.57c.14-1.68.31-3.32.51-4.92s.43-3.13.7-4.59c.27-1.46.56-2.77.86-3.93.3-1.16.61-2.14.93-2.94.34-.82.68-1.39 1.02-1.7.18-.13.5-.24.96-.34a9.02 9.02 0 012.67-.27c.34.04.47.15.4.33a27.82 27.82 0 00-2.23 5.16c-.6 1.9-1.1 3.88-1.5 5.94-.4 2.04-.72 4.1-.96 6.18s-.42 4.05-.54 5.91c.48-1.08 1-2.15 1.56-3.2a26.67 26.67 0 011.77-2.89 12.9 12.9 0 011.74-2.07c.58-.54 1.1-.8 1.56-.78.72.02 1.38.25 1.98.7.6.43.97 1.14 1.11 2.12.04.22.05.5.03.84 0 .34-.04.68-.12 1.02l-.54 2.8c-.42 2.07-.77 3.93-1.05 5.57a13.69 13.69 0 00-.27 3.66c.04.2.1.37.15.51.08.12.18.18.3.18zm6.06-.93c-.16-.58-.26-1.34-.3-2.28-.04-.96 0-1.99.12-3.09.1-1.1.3-2.22.6-3.36.3-1.16.72-2.24 1.26-3.24.04-.68.16-1.3.36-1.89a4.38 4.38 0 012.37-2.55c.58-.26 1.25-.4 2.01-.42.64-.02 1.2.11 1.65.4.48.27.9.65 1.23 1.13.34.46.61 1.01.81 1.65.2.64.35 1.31.45 2.01.1.76.15 1.53.15 2.31.02.76-.02 1.52-.12 2.28.56-.44 1.08-.95 1.56-1.53a18.78 18.78 0 002.31-3.54c.3-.58.54-1.08.72-1.5v.03l.51-.96c.08-.12.2-.19.36-.2.16-.03.32 0 .48.08.18.06.34.15.48.27.14.12.24.25.3.4.02.05-.05.3-.2.71a20.77 20.77 0 01-1.74 3.63c-.43.74-.9 1.46-1.45 2.16a13.2 13.2 0 01-1.8 1.86 6.4 6.4 0 01-2.04 1.23c-.28.9-.6 1.83-.96 2.8-.36.95-.8 1.82-1.32 2.6a6.9 6.9 0 01-1.8 1.92c-.68.48-1.5.7-2.46.66a3.06 3.06 0 01-2.19-.99 6.33 6.33 0 01-1.35-2.58zm4.26-8.22c.4.64.87 1.13 1.41 1.47.54.34 1.08.57 1.62.7a32.73 32.73 0 00.66-6.25 5.95 5.95 0 00-.66-2.1 2.1 2.1 0 00-.39-.48c-.12-.1-.2-.14-.24-.12-.78.04-1.39.3-1.83.78a4.42 4.42 0 00-.96 1.65 5.43 5.43 0 011.98-1.26c.34-.12.61-.16.81-.12.22.04.28.2.18.45-.4.4-.84 1.1-1.32 2.07-.46.96-.88 2.03-1.26 3.21zm2.64 4.02a4.78 4.78 0 01-1.89-.72c-.54-.36-1-.77-1.38-1.23-.34 1.32-.6 2.6-.78 3.81a9.89 9.89 0 00-.03 2.97c.08.38.15.66.21.84.06.18.17.25.33.21.38-.08.74-.29 1.08-.63.36-.34.68-.78.96-1.32.3-.54.57-1.14.81-1.8.26-.68.5-1.39.7-2.13zM148.7 24.1c.32 0 .65.1.99.3a4.77 4.77 0 012.16 3.3c.04.42.07.88.09 1.38.02.48 0 .97-.03 1.47a143.32 143.32 0 015.34-4.05c.16 0 .33.04.5.12.19.08.35.18.49.3.16.12.28.25.36.4.1.13.14.26.12.38-.02.04-.15.17-.4.4a135.4 135.4 0 00-2.3 1.94l-1.65 1.41-2.94 2.5a26.77 26.77 0 01-1.14 3.92c-.46 1.26-1 2.4-1.62 3.42-.6 1-1.26 1.81-1.98 2.43-.72.62-1.47.95-2.25 1a2.5 2.5 0 01-.87-.19c-.3-.12-.6-.3-.87-.54a3.74 3.74 0 01-.75-.9 3.13 3.13 0 01-.42-1.26 1.8 1.8 0 01-.03-.6c.02-.28.07-.59.15-.93a4.92 4.92 0 011.2-2.13l2.25-1.98c.84-.72 1.7-1.44 2.58-2.16.2-.86.37-1.69.5-2.49a17.28 17.28 0 00.34-3.69c-.04-.4-.15-.62-.33-.66-.36.02-.76.2-1.2.54-.42.32-.85.75-1.3 1.3a25.7 25.7 0 00-1.34 1.82 27.09 27.09 0 00-2.16 4 8.68 8.68 0 00-.57 1.58 161.3 161.3 0 00-1.38 10.47 71.69 71.69 0 00-.21 4.2c0 1.22.08 2.13.24 2.73l-.03-.03.24.4c.14.17.26.34.36.5.12.18.09.38-.1.6-.1.12-.27.16-.53.12a1.5 1.5 0 01-.78-.36c-.3-.22-.6-.55-.9-.99-.3-.42-.55-.97-.75-1.65-.14-.6-.23-1.45-.27-2.55a58.4 58.4 0 010-3.75 124.3 124.3 0 01.6-9.24c.14-1.6.3-3.13.5-4.59.19-1.48.39-2.8.6-3.96.23-1.18.46-2.15.7-2.9.24-.77.47-1.22.69-1.36a10.96 10.96 0 013.57-.51c.34.02.48.1.42.24-.22.5-.46 1.17-.72 2.01-.24.84-.5 1.81-.75 2.91.4-.58.82-1.14 1.26-1.68.46-.56.92-1.05 1.38-1.47.48-.42.97-.76 1.47-1.02.5-.28.99-.43 1.47-.45zm-4.41 18.51c.34-.2.7-.7 1.08-1.53.38-.84.77-1.84 1.17-3a66.29 66.29 0 00-2.7 2.55 1.65 1.65 0 00-.48 1.41c.04.26.14.46.3.6.16.12.37.11.63-.03zm21.77-18.5c.32 0 .65.1 1 .3a4.77 4.77 0 012.16 3.3l.08 1.37c.02.48.01.97-.03 1.47a143.32 143.32 0 015.34-4.05c.16 0 .33.04.51.12.18.08.34.18.48.3.16.12.28.25.36.4.1.13.14.26.12.38-.02.04-.15.17-.39.4a135.4 135.4 0 00-2.3 1.94c-.5.44-1.06.91-1.66 1.41l-2.94 2.5a26.77 26.77 0 01-1.14 3.92c-.46 1.26-1 2.4-1.62 3.42-.6 1-1.26 1.81-1.98 2.43-.72.62-1.47.95-2.25 1a2.5 2.5 0 01-.87-.19c-.3-.12-.59-.3-.87-.54a3.74 3.74 0 01-.75-.9 3.13 3.13 0 01-.42-1.26 1.8 1.8 0 01-.03-.6c.02-.28.07-.59.15-.93a4.92 4.92 0 011.2-2.13l2.25-1.98c.84-.72 1.7-1.44 2.58-2.16.2-.86.37-1.69.51-2.49a17.28 17.28 0 00.33-3.69c-.04-.4-.15-.62-.33-.66-.36.02-.76.2-1.2.54-.42.32-.85.75-1.29 1.3a25.7 25.7 0 00-1.35 1.82 27.09 27.09 0 00-2.16 4 8.68 8.68 0 00-.57 1.58 161.3 161.3 0 00-1.38 10.47 71.69 71.69 0 00-.2 4.2c0 1.22.07 2.13.23 2.73l-.03-.03.24.4c.14.17.26.34.36.5.12.18.1.38-.09.6-.1.12-.28.16-.54.12a1.5 1.5 0 01-.78-.36c-.3-.22-.6-.55-.9-.99-.3-.42-.55-.97-.75-1.65-.14-.6-.23-1.45-.27-2.55a58.4 58.4 0 010-3.75 124.3 124.3 0 01.6-9.24c.14-1.6.31-3.13.51-4.59.18-1.48.38-2.8.6-3.96.22-1.18.45-2.15.7-2.9.23-.77.46-1.22.68-1.36a10.96 10.96 0 013.57-.51c.34.02.48.1.42.24-.22.5-.46 1.17-.72 2.01-.24.84-.49 1.81-.75 2.91.4-.58.82-1.14 1.26-1.68.46-.56.92-1.05 1.38-1.47.48-.42.97-.76 1.47-1.02.5-.28 1-.43 1.47-.45zm-4.4 18.5c.33-.2.7-.7 1.07-1.53.38-.84.77-1.84 1.17-3a66.29 66.29 0 00-2.7 2.55 1.65 1.65 0 00-.48 1.41c.04.26.14.46.3.6.16.12.37.11.63-.03zm16.94-18.2c.42 0 .67.1.75.32.08.22.09.47.03.75l-.6 2.37-.7 3-.65 3.27c-.2 1.12-.38 2.2-.54 3.21-.16 1-.28 1.91-.36 2.73a9.27 9.27 0 00-.03 1.95v.15c.18-.18.4-.52.69-1.02a70.93 70.93 0 003-6.72l.99-2.55.84-2.28c.24-.6.43-1.1.57-1.53.16-.44.26-.68.3-.72.1-.12.23-.15.39-.09.16.04.32.13.48.27.16.14.3.31.42.51a.9.9 0 01.18.48l-.24.78a91.5 91.5 0 01-.66 1.9c-.26.77-.58 1.66-.96 2.66a67.7 67.7 0 01-1.2 3.03 67.93 67.93 0 01-1.32 3c-.46.98-.92 1.86-1.38 2.64a9.67 9.67 0 01-1.38 1.83c-.44.48-.85.72-1.23.72-.24 0-.53-.05-.87-.15-.32-.1-.62-.39-.9-.87-.06-.2-.12-.45-.18-.75-.08-.3-.15-.64-.21-1.02-.1-.72-.16-1.56-.18-2.52-.02-.96 0-1.97.06-3.03a105.48 105.48 0 01.57-6.45c.14-1 .29-1.9.45-2.73.16-.84.32-1.52.48-2.04.08-.22.25-.4.5-.54.29-.16.6-.28.94-.36.34-.08.68-.13 1.02-.15.36-.04.67-.06.93-.06zm-.54-10c.12-.2.37-.36.75-.48.4-.12.8-.19 1.23-.2a5.7 5.7 0 011.17 0c.34.03.53.11.57.23.04.1 0 .32-.1.66a39.74 39.74 0 01-2.42 5.94c-.1.16-.3.3-.57.4-.26.1-.53.16-.81.2-.28.02-.53.01-.75-.03-.2-.06-.3-.15-.27-.27a41.88 41.88 0 01.33-3.06c.12-.7.25-1.36.39-1.98.14-.64.3-1.1.48-1.4zm16.08 27.51c.36.04.8-.33 1.32-1.1a21.2 21.2 0 001.71-3.13 53.5 53.5 0 001.77-4.47c.58-1.68 1.1-3.4 1.56-5.19.1-.42.26-.68.48-.78.24-.1.47-.1.7 0 .23.1.42.3.56.57.14.28.16.6.06.96v-.03c-.28 1-.6 2.1-.96 3.3-.36 1.2-.76 2.41-1.2 3.63-.44 1.2-.92 2.36-1.44 3.48-.5 1.1-1.05 2.08-1.65 2.94a8.1 8.1 0 01-1.86 1.98c-.66.46-1.36.65-2.1.57a2.8 2.8 0 01-1.8-1.44 8.58 8.58 0 01-.87-2.88c-.12-.94-.17-1.98-.15-3.12a40.7 40.7 0 01.84-6.8c.24-1.1.5-2.09.78-2.95.04-.06.03-.07-.03-.03l-.15.06c-.22.24-.5.64-.87 1.2a63.08 63.08 0 00-2.46 4.35c-.42.86-.82 1.72-1.2 2.58-.36.86-.68 1.68-.96 2.46a9.86 9.86 0 00-.48 2.01l-.06 1.08a21.13 21.13 0 00.1 1.98c.03.26.07.48.11.66.1.28.14.51.12.7-.02.2-.2.3-.54.3-.36 0-.68-.1-.96-.3-.26-.19-.48-.4-.66-.67a9.3 9.3 0 01-.69-1.53v-.06a28.01 28.01 0 01-.24-9.54 36.42 36.42 0 011.65-7.2 1 1 0 01.51-.57c.26-.16.56-.27.9-.33.36-.08.71-.13 1.05-.15.36-.04.67-.06.93-.06.42 0 .67.11.75.33.08.22.1.47.03.75-.22.98-.46 1.9-.72 2.76l-.6 2.16c.42-.8.86-1.56 1.32-2.28.46-.72.91-1.35 1.35-1.89.46-.54.9-.96 1.3-1.26.41-.32.8-.47 1.16-.45.72.02 1.38.25 1.98.7.6.43.97 1.14 1.11 2.12.04.24.05.52.03.84a5 5 0 01-.12 1.02h.03c-.1.52-.2 1.05-.33 1.6a46.5 46.5 0 00-.33 1.61l-.57 2.85-.42 2.5c-.12.75-.2 1.43-.27 2.03-.04.58-.03 1.06.03 1.44.04.2.1.37.15.51.08.12.18.18.3.18zm14.3-11.25a11.62 11.62 0 011.86-.36c.37-.04.7-.05.98-.03.3.02.44.07.42.15a508.34 508.34 0 00-.6 4.26 252.87 252.87 0 014.77-6.69 21.48 21.48 0 00.48-.63l.1-.15c.27-.32.55-.49.83-.5.28-.03.51.05.7.23.2.18.32.43.38.75s.02.64-.12.96l-.96 1.23a319.99 319.99 0 00-4.14 5.7c-.86 1.24-1.74 2.55-2.64 3.93-.2 1.58-.4 3.17-.63 4.77a74.02 74.02 0 01-1.74 8.82c-.36 1.3-.78 2.43-1.26 3.4a7.86 7.86 0 01-1.59 2.33c-.6.58-1.27.88-2 .9-.7.04-1.28-.12-1.72-.48a3.15 3.15 0 01-.9-1.77c-.16-.88-.1-1.93.18-3.15.26-1.2.67-2.5 1.23-3.9a55.81 55.81 0 012.07-4.35c.82-1.52 1.68-3.03 2.58-4.53.16-1.06.3-2.07.42-3.03a118.19 118.19 0 00.42-3.15c-.3.58-.6 1.22-.93 1.92l-.93 2.04a77.74 77.74 0 01-1.62 3.36c-.24.46-.46.85-.66 1.17-.2.32-.37.54-.5.66-.27.18-.53.2-.79.03a2.66 2.66 0 01-.75-.75 10.06 10.06 0 01-1.1-2.34v.1a8.41 8.41 0 01-.33-1.5 20.98 20.98 0 01.12-5.94c.15-1.15.42-2.28.8-3.4.36-1.14.85-2.17 1.47-3.09a8.46 8.46 0 012.34-2.28c.94-.6 2.06-.94 3.36-1.02.82-.04 1.46.2 1.92.72.48.5.8 1.06.96 1.68.08.62.04 1.04-.12 1.26-.14.2-.33.3-.57.3-.22 0-.44-.05-.66-.15-.2-.12-.3-.2-.3-.24l-.33-.84c-.08-.3-.26-.48-.54-.54-.52.08-1.02.37-1.5.87-.48.48-.93 1.1-1.35 1.86-.42.74-.8 1.6-1.17 2.55-.34.96-.63 1.95-.87 2.97a32.54 32.54 0 00-.5 3.06c-.1 1.02-.13 1.96-.07 2.82a23.97 23.97 0 011.77-3.9l1.14-2.13 1.11-1.89.9-1.38c.24-.38.4-.59.48-.63h.03l.06-.06zm-6.04 27.12c.3-.14.6-.5.9-1.1.3-.6.6-1.38.87-2.32.28-.92.55-1.98.81-3.18.26-1.18.51-2.42.75-3.72-1 1.84-1.83 3.6-2.49 5.25-.64 1.66-.99 3.1-1.05 4.32l.03.48c.04.18.1.27.18.27z" fill="#FF489B"/></svg>