<svg width="46" height="44" viewBox="0 0 23 22" xmlns="http://www.w3.org/2000/svg">
<path d="M0 9.78833C0.0312395 9.39836 0.062479 9.00406 0.0937184 8.61409C0.214214 6.98923 0.43289 5.37736 0.830078 3.79582C1.25404 2.10596 2.39205 1.1397 4.11022 0.758402C5.64542 0.416096 7.20293 0.182115 8.77829 0.112788C10.1216 0.052126 11.4649 0.0174622 12.8082 0.0477931C14.6826 0.0867899 16.5435 0.33377 18.3867 0.706406C20.3726 1.10937 21.5597 2.23595 21.9524 4.17712C22.2425 5.61134 22.5014 7.04989 22.5683 8.51444C22.6263 9.81433 22.6709 11.1186 22.6352 12.4228C22.5861 14.2946 22.3228 16.1491 21.9123 17.982C21.5062 19.7845 20.3726 20.8461 18.5384 21.2404C16.9541 21.5827 15.3564 21.8167 13.7364 21.8903C12.5717 21.9423 11.4069 21.9813 10.2421 21.9553C8.14012 21.9077 6.05153 21.6867 4.00312 21.1971C2.88742 20.9284 1.92346 20.4258 1.33437 19.4075C0.999663 18.8269 0.816689 18.203 0.682806 17.5574C0.312395 15.8372 0.102644 14.104 0.040165 12.3535C0.0357023 12.2928 0.0133883 12.2278 0 12.1671C0 11.3742 0 10.5813 0 9.78833ZM12.1254 20.4301C12.2548 20.4301 12.3485 20.4345 12.4467 20.4301C13.1295 20.3911 13.8123 20.3565 14.4907 20.3001C15.7492 20.2005 16.9943 20.0012 18.226 19.7369C19.3596 19.4942 20.0825 18.8703 20.3414 17.7523C20.8189 15.6855 21.0688 13.5927 21.0866 11.4825C21.0956 10.4253 21.0376 9.36803 20.9706 8.31079C20.8858 6.9459 20.6716 5.59401 20.3414 4.25945C20.1539 3.49684 19.8192 2.82957 19.007 2.51326C18.7615 2.41793 18.5072 2.32261 18.2528 2.26195C16.1776 1.78099 14.0667 1.56867 11.9379 1.54267C10.8089 1.52967 9.67978 1.586 8.55515 1.65533C7.1583 1.73766 5.78377 1.95864 4.41816 2.25328C3.24891 2.50893 2.56164 3.18487 2.30726 4.32011C1.919 6.04897 1.68693 7.79516 1.61106 9.55868C1.54859 11.0362 1.57536 12.5094 1.72263 13.9827C1.85205 15.2739 2.03057 16.5564 2.35635 17.813C2.54379 18.528 2.8785 19.1519 3.63271 19.4552C3.89155 19.5592 4.15485 19.6632 4.42708 19.7282C6.35054 20.1615 8.30078 20.3695 10.2733 20.4345C10.3581 20.4388 10.4429 20.4345 10.5411 20.4345C10.5411 19.5505 10.5277 18.6969 10.5456 17.8477C10.55 17.5487 10.5277 17.3147 10.1707 17.2454C10.0993 17.2324 10.0413 17.1804 9.97432 17.1414C8.72474 16.4611 7.46624 15.7938 6.22558 15.1006C5.4446 14.6586 5.01617 13.9653 5.00724 13.0771C4.98939 11.6948 4.99385 10.3083 5.00724 8.92607C5.01617 8.01614 5.44906 7.31853 6.25236 6.8679C7.51979 6.15729 8.79615 5.46835 10.0814 4.78807C10.907 4.35044 11.7684 4.35044 12.5984 4.78374C13.8659 5.45102 15.1154 6.13996 16.3695 6.82891C17.2353 7.3012 17.6771 8.03347 17.6905 8.9824C17.7128 10.317 17.7083 11.6472 17.6905 12.9817C17.6771 13.9393 17.2353 14.6759 16.3606 15.1526C15.7715 15.4732 15.1869 15.7982 14.5933 16.1145C13.8079 16.5348 13.0135 16.9421 12.228 17.3667C12.1745 17.3927 12.1343 17.488 12.1343 17.553C12.1254 17.969 12.1298 18.3893 12.1298 18.8053C12.1254 19.3382 12.1254 19.8712 12.1254 20.4301ZM12.1254 15.6855C12.1923 15.6552 12.228 15.6465 12.2593 15.6292C13.4017 15.0096 14.5442 14.3986 15.6778 13.7703C15.9634 13.61 16.1106 13.337 16.1106 13.0121C16.1151 11.8248 16.1106 10.6333 16.1106 9.44603C16.1106 9.38536 16.1017 9.3247 16.0928 9.25104C16.0437 9.26837 16.0125 9.27271 15.9902 9.28571C14.7406 9.99631 13.491 10.7069 12.2503 11.4262C12.1834 11.4652 12.1343 11.5865 12.1343 11.6688C12.1254 12.3405 12.1298 13.0077 12.1298 13.6793C12.1254 14.3336 12.1254 14.9879 12.1254 15.6855ZM10.5322 15.6682C10.5411 15.6075 10.55 15.5685 10.55 15.5252C10.55 14.2296 10.55 12.9341 10.5545 11.6385C10.5545 11.5042 10.4875 11.4479 10.3894 11.3915C9.17994 10.7026 7.97053 10.0136 6.76112 9.3247C6.70756 9.29437 6.64955 9.27704 6.5826 9.24671C6.57368 9.30737 6.56922 9.3377 6.56922 9.3637C6.56922 10.5856 6.56029 11.8118 6.57368 13.0337C6.57814 13.3587 6.74326 13.6274 7.04673 13.792C8.14458 14.39 9.24689 14.9879 10.3447 15.5859C10.3983 15.6162 10.4563 15.6335 10.5322 15.6682ZM15.1779 7.95548C15.1288 7.92082 15.0931 7.89482 15.0574 7.87749C13.9774 7.2882 12.8974 6.69458 11.8085 6.1183C11.4917 5.94931 11.148 5.96231 10.8267 6.13563C10.2198 6.4606 9.62176 6.78558 9.01928 7.11488C8.51499 7.38786 8.0107 7.66517 7.49301 7.94682C7.55103 7.99015 7.59119 8.02481 7.63582 8.05081C8.82739 8.73108 10.0189 9.40703 11.206 10.0916C11.3265 10.161 11.4069 10.1263 11.5095 10.07C12.6743 9.4027 13.8391 8.73975 15.0039 8.07681C15.0574 8.03781 15.111 7.99881 15.1779 7.95548Z" fill="#FA481C"/>
</svg>
