<svg width="116" height="32" viewBox="0 0 116 32" fill="none" xmlns="http://www.w3.org/2000/svg">
<path fill-rule="evenodd" clip-rule="evenodd" d="M18.3048 24.2325H13.3453C5.6093 24.2325 11.2295 7.73459 17.7425 7.73459H25.5782C26.8342 7.73459 29.0493 7.96659 30.1406 4.84659L31.8267 0H21.0818C15.2629 0 10.7335 2.05789 7.46059 5.51059C1.80694 11.4193 -0.110229 20.6475 1.24506 25.0621C2.53448 29.1454 6.03895 31.8339 11.5269 31.9002L15.7919 31.9337H21.0488L22.3382 28.0499C23.2968 25.2946 21.1477 24.2325 18.3048 24.2325ZM78.6738 17.3944L80.294 12.1162H63.0032C60.127 12.1162 58.8375 12.9129 58.3415 14.5727L56.7213 19.8508H74.0126C76.8888 19.8508 78.1782 19.0541 78.6738 17.3944ZM54.143 26.6889L52.5227 31.9666H69.8135C72.6568 31.9666 73.9792 31.1703 74.4752 29.5106L76.0954 24.2325H58.8041C55.9613 24.2325 54.6719 25.0292 54.143 26.6889ZM82.7077 5.31106L84.3274 0.0334114H67.0366C64.1604 0.0334114 62.8709 0.829644 62.3749 2.48941L60.7547 7.76753H78.046C80.8893 7.76753 82.1782 6.97082 82.7077 5.31106ZM56.5891 6.37365C55.862 1.46071 53.2502 0.0334114 46.9025 0.0334114H35.3312L28.5867 19.8508H32.8517C35.3971 19.8508 36.6865 19.8838 38.0422 16.2325L40.8521 7.73459H45.15C48.8201 7.73459 47.9933 12.3487 46.142 16.8296C44.4888 20.7802 41.6126 24.2654 38.1411 24.2654H30.9669C28.0907 24.2654 26.7684 25.0621 26.2394 26.7219L24.454 32H29.7105L34.8681 31.9666C39.4305 31.9336 43.1665 31.6019 47.5307 27.6513C52.1589 23.4358 57.5152 12.6141 56.5891 6.37365ZM114.71 0H104.693L95.2705 10.0579C94.1797 11.2198 93.0554 12.3816 91.9646 13.7426H91.8653L96.5599 0H88.3938L77.3848 31.9666H85.5505L89.055 21.9087L92.6917 18.8216L95.5684 27.9172C96.4606 30.7388 97.3867 31.9666 99.3703 31.9666H105.619L99.2051 14.1078L114.71 0Z" fill="#00B33C"/>
</svg>
