<svg width="64" height="64" viewBox="0 0 64 64" fill="none" xmlns="http://www.w3.org/2000/svg">
<g fill="#5b6638">
<path d="M19.2211 33.3103C19.0314 33.0886 18.6979 33.0625 18.4761 33.2522C18.4552 33.2701 18.4358 33.2895 18.418 33.3103C18.0164 33.7806 14.5078 37.9391 14.5078 40.1795C14.5078 42.5609 16.4382 44.4913 18.8196 44.4913C21.2009 44.4913 23.1313 42.5609 23.1313 40.1795C23.1313 37.955 19.6227 33.7965 19.2211 33.3103ZM18.8196 43.4186C17.0231 43.4157 15.5675 41.9601 15.5646 40.1637C15.5646 38.7846 17.6412 35.9365 18.8196 34.4834C19.9979 35.9365 22.0745 38.7846 22.0745 40.1637C22.0716 41.9601 20.616 43.4157 18.8196 43.4186Z"/>
<path d="M45.979 60.285H38.3331C38.0413 60.285 37.8047 60.5216 37.8047 60.8134C37.8047 61.1052 38.0413 61.3418 38.3331 61.3418H45.979C46.2708 61.3418 46.5074 61.1052 46.5074 60.8134C46.5074 60.5216 46.2708 60.285 45.979 60.285Z"/>
<path d="M61.9937 38.2878L60.1655 35.1174C59.7446 34.3841 58.966 33.9294 58.1206 33.9232V29.9391C58.1206 29.6473 57.884 29.4107 57.5922 29.4107H56.1496L55.1562 11.9735C55.1558 11.3228 54.628 10.7956 53.9771 10.796C53.3269 10.7964 52.8 11.3233 52.7996 11.9735L51.8062 29.4107H50.3689C50.0771 29.4107 49.8405 29.6473 49.8405 29.9391V33.9232C48.9935 33.9287 48.2129 34.3832 47.7903 35.1174L45.9621 38.2878C45.7548 38.6498 45.6456 39.0595 45.645 39.4767V42.3459C43.8062 41.1095 42.5856 39.4503 42.5909 36.2323C42.5939 36.2131 42.5939 36.1935 42.5909 36.1742C42.5935 36.1602 42.5935 36.146 42.5909 36.1319C42.5797 36.0724 42.5581 36.0152 42.5275 35.9629C42.4962 35.9175 42.4588 35.8766 42.4165 35.8413C42.3719 35.8106 42.3217 35.789 42.2686 35.7779H42.2263C42.172 35.77 42.1168 35.77 42.0625 35.7779C42.0171 35.7844 41.9727 35.7969 41.9304 35.8149L39.6002 36.8717C38.3786 37.3939 37.1893 37.9885 36.0387 38.6524C36.0387 38.3565 36.0387 38.0659 36.0387 37.77C36.0387 25.1888 32.8683 17.6327 26.3902 14.7529C26.4088 14.7021 26.4195 14.6486 26.4219 14.5944V5.28399C26.4219 2.36578 24.0561 0 21.1379 0H16.5884C13.6701 0 11.3044 2.36578 11.3044 5.28399V14.5416C11.3067 14.5957 11.3174 14.6492 11.3361 14.7001L11.1353 14.7846C4.79449 17.7067 1.6875 25.2099 1.6875 37.7171C1.6875 46.2402 3.14588 54.478 5.79316 60.9192C6.57691 62.802 8.42486 64.0207 10.4642 63.9997H27.1881C29.1744 64.0131 30.9814 62.8526 31.7957 61.0407C31.8855 61.1041 31.9701 61.1728 32.0599 61.2309V63.4608C32.0599 63.7526 32.2965 63.9892 32.5883 63.9892H58.7441C60.7127 63.9863 62.3079 62.3911 62.3108 60.4225V39.4767C62.3102 39.0595 62.201 38.6498 61.9937 38.2878ZM53.8564 12.0211C53.8564 11.889 54.0942 11.889 54.1047 12.0211L55.0928 29.4107H52.863L53.8564 12.0211ZM50.8973 30.4675H57.0638V33.9232H50.8973V30.4675ZM39.9172 37.7911C39.0995 39.2934 38.9095 41.0581 39.3888 42.7C39.7587 44.0051 41.5024 48.2587 48.3716 48.2587C48.6634 48.2587 48.9 48.0221 48.9 47.7303C48.9 47.4385 48.6634 47.2019 48.3716 47.2019C44.2554 47.2019 41.2858 45.4106 40.4456 42.4093C39.8624 40.6148 40.2971 38.645 41.5817 37.2627C41.9832 41.9549 45.0955 43.445 48.3716 45.0038C49.0691 45.3367 49.7824 45.6748 50.4852 46.0606C51.4584 46.6454 52.109 47.6447 52.25 48.7713C52.4071 49.5547 52.3223 50.3673 52.007 51.1015H31.0876C30.7917 48.9879 31.8802 48.1477 33.0744 47.5665C33.8747 48.564 35.0258 49.218 36.2924 49.3948C36.5842 49.4385 36.8563 49.2374 36.9 48.9456C36.9438 48.6538 36.7427 48.3817 36.4509 48.338C34.7669 48.0932 33.4111 46.8301 33.048 45.1676C32.3928 41.4899 35.9014 39.5718 39.9172 37.7911ZM12.3453 5.28399C12.3453 2.94939 14.2379 1.0568 16.5725 1.0568H21.0322C23.3668 1.0568 25.2594 2.94939 25.2594 5.28399V14.0132H12.3453V5.28399ZM30.8869 60.5123C30.2618 61.9976 28.7994 62.9564 27.1881 62.9376H10.4484C8.83608 62.9593 7.37242 61.9995 6.74957 60.5123C4.15513 54.1715 2.72845 46.0764 2.72845 37.6907C2.72845 25.6379 5.61879 18.4517 11.558 15.7146C12.1465 15.4582 12.7522 15.2427 13.3704 15.07H24.266C31.5262 17.1835 34.908 24.4015 34.908 37.7171C34.908 38.2491 34.908 38.7775 34.908 39.3023C32.9529 40.6867 31.5156 42.5996 31.9912 45.3314C32.0837 45.7969 32.2458 46.2458 32.472 46.6629C31.336 47.2283 29.6821 48.3802 30.0044 51.0909H29.2382C28.9464 51.0909 28.7098 51.3275 28.7098 51.6193V55.26C28.7141 57.2039 29.5324 59.0569 30.9661 60.3696C30.9294 60.4107 30.9023 60.4594 30.8869 60.5123ZM50.1312 60.47C49.963 60.5621 49.8578 60.7381 49.8564 60.9297V62.9376H33.1167V61.3524H35.0189C35.3107 61.3524 35.5473 61.1159 35.5473 60.8241C35.5473 60.5322 35.3107 60.2957 35.0189 60.2957H32.5936C30.8446 59.2233 29.7751 57.3221 29.7666 55.2706V52.1583H53.2117V53.6907H43.8326C43.5408 53.6907 43.3042 53.9272 43.3042 54.2191C43.3042 54.5109 43.5408 54.7475 43.8326 54.7475H53.2117V55.2759C53.1975 57.4308 52.0191 59.4097 50.1312 60.4489V60.47ZM61.254 60.4066C61.254 61.7927 60.1302 62.9165 58.7441 62.9165H50.9132V61.2151C52.9912 59.9488 54.2619 57.6934 54.2685 55.26V51.6193C54.2685 51.3275 54.0319 51.0909 53.7401 51.0909H53.1642C53.4099 50.2792 53.4588 49.4207 53.3068 48.5863C53.1222 47.1361 52.275 45.8537 51.0136 45.1147C50.2897 44.729 49.5605 44.3855 48.8577 44.0579C48.1549 43.7303 47.3835 43.3552 46.7441 43.0011V39.4767C46.7449 39.2446 46.8069 39.0167 46.9238 38.8162L48.7467 35.6458C48.9865 35.2371 49.4248 34.9857 49.8987 34.9853H58.147C58.603 35.0001 59.0198 35.2473 59.2513 35.6405V35.6617L61.0796 38.8321C61.1949 39.033 61.255 39.2609 61.254 39.4926V60.4066Z"/>
<path d="M58.6807 45.2257C58.3889 45.2257 58.1523 45.4623 58.1523 45.7541V54.2085C58.1523 54.5003 58.3889 54.7369 58.6807 54.7369C58.9726 54.7369 59.2091 54.5003 59.2091 54.2085V45.7541C59.2091 45.4623 58.9726 45.2257 58.6807 45.2257Z"/>
<path d="M58.6807 40.5282C58.3889 40.5282 58.1523 40.7648 58.1523 41.0566V42.7792C58.1523 43.071 58.3889 43.3076 58.6807 43.3076C58.9726 43.3076 59.2091 43.071 59.2091 42.7792V41.0566C59.2091 40.7648 58.9726 40.5282 58.6807 40.5282Z"/>
<path d="M24.6237 27.6141H12.9989C11.6877 27.6141 10.624 28.6754 10.6211 29.9866V47.7409C10.624 49.052 11.6878 50.1134 12.9989 50.1134H24.6237C25.9328 50.1105 26.9933 49.05 26.9962 47.7409V29.9866C26.9933 28.6775 25.9328 27.617 24.6237 27.6141ZM25.9394 47.7409C25.9394 48.4676 25.3504 49.0566 24.6237 49.0566H12.9989C12.2722 49.0595 11.6808 48.4728 11.6779 47.7462C11.6779 47.7444 11.6779 47.7426 11.6779 47.7409V29.9866C11.6779 29.26 12.2669 28.6709 12.9936 28.6709C12.9953 28.6709 12.9972 28.6709 12.9989 28.6709H24.6237C25.3504 28.6709 25.9394 29.26 25.9394 29.9866V47.7409Z"/>
<path d="M8.10654 22.8268C7.84961 22.6947 7.53415 22.7937 7.39849 23.0488C6.22016 25.2998 5.43284 28.2165 5.05768 31.7251C5.0269 32.0153 5.2372 32.2755 5.52743 32.3063C5.52756 32.3063 5.52782 32.3063 5.52795 32.3063H5.57023C5.84077 32.3079 6.0689 32.105 6.09862 31.8361C6.45794 28.4649 7.20298 25.6696 8.32319 23.5402C8.45965 23.2832 8.36282 22.9645 8.10654 22.8268Z"/>
<path d="M11.6413 19.027C11.6339 19.0163 11.6263 19.006 11.6181 18.9959C11.4467 18.7597 11.1164 18.707 10.8802 18.8784C10.8795 18.8788 10.879 18.8793 10.8783 18.8797C10.1792 19.3961 9.54424 19.9938 8.98665 20.6604C8.79669 20.8819 8.82231 21.2155 9.04384 21.4054C9.04596 21.4072 9.04794 21.409 9.05005 21.4107C9.14516 21.4895 9.26471 21.5325 9.38823 21.5323C9.5445 21.5338 9.69351 21.4661 9.7951 21.3473C10.2995 20.7514 10.8742 20.2192 11.5071 19.7621C11.7471 19.5962 11.8072 19.267 11.6413 19.027Z"/>
<path d="M23.2393 6.18225C22.9475 6.18225 22.7109 6.41884 22.7109 6.71065V10.5838C22.7109 10.8756 22.9475 11.1122 23.2393 11.1122C23.5311 11.1122 23.7677 10.8756 23.7677 10.5838V6.71065C23.7677 6.41884 23.5311 6.18225 23.2393 6.18225Z"/>
</g>
</svg>
