<svg width="64" height="64" viewBox="0 0 64 64" fill="none" xmlns="http://www.w3.org/2000/svg">
<g clip-path="url(#clip0_4099_39103)">
<path d="M48.32 29.9916C48.1087 29.7448 47.7373 29.7162 47.4905 29.9275C47.4676 29.9472 47.4461 29.9687 47.4264 29.9916L44.6437 32.7743C44.4156 33.0037 44.4156 33.3744 44.6437 33.6038C44.7567 33.7097 44.9067 33.7668 45.0614 33.7626C45.2178 33.7635 45.3681 33.7022 45.4791 33.592L48.2559 30.8211C48.5026 30.6098 48.5314 30.2384 48.32 29.9916Z" fill="#4C1D95"/>
<path d="M31.163 31.0682C30.9336 30.8401 30.563 30.8401 30.3335 31.0682L28.0568 33.3214C27.8262 33.5502 27.8246 33.9226 28.0534 34.1534C28.0546 34.1546 28.0556 34.1557 28.0568 34.1568C28.1624 34.2741 28.3108 34.3441 28.4686 34.3509C28.625 34.3518 28.7753 34.2905 28.8863 34.1803L31.163 31.8977C31.3912 31.6682 31.3912 31.2976 31.163 31.0682Z" fill="#4C1D95"/>
<path d="M33.4549 28.762C33.2254 28.5339 32.8548 28.5339 32.6254 28.762L31.8547 29.5327C31.6266 29.7621 31.6266 30.1328 31.8547 30.3622C31.9657 30.4724 32.116 30.5337 32.2724 30.5328C32.4267 30.5322 32.5746 30.4709 32.6842 30.3622L33.4549 29.5915C33.683 29.3621 33.683 28.9915 33.4549 28.762Z" fill="#4C1D95"/>
<path d="M30.2303 42.8871C30.0101 42.6986 29.6852 42.6986 29.4649 42.8871L28.2883 44.0637C28.0602 44.2932 28.0602 44.6638 28.2883 44.8932C28.5177 45.1214 28.8883 45.1214 29.1178 44.8932L30.2944 43.7166C30.5057 43.4699 30.477 43.0985 30.2303 42.8871Z" fill="#4C1D95"/>
<path d="M44.1272 28.9914C43.9071 28.8027 43.5822 28.8029 43.3619 28.9914L31.8547 40.4986C31.6266 40.7281 31.6266 41.0987 31.8547 41.3281C31.9657 41.4383 32.116 41.4996 32.2724 41.4987C32.4267 41.4981 32.5746 41.4368 32.6842 41.3281L44.1914 29.8209C44.4027 29.5742 44.374 29.2028 44.1272 28.9914Z" fill="#4C1D95"/>
<path d="M61.5327 56.4122H48.0017C58.9153 51.0758 63.4364 37.9025 58.0999 26.9891C52.7635 16.0755 39.5902 11.5544 28.6768 16.8909C26.1493 18.1267 23.8823 19.8361 21.9988 21.9261V19.82C21.9715 19.1708 21.423 18.6667 20.7738 18.6939C20.4966 18.7055 20.2324 18.8148 20.028 19.0023L14.5568 24.4735C14.1163 24.9056 13.8701 25.4979 13.8744 26.1149V34.3511H13.8391C13.5142 34.3511 13.2508 34.6145 13.2508 34.9394V38.328C13.248 38.3554 13.248 38.383 13.2508 38.4104C12.5235 38.8642 12.0793 39.6592 12.0742 40.5165V45.0582H10.6034V42.0461C10.6034 41.7212 10.34 41.4578 10.0151 41.4578H9.31504V38.2984C9.31504 37.9735 9.05163 37.7101 8.72674 37.7101H6.83241V16.8254H7.87958C8.20447 16.8254 8.46788 16.562 8.46788 16.2371C8.46788 15.9122 8.20447 15.6488 7.87958 15.6488H6.83241V14.0898H9.18561C9.5105 14.0898 9.77391 13.8264 9.77391 13.5015C9.77391 13.1766 9.5105 12.9132 9.18561 12.9132H6.83241V11.3542H9.18561C9.5105 11.3542 9.77391 11.0908 9.77391 10.7659C9.77391 10.441 9.5105 10.1776 9.18561 10.1776H6.83241V8.61862H9.18561C9.5105 8.61862 9.77391 8.35521 9.77391 8.03032C9.77391 7.70543 9.5105 7.44201 9.18561 7.44201H6.83241V5.88302H9.18561C9.5105 5.88302 9.77391 5.6196 9.77391 5.29471C9.77391 4.96982 9.5105 4.70641 9.18561 4.70641H6.83241V3.17095H7.87958C8.20447 3.17095 8.46788 2.90753 8.46788 2.58264C8.46788 2.25775 8.20447 1.99434 7.87958 1.99434H6.83241V0.588302C6.83241 0.263412 6.56899 0 6.2441 0C5.91921 0 5.6558 0.263412 5.6558 0.588302V1.99434H4.58509C4.2602 1.99434 3.99679 2.25775 3.99679 2.58264C3.99679 2.90753 4.2602 3.17095 4.58509 3.17095H5.6558V4.72994H3.3026C2.97771 4.72994 2.71429 4.99336 2.71429 5.31825C2.71429 5.64314 2.97771 5.90655 3.3026 5.90655H5.6558V7.46555H3.3026C2.97771 7.46555 2.71429 7.72896 2.71429 8.05385C2.71429 8.37874 2.97771 8.64215 3.3026 8.64215H5.6558V10.2011H3.3026C2.97771 10.2011 2.71429 10.4646 2.71429 10.7895C2.71429 11.1143 2.97771 11.3778 3.3026 11.3778H5.6558V12.9368H3.3026C2.97771 12.9368 2.71429 13.2002 2.71429 13.5251C2.71429 13.8499 2.97771 14.1134 3.3026 14.1134H5.6558V15.6724H4.58509C4.2602 15.6724 3.99679 15.9358 3.99679 16.2607C3.99679 16.5855 4.2602 16.849 4.58509 16.849H5.6558V37.7337H3.76147C3.43658 37.7337 3.17317 37.9971 3.17317 38.322V41.4811H2.46721C2.14232 41.4811 1.87891 41.7446 1.87891 42.0694V63.4307C1.89155 63.7463 2.15129 63.9957 2.46721 63.9954H21.2517C21.3595 64.0015 21.4674 64.0015 21.5752 63.9954C21.6105 63.9987 21.6458 63.9987 21.6811 63.9954H55.5732C59.1882 63.9922 62.1177 61.0626 62.121 57.4476V57.0005C62.121 56.6756 61.8577 56.4122 61.5327 56.4122ZM21.9988 23.7615C29.1205 14.738 42.2087 13.1962 51.2323 20.3177C60.2558 27.4394 61.7976 40.5277 54.676 49.5512C52.1509 52.7506 48.7418 55.1384 44.872 56.418H31.794C28.7778 55.4111 26.0313 53.729 23.7637 51.4998V46.8816C29.4241 54.9285 40.5359 56.8632 48.5828 51.2028C56.6298 45.5425 58.5644 34.4306 52.9041 26.3837C47.2437 18.3368 36.1319 16.4021 28.0849 22.0625C25.4093 23.9446 23.3037 26.527 21.9988 29.5267V23.7615ZM28.6996 56.4063H23.752V53.106C25.2448 54.4244 26.9091 55.5345 28.6996 56.4063ZM15.051 26.1147C15.0508 25.8183 15.1694 25.5345 15.3804 25.3264L20.8222 19.8199V34.3509H15.051V26.1147ZM14.4275 35.5275H21.4107V38.0337C21.3518 38.0305 21.293 38.0305 21.2342 38.0337H14.604C14.5452 38.0337 14.4864 38.0337 14.4275 38.0337V35.5275ZM4.34977 38.8867H8.13843V41.4576H4.34977V38.8867ZM6.0382 47.5583V62.8188H3.05551V42.6342H9.42682V45.058H8.5326C7.15406 45.0612 6.0382 46.1798 6.0382 47.5583ZM16.4747 62.8012H7.2148V57.9359L10.2916 55.7298C10.5556 55.5424 10.6187 55.1771 10.4328 54.9121C10.2443 54.6475 9.87687 54.586 9.61228 54.7745C9.61125 54.7753 9.61022 54.776 9.60919 54.7768L7.2148 56.4887V54.8474L10.2916 52.6412C10.5556 52.4538 10.6187 52.0885 10.4328 51.8235C10.2443 51.5589 9.87687 51.4974 9.61228 51.686C9.61125 51.6867 9.61022 51.6874 9.60919 51.6882L7.2148 53.4001V47.5171C7.21157 46.7894 7.79884 46.1967 8.52671 46.1934C8.52863 46.1934 8.53068 46.1934 8.5326 46.1934L15.151 46.217C15.8821 46.217 16.4747 46.8095 16.4747 47.5406V62.8012ZM22.5871 51.747V61.4952C22.5839 62.2239 21.9922 62.813 21.2634 62.813H17.6807V47.5583C17.6807 46.1774 16.5613 45.058 15.1804 45.058H13.2802L13.2508 40.5163C13.2508 39.7852 13.8433 39.1926 14.5745 39.1926H21.2223C21.9529 39.1699 22.5637 39.7437 22.5865 40.4744C22.5871 40.4943 22.5873 40.5141 22.5871 40.534V51.747ZM22.5871 38.4514C22.5899 38.424 22.5899 38.3964 22.5871 38.369V34.9392C22.5871 34.6143 22.3237 34.3509 21.9988 34.3509V33.4685L22.1577 32.739C24.3113 23.8031 33.301 18.305 42.2368 20.4586C51.1727 22.6123 56.6708 31.6019 54.5172 40.5378C52.3636 49.4737 43.3739 54.9718 34.438 52.8181C29.8944 51.7232 26.0206 48.7681 23.7637 44.6756V40.5575C23.762 39.6993 23.3171 38.9029 22.5871 38.4514ZM55.5732 62.813H23.3696C23.619 62.4208 23.7517 61.9658 23.752 61.501V57.583H60.9385C60.862 60.4918 58.4831 62.8107 55.5732 62.813Z" fill="#4C1D95"/>
<path d="M56.5657 59.0184H54.4125C54.0876 59.0184 53.8242 59.2818 53.8242 59.6067C53.8242 59.9316 54.0876 60.195 54.4125 60.195H56.5657C56.8906 60.195 57.154 59.9316 57.154 59.6067C57.154 59.2818 56.8906 59.0184 56.5657 59.0184Z" fill="#4C1D95"/>
<path d="M51.3795 59.0184H41.6078C41.2829 59.0184 41.0195 59.2818 41.0195 59.6067C41.0195 59.9316 41.2829 60.195 41.6078 60.195H51.3795C51.7044 60.195 51.9678 59.9316 51.9678 59.6067C51.9678 59.2818 51.7046 59.0184 51.3795 59.0184Z" fill="#4C1D95"/>
<path d="M16.6625 26.35C16.3376 26.35 16.0742 26.6134 16.0742 26.9383V31.4564C16.0742 31.7813 16.3376 32.0447 16.6625 32.0447C16.9874 32.0447 17.2508 31.7813 17.2508 31.4564V26.9383C17.2508 26.6134 16.9874 26.35 16.6625 26.35Z" fill="#4C1D95"/>
</g>
<defs>
<clipPath id="clip0_4099_39103">
<rect width="64" height="64" fill="white"/>
</clipPath>
</defs>
</svg>
